<svg width="22" height="22" viewBox="0 0 22 22" fill="none" xmlns="http://www.w3.org/2000/svg">
<path d="M21.4919 17.2439C21.4908 17.2427 21.4896 17.2414 21.4883 17.2401C21.46 17.2114 21.4083 17.1674 21.3236 17.1084C21.1546 16.9905 20.8978 16.8429 20.5423 16.6653L20.5282 16.6582L20.5145 16.6503C20.3235 16.5393 20.0472 16.3861 19.6836 16.1885C19.3175 15.9898 18.9845 15.8062 18.6853 15.6381C18.6852 15.6381 18.6852 15.6381 18.6852 15.6381L18.9301 15.2021C18.6328 15.0355 18.3543 14.8741 18.094 14.718L21.4919 17.2439ZM21.4919 17.2439C21.4924 17.2466 21.493 17.2499 21.4935 17.2538C21.4971 17.2788 21.5001 17.3177 21.5 17.3738V17.375C21.5 17.6022 21.4571 17.9277 21.3564 18.364L21.3563 18.3644C21.2553 18.8042 21.1547 19.126 21.0582 19.3444L21.0581 19.3443L21.0544 19.3531C20.9856 19.517 20.8327 19.7259 20.5469 19.9742C20.2646 20.2196 19.8754 20.4839 19.3692 20.7647C18.4519 21.2619 17.5648 21.5 16.7032 21.5C16.4445 21.5 16.1938 21.483 15.9509 21.4502C15.7134 21.4173 15.4373 21.3578 15.1199 21.2685C14.7889 21.1753 14.5545 21.1033 14.4096 21.0518L14.4095 21.0518C14.2528 20.9961 13.9676 20.8908 13.5509 20.7347C13.5508 20.7346 13.5506 20.7346 13.5504 20.7345L13.3749 21.2027M21.4919 17.2439L5.74188 16.2573C7.16381 17.6791 8.54148 18.8016 9.87492 19.6244C10.677 20.1243 11.5887 20.5565 12.6095 20.9213M4.93554 9.37889C4.93548 9.37877 4.93543 9.37866 4.93537 9.37855L5.38285 9.15547C5.3464 9.08263 5.30212 8.9758 5.25013 8.83521C5.19814 8.69462 5.17203 8.5775 5.17203 8.48365C5.17203 8.29626 5.32051 8.05656 5.61742 7.76487L7.19238 5.73348C6.91499 6.02525 6.61361 6.29288 6.28733 6.53608L6.28718 6.53619C5.92099 6.80935 5.58071 7.10013 5.26708 7.40813L5.26702 7.4082C5.10219 7.57013 4.96104 7.73431 4.85836 7.90003C4.75811 8.06182 4.67203 8.26123 4.67203 8.48365C4.67203 8.66162 4.71957 8.84208 4.78117 9.00864C4.83514 9.15457 4.88682 9.28147 4.93554 9.37889ZM4.93554 9.37889C4.9835 9.47503 5.06781 9.61771 5.17636 9.79339M4.93554 9.37889L5.17636 9.79339M5.17636 9.79339C5.17634 9.79335 5.17632 9.79332 5.17629 9.79328L5.60171 9.53057L5.17636 9.79339ZM5.17636 9.79339C5.23076 9.88147 5.27217 9.94899 5.30101 9.99658C5.3155 10.0205 5.32608 10.0382 5.33322 10.0504C5.33537 10.054 5.33693 10.0567 5.33799 10.0585M5.17636 9.79339L17.4194 14.8559C17.2108 14.7121 17.05 14.6161 16.9315 14.5588C16.839 14.5144 16.7651 14.4996 16.7056 14.4992C16.7025 14.4998 16.6692 14.5051 16.5994 14.5449C16.5159 14.5925 16.4053 14.6752 16.2668 14.8067C15.9749 15.0843 15.7072 15.3857 15.4639 15.7122L15.4638 15.7123C15.1904 16.0789 14.8997 16.4188 14.592 16.7323L14.5918 16.7325C14.4298 16.8974 14.2655 17.0385 14.0998 17.1412C13.9379 17.2414 13.7386 17.3274 13.5163 17.3274C13.3381 17.3274 13.1576 17.2798 12.9918 17.2187L12.9908 17.2183C12.8432 17.1637 12.7187 17.1124 12.6238 17.0658L12.6184 17.0632L12.6184 17.0632C12.5245 17.0157 12.3835 16.9328 12.2063 16.823C12.1181 16.7687 12.0506 16.7273 12.003 16.6985C11.979 16.6839 11.9612 16.6733 11.9489 16.6661C11.9449 16.6637 11.942 16.662 11.9401 16.6609M5.33799 10.0585L5.3389 10.0604L5.34421 10.0699C6.15561 11.5327 7.08913 12.795 8.14658 13.8529L8.14674 13.853C9.20457 14.9103 10.467 15.8437 11.9296 16.6552L11.9385 16.6601L11.9401 16.6609M5.33799 10.0585C5.33929 10.0608 5.33986 10.0618 5.33986 10.0618C5.33987 10.0618 5.33739 10.0573 5.33401 10.0506L5.33799 10.0585ZM11.9401 16.6609L11.9477 16.6647C11.9431 16.6624 11.9396 16.6606 11.9381 16.6597C11.9366 16.6589 11.937 16.6591 11.9401 16.6609ZM13.3749 21.2027C12.9584 21.0461 12.7033 20.9524 12.6095 20.9213M13.3749 21.2027C13.7917 21.3589 14.0808 21.4657 14.2421 21.5229M13.3749 21.2027L14.2421 21.5229M12.6095 20.9213L12.7778 20.4505C12.7761 20.4499 12.7744 20.4493 12.7727 20.4487M12.6095 20.9213L12.7668 20.4467C12.7687 20.4474 12.7707 20.448 12.7727 20.4487M12.7727 20.4487C11.7828 20.0946 10.9057 19.6777 10.1394 19.2001L10.1375 19.1989C8.84484 18.4012 7.49725 17.3055 6.09543 15.9038C6.09543 15.9038 6.09542 15.9038 6.09541 15.9038L12.7727 20.4487ZM14.2421 21.5229C14.4035 21.5803 14.6512 21.6559 14.9842 21.7498C15.318 21.8436 15.6172 21.9088 15.8828 21.9455C16.1486 21.9814 16.4221 22 16.7032 22C17.6614 22 18.6304 21.7342 19.6096 21.2031C20.6615 20.6199 21.2967 20.0678 21.5155 19.5466L14.2421 21.5229ZM7.44057 5.06866L7.44045 5.06841C7.38344 4.95007 7.28756 4.78937 7.14358 4.58084C6.98968 4.35813 6.90515 4.23776 6.88089 4.20531L6.86564 4.18492L6.85254 4.16308C6.69367 3.89822 6.53001 3.61548 6.36122 3.31518L7.44057 5.06866ZM7.44057 5.06866C7.48498 5.16071 7.49978 5.2346 7.50019 5.29417M7.44057 5.06866L7.50019 5.29417M5.81068 2.31657L5.81064 2.3165C5.6134 1.95325 5.45991 1.6768 5.34876 1.48506L5.34101 1.47168L5.3341 1.45785C5.15644 1.10242 5.00881 0.845707 4.8909 0.676606C4.83185 0.591917 4.78784 0.540248 4.75915 0.511886C4.75785 0.510601 4.75661 0.509399 4.75545 0.508276C4.75269 0.507793 4.74942 0.507266 4.74561 0.50672C4.72039 0.503103 4.68127 0.5 4.62528 0.5C4.39794 0.5 4.07246 0.54303 3.63579 0.643554L3.63558 0.643602C3.1962 0.744555 2.874 0.845419 2.65482 0.941993L2.64676 0.945543L2.64673 0.945471C2.48307 1.01417 2.27428 1.16708 2.0259 1.45289C1.78049 1.7353 1.51618 2.12454 1.23524 2.63084C0.737979 3.54778 0.5 4.43473 0.5 5.29643C0.5 5.55577 0.516814 5.80644 0.550032 6.04874L5.81068 2.31657ZM5.81068 2.31657C6.00943 2.68247 6.19279 3.01557 6.3612 3.31514L5.81068 2.31657ZM7.50019 5.29417C7.49967 5.29697 7.4946 5.33021 7.45451 5.40053C7.40688 5.48406 7.32413 5.59475 7.19253 5.73332L7.50019 5.29417ZM8.50021 13.4994C7.47955 12.4783 6.57311 11.2546 5.78145 9.8274L14.2351 16.382C13.9433 16.6791 13.7035 16.8274 13.5163 16.8274C13.4222 16.8274 13.305 16.8012 13.1645 16.7495C13.0241 16.6974 12.9172 16.6528 12.8439 16.6169C12.7712 16.5802 12.6465 16.5075 12.4693 16.3978C12.2917 16.2884 12.193 16.2284 12.1722 16.218C10.7451 15.4261 9.5212 14.5199 8.50021 13.4994ZM0.947797 7.59025C0.896433 7.44531 0.824493 7.21084 0.731456 6.87991L0.731405 6.87973C0.642104 6.56253 0.582619 6.28615 0.550041 6.04881L0.947797 7.59025ZM21.5038 17.257C21.5049 17.2584 21.5054 17.2591 21.5054 17.2592C21.5054 17.2592 21.5048 17.2585 21.5038 17.257ZM4.74222 0.496384C4.74081 0.495399 4.7401 0.494828 4.7401 0.494788C4.7401 0.494749 4.74081 0.495241 4.74222 0.496384Z" fill="#78C081" stroke="#577A5B"/>
</svg>
