<svg width="352" height="109" viewBox="0 0 352 109" fill="none" xmlns="http://www.w3.org/2000/svg">
<path fill-rule="evenodd" clip-rule="evenodd" d="M123.765 108.835C110.583 109.207 96.0153 109.748 87.2158 100.525C77.9943 90.8609 76.7085 76.334 80.9798 63.9942C84.8502 52.8123 96.1281 46.3663 107.597 41.6432C118.417 37.1873 130.236 35.0347 141.187 39.1999C153.068 43.719 163.195 52.375 166.428 64.0205C169.771 76.0628 166.493 89.2587 157.66 98.5377C149.335 107.283 136.254 108.483 123.765 108.835Z" fill="#78C081" fill-opacity="0.15"/>
<path d="M132.961 53.4314V27.4997H146.235C149.467 27.4997 151.803 28.1912 153.245 29.5743C154.712 30.9326 155.445 33.1306 155.445 36.1683C155.445 39.206 154.712 41.4164 153.245 42.7994C151.803 44.1824 149.467 44.8739 146.235 44.8739H138.219V53.4314H132.961ZM138.219 39.984H145.937C147.428 39.984 148.51 39.6876 149.181 39.0949C149.877 38.4775 150.225 37.5019 150.225 36.1683C150.225 34.8594 149.877 33.9085 149.181 33.3158C148.51 32.6984 147.428 32.3897 145.937 32.3897H138.219V39.984Z" fill="#495E4C"/>
<path d="M165.004 53.7648C162.493 53.7648 160.641 53.2955 159.448 52.3571C158.28 51.3939 157.696 49.8627 157.696 47.7635C157.696 45.6148 158.342 44.0836 159.635 43.1698C160.927 42.2314 163.015 41.7621 165.899 41.7621H171.715C171.616 40.4532 171.206 39.5147 170.485 38.9467C169.789 38.354 168.695 38.0576 167.204 38.0576C164.793 38.0576 163.376 38.9096 162.953 40.6137H158.106C158.404 38.2428 159.287 36.5264 160.753 35.4644C162.22 34.3778 164.432 33.8345 167.39 33.8345C170.622 33.8345 172.971 34.5013 174.437 35.8349C175.904 37.1438 176.637 39.2677 176.637 42.2067V53.4314H171.715V51.6161C170.299 53.0486 168.061 53.7648 165.004 53.7648ZM162.618 47.5412C162.618 48.8748 163.823 49.5416 166.234 49.5416C167.925 49.5416 169.192 49.2453 170.038 48.6525C170.908 48.0351 171.467 47.0843 171.715 45.8001V45.3555H167.204C164.146 45.3555 162.618 46.0841 162.618 47.5412Z" fill="#495E4C"/>
<path d="M180.088 47.2819H184.935C185.407 48.7884 186.986 49.5416 189.67 49.5416C192.256 49.5416 193.548 49.023 193.548 47.9857C193.548 47.0472 191.92 46.3557 188.664 45.9112C185.631 45.5654 183.481 44.9233 182.213 43.9848C180.945 43.0217 180.312 41.5892 180.312 39.6876C180.312 37.6872 180.983 36.2177 182.325 35.2792C183.667 34.316 185.793 33.8345 188.701 33.8345C191.709 33.8345 193.946 34.3531 195.413 35.3904C196.904 36.4029 197.787 38.0453 198.06 40.3174H193.213C192.939 39.5271 192.442 38.959 191.721 38.6133C191.025 38.2428 189.994 38.0576 188.626 38.0576C186.265 38.0576 185.084 38.5392 185.084 39.5024C185.084 40.3915 186.576 41.0336 189.559 41.4287C192.84 41.898 195.114 42.5771 196.382 43.4662C197.65 44.3306 198.284 45.7013 198.284 47.5782C198.284 49.6528 197.575 51.2087 196.158 52.2459C194.766 53.2585 192.554 53.7648 189.521 53.7648C186.538 53.7648 184.289 53.2461 182.772 52.2089C181.256 51.1716 180.361 49.5293 180.088 47.2819Z" fill="#495E4C"/>
<path d="M210.647 53.7648C207.241 53.7648 204.768 52.9868 203.227 51.4309C201.71 49.8503 200.952 47.3066 200.952 43.7996C200.952 40.3174 201.723 37.7859 203.264 36.2053C204.805 34.6247 207.266 33.8345 210.647 33.8345C213.729 33.8345 216.041 34.4642 217.582 35.7238C219.123 36.9586 220.031 38.9467 220.304 41.688H215.457C215.183 40.5273 214.674 39.6876 213.928 39.169C213.182 38.6503 212.126 38.391 210.759 38.391C209.044 38.391 207.788 38.8232 206.993 39.6876C206.222 40.5273 205.837 41.898 205.837 43.7996C205.837 45.6766 206.222 47.0472 206.993 47.9116C207.788 48.776 209.044 49.2082 210.759 49.2082C213.394 49.2082 214.96 48.1092 215.457 45.9112H220.304C220.031 48.6525 219.123 50.653 217.582 51.9125C216.041 53.1474 213.729 53.7648 210.647 53.7648Z" fill="#495E4C"/>
<path d="M230.328 53.7648C227.818 53.7648 225.966 53.2955 224.773 52.3571C223.604 51.3939 223.02 49.8627 223.02 47.7635C223.02 45.6148 223.667 44.0836 224.959 43.1698C226.252 42.2314 228.34 41.7621 231.223 41.7621H237.04C236.941 40.4532 236.53 39.5147 235.81 38.9467C235.114 38.354 234.02 38.0576 232.528 38.0576C230.117 38.0576 228.7 38.9096 228.278 40.6137H223.43C223.729 38.2428 224.611 36.5264 226.078 35.4644C227.544 34.3778 229.757 33.8345 232.715 33.8345C235.946 33.8345 238.295 34.5013 239.762 35.8349C241.229 37.1438 241.962 39.2677 241.962 42.2067V53.4314H237.04V51.6161C235.623 53.0486 233.386 53.7648 230.328 53.7648ZM227.942 47.5412C227.942 48.8748 229.148 49.5416 231.559 49.5416C233.249 49.5416 234.517 49.2453 235.362 48.6525C236.232 48.0351 236.791 47.0843 237.04 45.8001V45.3555H232.528C229.471 45.3555 227.942 46.0841 227.942 47.5412Z" fill="#495E4C"/>
<path d="M246.233 53.4314V25.6475H251.154V53.4314H246.233Z" fill="#495E4C"/>
<path d="M263.858 27.4997H269.414L278.362 47.9487L287.274 27.4997H292.867L281.308 53.4314H275.417L263.858 27.4997Z" fill="#495E4C"/>
<path d="M295.753 51.3939C294.187 49.8133 293.404 47.2819 293.404 43.7996C293.404 40.3174 294.187 37.7859 295.753 36.2053C297.319 34.6247 299.855 33.8345 303.36 33.8345C306.84 33.8345 309.351 34.6247 310.892 36.2053C312.458 37.7859 313.241 40.3174 313.241 43.7996C313.241 44.1454 313.216 44.664 313.166 45.3555H298.438C298.761 48.1462 300.414 49.5416 303.397 49.5416C305.634 49.5416 307.113 48.7884 307.834 47.2819H312.905C312.408 49.6775 311.352 51.3568 309.736 52.32C308.12 53.2832 305.995 53.7648 303.36 53.7648C299.855 53.7648 297.319 52.9745 295.753 51.3939ZM303.397 38.0576C302.005 38.0576 300.899 38.3416 300.079 38.9096C299.258 39.4777 298.736 40.4162 298.513 41.7251H308.282C308.058 40.4162 307.536 39.4777 306.716 38.9096C305.92 38.3416 304.814 38.0576 303.397 38.0576Z" fill="#495E4C"/>
<path d="M321.613 53.4314H316.691V34.1679H321.613V36.0942C322.906 34.5877 324.994 33.8345 327.877 33.8345C330.612 33.8345 332.6 34.526 333.843 35.909C335.111 37.292 335.745 39.5147 335.745 42.5771V53.4314H330.823V42.5771C330.823 41.12 330.463 40.058 329.742 39.3912C329.046 38.7244 327.939 38.391 326.423 38.391C324.708 38.391 323.478 38.8232 322.732 39.6876C321.986 40.5273 321.613 41.898 321.613 43.7996V53.4314Z" fill="#495E4C"/>
<path d="M346.37 34.1679H351.665V38.7244H346.37V46.1335C346.37 47.0966 346.594 47.8005 347.041 48.245C347.488 48.6649 348.234 48.8748 349.278 48.8748H352V53.4314H349.129C346.444 53.4314 344.493 52.9004 343.275 51.8384C342.057 50.7765 341.448 49.0724 341.448 46.7262V38.7244H338.614V34.1679H341.448V29.9818H346.37V34.1679Z" fill="#495E4C"/>
<path d="M137.518 81.5857H142.788V84.6152H137.518V98.7088H134.27V84.6152H131.221V81.5857H134.27V80.993C134.27 78.5343 134.812 76.7451 135.894 75.6256C136.977 74.506 138.712 73.9462 141.098 73.9462H142.987V76.9757H141.264C139.96 76.9757 139.01 77.294 138.413 77.9306C137.817 78.5672 137.518 79.588 137.518 80.993V81.5857Z" fill="#78C081"/>
<path d="M152.081 98.7088H148.833V81.5857H152.081V83.792C153.208 82.1455 155.174 81.3223 157.98 81.3223H159.472V84.3518H157.052C155.285 84.3518 154.014 84.8128 153.241 85.7348C152.467 86.6348 152.081 88.1057 152.081 90.1473V98.7088Z" fill="#78C081"/>
<path d="M166.173 96.8648C164.803 95.4598 164.118 93.2207 164.118 90.1473C164.118 87.0739 164.803 84.8347 166.173 83.4297C167.565 82.0248 169.808 81.3223 172.901 81.3223C175.972 81.3223 178.182 82.0248 179.53 83.4297C180.9 84.8347 181.585 87.0739 181.585 90.1473C181.585 90.257 181.574 90.4217 181.551 90.6412C181.551 90.8607 181.551 91.0254 181.551 91.1352H167.432C167.543 92.8475 168.04 94.1097 168.924 94.922C169.83 95.7342 171.166 96.1404 172.934 96.1404C175.519 96.1404 177.165 95.2623 177.873 93.506H181.253C180.789 95.5257 179.839 96.9416 178.403 97.7539C176.989 98.5661 175.155 98.9723 172.901 98.9723C169.808 98.9723 167.565 98.2698 166.173 96.8648ZM172.934 84.1542C171.277 84.1542 169.995 84.5164 169.089 85.2408C168.206 85.9433 167.675 87.0959 167.499 88.6984H178.337C178.16 87.0739 177.629 85.9104 176.746 85.2079C175.884 84.5054 174.613 84.1542 172.934 84.1542Z" fill="#78C081"/>
<path d="M187.29 93.506H190.505C190.792 94.4281 191.345 95.0976 192.162 95.5147C192.98 95.9318 194.14 96.1404 195.642 96.1404C198.581 96.1404 200.05 95.4379 200.05 94.0329C200.05 93.3963 199.653 92.8914 198.857 92.5182C198.062 92.145 196.78 91.8267 195.012 91.5632C192.295 91.212 190.372 90.6412 189.245 89.8509C188.141 89.0387 187.588 87.8532 187.588 86.2946C187.588 84.6262 188.174 83.3858 189.345 82.5736C190.516 81.7394 192.361 81.3223 194.88 81.3223C197.399 81.3223 199.299 81.7613 200.581 82.6395C201.862 83.4956 202.658 84.8786 202.967 86.7885H199.752C199.465 85.8665 198.934 85.1969 198.161 84.7798C197.388 84.3627 196.272 84.1542 194.814 84.1542C192.096 84.1542 190.737 84.8237 190.737 86.1629C190.737 86.7775 191.124 87.2715 191.897 87.6447C192.67 87.9959 193.897 88.3032 195.576 88.5667C198.426 89.0057 200.404 89.5985 201.509 90.3448C202.636 91.0912 203.199 92.2328 203.199 93.7695C203.199 97.238 200.647 98.9723 195.543 98.9723C193.002 98.9723 191.068 98.5332 189.743 97.6551C188.417 96.777 187.599 95.394 187.29 93.506Z" fill="#78C081"/>
<path d="M209.837 74.012H213.085V83.8908C214.278 82.1784 216.366 81.3223 219.349 81.3223C221.846 81.3223 223.669 81.926 224.817 83.1334C225.966 84.3408 226.541 86.2616 226.541 88.896V98.7088H223.326V88.896C223.326 87.3154 222.928 86.1629 222.133 85.4384C221.337 84.714 220.1 84.3518 218.421 84.3518C216.543 84.3518 215.184 84.8128 214.344 85.7348C213.504 86.6348 213.085 88.1057 213.085 90.1473V98.7088H209.837V74.012Z" fill="#78C081"/>
<path d="M251.692 98.9723C249.394 98.9723 247.715 98.5661 246.654 97.7539C245.594 96.9416 245.063 95.6355 245.063 93.8353C245.063 91.9694 245.649 90.6412 246.82 89.8509C248.013 89.0387 249.924 88.6325 252.554 88.6325H258.42C258.42 87.0739 258.023 85.9433 257.227 85.2408C256.432 84.5164 255.161 84.1542 253.416 84.1542C252.024 84.1542 250.952 84.3847 250.201 84.8457C249.449 85.2848 248.941 85.9982 248.676 86.9861H245.461C245.77 85.0103 246.566 83.5724 247.847 82.6724C249.129 81.7723 251.029 81.3223 253.548 81.3223C256.376 81.3223 258.431 81.904 259.713 83.0675C261.017 84.2091 261.668 86.0421 261.668 88.5667V98.7088H258.42V96.5026C257.117 98.149 254.874 98.9723 251.692 98.9723ZM248.311 93.7036C248.311 94.5598 248.643 95.1854 249.306 95.5806C249.991 95.9538 251.04 96.1404 252.454 96.1404C254.333 96.1404 255.736 95.8001 256.664 95.1196C257.614 94.439 258.199 93.3524 258.42 91.8596V91.0693H253.382C250.002 91.0693 248.311 91.9474 248.311 93.7036Z" fill="#78C081"/>
<path d="M269.157 98.7088V81.5857H272.405V98.7088H269.157ZM269.124 78.2599C268.793 77.9306 268.627 77.3818 268.627 76.6134C268.627 75.8451 268.793 75.2963 269.124 74.967C269.456 74.6377 270.008 74.473 270.781 74.473C271.555 74.473 272.107 74.6377 272.439 74.967C272.77 75.2963 272.936 75.8451 272.936 76.6134C272.936 77.3818 272.77 77.9306 272.439 78.2599C272.107 78.5892 271.555 78.7538 270.781 78.7538C270.008 78.7538 269.456 78.5892 269.124 78.2599Z" fill="#78C081"/>
<path d="M283.213 98.7088H279.965V81.5857H283.213V83.792C284.34 82.1455 286.307 81.3223 289.113 81.3223H290.604V84.3518H288.185C286.417 84.3518 285.147 84.8128 284.373 85.7348C283.6 86.6348 283.213 88.1057 283.213 90.1473V98.7088Z" fill="#78C081"/>
<path fill-rule="evenodd" clip-rule="evenodd" d="M4.53166 42.0347C0.324878 56.9473 -0.637313 72.5754 0.364036 87.9216C-0.0890883 92.8003 2.57931 97.5109 6.12599 100.872C11.3173 105.761 21.5434 105.095 28.2564 104.406C40.4795 103.246 45.917 92.1552 46.6331 81.4709C47.1813 63.0023 47.3156 43.5959 47.2764 25.0948C47.268 24.5679 47.2691 24.0149 47.2703 23.4464C47.2753 21.0084 47.2809 18.2861 46.5324 16.1234C44.7143 10.0846 39.0586 7.91633 33.375 9.07637C32.2265 9.43859 31.1202 9.91642 30.0745 10.502C26.6613 12.3412 23.4714 14.5449 20.5644 17.072C14.7528 22.0428 10.1308 28.1829 7.02105 35.0636C6.71388 35.6866 6.40214 36.5372 6.11351 37.3248C5.95009 37.7707 5.79408 38.1964 5.65049 38.5491C5.35326 39.2793 5.04976 40.301 4.78453 41.1938C4.69535 41.494 4.6105 41.7796 4.53166 42.0347ZM0.364036 87.9216C2.13738 72.3043 4.63236 56.7521 10.3104 42.051C13.3909 34.3065 18.5188 27.4831 25.1796 22.2651C25.7901 21.7548 26.6956 21.0941 27.4337 20.5555C27.5816 20.4476 27.7228 20.3445 27.8536 20.2486C27.8536 20.2486 32.4296 16.3673 34.9078 16.1559C37.386 15.9445 38.7454 16.118 39.3048 18.785L39.4782 20.0589L39.5174 21.4683C39.4782 27.8594 39.4502 39.6712 39.5174 46.1762C39.6013 55.5595 39.7132 64.9429 39.9369 74.3209L40.088 81.1619C40.0628 83.2935 39.8116 85.4169 39.3383 87.4988C38.2643 92.4263 35.5343 97.2236 30.5835 99.1643C27.3949 100.297 23.9321 100.742 20.5756 101.132C16.643 101.468 12.5257 101.669 8.89509 100.086C4.45894 97.5164 0.878696 93.0659 0.364036 87.9216Z" fill="#78C081"/>
<path d="M99.9385 46.1512C102.088 51.4408 106.003 59.7098 107.356 69.6442C106.386 51.4905 105.124 51.4408 104.499 48.6574C103.499 44.2019 102.161 39.8241 100.496 35.5599C95.7249 24.5662 87.1741 15.5179 76.3002 9.95608C75.3748 9.45434 74.3696 9.10594 73.3261 8.9252C72.7279 8.89265 72.3813 8.79499 71.5483 8.79499C65.8738 8.4803 61.5803 12.0884 60.6019 17.3838C60.0876 19.6789 60.2274 22.4948 60.2274 24.7573C60.1603 37.0356 60.1323 52.271 60.3392 64.6198C60.423 69.058 60.4789 73.4962 60.6019 77.9344C60.5825 80.3308 60.7695 82.7247 61.161 85.0909C63.0338 95.8391 69.2841 104.146 81.2255 104.623C87.1627 105.041 93.4968 105.285 99.0203 102.67C103.353 100.342 105.117 96.4099 106.386 92.0694C107.216 89.2314 108.34 86.3275 113.062 81.6884C108.34 84.4718 106.777 85.8724 103.618 93.75C99.3862 100.76 96.348 101.617 88.443 101.135C86.2397 100.969 84.0482 100.679 81.8796 100.266C79.9118 99.8813 77.7594 99.5123 75.9984 98.5845C70.5699 95.888 68.3281 89.8329 67.6964 84.2119C67.4786 82.1753 67.4282 80.1252 67.5454 78.0809C67.7355 70.3547 67.9591 59.2701 67.9591 51.4408C67.9591 43.6116 68.0765 32.4292 67.9591 24.7139C67.9815 22.4297 67.4839 18.9356 68.6859 17.004C69.5357 15.6151 70.9241 15.1831 73.2198 16.2499C82.9259 20.8452 90.8564 28.3421 95.8449 37.6379C97.2981 40.5493 99.0088 43.8629 99.9385 46.1512Z" fill="#78C081"/>
<path d="M54.2049 21.8481C54.5993 21.0552 54.272 20.0946 53.474 19.7026C52.6759 19.3106 51.7092 19.6357 51.3148 20.4286L43.6997 35.7389C43.3053 36.5319 43.6325 37.4925 44.4306 37.8845C45.2286 38.2765 46.1953 37.9514 46.5898 37.1584L54.2049 21.8481Z" fill="#78C081"/>
<path d="M52.2953 21.8481C51.9009 21.0552 52.2281 20.0946 53.0262 19.7026C53.8243 19.3106 54.791 19.6357 55.1854 20.4286L62.8005 35.7389C63.1949 36.5319 62.8677 37.4925 62.0696 37.8845C61.2715 38.2765 60.3048 37.9514 59.9104 37.1584L52.2953 21.8481Z" fill="#78C081"/>
<path d="M51.5812 1.60147C51.5812 0.717002 52.3028 0 53.1931 0C54.0833 0 54.805 0.717004 54.805 1.60147V21.8916C54.805 22.776 54.0833 23.493 53.1931 23.493C52.3028 23.493 51.5812 22.776 51.5812 21.8916V1.60147Z" fill="#78C081"/>
<path d="M101.39 98.4735C100.898 97.5195 100.4 96.6396 99.8918 95.7603C99.3838 94.881 98.8666 94.0139 98.3241 93.1445C97.7817 92.2751 97.2117 91.4463 96.6569 90.6203C96.5126 90.4045 96.3496 90.2093 96.1958 90.0018C96.0419 89.7943 95.8739 89.5994 95.7053 89.3967C95.5368 89.1941 95.354 89.004 95.1649 88.7948C95.0751 88.6939 94.9768 88.5977 94.8704 88.507C94.7688 88.4088 94.6621 88.3108 94.565 88.2044C95.2197 88.3371 95.8343 88.561 96.379 88.8655C96.6547 89.0132 96.9166 89.1755 97.163 89.3512C97.4143 89.5229 97.6523 89.706 97.8756 89.8996C98.7605 90.6622 99.4995 91.5201 100.071 92.4485C100.649 93.3681 101.075 94.3428 101.341 95.3507C101.637 96.3708 101.654 97.4342 101.39 98.4735Z" fill="#78C081"/>
<path d="M100.919 88.1642C100.466 87.0834 99.7248 86.1327 98.764 85.4015C97.8409 84.6892 96.7864 84.1385 95.6501 83.7753C94.5045 83.4215 93.3198 83.1831 92.1161 83.0642C90.8993 82.9278 89.6505 82.8636 88.3864 82.8014L89.4404 81.7544C89.6437 83.2822 89.8823 84.8006 90.0497 86.3331C90.1514 87.097 90.223 87.8697 90.3484 88.577C90.3967 88.9399 90.4738 89.2844 90.5657 89.6221C90.6611 89.9606 90.7818 90.2921 90.927 90.6142C91.5189 91.924 92.4657 93.063 93.6756 93.9207C94.9439 94.833 96.4424 95.4295 98.0338 95.6554C96.3163 95.8542 94.5844 95.543 93.0846 94.7659C91.5181 93.975 90.2403 92.7704 89.408 91.2996C89.2012 90.9227 89.0238 90.5321 88.8772 90.1306C88.736 89.7388 88.6235 89.3381 88.5404 88.9313C88.3581 88.1099 88.2571 87.3508 88.1374 86.6087C87.8963 85.0713 87.6936 83.5482 87.4903 82.0204L87.3391 80.8841L88.5495 80.9728C89.8488 81.0627 91.141 81.2172 92.4204 81.4356C93.7374 81.6512 95.0147 82.0306 96.2184 82.5639C97.4381 83.1055 98.5167 83.8843 99.3835 84.8489C100.246 85.7772 100.782 86.9335 100.919 88.1642Z" fill="#78C081"/>
<path d="M103.12 87.5709C102.702 86.8884 102.409 86.1262 102.261 85.3348C102.11 84.5329 102.06 83.7212 102.113 82.9249C102.252 81.3329 102.643 79.8083 103.267 78.4226C103.88 77.0098 104.681 75.7267 105.645 74.6142C106.151 74.0427 106.717 73.5441 107.334 73.128C107.945 72.7306 108.589 72.3947 109.259 72.1238C109.915 71.8397 110.582 71.6277 111.24 71.4264C111.897 71.2251 112.544 71.05 113.203 70.8711C114.507 70.5327 115.779 70.197 116.981 69.7637C118.14 69.3683 119.23 68.7857 120.218 68.0327C121.259 67.2525 122.099 66.1855 122.67 64.9187C123.097 63.8626 123.454 62.7469 123.847 61.6644C123.738 61.9802 124.098 63.0945 124.159 63.4754C124.488 65.5094 124.63 67.5571 124.582 69.5845C124.567 70.9166 124.471 72.2372 124.294 73.5371L124.214 74.04L123.935 75.4705C123.805 76.0958 123.663 76.7249 123.49 77.3568C123.133 78.6436 122.596 79.8409 121.899 80.9061C121.551 81.4285 121.168 81.9185 120.754 82.3725C120.33 82.8144 119.907 83.2183 119.472 83.6036C118.6 84.3763 117.672 85.0685 116.696 85.6746C114.757 86.8829 112.636 87.724 110.408 88.1679C112.413 87.2482 114.296 86.0574 116.019 84.6191C116.867 83.9143 117.669 83.145 118.421 82.3157C119.164 81.5263 119.823 80.6423 120.39 79.6783C120.906 78.7199 121.282 77.6625 121.503 76.5434C121.625 75.9736 121.729 75.3871 121.821 74.7821L121.953 73.8687L122.021 73.4076L122.075 72.9815C122.187 71.7812 122.236 70.5677 122.222 69.3475C122.22 68.1074 122.931 69.3032 121.729 70.266C120.551 71.1791 119.238 71.8663 117.837 72.3035C116.496 72.7449 115.148 73.0296 113.84 73.3164C112.532 73.6032 111.223 73.8676 110.025 74.2543C109.436 74.4369 108.867 74.6775 108.323 74.9734C107.787 75.2692 107.288 75.6365 106.835 76.0682C105.881 76.9639 105.053 78.0178 104.376 79.1997C103.666 80.3766 103.142 81.6964 102.826 83.1064C102.476 84.542 102.58 86.1161 103.12 87.5709Z" fill="#78C081"/>
</svg>
