<svg width="94" height="29" viewBox="0 0 94 29" fill="none" xmlns="http://www.w3.org/2000/svg">
<path fill-rule="evenodd" clip-rule="evenodd" d="M33.0508 28.9567C29.5305 29.0556 25.6403 29.1994 23.2904 26.7457C20.8278 24.1744 20.4845 20.3094 21.6251 17.0263C22.6587 14.0512 25.6704 12.3362 28.7331 11.0796C31.6226 9.89406 34.7789 9.32133 37.7032 10.4295C40.8759 11.6319 43.5804 13.9349 44.4437 17.0333C45.3365 20.2373 44.4611 23.7481 42.1022 26.2169C39.8789 28.5437 36.3857 28.8629 33.0508 28.9567Z" fill="#78C081" fill-opacity="0.15"/>
<path d="M35.5067 14.2164V7.31703H39.0514C39.9144 7.31703 40.5384 7.50101 40.9234 7.86898C41.315 8.23037 41.5109 8.81518 41.5109 9.62339C41.5109 10.4316 41.315 11.0197 40.9234 11.3876C40.5384 11.7556 39.9144 11.9396 39.0514 11.9396H36.9106V14.2164H35.5067ZM36.9106 10.6386H38.9718C39.3701 10.6386 39.6588 10.5597 39.8381 10.402C40.0239 10.2378 40.1169 9.97821 40.1169 9.62339C40.1169 9.27513 40.0239 9.02216 39.8381 8.86446C39.6588 8.70019 39.3701 8.61805 38.9718 8.61805H36.9106V10.6386Z" fill="#495E4C"/>
<path d="M44.0635 14.3051C43.393 14.3051 42.8985 14.1802 42.5799 13.9306C42.2679 13.6743 42.1119 13.2669 42.1119 12.7084C42.1119 12.1367 42.2845 11.7293 42.6297 11.4862C42.9748 11.2365 43.5324 11.1117 44.3025 11.1117H45.8558C45.8292 10.7634 45.7197 10.5137 45.5272 10.3626C45.3413 10.2049 45.0493 10.1261 44.651 10.1261C44.0071 10.1261 43.6287 10.3527 43.5159 10.8061H42.2214C42.3011 10.1753 42.5367 9.71866 42.9284 9.43612C43.32 9.147 43.9108 9.00244 44.7008 9.00244C45.5637 9.00244 46.191 9.17986 46.5827 9.53468C46.9743 9.88293 47.1702 10.448 47.1702 11.2299V14.2164H45.8558V13.7334C45.4774 14.1145 44.88 14.3051 44.0635 14.3051ZM43.4262 12.6492C43.4262 13.0041 43.7482 13.1815 44.3921 13.1815C44.8435 13.1815 45.182 13.1026 45.4077 12.9449C45.6401 12.7807 45.7894 12.5277 45.8558 12.186V12.0677H44.651C43.8345 12.0677 43.4262 12.2616 43.4262 12.6492Z" fill="#495E4C"/>
<path d="M48.0916 12.5803H49.386C49.5122 12.9811 49.9337 13.1815 50.6506 13.1815C51.341 13.1815 51.6861 13.0435 51.6861 12.7675C51.6861 12.5178 51.2513 12.3338 50.3817 12.2156C49.5719 12.1236 48.9977 11.9527 48.6592 11.703C48.3206 11.4468 48.1513 11.0657 48.1513 10.5597C48.1513 10.0275 48.3306 9.63653 48.689 9.38684C49.0475 9.13057 49.615 9.00244 50.3917 9.00244C51.1949 9.00244 51.7924 9.14043 52.184 9.4164C52.5823 9.68581 52.818 10.1228 52.891 10.7273H51.5965C51.5235 10.517 51.3907 10.3659 51.1982 10.2739C51.0124 10.1753 50.7369 10.1261 50.3718 10.1261C49.7412 10.1261 49.4259 10.2542 49.4259 10.5104C49.4259 10.747 49.8241 10.9178 50.6207 11.023C51.497 11.1478 52.1044 11.3285 52.4429 11.5651C52.7814 11.795 52.9507 12.1597 52.9507 12.6591C52.9507 13.2111 52.7615 13.625 52.3832 13.901C52.0114 14.1704 51.4206 14.3051 50.6108 14.3051C49.8142 14.3051 49.2134 14.1671 48.8085 13.8911C48.4036 13.6152 48.1646 13.1782 48.0916 12.5803Z" fill="#495E4C"/>
<path d="M56.2522 14.3051C55.3428 14.3051 54.6823 14.0981 54.2707 13.6841C53.8658 13.2636 53.6634 12.5868 53.6634 11.6538C53.6634 10.7273 53.8691 10.0538 54.2807 9.63324C54.6923 9.21271 55.3494 9.00244 56.2522 9.00244C57.0754 9.00244 57.6927 9.17 58.1043 9.50511C58.5158 9.83365 58.7581 10.3626 58.8312 11.092H57.5367C57.4637 10.7831 57.3276 10.5597 57.1285 10.4217C56.9293 10.2838 56.6472 10.2148 56.2821 10.2148C55.8241 10.2148 55.4888 10.3297 55.2764 10.5597C55.0706 10.7831 54.9678 11.1478 54.9678 11.6538C54.9678 12.1531 55.0706 12.5178 55.2764 12.7478C55.4888 12.9778 55.8241 13.0928 56.2821 13.0928C56.9858 13.0928 57.404 12.8004 57.5367 12.2156H58.8312C58.7581 12.9449 58.5158 13.4772 58.1043 13.8123C57.6927 14.1408 57.0754 14.3051 56.2522 14.3051Z" fill="#495E4C"/>
<path d="M61.5081 14.3051C60.8376 14.3051 60.3431 14.1802 60.0245 13.9306C59.7125 13.6743 59.5565 13.2669 59.5565 12.7084C59.5565 12.1367 59.7291 11.7293 60.0743 11.4862C60.4194 11.2365 60.977 11.1117 61.7471 11.1117H63.3004C63.2738 10.7634 63.1643 10.5137 62.9718 10.3626C62.7859 10.2049 62.4939 10.1261 62.0956 10.1261C61.4517 10.1261 61.0733 10.3527 60.9604 10.8061H59.666C59.7457 10.1753 59.9813 9.71866 60.373 9.43612C60.7646 9.147 61.3554 9.00244 62.1454 9.00244C63.0083 9.00244 63.6356 9.17986 64.0273 9.53468C64.4189 9.88293 64.6148 10.448 64.6148 11.2299V14.2164H63.3004V13.7334C62.922 14.1145 62.3246 14.3051 61.5081 14.3051ZM60.8708 12.6492C60.8708 13.0041 61.1928 13.1815 61.8367 13.1815C62.2881 13.1815 62.6266 13.1026 62.8523 12.9449C63.0847 12.7807 63.234 12.5277 63.3004 12.186V12.0677H62.0956C61.2791 12.0677 60.8708 12.2616 60.8708 12.6492Z" fill="#495E4C"/>
<path d="M65.7552 14.2164V6.82422H67.0696V14.2164H65.7552Z" fill="#495E4C"/>
<path d="M70.462 7.31703H71.9456L74.3353 12.7577L76.7151 7.31703H78.2087L75.122 14.2164H73.5487L70.462 7.31703Z" fill="#495E4C"/>
<path d="M78.9795 13.6743C78.5613 13.2538 78.3522 12.5803 78.3522 11.6538C78.3522 10.7273 78.5613 10.0538 78.9795 9.63324C79.3977 9.21271 80.0748 9.00244 81.0108 9.00244C81.9401 9.00244 82.6106 9.21271 83.0222 9.63324C83.4404 10.0538 83.6495 10.7273 83.6495 11.6538C83.6495 11.7458 83.6428 11.8837 83.6296 12.0677H79.6964C79.7827 12.8102 80.2242 13.1815 81.0208 13.1815C81.6182 13.1815 82.0132 12.9811 82.2057 12.5803H83.5599C83.4271 13.2176 83.145 13.6644 82.7135 13.9207C82.282 14.177 81.7145 14.3051 81.0108 14.3051C80.0748 14.3051 79.3977 14.0948 78.9795 13.6743ZM81.0208 10.1261C80.649 10.1261 80.3536 10.2016 80.1346 10.3527C79.9155 10.5039 79.7761 10.7536 79.7164 11.1018H82.3252C82.2654 10.7536 82.126 10.5039 81.907 10.3527C81.6945 10.2016 81.3991 10.1261 81.0208 10.1261Z" fill="#495E4C"/>
<path d="M85.8853 14.2164H84.5709V9.09115H85.8853V9.60367C86.2304 9.20285 86.788 9.00244 87.5581 9.00244C88.2883 9.00244 88.8193 9.18643 89.1512 9.55439C89.4898 9.92236 89.659 10.5137 89.659 11.3285V14.2164H88.3447V11.3285C88.3447 10.9408 88.2484 10.6583 88.0559 10.4809C87.8701 10.3035 87.5747 10.2148 87.1697 10.2148C86.7117 10.2148 86.3831 10.3297 86.184 10.5597C85.9848 10.7831 85.8853 11.1478 85.8853 11.6538V14.2164Z" fill="#495E4C"/>
<path d="M92.4964 9.09115H93.9103V10.3035H92.4964V12.2747C92.4964 12.531 92.5561 12.7182 92.6756 12.8365C92.7951 12.9482 92.9943 13.0041 93.2731 13.0041H93.9999V14.2164H93.2332C92.5163 14.2164 91.9952 14.0751 91.6699 13.7926C91.3447 13.51 91.182 13.0566 91.182 12.4324V10.3035H90.4253V9.09115H91.182V7.9774H92.4964V9.09115Z" fill="#495E4C"/>
<path d="M36.7237 21.7071H38.1309V22.5131H36.7237V26.2629H35.8563V22.5131H35.042V21.7071H35.8563V21.5494C35.8563 20.8953 36.0008 20.4192 36.29 20.1214C36.5791 19.8235 37.0423 19.6745 37.6796 19.6745H38.1841V20.4806H37.7238C37.3757 20.4806 37.1219 20.5653 36.9626 20.7346C36.8033 20.904 36.7237 21.1756 36.7237 21.5494V21.7071Z" fill="#78C081"/>
<path d="M40.6124 26.2629H39.7451V21.7071H40.6124V22.2941C40.9134 21.8561 41.4385 21.637 42.1879 21.637H42.5862V22.443H41.9401C41.468 22.443 41.1287 22.5657 40.9222 22.811C40.7157 23.0505 40.6124 23.4418 40.6124 23.985V26.2629Z" fill="#78C081"/>
<path d="M44.3756 25.7723C44.0098 25.3984 43.8269 24.8027 43.8269 23.985C43.8269 23.1673 44.0098 22.5715 44.3756 22.1977C44.7474 21.8239 45.3463 21.637 46.1724 21.637C46.9926 21.637 47.5826 21.8239 47.9425 22.1977C48.3084 22.5715 48.4913 23.1673 48.4913 23.985C48.4913 24.0142 48.4884 24.058 48.4825 24.1164C48.4825 24.1748 48.4825 24.2186 48.4825 24.2478H44.712C44.7415 24.7034 44.8742 25.0392 45.1103 25.2554C45.3522 25.4715 45.7092 25.5795 46.1812 25.5795C46.8716 25.5795 47.3112 25.3459 47.5 24.8786H48.4028C48.2789 25.416 48.0252 25.7927 47.6416 26.0088C47.264 26.2249 46.7742 26.333 46.1724 26.333C45.3463 26.333 44.7474 26.1461 44.3756 25.7723ZM46.1812 22.3905C45.7387 22.3905 45.3964 22.4868 45.1545 22.6796C44.9185 22.8665 44.7769 23.1731 44.7297 23.5995H47.6239C47.5767 23.1673 47.4351 22.8577 47.1991 22.6708C46.969 22.4839 46.6297 22.3905 46.1812 22.3905Z" fill="#78C081"/>
<path d="M50.0149 24.8786H50.8734C50.9501 25.1239 51.0977 25.3021 51.316 25.4131C51.5343 25.524 51.8441 25.5795 52.2453 25.5795C53.0301 25.5795 53.4225 25.3926 53.4225 25.0188C53.4225 24.8494 53.3163 24.7151 53.1039 24.6158C52.8914 24.5165 52.5492 24.4318 52.0772 24.3617C51.3514 24.2683 50.838 24.1164 50.5371 23.9061C50.2421 23.69 50.0946 23.3746 50.0946 22.9599C50.0946 22.5161 50.2509 22.1861 50.5637 21.9699C50.8764 21.748 51.3691 21.637 52.0417 21.637C52.7144 21.637 53.2219 21.7538 53.5641 21.9875C53.9063 22.2153 54.1188 22.5832 54.2014 23.0914H53.3428C53.2661 22.8461 53.1245 22.6679 52.918 22.5569C52.7115 22.446 52.4135 22.3905 52.024 22.3905C51.2983 22.3905 50.9354 22.5686 50.9354 22.9249C50.9354 23.0884 51.0386 23.2199 51.2452 23.3192C51.4517 23.4126 51.7792 23.4944 52.2276 23.5645C52.9888 23.6813 53.5169 23.839 53.8119 24.0376C54.1128 24.2361 54.2633 24.5399 54.2633 24.9487C54.2633 25.8715 53.5818 26.333 52.2188 26.333C51.5402 26.333 51.0239 26.2162 50.6699 25.9825C50.3158 25.7489 50.0975 25.3809 50.0149 24.8786Z" fill="#78C081"/>
<path d="M56.0358 19.6921H56.9032V22.3204C57.2219 21.8648 57.7795 21.637 58.576 21.637C59.2428 21.637 59.7296 21.7976 60.0364 22.1189C60.3433 22.4401 60.4967 22.9512 60.4967 23.6521V26.2629H59.6381V23.6521C59.6381 23.2315 59.5319 22.9249 59.3195 22.7322C59.1071 22.5394 58.7767 22.443 58.3282 22.443C57.8267 22.443 57.4638 22.5657 57.2396 22.811C57.0153 23.0505 56.9032 23.4418 56.9032 23.985V26.2629H56.0358V19.6921Z" fill="#78C081"/>
<path d="M67.2132 26.333C66.5995 26.333 66.1511 26.2249 65.8678 26.0088C65.5846 25.7927 65.443 25.4452 65.443 24.9662C65.443 24.4698 65.5994 24.1164 65.9121 23.9061C66.2307 23.69 66.7411 23.582 67.4433 23.582H69.0099C69.0099 23.1673 68.9037 22.8665 68.6913 22.6796C68.4788 22.4868 68.1396 22.3905 67.6734 22.3905C67.3017 22.3905 67.0155 22.4518 66.8149 22.5745C66.6143 22.6913 66.4785 22.8811 66.4077 23.1439H65.5492C65.6318 22.6183 65.8442 22.2357 66.1865 21.9962C66.5287 21.7568 67.0362 21.637 67.7088 21.637C68.4641 21.637 69.0129 21.7918 69.3551 22.1014C69.7032 22.4051 69.8773 22.8928 69.8773 23.5645V26.2629H69.0099V25.6759C68.6618 26.1139 68.0629 26.333 67.2132 26.333ZM66.3104 24.9312C66.3104 25.159 66.3989 25.3254 66.5759 25.4306C66.7588 25.5299 67.0391 25.5795 67.4167 25.5795C67.9183 25.5795 68.293 25.489 68.5408 25.3079C68.7945 25.1269 68.9509 24.8377 69.0099 24.4406V24.2303H67.6646C66.7618 24.2303 66.3104 24.4639 66.3104 24.9312Z" fill="#78C081"/>
<path d="M71.8772 26.2629V21.7071H72.7446V26.2629H71.8772ZM71.8683 20.8222C71.7798 20.7346 71.7355 20.5886 71.7355 20.3842C71.7355 20.1798 71.7798 20.0337 71.8683 19.9461C71.9568 19.8585 72.1043 19.8147 72.3109 19.8147C72.5174 19.8147 72.6649 19.8585 72.7534 19.9461C72.8419 20.0337 72.8862 20.1798 72.8862 20.3842C72.8862 20.5886 72.8419 20.7346 72.7534 20.8222C72.6649 20.9099 72.5174 20.9537 72.3109 20.9537C72.1043 20.9537 71.9568 20.9099 71.8683 20.8222Z" fill="#78C081"/>
<path d="M75.6308 26.2629H74.7634V21.7071H75.6308V22.2941C75.9317 21.8561 76.4568 21.637 77.2062 21.637H77.6045V22.443H76.9584C76.4863 22.443 76.1471 22.5657 75.9405 22.811C75.734 23.0505 75.6308 23.4418 75.6308 23.985V26.2629Z" fill="#78C081"/>
<path fill-rule="evenodd" clip-rule="evenodd" d="M1.21016 11.1837C0.086757 15.1513 -0.170191 19.3093 0.0972141 23.3924C-0.0237906 24.6904 0.688793 25.9437 1.63592 26.8379C3.02224 28.1388 5.75306 27.9614 7.54573 27.7782C10.8099 27.4696 12.2619 24.5187 12.4531 21.6761C12.5995 16.7623 12.6354 11.5991 12.6249 6.6767C12.6227 6.53652 12.623 6.38938 12.6233 6.23813C12.6246 5.58949 12.6261 4.86519 12.4263 4.28978C11.9407 2.68311 10.4304 2.10621 8.91263 2.41485C8.60592 2.51122 8.31051 2.63836 8.03124 2.79416C7.11977 3.28348 6.26793 3.86981 5.49163 4.54217C3.93966 5.8647 2.70537 7.49833 1.87494 9.32899C1.79291 9.49475 1.70966 9.72106 1.63258 9.9306C1.58894 10.0492 1.54728 10.1625 1.50894 10.2564C1.42956 10.4506 1.34851 10.7225 1.27769 10.96C1.25387 11.0399 1.23121 11.1159 1.21016 11.1837ZM0.0972141 23.3924C0.570776 19.2372 1.23705 15.0994 2.75334 11.188C3.57598 9.12757 4.94535 7.31214 6.72409 5.92384C6.88712 5.78808 7.12893 5.61228 7.32604 5.46898C7.36554 5.44026 7.40325 5.41285 7.43817 5.38733C7.43817 5.38733 8.66017 4.35468 9.32196 4.29843C9.98375 4.24218 10.3468 4.28833 10.4962 4.99792L10.5425 5.33685L10.5529 5.71183C10.5425 7.41224 10.535 10.5549 10.5529 12.2856C10.5753 14.7821 10.6052 17.2787 10.665 19.7738L10.7053 21.5939C10.6986 22.161 10.6315 22.726 10.5051 23.2799C10.2183 24.5909 9.48927 25.8673 8.16718 26.3836C7.31567 26.685 6.39095 26.8033 5.49462 26.9071C4.44442 26.9965 3.34492 27.0499 2.37539 26.6288C1.19074 25.9451 0.234652 24.761 0.0972141 23.3924Z" fill="#78C081"/>
<path d="M26.6881 12.2789C27.262 13.6863 28.3076 15.8863 28.6689 18.5295C28.4099 13.6995 28.0728 13.6863 27.906 12.9458C27.6389 11.7603 27.2816 10.5956 26.837 9.46103C25.5629 6.53608 23.2794 4.12869 20.3756 2.64891C20.1285 2.51542 19.86 2.42272 19.5814 2.37463C19.4216 2.36597 19.3291 2.33999 19.1066 2.33999C17.5913 2.25626 16.4447 3.21622 16.1834 4.62513C16.0461 5.23575 16.0834 5.98496 16.0834 6.58692C16.0655 9.85367 16.058 13.9072 16.1133 17.1927C16.1357 18.3735 16.1506 19.5543 16.1834 20.7352C16.1783 21.3728 16.2282 22.0097 16.3327 22.6392C16.8329 25.4989 18.502 27.709 21.6909 27.836C23.2764 27.9472 24.9679 28.0121 26.4429 27.3163C27.5999 26.697 28.071 25.6507 28.4099 24.4959C28.6315 23.7408 28.9317 22.9682 30.1926 21.7339C28.9317 22.4745 28.5143 22.8471 27.6707 24.9431C26.5406 26.8081 25.7293 27.0363 23.6183 26.9078C23.0299 26.8638 22.4447 26.7866 21.8656 26.6768C21.34 26.5743 20.7653 26.4762 20.295 26.2293C18.8454 25.5119 18.2467 23.9009 18.078 22.4054C18.0198 21.8635 18.0064 21.3181 18.0377 20.7741C18.0884 18.7185 18.1482 15.7693 18.1482 13.6863C18.1482 11.6033 18.1795 8.6281 18.1482 6.57537C18.1541 5.96763 18.0213 5.03799 18.3422 4.52408C18.5692 4.15453 18.9399 4.0396 19.553 4.32343C22.145 5.54607 24.2628 7.54068 25.5949 10.0139C25.983 10.7885 26.4398 11.6701 26.6881 12.2789Z" fill="#78C081"/>
<path d="M14.4751 5.8129C14.5805 5.60192 14.4931 5.34635 14.28 5.24206C14.0668 5.13777 13.8087 5.22425 13.7034 5.43523L11.6698 9.50867C11.5645 9.71965 11.6518 9.97522 11.865 10.0795C12.0781 10.1838 12.3362 10.0973 12.4416 9.88634L14.4751 5.8129Z" fill="#78C081"/>
<path d="M13.9652 5.8129C13.8599 5.60192 13.9473 5.34635 14.1604 5.24206C14.3735 5.13777 14.6317 5.22425 14.737 5.43523L16.7706 9.50867C16.8759 9.71965 16.7885 9.97522 16.5754 10.0795C16.3623 10.1838 16.1041 10.0973 15.9988 9.88634L13.9652 5.8129Z" fill="#78C081"/>
<path d="M13.7745 0.426086C13.7745 0.190765 13.9672 0 14.205 0C14.4427 0 14.6354 0.190766 14.6354 0.426087V5.82445C14.6354 6.05977 14.4427 6.25054 14.205 6.25054C13.9672 6.25054 13.7745 6.05977 13.7745 5.82445V0.426086Z" fill="#78C081"/>
<path d="M27.0758 26.1998C26.9443 25.946 26.8113 25.7119 26.6756 25.4779C26.54 25.244 26.4018 25.0133 26.257 24.782C26.1121 24.5507 25.9599 24.3301 25.8118 24.1104C25.7732 24.053 25.7297 24.001 25.6886 23.9458C25.6475 23.8906 25.6027 23.8387 25.5576 23.7848C25.5126 23.7309 25.4638 23.6803 25.4133 23.6247C25.3894 23.5978 25.3631 23.5722 25.3347 23.5481C25.3075 23.522 25.2791 23.4959 25.2531 23.4676C25.428 23.5029 25.5921 23.5625 25.7376 23.6435C25.8112 23.6828 25.8811 23.726 25.9469 23.7727C26.014 23.8184 26.0776 23.8671 26.1372 23.9186C26.3735 24.1215 26.5709 24.3498 26.7236 24.5968C26.8777 24.8414 26.9916 25.1008 27.0627 25.3689C27.1416 25.6404 27.1461 25.9233 27.0758 26.1998Z" fill="#78C081"/>
<path d="M26.95 23.4569C26.8291 23.1693 26.631 22.9164 26.3744 22.7219C26.1279 22.5323 25.8463 22.3858 25.5429 22.2892C25.237 22.1951 24.9206 22.1316 24.5991 22.1C24.2742 22.0637 23.9407 22.0466 23.6031 22.0301L23.8846 21.7515C23.9389 22.158 24.0026 22.562 24.0473 22.9697C24.0745 23.173 24.0936 23.3785 24.1271 23.5667C24.14 23.6633 24.1606 23.7549 24.1851 23.8448C24.2106 23.9349 24.2428 24.0231 24.2816 24.1087C24.4397 24.4572 24.6925 24.7603 25.0156 24.9885C25.3543 25.2312 25.7545 25.3899 26.1794 25.45C25.7208 25.5029 25.2583 25.4201 24.8578 25.2133C24.4395 25.0029 24.0982 24.6824 23.876 24.2911C23.8207 24.1908 23.7734 24.0869 23.7342 23.9801C23.6965 23.8758 23.6665 23.7692 23.6443 23.661C23.5956 23.4425 23.5686 23.2405 23.5367 23.043C23.4723 22.634 23.4182 22.2288 23.3639 21.8223L23.3235 21.52L23.6467 21.5436C23.9937 21.5675 24.3388 21.6086 24.6804 21.6667C25.0321 21.7241 25.3732 21.825 25.6947 21.9669C26.0204 22.111 26.3084 22.3182 26.5399 22.5748C26.7703 22.8218 26.9133 23.1295 26.95 23.4569Z" fill="#78C081"/>
<path d="M27.5378 23.299C27.4262 23.1175 27.3479 22.9147 27.3082 22.7041C27.2679 22.4908 27.2546 22.2748 27.2688 22.0629C27.3058 21.6394 27.4102 21.2337 27.577 20.865C27.7405 20.4892 27.9545 20.1478 28.212 19.8518C28.347 19.6997 28.4983 19.5671 28.663 19.4564C28.8261 19.3507 28.9981 19.2613 29.177 19.1892C29.3523 19.1136 29.5304 19.0572 29.706 19.0037C29.8816 18.9501 30.0544 18.9035 30.2302 18.8559C30.5785 18.7659 30.9183 18.6766 31.2392 18.5613C31.5487 18.4561 31.8397 18.3011 32.1036 18.1007C32.3817 17.8931 32.606 17.6093 32.7583 17.2722C32.8725 16.9912 32.9677 16.6944 33.0727 16.4064C33.0435 16.4904 33.1398 16.7869 33.1561 16.8882C33.2439 17.4294 33.2818 17.9742 33.2689 18.5136C33.265 18.868 33.2393 19.2194 33.192 19.5652L33.1707 19.699L33.0963 20.0796C33.0615 20.246 33.0237 20.4134 32.9774 20.5815C32.8821 20.9239 32.7388 21.2424 32.5526 21.5258C32.4597 21.6648 32.3574 21.7952 32.2466 21.916C32.1336 22.0335 32.0207 22.141 31.9044 22.2435C31.6716 22.4491 31.4238 22.6333 31.1632 22.7945C30.6454 23.116 30.0789 23.3398 29.4838 23.4579C30.0194 23.2132 30.5222 22.8964 30.9823 22.5137C31.2086 22.3262 31.4229 22.1215 31.6237 21.9009C31.822 21.6908 31.9983 21.4556 32.1494 21.1992C32.2875 20.9442 32.3877 20.6628 32.4467 20.3651C32.4794 20.2135 32.5072 20.0574 32.5317 19.8965L32.567 19.6534L32.5851 19.5308L32.5994 19.4174C32.6293 19.098 32.6424 18.7752 32.6387 18.4506C32.6384 18.1206 32.8282 18.4388 32.5072 18.6949C32.1926 18.9379 31.8421 19.1207 31.4678 19.237C31.1097 19.3545 30.7498 19.4302 30.4005 19.5065C30.0511 19.5828 29.7016 19.6532 29.3817 19.756C29.2245 19.8046 29.0724 19.8686 28.9272 19.9474C28.7839 20.0261 28.6507 20.1238 28.5298 20.2387C28.2749 20.477 28.0539 20.7573 27.8732 21.0718C27.6835 21.3849 27.5437 21.7361 27.4592 22.1112C27.3658 22.4932 27.3935 22.912 27.5378 23.299Z" fill="#78C081"/>
</svg>
