<svg width="310" height="301" viewBox="0 0 310 301" fill="none" xmlns="http://www.w3.org/2000/svg">
<g opacity="0.5" clip-path="url(#clip0_86_2175)">
<path d="M167.84 43.2482L58.8327 98.1325L260.841 140.056L182.231 46.1859C180.517 44.1421 178.161 42.7391 175.548 42.2057C172.935 41.6722 170.218 42.0397 167.84 43.2482Z" fill="#EBEBEB"/>
<path d="M57.5832 98.2954L167.656 42.8736C170.117 41.613 172.933 41.2284 175.642 41.7832C178.35 42.3381 180.789 43.7992 182.556 45.9258L261.939 140.715L57.5832 98.2954ZM178.124 43.4473C176.548 42.6904 174.817 42.3087 173.069 42.3319C171.32 42.3551 169.6 42.7827 168.045 43.5812L60.0724 97.9738L259.761 139.415L181.934 46.4426C180.884 45.1939 179.58 44.1846 178.107 43.4826L178.124 43.4473Z" fill="#E0E0E0"/>
<path d="M58.8193 98.1562L261.538 140.229L238.741 250.073C238.289 252.248 236.992 254.155 235.135 255.374C233.278 256.593 231.012 257.024 228.837 256.572L42.5292 217.906C40.354 217.454 38.4472 216.157 37.2284 214.3C36.0095 212.443 35.5783 210.177 36.0298 208.002L58.827 98.1578L58.8193 98.1562Z" fill="#F0F0F0"/>
<path d="M247.813 140.221L154.26 174.142L69.6832 107.187L83.0221 51.6805C83.6662 48.7937 85.4201 46.2762 87.9049 44.6717C90.3897 43.0673 93.4059 42.5047 96.302 43.1056L249.851 74.9926C251.299 75.2919 252.674 75.8739 253.897 76.7053C255.12 77.5367 256.167 78.6011 256.978 79.8376C257.789 81.0741 258.349 82.4585 258.624 83.9114C258.9 85.3644 258.886 86.8574 258.584 88.3051L247.813 140.221Z" fill="white"/>
<path d="M148.071 164.96L36.1479 206.978C35.9012 208.162 35.8903 209.384 36.116 210.572C36.3417 211.761 36.7994 212.893 37.4631 213.905C38.1268 214.917 38.9834 215.787 39.9839 216.468C40.9844 217.148 42.1092 217.624 43.2939 217.87L228.187 256.222C230.579 256.718 233.07 256.244 235.112 254.904C237.155 253.564 238.581 251.468 239.079 249.076L239.222 248.381L158.333 167.188C157.019 165.867 155.352 164.954 153.531 164.559C151.71 164.164 149.814 164.303 148.071 164.96Z" fill="#E0E0E0"/>
<path d="M158.562 82.217L98.4839 69.7593L97.2119 75.8934L157.29 88.3512L158.562 82.217Z" fill="#E0E0E0"/>
<path d="M228.555 112.951L95.2578 85.311L93.8207 92.2416L227.118 119.882L228.555 112.951Z" fill="#E0E0E0"/>
<path d="M225.048 129.885L91.7505 102.245L90.3134 109.175L223.611 136.816L225.048 129.885Z" fill="#E0E0E0"/>
<path d="M217.922 151.126L212.4 153.061L99.8825 131.119L88.2899 121.785L88.4779 120.131L221.346 147.687L220.874 149.986L217.922 151.126Z" fill="#E0E0E0"/>
<path d="M179.825 164.871L129.418 154.41L117.165 144.646L192.505 160.269L179.825 164.871Z" fill="#E0E0E0"/>
<path d="M143.987 166.485C143.987 166.485 143.901 166.539 143.717 166.615L142.9 166.942L139.766 168.152L128.182 172.587C118.392 176.306 104.836 181.432 89.876 187.004C74.9163 192.575 61.2722 197.486 51.3908 200.944C46.4466 202.671 42.431 204.055 39.6574 204.986L36.4625 206.053L35.6235 206.318C35.5309 206.356 35.4337 206.382 35.3344 206.395C35.4219 206.347 35.5138 206.307 35.6089 206.276L36.4332 205.969L39.5884 204.822L51.2709 200.652C61.1272 197.156 74.7389 192.186 89.7265 186.611C104.714 181.035 118.248 176.028 128.066 172.306L139.687 167.992L142.845 166.838L143.677 166.553L143.987 166.485Z" fill="#FAFAFA"/>
<path d="M239.222 248.381C239.139 248.463 221.836 231.263 200.576 209.964C179.316 188.666 162.147 171.331 162.23 171.249C162.312 171.167 179.619 188.36 200.865 209.687C222.112 231.014 239.308 248.292 239.222 248.381Z" fill="#FAFAFA"/>
<path d="M252.279 138.568C252.21 138.612 252.137 138.65 252.06 138.68L251.397 138.96L248.835 140.01L239.367 143.779C231.353 146.928 220.259 151.192 207.935 155.74C195.612 160.288 184.398 164.241 176.262 167.046L166.609 170.318L163.974 171.177L163.288 171.394C163.128 171.438 163.048 171.461 163.044 171.45C163.118 171.411 163.195 171.379 163.274 171.352L163.945 171.093L166.554 170.161L176.157 166.761C184.274 163.886 195.469 159.88 207.782 155.336C220.096 150.792 231.214 146.567 239.251 143.498L248.805 139.874L251.343 138.873L252.025 138.628C252.107 138.598 252.192 138.578 252.279 138.568Z" fill="#FAFAFA"/>
<path d="M143.987 166.485C143.906 166.44 143.83 166.386 143.761 166.324L143.138 165.816L140.657 163.755C138.538 161.99 135.445 159.452 131.599 156.352C123.923 150.135 113.177 141.713 101.281 132.451C89.3852 123.189 78.6665 114.727 71.0386 108.446C67.2194 105.308 64.1506 102.738 62.059 100.934L59.6805 98.896L59.074 98.3527C58.9992 98.295 58.9323 98.2279 58.875 98.1528L59.098 98.3208L59.7248 98.8219L62.1699 100.866C64.2959 102.635 67.3921 105.165 71.2353 108.272C78.9112 114.489 89.6502 122.908 101.553 132.174C113.456 141.439 124.168 149.897 131.796 156.178C135.615 159.317 138.687 161.879 140.775 163.69L143.175 165.773L143.782 166.317L143.987 166.485Z" fill="#FAFAFA"/>
<path d="M247.813 140.221C247.813 140.221 247.854 139.955 247.962 139.425L248.406 137.183C248.806 135.197 249.395 132.295 250.152 128.554L256.655 96.8632C257.002 95.1905 257.355 93.4768 257.712 91.7223C257.895 90.8554 258.081 89.9641 258.259 89.0693C258.354 88.6201 258.455 88.1743 258.515 87.7256C258.589 87.2749 258.631 86.8195 258.641 86.3629C258.703 84.4457 258.264 82.5455 257.367 80.8496C256.471 79.1538 255.148 77.7209 253.529 76.6923C252.69 76.1515 251.781 75.7288 250.826 75.436C249.864 75.164 248.843 74.9768 247.829 74.758L241.618 73.5067L228.703 70.8017L171.137 58.8762L113.543 46.9021L100.629 44.2146L97.5055 43.5805C96.5029 43.324 95.4796 43.1571 94.4475 43.0818C93.4352 43.032 92.4211 43.1289 91.4366 43.3694C90.4638 43.5967 89.5275 43.9584 88.6546 44.4441C87.7958 44.9191 87.0018 45.5027 86.2921 46.1805C85.6075 46.8571 85.0094 47.6159 84.5113 48.4396C83.4693 50.0647 83.1486 51.9586 82.6971 53.7636C81.82 57.3917 80.9791 60.8666 80.1743 64.1882C76.9258 77.4748 74.3556 88.2325 72.5212 95.6556C71.6057 99.3636 70.9013 102.236 70.4276 104.195C70.1872 105.164 69.9957 105.905 69.8706 106.418C69.7456 106.931 69.6585 107.184 69.6585 107.184C69.6585 107.184 69.7069 106.921 69.8283 106.398C69.9497 105.875 70.1203 105.141 70.3433 104.172C70.8062 102.199 71.4895 99.3165 72.3664 95.5985C74.134 88.1519 76.6971 77.3909 79.8582 64.1056C80.6583 60.7817 81.4899 57.3024 82.3528 53.6674C82.7942 51.8836 83.1279 49.9266 84.197 48.245C84.7028 47.4127 85.3103 46.6467 86.0054 45.9645C86.7382 45.2653 87.5563 44.6615 88.4405 44.1675C89.3399 43.6645 90.3057 43.2905 91.3093 43.0565C92.3246 42.8008 93.3721 42.6964 94.4178 42.7464C95.4729 42.8106 96.5198 42.9714 97.5455 43.2266L100.704 43.8777L113.632 46.5545L171.24 58.5003L228.835 70.4743L241.71 73.117L247.9 74.4106C248.918 74.6223 249.921 74.8098 250.93 75.0951C252.386 75.5456 253.738 76.282 254.906 77.2611C256.074 78.2402 257.035 79.4424 257.733 80.7974C258.621 82.5241 259.051 84.4491 258.984 86.3891C258.976 86.8591 258.93 87.3277 258.848 87.7905C258.782 88.2532 258.687 88.7024 258.593 89.1516C258.407 90.043 258.222 90.9344 258.036 91.8083C257.671 93.5594 257.309 95.2685 256.964 96.9424L250.318 128.625C249.529 132.359 248.873 135.238 248.495 137.234C248.275 138.213 248.115 138.961 248.001 139.47C247.886 139.979 247.813 140.221 247.813 140.221Z" fill="#E0E0E0"/>
<path d="M186.897 65.1196L177.374 67.0744L172.838 77.3725L168.897 69.2371L163.922 70.5588L158.482 47.583L186.897 65.1196Z" fill="#5CCD6A"/>
<g opacity="0.3">
<path d="M173.722 67.9731C173.573 68.2832 172.838 77.3721 172.838 77.3721L168.897 69.2366L173.722 67.9731Z" fill="black"/>
</g>
<path d="M158.482 47.583L173.715 67.9702L172.838 77.3725L177.374 67.0744L158.482 47.583Z" fill="#54BE61"/>
<path d="M149.1 211.452C147.867 210.807 146.78 209.915 145.908 208.832C147.141 209.476 148.228 210.368 149.1 211.452Z" fill="#495D4C"/>
<path d="M154.187 215.634C154.136 215.74 153.625 215.45 153.101 215.025C152.576 214.599 152.213 214.164 152.285 214.068C152.357 213.973 152.847 214.252 153.375 214.688C153.903 215.124 154.266 215.542 154.187 215.634Z" fill="#495D4C"/>
<path d="M188.538 83.2912C187.908 82.9997 187.333 82.6027 186.837 82.1175C186.252 81.7451 185.74 81.2693 185.325 80.7135C185.993 80.9332 186.602 81.3032 187.105 81.7951C187.696 82.1713 188.187 82.6846 188.538 83.2912Z" fill="#495D4C"/>
<path d="M193.954 89.4973C193.408 89.0708 192.941 88.5524 192.573 87.9654C192.095 87.4649 191.707 86.8849 191.427 86.2515C192.028 86.6139 192.534 87.1131 192.905 87.7085C193.611 88.6036 194.054 89.4328 193.954 89.4973Z" fill="#495D4C"/>
<path d="M197.711 96.8241C197.597 96.8644 197.223 96.0341 196.753 94.9919C196.282 93.9497 195.933 93.0875 196.069 93.04C196.562 93.5409 196.931 94.1496 197.149 94.8179C197.606 95.8708 197.816 96.7876 197.711 96.8241Z" fill="#495D4C"/>
<path d="M199.392 104.879C199.269 104.881 199.133 103.973 198.976 102.856C198.818 102.181 198.772 101.485 198.839 100.795C198.947 100.768 199.248 101.659 199.402 102.801C199.563 103.485 199.559 104.197 199.392 104.879Z" fill="#495D4C"/>
<path d="M198.604 113.066C198.565 112.374 198.64 111.68 198.828 111.013C198.872 110.319 199.038 109.638 199.318 109.001C199.463 109.691 199.438 110.405 199.245 111.083C199.199 111.787 198.978 112.468 198.604 113.066Z" fill="#495D4C"/>
<path d="M195.426 120.65C195.594 119.977 195.87 119.337 196.243 118.752C196.49 118.103 196.849 117.503 197.304 116.98C197.237 117.679 197.005 118.353 196.627 118.945C196.367 119.601 195.955 120.185 195.426 120.65Z" fill="#495D4C"/>
<path d="M190.064 126.871C190.438 126.289 190.904 125.772 191.443 125.339C191.878 124.804 192.394 124.34 192.972 123.965C192.701 124.617 192.268 125.188 191.714 125.625C191.275 126.17 190.708 126.598 190.064 126.871Z" fill="#495D4C"/>
<path d="M182.863 130.82C182.833 130.701 183.681 130.345 184.717 129.906C185.753 129.467 186.6 129.076 186.654 129.198C186.164 129.705 185.556 130.083 184.884 130.299C183.824 130.752 182.896 130.931 182.863 130.82Z" fill="#495D4C"/>
<path d="M174.721 131.833C175.391 131.659 176.084 131.594 176.775 131.641C177.461 131.546 178.159 131.565 178.839 131.696C178.195 131.987 177.49 132.116 176.785 132.071C176.088 132.163 175.379 132.081 174.721 131.833Z" fill="#495D4C"/>
<path d="M166.737 129.92C167.424 129.994 168.093 130.181 168.719 130.474C169.396 130.627 170.043 130.889 170.637 131.249C169.933 131.298 169.227 131.171 168.585 130.878C167.898 130.719 167.263 130.39 166.737 129.92Z" fill="#495D4C"/>
<path d="M160.155 125.019C160.746 125.38 161.279 125.827 161.739 126.344C162.291 126.758 162.78 127.25 163.189 127.805C162.519 127.58 161.92 127.184 161.45 126.657C160.881 126.236 160.433 125.67 160.155 125.019Z" fill="#495D4C"/>
<path d="M157.486 117.486C157.592 117.537 157.577 118.398 157.755 119.508C157.933 120.617 158.212 121.463 158.083 121.531C157.955 121.6 157.518 120.739 157.329 119.581C157.144 118.885 157.199 118.147 157.486 117.486Z" fill="#495D4C"/>
<path d="M163.356 113.202C163.302 113.315 162.415 113.192 161.337 113.377C160.259 113.561 159.487 114.066 159.415 113.962C159.344 113.858 160.06 113.162 161.261 112.958C161.965 112.77 162.714 112.857 163.356 113.202Z" fill="#495D4C"/>
<path d="M168.457 118.909C168.331 118.918 168.212 118.011 167.805 116.982C167.397 115.952 166.812 115.255 166.934 115.183C167.554 115.551 168.011 116.14 168.215 116.832C168.539 117.474 168.625 118.21 168.457 118.909Z" fill="#495D4C"/>
<path d="M165.236 126.221C165.583 125.632 165.991 125.081 166.452 124.576C166.801 123.985 167.21 123.431 167.672 122.923C167.514 123.612 167.214 124.26 166.792 124.826C166.371 125.393 165.836 125.865 165.222 126.214L165.236 126.221Z" fill="#495D4C"/>
<path d="M157.747 129.432C157.727 129.31 158.623 129.089 159.706 128.803C160.79 128.517 161.702 128.262 161.718 128.356C161.733 128.45 160.943 128.921 159.835 129.186C158.726 129.452 157.759 129.55 157.747 129.432Z" fill="#495D4C"/>
<path d="M149.509 129.688C150.178 129.49 150.88 129.429 151.573 129.509C152.272 129.45 152.975 129.537 153.638 129.764C152.965 129.958 152.261 130.018 151.566 129.94C150.87 129.997 150.17 129.912 149.509 129.688Z" fill="#495D4C"/>
<path d="M141.263 129.87C141.251 129.752 142.161 129.573 143.307 129.465C143.999 129.352 144.707 129.396 145.38 129.594C145.385 129.726 144.459 129.811 143.334 129.894C142.65 130.031 141.944 130.023 141.263 129.87Z" fill="#495D4C"/>
<path d="M133.313 132.018C133.27 131.91 134.088 131.453 135.177 131.083C136.267 130.713 137.163 130.563 137.225 130.688C137.286 130.813 136.378 131.149 135.313 131.505C134.248 131.86 133.378 132.101 133.313 132.018Z" fill="#495D4C"/>
<path d="M126.134 136.046C126.551 135.481 127.094 135.02 127.719 134.699C128.685 134.079 129.547 133.713 129.608 133.82C129.131 134.325 128.571 134.746 127.952 135.063C127.035 135.689 126.209 136.143 126.134 136.046Z" fill="#495D4C"/>
<path d="M120.106 141.652C120.374 141.003 120.793 140.428 121.329 139.975C121.76 139.419 122.316 138.973 122.953 138.673C122.611 139.279 122.166 139.819 121.638 140.271C121.212 140.817 120.693 141.284 120.106 141.652Z" fill="#495D4C"/>
<path d="M115.594 148.542C115.933 147.184 116.637 145.944 117.631 144.957C117.447 145.626 117.143 146.256 116.736 146.818C116.459 147.455 116.073 148.039 115.594 148.542Z" fill="#495D4C"/>
<path d="M113.031 156.362C112.977 155.664 113.069 154.964 113.3 154.304C113.377 153.603 113.636 152.935 114.051 152.365C114.043 153.059 113.931 153.749 113.718 154.41C113.626 155.101 113.392 155.765 113.031 156.362Z" fill="#495D4C"/>
<path d="M112.612 164.578C112.351 163.926 112.247 163.222 112.307 162.522C112.225 161.824 112.312 161.115 112.562 160.458C112.739 161.13 112.797 161.827 112.734 162.519C112.819 163.207 112.778 163.905 112.612 164.578Z" fill="#495D4C"/>
<path d="M114.209 172.662C114.104 172.699 113.728 171.858 113.402 170.73C113.161 170.069 113.074 169.362 113.147 168.663C113.272 168.636 113.531 169.524 113.82 170.618C114.11 171.712 114.324 172.622 114.209 172.662Z" fill="#495D4C"/>
<path d="M117.661 180.137C117.127 179.678 116.71 179.099 116.442 178.449C115.902 177.442 115.615 176.558 115.712 176.501C116.182 177.015 116.558 177.607 116.824 178.25C117.367 179.249 117.761 180.072 117.661 180.137Z" fill="#495D4C"/>
<path d="M122.818 186.557C122.186 186.248 121.637 185.791 121.22 185.224C120.691 184.759 120.285 184.171 120.039 183.511C120.612 183.899 121.118 184.379 121.534 184.932C122.045 185.402 122.479 185.951 122.818 186.557Z" fill="#495D4C"/>
<path d="M126.072 189.337C126.024 189.436 125.92 189.49 125.888 189.466C125.856 189.442 125.886 189.343 125.987 189.261C126.087 189.179 126.138 189.109 126.17 189.133C126.202 189.157 126.161 189.206 126.072 189.337Z" fill="#495D4C"/>
<path d="M129.573 168.254L123.083 162.016L119.202 166.053L125.692 172.291L129.573 168.254Z" fill="#43AF55"/>
<path d="M129.589 168.274C127.8 168.303 126.012 168.197 124.239 167.957L124.081 167.942L124.051 167.789L123.998 167.555C123.558 165.74 123.26 163.893 123.105 162.031C123.681 163.809 124.121 165.627 124.42 167.472L124.466 167.702L124.278 167.533C126.065 167.637 127.841 167.884 129.589 168.274Z" fill="#2A9348"/>
<path d="M123.877 166.021C123.117 166.243 122.322 166.323 121.533 166.256C120.744 166.325 119.949 166.257 119.183 166.055C119.946 165.838 120.742 165.759 121.533 165.823C122.32 165.755 123.113 165.822 123.877 166.021Z" fill="#2A9348"/>
<path d="M125.79 172.4C125.614 171.661 125.571 170.897 125.661 170.142C125.701 168.868 125.825 167.817 125.959 167.899C126.136 168.639 126.182 169.404 126.095 170.16C126.134 170.919 126.031 171.679 125.79 172.4Z" fill="#2A9348"/>
<path d="M151.959 202.155L135.268 186.113L125.285 196.499L141.976 212.542L151.959 202.155Z" fill="#5CCD6A"/>
<path d="M151.948 202.155C151.588 202.181 151.225 202.173 150.867 202.13L147.935 201.909C145.438 201.688 142.033 201.387 138.211 201.016L138.053 201.001L138.023 200.847L137.902 200.251C137.118 196.359 136.42 192.83 135.943 190.266L135.397 187.235C135.315 186.864 135.267 186.486 135.253 186.107C135.403 186.463 135.516 186.835 135.589 187.214L136.268 190.223C136.825 192.764 137.561 196.286 138.352 200.181L138.477 200.77L138.289 200.602C142.1 200.977 145.527 201.341 147.994 201.625L150.913 201.979C151.263 202.007 151.609 202.066 151.948 202.155Z" fill="#43AF55"/>
<path d="M137.346 196.426C135.342 196.648 133.325 196.73 131.309 196.672C129.296 196.752 127.28 196.693 125.275 196.496C127.278 196.263 129.294 196.177 131.309 196.239C133.323 196.153 135.341 196.216 137.346 196.426Z" fill="#43AF55"/>
<path d="M142.179 212.348C142.068 210.5 142.088 208.643 142.238 206.793C142.261 204.937 142.419 203.082 142.709 201.244C142.826 203.094 142.805 204.953 142.647 206.806C142.626 208.659 142.469 210.512 142.179 212.348Z" fill="#43AF55"/>
<path d="M134.916 189.677C134.249 189.802 133.56 189.726 132.935 189.459C132.311 189.192 131.78 188.746 131.409 188.177C131.039 187.608 130.845 186.942 130.853 186.263C130.86 185.584 131.069 184.923 131.452 184.363C131.836 183.803 132.377 183.369 133.007 183.116C133.637 182.863 134.328 182.802 134.992 182.942C135.657 183.082 136.265 183.415 136.74 183.901C137.214 184.386 137.535 185.001 137.66 185.668C137.743 186.112 137.739 186.567 137.646 187.009C137.553 187.45 137.374 187.869 137.119 188.241C136.864 188.614 136.539 188.932 136.161 189.178C135.783 189.425 135.36 189.594 134.916 189.677Z" fill="#495D4C"/>
<path d="M136.479 186.662C135.591 186.834 134.688 186.929 133.783 186.945L133.158 186.982L133.042 186.988L133.034 186.879C132.955 186.19 132.94 185.494 132.991 184.802C133.149 185.479 133.238 186.171 133.257 186.866L133.144 186.759L133.773 186.714C134.672 186.618 135.577 186.601 136.479 186.662Z" fill="white"/>
<path d="M147.23 179.408L138.484 171.002L133.254 176.444L142 184.85L147.23 179.408Z" fill="#43AF55"/>
<path d="M147.215 179.406C147.026 179.418 146.837 179.414 146.649 179.394L145.108 179.278C143.815 179.168 142.018 179.007 140.021 178.81L139.951 178.776L139.932 178.689L139.871 178.382C139.455 176.342 139.13 174.511 138.839 173.148L138.552 171.56C138.512 171.366 138.487 171.169 138.48 170.97C138.556 171.154 138.609 171.345 138.64 171.541L139 173.121C139.29 174.449 139.678 176.293 140.094 178.333L140.152 178.647L140.039 178.593C142.036 178.79 143.83 178.976 145.126 179.131L146.651 179.317C146.842 179.324 147.032 179.354 147.215 179.406Z" fill="#2A9348"/>
<path d="M139.565 176.404C138.515 176.518 137.459 176.561 136.404 176.533C135.348 176.576 134.289 176.546 133.237 176.442C134.287 176.321 135.344 176.276 136.401 176.306C137.456 176.262 138.514 176.295 139.565 176.404Z" fill="#2A9348"/>
<path d="M142.142 184.994C142.068 183.983 142.069 182.968 142.144 181.958C142.15 180.943 142.225 179.929 142.37 178.925C142.449 180.951 142.372 182.98 142.142 184.994Z" fill="#2A9348"/>
<path d="M102.704 58.3953C100.632 60.8717 97.8719 62.6782 94.7733 63.5866C91.6748 64.4949 88.3765 64.4643 85.2954 63.4986C82.2142 62.5329 79.4885 60.6755 77.4627 58.161C75.437 55.6466 74.2021 52.5881 73.9141 49.372C73.6262 46.1559 74.2981 42.9266 75.845 40.0923C77.3919 37.258 79.7444 34.946 82.605 33.4483C85.4656 31.9506 88.706 31.3346 91.9166 31.6781C95.1272 32.0216 98.164 33.3091 100.643 35.3781C102.29 36.7539 103.65 38.4407 104.645 40.3421C105.64 42.2436 106.25 44.3224 106.441 46.4598C106.633 48.5973 106.401 50.7515 105.76 52.7994C105.119 54.8473 104.08 56.7488 102.704 58.3953Z" fill="#5CCD6A"/>
<path d="M99.473 42.5569C99.683 42.7881 95.6431 46.9114 90.4426 51.7697C89.6803 52.4706 88.9561 53.1463 88.2386 53.808L87.8489 54.1673L87.458 53.771C83.5711 49.6365 80.811 46.4432 81.0007 46.2654C81.1903 46.0876 84.264 48.9717 88.2336 53.0245L87.4778 53.0081C88.1811 52.3397 88.9087 51.6569 89.6569 50.9492C94.8785 46.1011 99.2668 42.3362 99.473 42.5569Z" fill="white"/>
</g>
<defs>
<clipPath id="clip0_86_2175">
<rect width="238.088" height="219.404" fill="white" transform="translate(95.0938) rotate(25.6848)"/>
</clipPath>
</defs>
</svg>
