<svg width="290" height="275" viewBox="0 0 290 275" fill="none" xmlns="http://www.w3.org/2000/svg">
<g opacity="0.5" clip-path="url(#clip0_86_2250)">
<path d="M268.612 220.009C268.612 220.009 168.948 218.195 126.677 220.36C96.4362 221.907 5.49437 220.659 5.49437 220.659C5.49437 220.659 7.19728 154.108 5.24667 120.379C3.9911 98.8675 5.03376 34.1866 5.03376 34.1866C5.03376 34.1866 101.843 34.1316 132.962 32.8512C184.455 30.6993 268.151 33.5367 268.151 33.5367C268.151 33.5367 270.274 79.803 268.334 107.347C266.373 135.443 268.612 220.009 268.612 220.009Z" fill="white"/>
<path opacity="0.5" d="M268.151 33.5367L268.256 75.801C250.395 75.3991 200.931 74.6152 136.096 76.3328C67.2866 78.1523 18.897 77.1533 5.11068 76.7838L5.00546 34.1867C5.00546 34.1867 101.815 34.1388 132.933 32.8513C184.455 30.6993 268.151 33.5367 268.151 33.5367Z" fill="#92E3A9" fill-opacity="0.7"/>
<path opacity="0.2" d="M168.875 217.474L166.109 73.9932L136.692 74.0659C135.439 96.6455 136.527 187.501 136.933 217.552L168.875 217.474Z" fill="#92E3A9" fill-opacity="0.7"/>
<path opacity="0.2" d="M8.45647 76.8463L40.7232 76.5471C40.7232 76.5471 43.4588 187.54 37.9175 217.797L10.665 217.864C10.665 217.864 10.94 177.433 10.4827 144.061C10.0254 110.689 8.45647 76.8463 8.45647 76.8463Z" fill="#92E3A9" fill-opacity="0.7"/>
<path d="M8.40119 54.4964C8.40119 54.4964 88.3239 53.1734 112.488 54.2393C136.653 55.3053 203.127 53.1871 212.816 52.5756C222.505 51.9641 266.575 53.8587 266.575 53.8587C268.197 40.6161 265.035 34.5638 265.035 34.5638C265.035 34.5638 147.138 36.3913 90.06 37.304C32.9824 38.2166 8.35922 37.5058 8.35922 37.5058C8.35922 37.5058 9.50966 47.9593 8.40119 54.4964Z" fill="#5CCD6A"/>
<path d="M268.612 220.009C268.612 220.009 168.948 218.195 126.677 220.36C96.4362 221.907 5.49437 220.659 5.49437 220.659C5.49437 220.659 7.19728 154.108 5.24667 120.379C3.9911 98.8675 5.03376 34.1866 5.03376 34.1866C5.03376 34.1866 101.843 34.1316 132.962 32.8512C184.455 30.6993 268.151 33.5367 268.151 33.5367C268.151 33.5367 270.274 79.803 268.334 107.347C266.373 135.443 268.612 220.009 268.612 220.009Z" stroke="#495E4C" stroke-width="0.6" stroke-linecap="round" stroke-linejoin="round"/>
<path d="M12.4089 56.1717C12.4089 56.1717 42.9052 54.9708 77.8842 56.01C112.863 57.0492 166.051 56.1957 194.44 55.2194C222.829 54.2431 257.168 53.8822 257.168 53.8822" stroke="#495E4C" stroke-width="0.6" stroke-linecap="round" stroke-linejoin="round"/>
<path d="M12.4593 76.617C12.4593 76.617 233.918 73.8258 257.181 73.7683" stroke="#495E4C" stroke-width="0.6" stroke-linecap="round" stroke-linejoin="round"/>
<path d="M40.6686 54.4167C40.6686 54.4167 44.0518 178.484 41.0352 202.852" stroke="#495E4C" stroke-width="0.6" stroke-linecap="round" stroke-linejoin="round"/>
<path d="M71.1676 54.3414C71.1676 54.3414 70.3874 190.921 71.5286 200.49" stroke="#495E4C" stroke-width="0.6" stroke-linecap="round" stroke-linejoin="round"/>
<path d="M103.067 54.2626C103.067 54.2626 104.251 81.1617 104.607 104.955C104.963 128.748 103.425 199.285 104.859 207.154" stroke="#495E4C" stroke-width="0.6" stroke-linecap="round" stroke-linejoin="round"/>
<path d="M136.646 55.3124C136.646 55.3124 135.143 137.084 135.919 165.089C136.696 193.093 137.023 208.221 137.023 208.221" stroke="#495E4C" stroke-width="0.6" stroke-linecap="round" stroke-linejoin="round"/>
<path d="M166.024 54.1071C166.024 54.1071 169.094 151.315 168.834 172.165C168.574 193.015 168.914 204.652 168.914 204.652" stroke="#495E4C" stroke-width="0.6" stroke-linecap="round" stroke-linejoin="round"/>
<path d="M197.92 52.6124C197.92 52.6124 197.885 109.956 199.728 125.888C201.571 141.819 199.118 208.096 199.118 208.096" stroke="#495E4C" stroke-width="0.6" stroke-linecap="round" stroke-linejoin="round"/>
<path d="M229.296 52.5349C229.296 52.5349 230.571 81.8621 230.824 98.2434C231.076 114.625 230.512 198.242 232.501 204.524" stroke="#495E4C" stroke-width="0.6" stroke-linecap="round" stroke-linejoin="round"/>
<path d="M12.5021 93.9758C12.5021 93.9758 58.5315 93.0267 87.7028 93.79C87.7028 93.79 87.6515 101.634 87.7298 104.714C87.7298 104.714 19.8271 104.322 12.5291 104.899C12.5291 104.899 13.0658 95.9354 12.5021 93.9758Z" fill="white" stroke="#495E4C" stroke-linecap="round" stroke-linejoin="round"/>
<path d="M167.154 93.2255L167.182 104.553C167.182 104.553 224.62 103.851 230.764 102.718L230.624 91.7945C230.624 91.7945 187.541 91.3982 167.154 93.2255Z" fill="white" stroke="#495E4C" stroke-linecap="round" stroke-linejoin="round"/>
<path d="M70.7975 107.835L136.195 107.673L135.81 118.11C135.81 118.11 108.262 118.808 93.4312 119.198C78.5998 119.589 71.3299 120.088 71.3299 120.088L70.7975 107.835Z" fill="#5CCD6A" stroke="#495E4C" stroke-linecap="round" stroke-linejoin="round"/>
<path d="M232.183 104.357L232.471 112.2C232.471 112.2 252.816 110.734 255.809 111.024L255.79 103.18C255.79 103.18 237.781 102.941 232.183 104.357Z" fill="#5CCD6A" stroke="#495E4C" stroke-linecap="round" stroke-linejoin="round"/>
<path d="M136.256 132.614C136.256 132.614 192.13 131.174 199.735 128.578L199.773 144.153C199.773 144.153 145.177 144.507 135.71 146.258C135.71 146.286 135.132 135.718 136.256 132.614Z" fill="white" stroke="#495E4C" stroke-linecap="round" stroke-linejoin="round"/>
<path d="M140.104 132.506C140.104 132.506 134.784 140.766 135.883 141.818C136.982 142.871 142.375 132.861 144.03 132.595C145.684 132.329 138.285 146.357 138.994 146.851C139.702 147.345 149.064 132.023 151.292 132.018C153.52 132.012 146.374 145.353 147.789 145.286C149.203 145.219 155.791 132.262 158.195 132.001C160.6 131.74 152.654 145.076 154.5 145.015C156.346 144.954 163.716 130.784 165.246 131.537C166.776 132.291 157.673 143.881 160.094 144.824C162.516 145.767 168.664 132.421 171.626 131.741C174.588 131.061 164.803 143.899 167.668 144.232C170.533 144.565 174.793 130.855 177.031 131.94C179.268 133.025 172.95 140.644 173.885 141.151C174.82 141.659 177.78 131.981 180.765 131.931C183.75 131.881 177.25 140.633 177.96 141.686C178.67 142.739 181.695 139.1 181.695 139.1" stroke="#92E3A9" stroke-linecap="round" stroke-linejoin="round"/>
<path d="M15.2959 93.9263C15.2959 93.9263 12.9334 99.5958 13.4998 99.8563C14.0663 100.117 16.3152 94.2495 18.5227 94.5201C20.7302 94.7908 14.5447 104.795 15.9875 104.742C17.4303 104.689 22.325 93.2789 23.833 93.884C25.3411 94.4891 20.221 103.408 21.1986 104.021C22.1762 104.635 27.0497 93.2248 28.5931 93.851C30.1366 94.4773 24.2814 103.589 25.7879 103.585C27.2945 103.581 32.3414 93.6577 33.8763 93.6539C35.4111 93.6501 29.1445 102.31 30.6822 103.453C32.2199 104.596 35.9742 92.5301 38.2191 93.6432C40.464 94.7562 34.8821 102.855 36.5606 103.721C38.2391 104.588 42.5461 92.9387 43.9481 93.5582C45.3501 94.1778 39.8022 104.584 40.7642 104.589C41.7261 104.594 47.8926 92.6281 49.2953 93.5238C50.698 94.4194 44.1451 104.588 45.4041 104.584C46.6631 104.581 53.2107 92.2893 54.8885 92.894C56.5664 93.4987 50.5763 102.427 52.0842 102.982C53.5922 103.538 57.2461 96.6687 57.9464 96.6669C58.6466 96.6652 55.5076 102.974 56.3846 102.972C57.2617 102.969 60.6025 92.441 62.2744 93.4988C63.9462 94.5566 60.3323 100.441 61.1746 100.723C62.017 101.004 67.3095 93.1395 68.8471 94.2613C70.3848 95.3831 62.896 104.626 65.2725 104.62C67.6491 104.614 71.6838 94.3888 73.6434 94.5256C75.6029 94.6623 69.7474 103.639 71.2896 103.777C72.8319 103.915 75.8835 93.6846 77.5611 94.2398C79.2388 94.7949 75.2036 101.948 76.3222 102.363C77.4408 102.778 79.7986 95.2112 81.7582 95.348C83.7178 95.4847 78.1407 102.642 80.5179 102.912C82.8951 103.182 83.7164 94.9254 86.0937 95.1957C88.4709 95.4659 83.1063 102.785 84.4031 103.745C85.6998 104.704 87.6901 100.091 87.6901 100.091" stroke="#5CCD6A" stroke-linecap="round" stroke-linejoin="round"/>
<path d="M13.4077 111.198L16.6648 109.774C16.637 110.847 16.4193 111.907 16.0218 112.905C16.493 112.796 16.9209 112.549 17.2503 112.195C17.5797 111.841 17.7956 111.396 17.87 110.918L17.5121 112.066L20.5606 112.058C20.5112 111.891 20.5182 111.712 20.5805 111.55C20.6427 111.387 20.7567 111.249 20.9049 111.158C20.5803 111.449 20.7798 112.043 21.1693 112.241C21.5852 112.392 22.0414 112.391 22.4566 112.237C23.5306 111.966 24.5641 111.554 25.5303 111.012C25.4529 111.364 25.5025 111.731 25.6703 112.05C25.8382 112.368 26.1134 112.617 26.447 112.751C27.109 113.006 27.8226 113.096 28.5271 113.015L37.6717 112.702" stroke="#495E4C" stroke-linecap="round" stroke-linejoin="round"/>
<path d="M12.6312 117.578C12.6312 117.578 13.8862 115.947 15.0113 116.157C16.1364 116.366 15.4336 118.159 15.8516 118.441C16.2696 118.723 16.9669 114.708 17.6637 116.15C18.1051 117.036 19.4941 118.446 19.4941 118.446C19.4941 118.446 21.025 116.821 21.443 117.132C21.8611 117.442 22.702 117.129 22.702 117.129L35.7162 117.097" stroke="#495E4C" stroke-linecap="round" stroke-linejoin="round"/>
<path d="M53.6711 109.711C53.6711 109.711 43.2384 144.093 131.26 140.152" stroke="#495E4C" stroke-linecap="round" stroke-linejoin="round"/>
<path d="M131.254 137.689L133.496 140.43L131.265 141.83" stroke="#495E4C" stroke-linecap="round" stroke-linejoin="round"/>
<path d="M78.6531 141.401C71.3739 138.056 58.1885 140.361 48.4148 146.544C38.6411 152.727 36.6751 172.901 72.5132 166.93C108.351 160.958 85.6347 144.463 73.0802 144.494" fill="white"/>
<path d="M78.6531 141.401C71.3739 138.056 58.1885 140.361 48.4148 146.544C38.6411 152.727 36.6751 172.901 72.5132 166.93C108.351 160.958 85.6347 144.463 73.0802 144.494" stroke="#92E3A9" stroke-linecap="round" stroke-linejoin="round"/>
<path d="M50.2471 152.394C50.2471 152.394 52.4348 150.4 53.3822 150.263C54.3297 150.126 51.5973 152.101 53.3875 152.387C55.1776 152.672 54.8003 151.675 56.5393 151.31C58.2784 150.945 58.8207 152.89 58.8207 152.89C58.8207 152.89 61.6476 151.927 63.2944 151.463C64.9413 150.999 63.8587 153.699 66.1271 152.872C68.3955 152.045 67.3668 150.788 70.9402 151.444C74.5137 152.101 81.4441 151.659 84.5556 151.411" stroke="#92E3A9" stroke-linecap="round" stroke-linejoin="round"/>
<path d="M53.4376 158.326C54.1406 156.611 53.2628 156.281 55.2241 157.147C57.1855 158.013 58.3059 159.185 59.1454 158.312C59.4895 157.921 59.9461 157.647 60.4525 157.526C60.9588 157.406 61.49 157.446 61.9729 157.64C62.8084 157.992 60.8506 158.556 62.8084 157.992C63.9451 157.678 64.9974 157.115 65.8882 156.342C65.8882 156.342 65.396 157.532 67.4639 158.596C69.5319 159.66 70.9976 157.455 70.9976 157.455C74.1498 157.327 77.3067 157.369 80.4545 157.58" stroke="#92E3A9" stroke-linecap="round" stroke-linejoin="round"/>
<path d="M72.9847 255.611L80.4476 247.387L80.4424 245.264L86.1444 240.025C86.1444 240.025 93.1242 242.422 96.4695 250.916L90.4277 256.042L88.1156 256.345L79.1982 262.739C79.1982 262.739 72.997 260.602 72.9847 255.611Z" fill="#495E4C"/>
<path opacity="0.3" d="M86.375 241.61C86.375 241.61 88.9471 249.207 95.5429 250.741" stroke="white" stroke-width="0.6" stroke-linecap="round" stroke-linejoin="round"/>
<path opacity="0.3" d="M81.6362 247.505C81.6362 247.505 83.9713 253.623 88.9059 255.572" stroke="white" stroke-width="0.6" stroke-linecap="round" stroke-linejoin="round"/>
<path opacity="0.2" d="M168.482 20.9123L171.451 17.4997L178.368 17.4826C180.234 17.0635 182.001 16.2901 183.576 15.2043C183.576 15.2043 180.938 12.5277 177.762 12.4435L171.792 12.4583L155.842 9.60216L67.0526 17.7576C66.439 19.561 66.2663 21.4853 66.5491 23.3693C66.8319 25.2533 67.5619 27.0419 68.6779 28.5852L168.482 20.9123Z" fill="black" fill-opacity="0.7"/>
<path opacity="0.2" d="M208.448 28.2398L210.841 26.1879L218.578 26.0839C219.069 23.5773 219.12 21.0044 218.729 18.4803L197.556 11.1842C192.133 14.5886 194.373 28.2745 194.373 28.2745L208.448 28.2398Z" fill="black" fill-opacity="0.7"/>
<path d="M177.361 4.55825C177.361 4.55825 181.08 4.08182 183.206 5.80394C183.206 5.80394 182.936 7.99921 177.342 8.57229L177.361 4.55825Z" fill="#5CCD6A" stroke="#495E4C" stroke-width="0.5" stroke-linecap="round" stroke-linejoin="round"/>
<path d="M170.469 3.59109L165.63 0.303998L66.9308 8.49806C62.6123 15.5316 68.0404 22.4915 68.0404 22.4915L167.361 13.9702L170.84 10.5422L177.726 9.34295C178.149 8.47696 178.359 7.52282 178.341 6.55919C178.394 5.50421 178.063 4.46588 177.408 3.63766L170.469 3.59109Z" fill="#495E4C"/>
<path d="M99.5263 6.72544L143.539 3.00625C143.63 3.21348 143.669 3.43934 143.654 3.66495C143.639 3.89056 143.571 4.10935 143.454 4.30302C143.338 4.49669 143.177 4.65961 142.984 4.77814C142.792 4.89667 142.574 4.96738 142.349 4.98433L101.087 8.62594C100.89 8.64627 100.69 8.62488 100.502 8.56313C100.314 8.50139 100.14 8.40067 99.9931 8.26753C99.846 8.13438 99.7286 7.97178 99.6484 7.79027C99.5682 7.60875 99.527 7.41239 99.5275 7.21392L99.5263 6.72544Z" fill="#92E3A9"/>
<path opacity="0.3" d="M165.549 1.83337C165.549 1.83337 168.733 5.36519 166.508 12.45" stroke="white" stroke-width="0.6" stroke-linecap="round" stroke-linejoin="round"/>
<path opacity="0.3" d="M170.853 4.53882C171.413 5.96476 171.562 7.51971 171.281 9.02608" stroke="white" stroke-width="0.6" stroke-linecap="round" stroke-linejoin="round"/>
<path opacity="0.3" d="M67.6837 9.81995C67.6837 9.81995 71.0506 12.7566 68.8292 21.1441" stroke="white" stroke-width="0.6" stroke-linecap="round" stroke-linejoin="round"/>
<path opacity="0.3" d="M69.5708 9.25613C69.5708 9.25613 70.6321 9.3951 71.0697 14.7178L165.558 5.7129C165.336 4.01513 164.663 2.40812 163.609 1.05941L69.5708 9.25613Z" fill="white"/>
<path opacity="0.3" d="M171.772 4.1825C172.252 4.95623 172.514 5.84639 172.528 6.75752L177.746 6.23491C177.65 5.51327 177.428 4.81412 177.09 4.16936L171.772 4.1825Z" fill="white"/>
<path d="M216.724 22.6336L205.959 19.9346L204.073 20.9446L196.775 18.3645C196.775 18.3645 195.59 11.0756 201.486 4.10914L208.856 7.02179L210.218 8.92277L220.048 13.7762C220.048 13.7762 221.11 20.2653 216.724 22.6336Z" fill="#5CCD6A"/>
<path d="M216.724 22.6336L205.959 19.9346L204.073 20.9446L196.775 18.3645C196.775 18.3645 195.59 11.0756 201.486 4.10914L208.856 7.02179L210.218 8.92277L220.048 13.7762C220.048 13.7762 221.11 20.2653 216.724 22.6336Z" stroke="#495E4C" stroke-width="0.6" stroke-linecap="round" stroke-linejoin="round"/>
<path d="M198.088 17.4339C198.088 17.4339 203.569 11.5728 201.806 5.03578" stroke="#495E4C" stroke-width="0.6" stroke-linecap="round" stroke-linejoin="round"/>
<path d="M205.497 18.8314C205.497 18.8314 209.785 13.8653 209.171 8.60683" stroke="#495E4C" stroke-width="0.6" stroke-linecap="round" stroke-linejoin="round"/>
<path d="M223.772 273.62C223.772 273.62 218.033 223.179 214.13 212.484C210.228 201.789 204.949 166.292 204.949 166.292C204.949 166.292 216.857 165.307 220.464 165.262C224.072 165.218 228.724 161.752 228.724 161.752C228.33 162.461 227.43 162.031 226.755 157.7C226.302 154.799 221.893 153.932 221.893 153.932C221.893 153.932 211.321 154.751 202.399 153.569C200.239 154.256 197.921 154.262 195.758 153.586C192.508 152.411 191.847 151.146 193.625 149.421C193.625 149.421 191.092 146.128 199.71 141.406C199.71 141.406 193.961 136.259 196.753 132.918C199.546 129.577 206.137 126.219 206.137 126.219C206.137 126.219 206.406 123.698 207.621 123.044C208.836 122.389 215.45 119.662 219.079 117.132C222.709 114.603 224.294 114.783 231.012 114.583C237.731 114.382 245.932 112.677 249.012 114.071C251.406 115.155 252.527 119.421 252.527 119.421C254.763 120.124 254.999 123.783 255.143 124.682C255.81 128.694 260.47 145.32 262.528 148.203C264.587 151.086 265.809 156.131 265.447 158.751C265.086 161.372 264.153 164.418 263.232 169.773C262.312 175.127 259.189 193.584 257.646 198.911C256.103 204.239 255.256 213.48 256.102 217.959L277.822 261.055" fill="white"/>
<path opacity="0.4" d="M250.532 136.848C250.532 136.848 246.076 139.557 246.08 141.27C246.08 141.27 237.608 147.754 236.651 155.367C236.651 155.367 231.959 160.15 230.932 162.319C229.905 164.488 225.427 167.04 225.427 167.04C224.159 166.923 222.886 166.879 221.614 166.908C219.461 166.588 217.333 166.12 215.245 165.508C217.367 165.368 219.318 165.257 220.443 165.247C223.435 165.24 227.142 162.824 228.321 162.007C227.869 162.008 227.236 160.919 226.733 157.678C226.281 154.784 221.872 153.91 221.872 153.91C221.872 153.91 211.3 154.729 202.378 153.554C200.918 154.011 199.383 154.174 197.86 154.033C197.893 153.471 197.814 152.909 197.628 152.379C197.442 151.848 197.153 151.36 196.777 150.942C196.777 150.942 200.865 148.206 199.792 146.106C199.28 145.102 197.447 144.484 195.657 144.113C196.896 143.06 198.249 142.147 199.689 141.392C199.689 141.392 193.94 136.245 196.732 132.904C199.525 129.562 206.137 126.219 206.137 126.219C206.137 126.219 206.407 123.705 207.622 123.043C207.622 123.043 206.924 126.932 212.291 126.572C217.659 126.211 225.382 123 225.382 123C225.382 123 239.953 123.367 242.904 121.116C242.904 121.116 246.448 124.13 249.038 124.64C251.628 125.151 250.532 136.848 250.532 136.848Z" fill="#92E3A9"/>
<path opacity="0.4" d="M265.434 158.773C265.065 161.386 264.139 164.439 263.219 169.794C262.298 175.148 259.175 193.612 257.632 198.933C256.089 204.253 255.242 213.501 256.088 217.98L258.08 222.704C253.768 215.097 254.083 205.1 254.423 202.473C254.832 199.251 257.214 187.337 259.321 181.173C261.428 175.009 261.587 162.124 261.586 161.678C261.585 161.232 260.475 164.512 259.346 168.147C258.216 171.781 254.061 182.028 254.061 182.028C253.914 179.905 255.631 167.476 255.945 166.06C256.26 164.643 258.797 155.115 259.25 152.423C259.703 149.732 257.567 146.764 257.031 144.641C256.495 142.519 254.378 133.052 253.804 126.533C253.573 122.989 252.684 119.52 251.182 116.302C251.767 117.301 252.221 118.371 252.534 119.485C254.771 120.187 255.006 123.84 255.15 124.739C255.818 128.751 260.478 145.376 262.536 148.267C264.594 151.157 265.795 156.159 265.434 158.773Z" fill="#92E3A9"/>
<path opacity="0.4" d="M224.351 275.36C222.008 257.271 217.325 222.84 214.402 213.404C216.409 215.834 218.697 219.765 220.314 227.343C223.57 242.598 224.57 249.314 224.721 256.315C224.86 260.789 224.781 269.037 224.351 275.36Z" fill="#92E3A9"/>
<path d="M223.772 273.62C223.772 273.62 218.033 223.179 214.13 212.484C210.228 201.789 204.949 166.292 204.949 166.292C204.949 166.292 216.857 165.307 220.464 165.262C224.072 165.218 228.724 161.752 228.724 161.752C228.33 162.461 227.43 162.031 226.755 157.7C226.302 154.799 221.893 153.932 221.893 153.932C221.893 153.932 211.321 154.751 202.399 153.569C200.239 154.256 197.921 154.262 195.758 153.586C192.508 152.411 191.847 151.146 193.625 149.421C193.625 149.421 191.092 146.128 199.71 141.406C199.71 141.406 193.961 136.259 196.753 132.918C199.546 129.577 206.137 126.219 206.137 126.219C206.137 126.219 206.406 123.698 207.621 123.044C208.836 122.389 215.45 119.662 219.079 117.132C222.709 114.603 224.294 114.783 231.012 114.583C237.731 114.382 245.932 112.677 249.012 114.071C251.406 115.155 252.527 119.421 252.527 119.421C254.763 120.124 254.999 123.783 255.143 124.682C255.81 128.694 260.47 145.32 262.528 148.203C264.587 151.086 265.809 156.131 265.447 158.751C265.086 161.372 264.153 164.418 263.232 169.773C262.312 175.127 259.189 193.584 257.646 198.911C256.103 204.239 255.256 213.48 256.102 217.959L277.822 261.055" stroke="#495E4C" stroke-width="0.6" stroke-linecap="round" stroke-linejoin="round"/>
<path d="M193.59 149.421C193.59 149.421 195.457 151.944 201.89 150.894C208.324 149.845 216.018 143.39 216.018 143.39L220.632 141.425C220.632 141.425 226.511 142.062 228.651 141.03" stroke="#495E4C" stroke-width="0.6" stroke-linecap="round" stroke-linejoin="round"/>
<path d="M225.365 141.598C225.365 141.598 229.208 145.694 232.287 146.621" stroke="#495E4C" stroke-width="0.6" stroke-linecap="round" stroke-linejoin="round"/>
<path d="M228.689 161.752C231.295 160.067 234.735 155.365 237.903 155.011" stroke="#495E4C" stroke-width="0.5" stroke-linecap="round" stroke-linejoin="round"/>
<path d="M228.137 156.061C229.54 151.378 233.773 146.617 233.773 146.617C234.467 145.057 235.34 143.582 236.372 142.221C237.42 140.665 239.016 139.561 240.841 139.131C240.841 139.131 237.109 128.641 238.2 126.529" stroke="#495E4C" stroke-width="0.6" stroke-linecap="round" stroke-linejoin="round"/>
<path d="M221.858 153.932C221.858 153.932 224.735 153.011 225.388 151.091" stroke="#495E4C" stroke-width="0.6" stroke-linecap="round" stroke-linejoin="round"/>
<path d="M221.198 150.011C221.198 150.011 221.028 152.999 216.546 153.945" stroke="#495E4C" stroke-width="0.6" stroke-linecap="round" stroke-linejoin="round"/>
<path d="M220.618 141.425C220.618 141.425 222.842 139.933 223.588 138.43" stroke="#495E4C" stroke-width="0.6" stroke-linecap="round" stroke-linejoin="round"/>
<path d="M206.137 126.219C206.137 126.219 205.343 128.465 208.684 129.384C212.025 130.303 220.977 129.262 224.696 126.173C224.696 126.173 225.609 123.558 225.329 121.881" stroke="#495E4C" stroke-width="0.6" stroke-linecap="round" stroke-linejoin="round"/>
<path d="M224.196 126.564C224.196 126.564 235.136 126.147 235.971 126.145C236.806 126.143 240.161 124.365 240.807 122.494" stroke="#495E4C" stroke-width="0.6" stroke-linecap="round" stroke-linejoin="round"/>
<path d="M240.827 139.131C240.827 139.131 243.291 139.975 244.994 139.602" stroke="#495E4C" stroke-width="0.6" stroke-linecap="round" stroke-linejoin="round"/>
<path d="M235.416 156.043C235.416 156.043 235.009 151.903 237.881 146.034" stroke="#495E4C" stroke-width="0.6" stroke-linecap="round" stroke-linejoin="round"/>
<path d="M252.513 119.443C254.012 125.216 256.344 144.211 257.895 147.803C259.445 151.396 259.632 152.62 258.523 155.985C257.414 159.351 255.63 167.475 255.63 167.475" stroke="#495E4C" stroke-width="0.6" stroke-linecap="round" stroke-linejoin="round"/>
<path d="M256.059 217.98C254.84 214.153 254.085 209.115 254.539 206.784" stroke="#495E4C" stroke-width="0.6" stroke-linecap="round" stroke-linejoin="round"/>
<path d="M184.944 136.848C184.944 136.848 181.848 137.436 180.805 139.117C180.805 139.117 181.721 140.53 185.461 140.139C189.202 139.747 184.944 136.848 184.944 136.848Z" fill="#495E4C"/>
<path d="M195.971 130.966L283.425 117.759L284.581 133.381L196.741 142.32L192.634 140.482L185.915 140.668C185.289 140.104 184.879 139.338 184.757 138.503C184.635 137.669 184.808 136.817 185.246 136.097L192.16 134.593L195.971 130.966Z" fill="#5CCD6A"/>
<path d="M211.017 131.75L247.076 126.535C247.44 126.484 247.809 126.507 248.164 126.601C248.518 126.696 248.849 126.862 249.138 127.087C249.427 127.313 249.668 127.595 249.846 127.916C250.024 128.237 250.135 128.591 250.173 128.956L250.246 129.664C250.321 130.373 250.115 131.084 249.672 131.642C249.229 132.201 248.584 132.563 247.877 132.65L211.752 137.136C211.392 137.18 211.027 137.151 210.678 137.052C210.329 136.953 210.003 136.785 209.72 136.558C209.437 136.331 209.202 136.05 209.028 135.731C208.855 135.412 208.748 135.062 208.712 134.701C208.646 134.007 208.849 133.315 209.278 132.766C209.706 132.217 210.329 131.854 211.017 131.75Z" fill="#495E4C"/>
<path opacity="0.3" d="M284.581 133.381L196.741 142.327L192.634 140.482L185.915 140.668C185.556 140.347 185.266 139.955 185.064 139.517L192.136 139.258L195.249 139.534L207.476 138.477L211.038 131.75C211.038 131.75 214.178 131.346 216.704 134.532C219.23 137.719 220.629 137.305 220.629 137.305L280.798 130.855L281.504 130.146C281.504 130.146 279.064 124.644 281.479 120.143C282.084 119.015 282.783 118.561 283.491 118.566L284.581 133.381Z" fill="black" fill-opacity="0.7"/>
<path d="M195.971 130.966L283.425 117.759L284.581 133.381L196.741 142.32L192.634 140.482L185.915 140.668C185.289 140.104 184.879 139.338 184.757 138.503C184.635 137.669 184.808 136.817 185.246 136.097L192.16 134.593L195.971 130.966Z" stroke="#495E4C" stroke-width="0.6" stroke-linecap="round" stroke-linejoin="round"/>
<path d="M283.425 117.759C289.485 117.263 290.825 132.742 284.581 133.38C278.606 133.99 277.273 118.256 283.425 117.759Z" fill="#5CCD6A"/>
<path opacity="0.3" d="M284.581 133.38C282.948 133.547 281.658 132.489 280.777 130.855L281.482 130.146C281.482 130.146 279.043 124.644 281.458 120.143C282.063 119.016 282.762 118.561 283.47 118.566C285.591 118.561 287.766 122.661 287.679 124.878L288.6 125.102C288.942 128.988 287.721 133.097 284.581 133.38Z" fill="black" fill-opacity="0.7"/>
<path d="M283.425 117.759C289.485 117.263 290.825 132.742 284.581 133.38C278.606 133.99 277.273 118.256 283.425 117.759Z" stroke="#495E4C" stroke-width="0.6" stroke-linecap="round" stroke-linejoin="round"/>
<path d="M195.971 130.966C195.971 130.966 194.243 133.151 194.72 137.284C194.886 139.125 195.588 140.876 196.741 142.319" stroke="#495E4C" stroke-width="0.6" stroke-linecap="round" stroke-linejoin="round"/>
<path d="M192.16 134.593C191.845 135.557 191.725 136.574 191.807 137.585C191.888 138.596 192.169 139.581 192.634 140.482" stroke="#495E4C" stroke-width="0.6" stroke-linecap="round" stroke-linejoin="round"/>
<path d="M280.749 133.772C274.766 134.382 273.576 119.334 279.664 118.328" stroke="#495E4C" stroke-width="0.6" stroke-linecap="round" stroke-linejoin="round"/>
<path d="M283.548 118.736C288.342 118.306 289.408 131.691 284.465 132.234C279.714 132.762 278.683 119.173 283.548 118.736Z" stroke="#495E4C" stroke-width="0.6" stroke-linecap="round" stroke-linejoin="round"/>
<path d="M283.564 119.692C283.564 119.692 286.07 120.613 286.527 125.164C286.984 129.715 284.42 131.123 284.42 131.123" stroke="#495E4C" stroke-width="0.6" stroke-linecap="round" stroke-linejoin="round"/>
<path d="M228.702 166.891C228.702 166.891 222.337 167.275 221.629 166.909C220.92 166.543 216.941 159.076 216.751 156.748C216.562 154.419 216.168 146.944 215.966 142.272C215.763 137.6 215.76 130.322 206.993 131.895C203.076 132.612 202.427 136.316 201.147 144.652C199.866 152.988 201.081 155.201 200.173 165.843C199.266 176.486 200.394 180.71 202.649 186.063C204.905 191.417 205.766 205.043 211.748 210.069C217.73 215.095 220.095 224.795 220.095 224.795" fill="white"/>
<path opacity="0.4" d="M213.032 140.148C211.428 140.542 205.254 140.876 204.856 142.937C204.458 144.998 208.124 145.959 209.649 147.803C209.593 147.803 203.283 147.818 201.876 150.901C200.469 153.984 203.067 160.59 203.076 164.229C203.085 167.868 199.935 175.161 202.37 178.935C204.5 182.229 206.485 189.82 205.477 197.037C204.399 192.721 203.653 188.546 202.621 186.063C200.38 180.745 199.252 176.5 200.159 165.879C201.067 155.257 199.845 153.016 201.133 144.68C202.051 138.696 202.644 135.091 204.365 133.274C206.38 132.831 208.657 132.655 210.024 133.629C212.951 135.639 214.658 139.748 213.032 140.148Z" fill="#92E3A9"/>
<path d="M228.702 166.891C228.702 166.891 222.337 167.275 221.629 166.909C220.92 166.543 216.941 159.076 216.751 156.748C216.562 154.419 216.168 146.944 215.966 142.272C215.763 137.6 215.76 130.322 206.993 131.895C203.076 132.612 202.427 136.316 201.147 144.652C199.866 152.988 201.081 155.201 200.173 165.843C199.266 176.486 200.394 180.71 202.649 186.063C204.905 191.417 205.766 205.043 211.748 210.069C217.73 215.095 220.095 224.795 220.095 224.795" stroke="#495E4C" stroke-width="0.6" stroke-linecap="round" stroke-linejoin="round"/>
<path d="M216.737 156.748C216.737 156.748 216.136 156.558 215.773 152.92C215.656 151.85 215.282 150.824 214.682 149.931C214.082 149.037 213.275 148.302 212.33 147.789" stroke="#495E4C" stroke-width="0.6" stroke-linecap="round" stroke-linejoin="round"/>
<path d="M204.125 147.809C204.125 147.809 201.524 148.375 200.5 152.023" stroke="#495E4C" stroke-width="0.6" stroke-linecap="round" stroke-linejoin="round"/>
<path d="M23.5882 72.7724C23.385 72.7733 23.2283 72.6783 23.1181 72.4875C23.0078 72.2926 22.9514 71.916 22.9488 71.3574C22.9443 70.3964 23.1613 68.329 23.5998 65.1551C23.6265 65.0182 23.5773 64.9364 23.4522 64.9097C23.327 64.879 22.8152 64.8657 21.9168 64.8699C20.6902 64.8756 19.9875 64.9511 19.8084 65.0964C19.6294 65.2418 19.4918 65.8948 19.3956 67.0554C19.3587 67.5165 19.2489 68.2651 19.0662 69.3011C18.8454 70.5443 18.7362 71.4296 18.7386 71.9569L18.7638 72.326C18.7654 72.6775 18.5982 72.8541 18.2623 72.8556C17.86 72.8575 17.6576 72.6065 17.6553 72.1026C17.6534 71.7002 17.685 71.3446 17.75 71.0357C17.8569 70.5118 17.9464 70.0075 18.0184 69.5227C18.0638 69.2178 18.117 68.8875 18.1778 68.5318C18.4213 67.1166 18.5416 66.1082 18.5388 65.5066C18.5379 65.3035 18.4436 65.1926 18.2561 65.1739C17.8848 65.1327 17.6985 64.9812 17.6973 64.7195C17.6965 64.5437 17.7408 64.4009 17.8301 64.2911C17.9233 64.1813 18.0442 64.1222 18.1926 64.1137C18.5675 64.0963 18.8406 64.0345 19.012 63.9282C19.1679 63.8494 19.2849 63.8098 19.363 63.8094C19.5232 63.8087 19.662 63.8432 19.7795 63.913C19.9088 63.9905 20.284 64.0278 20.9051 64.0249C20.9129 64.0249 21.3269 64.0113 22.1471 63.984C22.9712 63.9568 23.4223 63.9352 23.5003 63.9192C23.5784 63.9032 23.6739 63.8715 23.787 63.8241C23.9702 63.7451 24.1204 63.7054 24.2376 63.7048L24.7067 63.773L25.228 63.7354C25.5444 63.7339 25.7032 63.8719 25.7045 64.1492C25.7053 64.3289 25.6475 64.4815 25.5309 64.6071C25.4142 64.7287 25.2817 64.7938 25.1333 64.8023C25.0279 64.8106 24.9363 64.85 24.8585 64.9207C24.7807 64.9875 24.6785 65.2848 24.552 65.8128C24.4256 66.3407 24.3029 67.2651 24.184 68.586C24.069 69.9068 24.014 71.0946 24.0189 72.1493L24.0198 72.3602C24.0202 72.4423 23.9698 72.5265 23.8687 72.6129C23.7675 72.7032 23.674 72.7564 23.5882 72.7724Z" fill="#495E4C"/>
<path d="M30.9226 68.6368C30.9652 68.5546 31.0313 68.0641 31.1209 67.1652C31.1879 66.4461 31.4147 66.0857 31.8014 66.0839C32.1178 66.0824 32.2768 66.2399 32.2782 66.5563C32.2786 66.6305 32.2519 66.7811 32.1983 67.0079C31.9033 68.2553 31.7577 69.3009 31.7616 70.1447C31.7659 71.0587 31.919 71.6498 32.221 71.918C32.3779 72.0618 32.4566 72.1786 32.457 72.2684C32.4575 72.3778 32.3779 72.4778 32.2182 72.5684C32.0623 72.6589 31.92 72.7045 31.7911 72.7051C31.1817 72.7079 30.8726 71.768 30.8639 69.8852C30.8634 69.7602 30.8162 69.6979 30.7224 69.6983C30.3553 69.7 29.9061 69.7236 29.3751 69.769C28.8441 69.8144 28.4634 69.8709 28.2333 69.9384C28.007 70.0058 27.8667 70.069 27.8123 70.1278C27.7618 70.1827 27.7156 70.3333 27.6738 70.5796C27.6358 70.822 27.6174 71.074 27.6187 71.3358L27.622 72.0564C27.6239 72.4744 27.4335 72.6843 27.0507 72.686C26.7304 72.6875 26.5692 72.4793 26.5673 72.0613C26.566 71.7879 26.5996 71.4401 26.668 71.0179C26.7933 70.2439 26.916 68.9112 27.0362 67.02C27.0507 66.7739 27.0714 66.6175 27.0985 66.551C27.1255 66.4845 27.1955 66.4119 27.3084 66.3332C27.4252 66.2507 27.552 66.2091 27.6887 66.2084C27.9699 66.2071 28.1111 66.3217 28.1121 66.5522C28.1123 66.5873 28.0687 66.8805 27.9815 67.4317C27.8903 67.9829 27.8454 68.4108 27.8468 68.7155C27.8478 68.9304 27.9225 69.0374 28.0709 69.0368C28.3678 69.0354 28.9105 68.984 29.6991 68.8827C30.4877 68.7775 30.8955 68.6956 30.9226 68.6368Z" fill="#495E4C"/>
<path d="M53.6082 66.9594C53.6085 67.018 53.7652 67.1188 54.0784 67.2619C54.4268 67.4243 54.6834 67.5794 54.8481 67.7271C55.0168 67.8708 55.1544 68.0655 55.261 68.3111C55.3715 68.5528 55.4275 68.8435 55.4291 69.1834C55.4305 69.4959 55.2216 69.9226 54.8022 70.4636C54.3867 71.0007 53.8458 71.4525 53.1795 71.8188C52.5171 72.1813 51.8246 72.3642 51.102 72.3675C50.9653 72.3681 50.7737 72.328 50.5272 72.2471C50.2846 72.1662 50.1631 72.0808 50.1627 71.991C50.1604 71.4988 50.507 71.2511 51.2023 71.2479C51.4171 71.2508 51.6281 71.2479 51.835 71.2391C52.042 71.2264 52.3054 71.1569 52.6251 71.0304C52.9487 70.9 53.2526 70.7189 53.5367 70.4871C53.8207 70.2553 54.0248 70.0297 54.1488 69.8104C54.2727 69.5872 54.3343 69.374 54.3333 69.1709C54.3316 68.8115 54.1798 68.4939 53.8777 68.2179C53.5757 67.942 53.1649 67.8052 52.6453 67.8076C52.5672 67.8079 52.382 67.8713 52.0896 67.9977C51.7972 68.1279 51.6061 68.1933 51.5163 68.1937C51.2116 68.1951 51.02 68.1569 50.9415 68.0791C50.8669 68.0014 50.8292 67.8629 50.8283 67.6637C50.8276 67.5269 51.1548 67.3282 51.8099 67.0673C52.4532 66.8104 53.0315 66.4191 53.5447 65.8932C54.0618 65.3674 54.3196 64.9482 54.3182 64.6357C54.3172 64.4248 54.207 64.2398 53.9875 64.0806C53.7719 63.9176 53.4766 63.8369 53.1016 63.8386C52.6172 63.8409 52.055 63.9099 51.415 64.0457C50.775 64.1775 50.424 64.3061 50.3621 64.4314C50.3041 64.5567 50.1444 65.5086 49.8831 67.2872C49.6218 69.0618 49.4918 70.0878 49.4931 70.3652C49.4938 70.5136 49.5022 70.6561 49.5185 70.7928C49.5309 70.9334 49.5373 71.0661 49.5379 71.1911C49.5404 71.7263 49.2819 71.9951 48.7623 71.9975C48.6178 71.9981 48.4982 71.8952 48.4035 71.6886C48.3088 71.482 48.261 71.2928 48.2602 71.1209C48.2599 71.0467 48.323 70.7475 48.4494 70.2235C48.6024 69.5119 48.7542 68.5385 48.9047 67.3034C49.0552 66.0644 49.1303 65.4039 49.1299 65.3219C49.1291 65.1578 49.1051 65.0368 49.0579 64.9589C49.0146 64.881 48.9128 64.8424 48.7527 64.8431C48.6902 64.8434 48.6277 64.8457 48.5652 64.8499C48.5066 64.8541 48.4459 64.8172 48.3831 64.7394C48.3241 64.6615 48.2944 64.5679 48.2939 64.4585C48.2924 64.15 48.8026 63.8195 49.8244 63.4671C50.8462 63.1108 52.0661 62.9294 53.4841 62.9228C54.0036 62.9204 54.4653 63.094 54.8693 63.4437C55.2772 63.7934 55.482 64.1538 55.4837 64.5249C55.4849 64.7905 55.3089 65.1683 54.9557 65.6582C54.6064 66.1442 54.1572 66.5779 53.6082 66.9594Z" fill="#495E4C"/>
<path d="M61.4026 67.2514C61.0394 67.2609 60.267 68.3407 59.0856 70.4907C58.6866 71.2152 58.454 71.6108 58.3879 71.6775C58.3218 71.7403 58.199 71.7976 58.0196 71.8492C57.844 71.9008 57.6977 71.9268 57.5805 71.9274C57.3188 71.9286 57.1855 71.4194 57.1808 70.3999C57.1782 69.8257 57.2964 68.7861 57.5355 67.281C57.6343 66.6712 57.683 66.2354 57.6818 65.9737C57.6806 65.7159 57.7953 65.5865 58.0257 65.5854C58.4593 65.5834 58.6776 65.8949 58.6805 66.5199C58.6818 66.8128 58.6122 67.3874 58.4716 68.2435C58.3082 69.2208 58.225 69.815 58.2221 70.0259C58.4632 69.7904 58.8163 69.2751 59.2813 68.48C59.9404 67.391 60.4255 66.7013 60.7366 66.4107C61.0517 66.1163 61.3772 65.9683 61.7131 65.9668C61.967 65.9656 62.169 66.1346 62.319 66.4737C62.4729 66.8129 62.5684 67.623 62.6056 68.9041C62.6149 69.2244 62.6453 69.4625 62.6968 69.6185C62.7483 69.7745 62.7858 69.8525 62.8092 69.8524C62.9928 69.8515 63.3883 69.2247 63.9958 67.9719C64.3209 67.3102 64.6369 66.8068 64.9439 66.4616C65.2548 66.1164 65.5997 65.9429 65.9786 65.9412C66.295 65.9397 66.5263 66.1027 66.6723 66.4302C66.8184 66.7537 66.9241 67.2356 66.9896 67.876C67.0512 68.5241 67.1437 69.1175 67.2673 69.656C67.3948 70.1944 67.623 70.5391 67.9518 70.6899C68.175 70.7943 68.2869 70.9169 68.2875 71.0575C68.2881 71.1942 68.195 71.3353 68.0082 71.4807C67.8214 71.6261 67.6498 71.6991 67.4936 71.6998C67.1811 71.7013 66.9009 71.5112 66.6531 71.1295C66.4052 70.7478 66.2158 69.9206 66.0849 68.6477C66.0279 68.1363 65.9735 67.7732 65.9217 67.5586C65.8699 67.344 65.7893 67.237 65.68 67.2375C65.5159 67.2382 65.3213 67.3954 65.0962 67.7089C64.875 68.0225 64.5166 68.6589 64.021 69.6182C63.6339 70.3661 63.3393 70.8655 63.1373 71.1165C62.9393 71.3635 62.7465 71.4874 62.559 71.4883C62.391 71.4891 62.2403 71.4234 62.1069 71.2912C61.9734 71.1551 61.8887 70.9934 61.8527 70.806C61.8166 70.6148 61.7774 70.1482 61.7349 69.4062C61.6706 68.1721 61.5598 67.4538 61.4026 67.2514Z" fill="#495E4C"/>
<path d="M91.3699 69.3802C91.5223 69.3794 91.5989 69.4728 91.5998 69.6603C91.6007 69.8557 91.3852 70.136 90.9533 70.5012C90.5213 70.8665 90.0207 71.1579 89.4514 71.3754C88.886 71.5928 88.367 71.7027 87.8943 71.7049C87.2029 71.7081 86.571 71.4825 85.9986 71.0281C85.4301 70.5737 85.1438 69.9129 85.1398 69.0457C85.1325 67.4637 85.805 65.9215 87.1575 64.4191C88.5138 62.9128 89.8228 62.1568 91.0845 62.1509C91.5572 62.1487 91.9348 62.2935 92.2174 62.5851C92.5039 62.8729 92.648 63.2101 92.6498 63.5968C92.6515 63.9562 92.6313 64.2395 92.5893 64.4467C92.5512 64.6539 92.429 64.8303 92.2226 64.9758C92.0162 65.1174 91.8505 65.1884 91.7256 65.189C91.6357 65.1894 91.5574 65.1507 91.4906 65.0729C91.4239 64.9951 91.3902 64.8898 91.3896 64.757C91.3891 64.6671 91.4215 64.4795 91.4866 64.194C91.5517 63.9125 91.5839 63.7033 91.5833 63.5666C91.5814 63.1682 91.4067 62.9698 91.059 62.9714C90.52 62.9739 89.8534 63.2875 89.0595 63.9123C88.2694 64.5331 87.5992 65.3214 87.0489 66.2771C86.4986 67.2288 86.2253 68.1051 86.229 68.9059C86.2315 69.441 86.3918 69.8856 86.7098 70.2396C87.0317 70.5897 87.4876 70.7634 88.0775 70.7606C88.4173 70.7591 88.829 70.6732 89.3126 70.503C89.8001 70.3288 90.2463 70.0983 90.6512 69.8112C91.0562 69.5242 91.2957 69.3805 91.3699 69.3802Z" fill="#495E4C"/>
<path d="M94.6562 70.4548C94.4681 71.1588 94.2929 72.146 94.1308 73.4162L93.9719 74.5244C93.9453 74.6808 93.8737 74.8354 93.7573 74.9883C93.6408 75.1451 93.5337 75.2237 93.4361 75.2242C93.315 75.2247 93.176 75.1629 93.0192 75.0386C92.8663 74.9182 92.7897 74.8209 92.7893 74.7467C92.7883 74.5318 92.8358 74.2348 92.9317 73.8554C93.6332 70.9654 93.9788 68.4286 93.9687 66.245L93.9606 65.7529C93.9508 65.3311 94.0236 65.0241 94.179 64.8319C94.3344 64.6398 94.5136 64.5433 94.7167 64.5423C94.8105 64.5419 94.9007 64.6157 94.9873 64.7638C95.0739 64.9079 95.1178 65.1147 95.1191 65.3842C95.1208 65.7631 95.0839 66.2223 95.0083 66.7617C94.9098 67.4419 94.8589 67.8327 94.8555 67.9343C95.4328 66.916 96.0463 66.1202 96.696 65.5469C97.3457 64.9735 97.9499 64.6856 98.5084 64.683C98.903 64.6812 99.2357 64.8281 99.5066 65.1237C99.7814 65.4154 99.9198 65.78 99.9218 66.2175C99.9277 67.4909 99.4448 68.6494 98.473 69.693C97.5013 70.7366 96.5525 71.2605 95.6268 71.2648C95.3963 71.2658 95.2124 71.2081 95.0752 71.0915C94.9418 70.975 94.8022 70.7627 94.6562 70.4548ZM98.273 65.7212C97.7222 65.7238 97.043 66.2425 96.2353 67.2775C95.4275 68.3125 95.025 69.1171 95.0277 69.6914C95.0283 69.832 95.109 69.9683 95.2698 70.1004C95.4306 70.2325 95.634 70.2979 95.8801 70.2968C96.4387 70.2942 97.0793 69.8791 97.8021 69.0516C98.5248 68.2201 98.8843 67.4059 98.8806 66.609C98.8793 66.3239 98.8197 66.1054 98.7018 65.9536C98.5878 65.7979 98.4449 65.7204 98.273 65.7212Z" fill="#495E4C"/>
<path d="M120.467 63.3575L120.451 63.6447C120.432 63.7229 120.329 64.2351 120.141 65.1813L120.107 65.3338C120.073 65.584 119.986 66.559 119.845 68.2589L119.7 69.8006C119.678 70.0546 119.662 70.4063 119.652 70.8555C119.628 71.6369 119.586 72.0785 119.523 72.1804C119.465 72.2822 119.366 72.3744 119.226 72.4571C119.09 72.5437 118.959 72.5873 118.834 72.5878C118.693 72.5885 118.584 72.505 118.505 72.3374C118.426 72.1737 118.386 71.9708 118.385 71.7286C118.383 71.4434 118.462 70.7849 118.622 69.7529C118.732 69.0453 118.802 68.2149 118.833 67.2616C118.813 67.1328 118.756 67.0647 118.662 67.0573C118.556 67.0578 118.223 67.2293 117.662 67.5717C117.012 67.9732 116.417 68.2513 115.879 68.4062C115.345 68.5571 114.919 68.6333 114.603 68.6347C114.087 68.6371 113.704 68.4748 113.452 68.1479C113.2 67.817 113.072 67.1203 113.067 66.0578C113.065 65.5852 113.137 64.9833 113.282 64.2521C113.431 63.5171 113.616 63.0943 113.838 62.9839C114.064 62.8735 114.234 62.818 114.347 62.8175C114.441 62.8171 114.525 62.8675 114.6 62.9687C114.675 63.0699 114.712 63.2142 114.713 63.4017C114.713 63.4408 114.61 63.83 114.402 64.5692C114.191 65.3124 114.086 65.8734 114.088 66.2523C114.091 66.8539 114.131 67.2346 114.21 67.3943C114.289 67.5502 114.526 67.6273 114.92 67.6254C115.174 67.6243 115.539 67.5445 116.015 67.386C116.491 67.2275 116.964 67.0164 117.436 66.7525C117.907 66.4886 118.269 66.2349 118.522 65.9916C118.775 65.7482 118.928 65.5776 118.983 65.4797C119.037 65.3778 119.081 65.1335 119.114 64.7466C119.121 64.6333 119.131 64.5337 119.142 64.4477C119.18 64.1272 119.198 63.8204 119.196 63.5275C119.196 63.4064 119.275 63.2595 119.435 63.0869C119.598 62.9143 119.744 62.8277 119.873 62.8271C120.017 62.8264 120.152 62.8785 120.278 62.9834C120.403 63.0844 120.466 63.2091 120.467 63.3575Z" fill="#495E4C"/>
<path d="M126.679 67.3425C126.316 67.352 125.543 68.4318 124.362 70.5818C123.963 71.3063 123.73 71.7019 123.664 71.7686C123.598 71.8314 123.475 71.8886 123.296 71.9402C123.12 71.9918 122.974 72.0179 122.857 72.0184C122.595 72.0197 122.462 71.5105 122.457 70.491C122.454 69.9168 122.573 68.8771 122.812 67.3721C122.911 66.7623 122.959 66.3265 122.958 66.0648C122.957 65.807 123.072 65.6775 123.302 65.6765C123.736 65.6745 123.954 65.986 123.957 66.611C123.958 66.9039 123.888 67.4785 123.748 68.3346C123.584 69.3119 123.501 69.9061 123.498 70.117C123.739 69.8815 124.093 69.3662 124.558 68.5711C125.217 67.4821 125.702 66.7923 126.013 66.5018C126.328 66.2074 126.653 66.0594 126.989 66.0578C127.243 66.0567 127.445 66.2257 127.595 66.5648C127.749 66.904 127.845 67.7141 127.882 68.9952C127.891 69.3154 127.922 69.5536 127.973 69.7096C128.025 69.8656 128.062 69.9436 128.085 69.9434C128.269 69.9426 128.665 69.3158 129.272 68.0629C129.597 67.4013 129.913 66.8978 130.22 66.5527C130.531 66.2075 130.876 66.034 131.255 66.0322C131.571 66.0308 131.803 66.1938 131.949 66.5212C132.095 66.8448 132.2 67.3267 132.266 67.967C132.327 68.6152 132.42 69.2085 132.544 69.747C132.671 70.2855 132.899 70.6302 133.228 70.781C133.451 70.8854 133.563 71.0079 133.564 71.1486C133.564 71.2853 133.471 71.4263 133.284 71.5717C133.098 71.7171 132.926 71.7902 132.77 71.7909C132.457 71.7924 132.177 71.6023 131.929 71.2206C131.681 70.8389 131.492 70.0117 131.361 68.7388C131.304 68.2274 131.25 67.8643 131.198 67.6497C131.146 67.4351 131.066 67.3281 130.956 67.3286C130.792 67.3293 130.598 67.4865 130.372 67.8C130.151 68.1136 129.793 68.75 129.297 69.7093C128.91 70.4572 128.616 70.9566 128.414 71.2076C128.216 71.4546 128.023 71.5785 127.835 71.5794C127.667 71.5802 127.517 71.5145 127.383 71.3823C127.25 71.2462 127.165 71.0844 127.129 70.8971C127.093 70.7059 127.054 70.2392 127.011 69.4972C126.947 68.2631 126.836 67.5449 126.679 67.3425Z" fill="#495E4C"/>
<path d="M152.456 72.65C152.253 72.6509 152.096 72.5559 151.986 72.365C151.876 72.1702 151.819 71.7935 151.817 71.2349C151.812 70.274 152.029 68.2066 152.468 65.0326C152.494 64.8958 152.445 64.814 152.32 64.7872C152.195 64.7565 151.683 64.7433 150.785 64.7474C149.558 64.7531 148.855 64.8286 148.676 64.974C148.497 65.1194 148.36 65.7724 148.263 66.933C148.227 67.3941 148.117 68.1426 147.934 69.1787C147.713 70.4219 147.604 71.3072 147.606 71.8345L147.632 72.2035C147.633 72.5551 147.466 72.7316 147.13 72.7332C146.728 72.7351 146.525 72.484 146.523 71.9801C146.521 71.5778 146.553 71.2222 146.618 70.9133C146.725 70.3893 146.814 69.885 146.886 69.4003C146.932 69.0954 146.985 68.7651 147.046 68.4093C147.289 66.9941 147.409 65.9857 147.407 65.3842C147.406 65.1811 147.311 65.0702 147.124 65.0515C146.753 65.0102 146.566 64.8588 146.565 64.597C146.564 64.4213 146.609 64.2785 146.698 64.1687C146.791 64.0589 146.912 63.9997 147.06 63.9912C147.435 63.9739 147.708 63.9121 147.88 63.8058C148.036 63.727 148.153 63.6873 148.231 63.687C148.391 63.6862 148.53 63.7208 148.647 63.7905C148.777 63.8681 149.152 63.9054 149.773 63.9025C149.781 63.9025 150.195 63.8888 151.015 63.8616C151.839 63.8344 152.29 63.8127 152.368 63.7967C152.446 63.7808 152.542 63.7491 152.655 63.7017C152.838 63.6227 152.988 63.5829 153.105 63.5824L153.574 63.6505L154.096 63.613C154.412 63.6115 154.571 63.7494 154.572 64.0268C154.573 64.2065 154.515 64.3591 154.399 64.4846C154.282 64.6063 154.15 64.6713 154.001 64.6798C153.896 64.6881 153.804 64.7276 153.726 64.7983C153.648 64.8651 153.546 65.1624 153.42 65.6903C153.293 66.2183 153.171 67.1427 153.052 68.4636C152.937 69.7844 152.882 70.9722 152.887 72.0269L152.888 72.2378C152.888 72.3198 152.838 72.404 152.736 72.4904C152.635 72.5808 152.542 72.6339 152.456 72.65Z" fill="#495E4C"/>
<path d="M159.722 67.7061C159.359 67.7156 158.587 68.7954 157.405 70.9454C157.006 71.6699 156.774 72.0655 156.708 72.1322C156.641 72.195 156.519 72.2522 156.339 72.3039C156.164 72.3554 156.017 72.3815 155.9 72.3821C155.638 72.3833 155.505 71.8741 155.5 70.8546C155.498 70.2804 155.616 69.2408 155.855 67.7357C155.954 67.1259 156.003 66.6901 156.001 66.4284C156 66.1706 156.115 66.0411 156.345 66.0401C156.779 66.0381 156.997 66.3496 157 66.9746C157.001 67.2675 156.932 67.8421 156.791 68.6982C156.628 69.6755 156.545 70.2697 156.542 70.4806C156.783 70.2451 157.136 69.7298 157.601 68.9347C158.26 67.8457 158.745 67.1559 159.056 66.8654C159.371 66.571 159.697 66.423 160.033 66.4215C160.287 66.4203 160.489 66.5893 160.639 66.9284C160.792 67.2676 160.888 68.0777 160.925 69.3588C160.934 69.679 160.965 69.9172 161.016 70.0732C161.068 70.2292 161.105 70.3072 161.129 70.3071C161.312 70.3062 161.708 69.6794 162.315 68.4265C162.64 67.7649 162.957 67.2615 163.264 66.9163C163.574 66.5711 163.919 66.3976 164.298 66.3959C164.615 66.3944 164.846 66.5574 164.992 66.8848C165.138 67.2084 165.244 67.6903 165.309 68.3307C165.371 68.9788 165.463 69.5721 165.587 70.1106C165.714 70.6491 165.943 70.9938 166.271 71.1446C166.495 71.249 166.606 71.3716 166.607 71.5122C166.608 71.6489 166.515 71.79 166.328 71.9354C166.141 72.0808 165.969 72.1538 165.813 72.1545C165.501 72.156 165.22 71.9659 164.973 71.5842C164.725 71.2025 164.535 70.3753 164.405 69.1024C164.347 68.591 164.293 68.2279 164.241 68.0133C164.189 67.7987 164.109 67.6917 164 67.6922C163.835 67.6929 163.641 67.8501 163.416 68.1636C163.195 68.4772 162.836 69.1136 162.341 70.0729C161.953 70.8208 161.659 71.3202 161.457 71.5712C161.259 71.8182 161.066 71.9421 160.879 71.943C160.711 71.9438 160.56 71.8781 160.426 71.7459C160.293 71.6098 160.208 71.448 160.172 71.2607C160.136 71.0695 160.097 70.6028 160.054 69.8608C159.99 68.6268 159.879 67.9085 159.722 67.7061Z" fill="#495E4C"/>
<path d="M118.39 41.6493C118.325 42.0282 118.11 42.2194 117.746 42.223L116.338 42.2368C116.178 42.2383 115.302 42.3175 113.708 42.4744C113.139 42.5301 112.797 42.5585 112.683 42.5596C112.601 42.5604 112.457 42.5276 112.252 42.4613C112.142 42.4259 112.063 42.4677 112.014 42.5866L112.02 42.5729C111.541 46.6839 111.303 48.8693 111.305 49.129C111.307 49.3068 111.322 49.5003 111.352 49.7097C111.386 49.9463 111.404 50.1672 111.406 50.3722C111.409 50.6274 111.256 50.8568 110.948 51.0604C110.645 51.2684 110.441 51.3729 110.336 51.374C110.167 51.3756 109.961 51.2865 109.718 51.1066C109.479 50.9266 109.359 50.7067 109.356 50.447C109.353 50.1234 109.379 49.7791 109.435 49.4139C109.452 49.3044 109.469 49.1675 109.485 49.0033C109.51 48.7341 109.593 48.134 109.734 47.2029C109.897 46.1394 109.978 45.5871 109.978 45.5461L110.262 43.096C110.253 42.1663 110.263 41.5829 110.292 41.3456C110.322 41.1038 110.432 40.9067 110.622 40.7545C110.816 40.5976 111.052 40.5178 111.33 40.5151C111.531 40.5131 111.752 40.5634 111.995 40.6658C112.393 40.826 112.813 40.9039 113.255 40.8996L116.349 40.6233C116.859 40.5773 117.325 40.632 117.745 40.7874C118.171 40.9428 118.385 41.1959 118.389 41.5468L118.39 41.6493Z" fill="#495E4C"/>
<path d="M122.5 50.2844C122.412 50.6544 122.305 51.3345 122.178 52.3247C122.051 53.3195 121.975 53.9856 121.951 54.3231C121.927 54.6652 121.812 54.9557 121.604 55.1947C121.402 55.4337 121.218 55.554 121.054 55.5556C120.849 55.5576 120.645 55.4821 120.443 55.3291C120.241 55.1761 120.139 55.0085 120.138 54.8262C120.134 54.4571 120.187 54.0304 120.296 53.5463C120.953 50.8099 121.299 47.9923 121.335 45.0934L121.333 44.9566C121.328 44.3916 121.342 44.0109 121.377 43.8146C121.411 43.6137 121.523 43.4212 121.713 43.237C121.903 43.0529 122.127 42.9595 122.387 42.957C122.606 42.9549 122.785 43.0511 122.923 43.2457C123.066 43.4403 123.14 43.7221 123.143 44.0913C123.147 44.4649 123.085 45.1195 122.957 46.0551C123.455 45.2071 124.052 44.5039 124.748 43.9457C125.449 43.3828 126.089 43.0986 126.668 43.0929C127.178 43.0879 127.613 43.266 127.972 43.6271C128.336 43.9881 128.52 44.4443 128.525 44.9957C128.54 46.4677 127.981 47.8131 126.849 49.0319C125.721 50.2461 124.599 50.8586 123.483 50.8695C122.963 50.8746 122.636 50.6795 122.5 50.2844ZM126.416 44.6472C125.861 44.6526 125.144 45.202 124.265 46.2952C123.392 47.3885 122.958 48.245 122.964 48.8647C122.966 49.0242 123.045 49.167 123.201 49.2931C123.362 49.4146 123.547 49.4743 123.756 49.4722C124.335 49.4666 124.994 49.0067 125.732 48.0925C126.475 47.1738 126.843 46.2906 126.834 45.443C126.832 45.1604 126.786 44.9581 126.699 44.8359C126.611 44.7091 126.517 44.6462 126.416 44.6472Z" fill="#495E4C"/>
<path d="M137.109 48.3095C135.935 49.8933 134.799 50.6906 133.701 50.7013C133.291 50.7053 132.936 50.547 132.636 50.2263C132.337 49.9057 132.185 49.4947 132.18 48.9934C132.168 47.7858 132.693 46.4955 133.756 45.1224C134.818 43.7448 135.896 43.0506 136.989 43.0399C137.545 43.0345 137.913 43.3112 138.091 43.87C138.615 43.8649 138.879 44.0628 138.883 44.4639C138.885 44.6553 138.838 45.0021 138.743 45.5043C138.57 46.4449 138.486 47.1954 138.492 47.7559C138.497 48.3392 138.54 48.749 138.62 48.9852C138.704 49.2214 138.765 49.3757 138.802 49.4483C138.839 49.5209 138.949 49.5973 139.132 49.6775C139.316 49.7623 139.408 49.8822 139.409 50.0371C139.412 50.2695 139.295 50.4644 139.06 50.6216C138.829 50.7788 138.586 50.8587 138.33 50.8612C137.902 50.8654 137.59 50.6542 137.395 50.2277C137.204 49.8012 137.105 49.3008 137.1 48.7266L137.098 48.5215C137.097 48.4532 137.101 48.3825 137.109 48.3095ZM136.703 44.5057C136.243 44.5102 135.648 45.0264 134.92 46.0544C134.196 47.0778 133.838 47.945 133.845 48.6559C133.848 49.0295 133.928 49.2156 134.083 49.2141C134.62 49.2089 135.277 48.7262 136.051 47.7661C136.83 46.8014 137.216 45.9613 137.209 45.2459C137.207 45.018 137.153 44.8385 137.047 44.7074C136.945 44.5717 136.83 44.5044 136.703 44.5057Z" fill="#495E4C"/>
<path d="M148.778 49.7337C148.734 49.9346 148.653 50.7147 148.534 52.074L148.332 54.455C148.316 54.6421 148.215 54.8253 148.03 55.0049C147.845 55.1844 147.661 55.2751 147.479 55.2769C147.187 55.2797 146.963 55.1999 146.806 55.0373C146.65 54.8794 146.571 54.7161 146.569 54.5475C146.565 54.1647 146.698 53.2268 146.966 51.7339C147.06 51.1906 147.162 50.5812 147.269 49.9056C146.645 50.4131 145.996 50.6701 145.321 50.6766C144.638 50.6833 144.105 50.4971 143.723 50.118C143.346 49.7389 143.153 49.2007 143.147 48.5035C143.136 47.4098 143.542 46.271 144.364 45.0871C145.187 43.9032 146.008 43.3073 146.828 43.2993C147.275 43.2949 147.645 43.6172 147.939 44.266C147.967 43.9194 147.979 43.4726 147.973 42.9258L147.926 40.8753C147.922 40.4288 147.898 40.1031 147.855 39.8985C147.827 39.8076 147.812 39.7439 147.812 39.7075C147.81 39.4705 147.885 39.251 148.038 39.049C148.191 38.8469 148.379 38.7448 148.602 38.7427C148.762 38.7411 148.945 38.81 149.151 38.9492C149.358 39.0839 149.487 39.249 149.539 39.4445C149.595 39.6353 149.626 39.9176 149.629 40.2913C149.647 42.1004 149.575 43.5778 149.413 44.7233L149.279 45.7706C149.654 44.9146 150.142 44.224 150.743 43.6985C151.348 43.1731 151.968 42.9072 152.601 42.9011C153.116 42.896 153.546 43.0764 153.892 43.4422C154.242 43.8034 154.419 44.2574 154.425 44.8042C154.435 45.8751 154.255 46.7816 153.884 47.5235C153.513 48.2609 152.94 48.9387 152.167 49.557C151.394 50.1752 150.595 50.4884 149.77 50.4965C149.346 50.5006 149.016 50.2463 148.778 49.7337ZM149.282 48.1495C149.284 48.3865 149.357 48.5886 149.5 48.7558C149.647 48.9185 149.846 48.9986 150.097 48.9961C150.667 48.9906 151.26 48.5814 151.876 47.7687C152.493 46.956 152.797 46.119 152.788 45.2577C152.785 44.9706 152.736 44.766 152.639 44.6439C152.546 44.5218 152.45 44.4612 152.35 44.4622C152.054 44.4651 151.765 44.5909 151.485 44.8398C151.205 45.0841 150.854 45.5045 150.431 46.1011C150.009 46.6932 149.626 47.376 149.282 48.1495ZM147.486 48.3175C147.587 47.4916 147.643 46.8712 147.652 46.4564C147.658 46.0781 147.634 45.798 147.583 45.6162C147.535 45.4298 147.415 45.2419 147.222 45.0523C147.028 44.8583 146.838 44.7621 146.651 44.764C146.433 44.7661 146.07 45.1935 145.563 46.0461C145.061 46.8942 144.814 47.7033 144.821 48.4734C144.824 48.7104 144.892 48.9034 145.025 49.0525C145.159 49.2016 145.349 49.2749 145.595 49.2725C145.845 49.2701 146.184 49.1597 146.61 48.9413C147.036 48.7184 147.328 48.5105 147.486 48.3175Z" fill="#495E4C"/>
<path d="M163.279 47.8282C162.849 48.63 162.347 49.2684 161.773 49.7434C161.204 50.2184 160.623 50.4588 160.03 50.4646C159.679 50.468 159.322 50.2869 158.958 49.9213C158.599 49.5557 158.416 48.99 158.409 48.2245C158.403 47.6822 158.532 46.8628 158.795 45.7665C159.023 44.8618 159.135 44.1748 159.13 43.7055C159.309 43.3209 159.592 43.1267 159.979 43.1229C160.243 43.1203 160.454 43.2072 160.61 43.3834C160.772 43.555 160.853 43.7296 160.855 43.9074C160.858 44.2309 160.748 44.6923 160.526 45.2915C160.398 45.6483 160.259 46.1532 160.111 46.8064C159.966 47.455 159.895 47.8704 159.897 48.0527C159.903 48.6588 160.031 48.9606 160.282 48.9581C160.678 48.9543 161.21 48.5685 161.877 47.8009C162.544 47.0333 162.976 46.2497 163.174 45.4502C163.371 44.669 163.548 44.1568 163.706 43.9137C163.863 43.6706 164.087 43.5477 164.379 43.5448C164.853 43.5402 165.092 43.8022 165.097 44.3308C165.098 44.4083 165.061 44.5636 164.986 44.7967C164.725 45.606 164.599 46.5164 164.609 47.5281C164.621 48.7129 164.828 49.4196 165.231 49.6481C165.364 49.7243 165.431 49.8193 165.432 49.9333C165.434 50.0973 165.319 50.2534 165.088 50.4015C164.857 50.5496 164.637 50.6246 164.427 50.6267C164.067 50.6302 163.787 50.38 163.586 49.8761C163.39 49.3676 163.287 48.6849 163.279 47.8282Z" fill="#495E4C"/>
<path d="M173.201 46.7469C173.406 46.795 173.598 46.882 173.777 47.0078C173.956 47.1337 174.171 47.364 174.42 47.6989C174.9 48.3504 175.278 48.7774 175.554 48.9798C175.829 49.1822 176.128 49.2818 176.452 49.2787C176.789 49.2754 176.959 49.3786 176.961 49.5882C176.963 49.7887 176.849 49.9926 176.618 50.2C176.388 50.4073 176.022 50.5134 175.521 50.5183C174.751 50.5258 173.963 49.8978 173.158 48.6341C172.69 47.8912 172.301 47.5213 171.991 47.5243C171.95 47.5247 171.839 47.5554 171.657 47.6165C171.48 47.6774 171.364 47.7333 171.31 47.7839C171.256 47.83 171.213 48.1198 171.182 48.6534L171.119 49.9119C171.112 50.117 171.029 50.2933 170.871 50.4407C170.713 50.5926 170.516 50.6698 170.279 50.6721C170.028 50.6745 169.832 50.6058 169.689 50.4659C169.546 50.3306 169.474 50.1923 169.473 50.051C169.471 49.8778 169.525 49.5059 169.633 48.9351C169.892 47.497 170.092 45.7404 170.231 43.6654C170.247 43.4009 170.354 43.1583 170.552 42.9376C170.75 42.7169 170.984 42.6052 171.253 42.6026C171.44 42.6008 171.595 42.679 171.72 42.8373C171.845 42.9956 171.908 43.1796 171.91 43.3892C171.912 43.5532 171.886 43.7198 171.833 43.889C171.766 44.0856 171.672 44.4876 171.551 45.0949C171.433 45.7022 171.363 46.1655 171.339 46.4848C171.879 46.3154 172.299 46.0834 172.596 45.7888C172.894 45.4942 173.264 45.0235 173.704 44.3766C174.072 43.8443 174.419 43.4513 174.745 43.1974C175.071 42.939 175.429 42.8079 175.821 42.8041C176.036 42.802 176.235 42.8912 176.419 43.0717C176.607 43.2476 176.703 43.4358 176.705 43.6363C176.706 43.8049 176.655 43.933 176.551 44.0206C176.452 44.1036 176.275 44.1851 176.02 44.2651C175.698 44.3639 175.354 44.6271 174.989 45.0545C174.232 45.9415 173.636 46.5056 173.201 46.7469Z" fill="#495E4C"/>
<path d="M187.09 69.9126C187.242 69.9119 187.319 70.0053 187.32 70.1928C187.321 70.3881 187.105 70.6684 186.673 71.0337C186.241 71.399 185.741 71.6904 185.171 71.9078C184.606 72.1253 184.087 72.2351 183.614 72.2373C182.923 72.2405 182.291 72.0149 181.719 71.5605C181.15 71.1061 180.864 70.4453 180.86 69.5782C180.852 67.9961 181.525 66.454 182.877 64.9516C184.234 63.4453 185.543 62.6892 186.804 62.6834C187.277 62.6812 187.655 62.8259 187.937 63.1176C188.224 63.4053 188.368 63.7426 188.37 64.1293C188.371 64.4887 188.351 64.772 188.309 64.9792C188.271 65.1864 188.149 65.3627 187.943 65.5082C187.736 65.6498 187.57 65.7209 187.445 65.7215C187.356 65.7219 187.277 65.6832 187.211 65.6054C187.144 65.5275 187.11 65.4222 187.109 65.2894C187.109 65.1996 187.141 65.0119 187.206 64.7265C187.272 64.4449 187.304 64.2358 187.303 64.0991C187.301 63.7006 187.127 63.5022 186.779 63.5038C186.24 63.5063 185.573 63.82 184.779 64.4447C183.989 65.0656 183.319 65.8538 182.769 66.8095C182.219 67.7613 181.945 68.6376 181.949 69.4383C181.951 69.9735 182.112 70.4181 182.43 70.7721C182.752 71.1222 183.208 71.2958 183.797 71.2931C184.137 71.2915 184.549 71.2056 185.033 71.0354C185.52 70.8613 185.966 70.6307 186.371 70.3437C186.776 70.0566 187.016 69.913 187.09 69.9126Z" fill="#495E4C"/>
<path d="M192.783 65.5679C192.632 65.1662 192.287 64.7323 191.745 64.266C191.236 63.8309 190.98 63.457 190.978 63.1445C190.977 62.8945 191.058 62.693 191.222 62.5399C191.385 62.3829 191.689 62.2409 192.134 62.1138C192.688 61.9589 193.252 61.7844 193.825 61.5903C194.398 61.3924 194.743 61.2658 194.86 61.2105C194.934 61.175 195.01 61.1571 195.088 61.1567C195.217 61.1562 195.282 61.2711 195.283 61.5016C195.284 61.6305 195.129 61.807 194.817 62.0311C194.506 62.2552 193.954 62.4647 193.162 62.6598C192.662 62.7871 192.356 62.8823 192.243 62.9453C192.134 63.0044 192.08 63.0652 192.08 63.1277C192.081 63.2683 192.234 63.4708 192.54 63.735C193.693 64.7336 194.273 65.9907 194.28 67.5063C194.283 68.1586 194.114 68.8586 193.774 69.6063C193.434 70.3501 192.977 70.9049 192.405 71.2708C191.836 71.6368 191.278 71.821 190.732 71.8235C190.239 71.8258 189.865 71.5873 189.609 71.108C189.353 70.6287 189.224 70.1 189.221 69.5219C189.216 68.4985 189.526 67.5322 190.151 66.623C190.779 65.7138 191.445 65.2576 192.148 65.2544C192.242 65.2539 192.36 65.314 192.501 65.4344C192.63 65.551 192.724 65.5955 192.783 65.5679ZM190.246 69.5406C190.248 69.9742 190.307 70.3137 190.421 70.5593C190.539 70.8049 190.692 70.9272 190.88 70.9263C191.13 70.9252 191.467 70.7693 191.891 70.4588C192.316 70.1482 192.655 69.6896 192.91 69.0829C193.169 68.4763 193.297 67.9093 193.295 67.3819C193.293 66.9444 193.229 66.5912 193.103 66.3222C192.98 66.0494 192.866 65.9132 192.761 65.9137C192.066 65.9169 191.472 66.3435 190.98 67.1934C190.487 68.0433 190.243 68.8257 190.246 69.5406Z" fill="#495E4C"/>
<path d="M220.488 65.8905C220.488 65.9491 220.645 66.05 220.958 66.193C221.307 66.3555 221.563 66.5106 221.728 66.6582C221.897 66.802 222.034 66.9967 222.141 67.2423C222.251 67.4839 222.307 67.7747 222.309 68.1145C222.31 68.427 222.101 68.8538 221.682 69.3948C221.266 69.9319 220.726 70.3836 220.059 70.75C219.397 71.1124 218.704 71.2953 217.982 71.2987C217.845 71.2993 217.653 71.2592 217.407 71.1783C217.164 71.0974 217.043 71.012 217.042 70.9221C217.04 70.43 217.387 70.1823 218.082 70.179C218.297 70.182 218.508 70.179 218.715 70.1703C218.922 70.1576 219.185 70.088 219.505 69.9615C219.828 69.8311 220.132 69.65 220.416 69.4182C220.701 69.1864 220.905 68.9609 221.029 68.7416C221.152 68.5183 221.214 68.3052 221.213 68.102C221.211 67.7427 221.06 67.425 220.757 67.1491C220.455 66.8731 220.045 66.7363 219.525 66.7387C219.447 66.7391 219.262 66.8025 218.969 66.9288C218.677 67.0591 218.486 67.1244 218.396 67.1248C218.091 67.1262 217.9 67.0881 217.821 67.0103C217.747 66.9325 217.709 66.794 217.708 66.5948C217.707 66.4581 218.035 66.2593 218.69 65.9985C219.333 65.7416 219.911 65.3502 220.424 64.8244C220.942 64.2986 221.199 63.8794 221.198 63.5669C221.197 63.356 221.087 63.1709 220.867 63.0118C220.652 62.8487 220.356 62.7681 219.981 62.7698C219.497 62.772 218.935 62.841 218.295 62.9768C217.655 63.1087 217.304 63.2373 217.242 63.3625C217.184 63.4878 217.024 64.4397 216.763 66.2183C216.502 67.993 216.372 69.019 216.373 69.2963C216.374 69.4448 216.382 69.5873 216.398 69.7239C216.411 69.8645 216.417 69.9973 216.418 70.1223C216.42 70.6574 216.162 70.9262 215.642 70.9286C215.498 70.9293 215.378 70.8263 215.283 70.6197C215.189 70.4131 215.141 70.2239 215.14 70.052C215.14 69.9778 215.203 69.6787 215.329 69.1547C215.482 68.443 215.634 67.4696 215.784 66.2346C215.935 64.9956 216.01 64.3351 216.01 64.253C216.009 64.089 215.985 63.968 215.938 63.8901C215.894 63.8122 215.793 63.7736 215.632 63.7743C215.57 63.7746 215.507 63.7768 215.445 63.781C215.386 63.7852 215.326 63.7484 215.263 63.6705C215.204 63.5927 215.174 63.4991 215.174 63.3897C215.172 63.0811 215.682 62.7506 216.704 62.3982C217.726 62.0419 218.946 61.8605 220.364 61.8539C220.883 61.8515 221.345 62.0252 221.749 62.3749C222.157 62.7246 222.362 63.0849 222.363 63.456C222.365 63.7217 222.189 64.0994 221.835 64.5894C221.486 65.0753 221.037 65.5091 220.488 65.8905Z" fill="#495E4C"/>
<path d="M225.481 71.1643C224.895 71.1671 224.443 71.0012 224.125 70.6667C223.811 70.3322 223.653 69.8622 223.65 69.2568C223.645 68.2373 224.045 67.1612 224.848 66.0285C225.651 64.892 226.401 64.3221 227.096 64.3189C227.412 64.3174 227.685 64.4881 227.913 64.8308C228.145 65.1695 228.262 65.5303 228.264 65.9131C228.265 66.1436 228.215 66.343 228.114 66.5115C228.017 66.676 227.918 66.7585 227.816 66.759C227.59 66.76 227.429 66.5322 227.333 66.0756C227.225 65.584 227.071 65.3386 226.872 65.3395C226.466 65.3414 225.988 65.826 225.438 66.7934C224.887 67.7608 224.614 68.5765 224.617 69.2406C224.62 69.9046 224.998 70.2349 225.752 70.2314C226.326 70.2288 227.001 69.9561 227.776 69.4135C228.048 69.2208 228.249 69.1242 228.378 69.1236C228.511 69.123 228.578 69.1988 228.578 69.3512C228.58 69.648 228.232 70.0247 227.535 70.481C226.838 70.9335 226.153 71.1612 225.481 71.1643Z" fill="#495E4C"/>
</g>
<defs>
<clipPath id="clip0_86_2250">
<rect width="288.709" height="274.126" fill="white" transform="translate(0 0.713135) rotate(-0.141527)"/>
</clipPath>
</defs>
</svg>
