<svg width="301" height="189" viewBox="0 0 301 189" fill="none" xmlns="http://www.w3.org/2000/svg">
<g opacity="0.5" clip-path="url(#clip0_86_2113)">
<path d="M68.7661 70.9954H10.9224V115.585H68.7661V70.9954Z" fill="#8FE89A"/>
<path d="M54.2747 115.269C54.2247 115.269 54.1803 105.331 54.1803 93.0737C54.1803 80.8166 54.2247 70.8789 54.2747 70.8789C54.3247 70.8789 54.3691 80.8111 54.3691 93.0737C54.3691 105.336 54.3302 115.269 54.2747 115.269Z" fill="#495D4C"/>
<path d="M63.0286 105.437H58.5923V110.447H63.0286V105.437Z" fill="#F5F5F5"/>
<path d="M35.136 71.1121H28.5676V80.6281H35.136V71.1121Z" fill="#495D4C"/>
<path d="M35.136 105.936H28.5676V115.452H35.136V105.936Z" fill="#495D4C"/>
<path d="M67.4315 71.0233C67.3819 71.0318 67.3312 71.0318 67.2816 71.0233H66.8485H65.1828H59.0364L38.765 71.051L18.488 71.0233H12.3472H10.6815H10.2484C10.1988 71.0318 10.1481 71.0318 10.0985 71.0233H10.2484H10.6815H12.3472L18.488 70.99H38.765H59.0364L65.1828 71.0233H66.8485H67.2816H67.4315Z" fill="#263238"/>
<path d="M116.921 70.9458H59.0771V115.535H116.921V70.9458Z" fill="#E0E0E0"/>
<path d="M102.418 115.219C102.368 115.219 102.324 105.275 102.324 93.0239C102.324 80.7724 102.368 70.8291 102.418 70.8291C102.468 70.8291 102.513 80.7668 102.513 93.0239C102.513 105.281 102.479 115.219 102.418 115.219Z" fill="#495D4C"/>
<path d="M112.018 105.381H107.582V110.391H112.018V105.381Z" fill="#F5F5F5"/>
<path opacity="0.5" d="M83.2908 71.0564H76.7224V80.5724H83.2908V71.0564Z" fill="white"/>
<path opacity="0.5" d="M83.2908 105.886H76.7224V115.402H83.2908V105.886Z" fill="white"/>
<path d="M117.944 70.9458H117.827H117.389H115.723L109.577 70.9791H89.3053H69.0284H62.8598H61.1941H60.7554H60.6111C60.6591 70.9744 60.7074 70.9744 60.7554 70.9791H61.1941H62.8598L69.0006 70.9514H89.2776H109.549L115.695 70.9791H117.361H117.8C117.847 70.9632 117.895 70.952 117.944 70.9458Z" fill="#0A0D0E"/>
<path d="M120.169 26.3564H62.3252V70.9458H120.169V26.3564Z" fill="#E0E0E0"/>
<path d="M105.678 70.6294C105.628 70.6294 105.583 60.6917 105.583 48.4346C105.583 36.1775 105.628 26.2397 105.678 26.2397C105.728 26.2397 105.772 36.1775 105.772 48.4346C105.772 60.6917 105.75 70.6294 105.678 70.6294Z" fill="#495D4C"/>
<path d="M115.266 60.7913H110.83V65.8017H115.266V60.7913Z" fill="#F5F5F5"/>
<path d="M86.5388 26.4724H79.9705V35.9884H86.5388V26.4724Z" fill="#F5F5F5"/>
<path d="M86.5388 61.2964H79.9705V70.8124H86.5388V61.2964Z" fill="#F5F5F5"/>
<path d="M119.235 26.3559H119.091H118.646H116.981L110.84 26.3892L90.5684 26.4169L70.2914 26.3892L64.145 26.3559H62.4794H62.0407H61.8964H62.0407H62.4794H64.145H70.2914L90.5684 26.3281L110.84 26.3559H116.981H118.646H119.085H119.235Z" fill="#263238"/>
<path d="M109.123 165.229V160.008H2.24697C2.05649 160.008 1.86792 160.046 1.69229 160.119C1.51666 160.193 1.35749 160.301 1.2241 160.437C1.09071 160.573 0.985779 160.734 0.915445 160.911C0.84511 161.088 0.810787 161.277 0.814478 161.467V163.831C0.815947 164.21 0.967515 164.572 1.236 164.84C1.50449 165.107 1.86801 165.257 2.24697 165.257H5.22299V167.637C5.22153 168.01 5.07229 168.367 4.80797 168.63C4.54365 168.893 4.18579 169.041 3.81272 169.041H2.22476C1.85073 169.041 1.49202 169.19 1.22754 169.454C0.963061 169.718 0.814478 170.077 0.814478 170.45V172.859C0.824603 173.226 0.977643 173.574 1.24103 173.83C1.50442 174.086 1.85737 174.229 2.22476 174.229H109.123V169.013H84.2321V165.229H109.123ZM30.8357 165.229H37.2375V169.013H30.8413L30.8357 165.229ZM26.566 169.013H20.1642V165.229H26.5716L26.566 169.013ZM41.5072 165.229H47.9201V169.013H41.5128L41.5072 165.229ZM52.1843 165.229H58.5861V169.013H52.1898L52.1843 165.229ZM62.8558 165.229H69.2631V169.013H62.8613L62.8558 165.229ZM9.48715 165.229H15.8889V169.013H9.49271L9.48715 165.229ZM79.9346 169.013H73.5328V165.229H79.9402L79.9346 169.013Z" fill="#89948F"/>
<path d="M199.162 81.2356C199.338 81.0741 199.476 80.8828 199.569 80.6729C199.661 80.4629 199.706 80.2385 199.701 80.0128C199.696 79.7871 199.641 79.5646 199.538 79.3582C199.436 79.1519 199.289 78.9658 199.106 78.811L180.997 63.4733C180.635 63.1689 180.158 62.9995 179.661 62.9995C179.165 62.9995 178.687 63.1689 178.326 63.4733C178.14 63.6311 177.99 63.8201 177.886 64.0297C177.782 64.2393 177.724 64.4652 177.718 64.6946C177.711 64.9241 177.755 65.1524 177.847 65.3666C177.939 65.5808 178.077 65.7767 178.253 65.9429L185.475 72.7569L181.716 75.9964L179.759 74.6166L166.095 88.6495L158.794 82.3554L149.994 105.557L151.739 137.052H171.984L170.573 99.6278L184.131 82.2755L184.237 78.1461L188.141 74.5666L196.557 81.3006C196.921 81.5926 197.397 81.7473 197.886 81.7324C198.374 81.7174 198.837 81.5341 199.178 81.2206L199.162 81.2356Z" fill="#B8B8B8"/>
<path d="M190.865 134.842L203.763 104.983L198.92 103.346V97.5558L234.185 97.098C235.015 97.0835 235.811 96.8183 236.424 96.3516C237.038 95.885 237.427 95.2486 237.52 94.5606L242.696 56.1789C242.811 55.3196 243.301 54.5257 244.074 53.9489C244.846 53.3721 245.847 53.0529 246.884 53.0522C247.453 53.0525 248.015 53.1485 248.538 53.3346C249.062 53.5206 249.534 53.7927 249.928 54.1347C250.322 54.4767 250.629 54.8815 250.831 55.3249C251.032 55.7682 251.124 56.2409 251.102 56.7146L249.15 96.2652L267.563 96.348L268.188 103.566L213.734 105.338L199.533 134.413L190.865 134.842Z" fill="#E9E9E9"/>
<path d="M199.445 134.206L154.412 134.513V137.052L173.067 136.848L202.779 136.658L274.815 128.034L266.65 101.684H217.876C217.033 101.674 216.199 101.837 215.447 102.161C214.696 102.485 214.048 102.959 213.561 103.542L199.445 134.206Z" fill="#B8B8B8"/>
<path d="M176.878 8.22296L145.202 109.171L145.424 137.247H155.502V109.348L181.453 8.4893L251.768 8.09534L265.215 113.149H273.149L256.787 8.83332C256.532 7.46919 255.808 6.2369 254.741 5.3494C253.673 4.4619 252.329 3.97493 250.94 3.97266H182.586C181.304 3.97283 180.055 4.38654 179.027 5.15229C177.999 5.91804 177.245 6.99495 176.878 8.22296Z" fill="#E9E9E9"/>
<path d="M139.517 169.685V142.713L145.447 137.247L200.97 136.537L210.964 128.413C212.827 126.901 215.119 126.014 217.515 125.878L228.176 125.278C228.176 125.278 232.973 121.949 237.615 118.698C243.494 114.536 250.521 112.301 257.725 112.3H288.501C289.619 112.3 290.691 112.744 291.481 113.534C292.272 114.323 292.716 115.395 292.716 116.512V169.685H139.517Z" fill="#5CCD6A"/>
<path d="M292.71 160.99H138.973V169.857H292.71V160.99Z" fill="#495D4C"/>
<path d="M146.929 169.585C146.875 173.342 147.936 177.031 149.98 180.186C152.023 183.34 154.957 185.818 158.409 187.306C161.862 188.794 165.679 189.225 169.377 188.546C173.075 187.866 176.488 186.106 179.185 183.487C181.882 180.869 183.742 177.51 184.528 173.836C185.315 170.161 184.994 166.336 183.605 162.844C182.217 159.352 179.823 156.35 176.727 154.217C173.631 152.085 169.972 150.918 166.212 150.864C163.716 150.827 161.237 151.282 158.916 152.203C156.596 153.124 154.48 154.493 152.689 156.232C150.899 157.97 149.468 160.044 148.48 162.336C147.492 164.627 146.965 167.09 146.929 169.585Z" fill="#495D4C"/>
<path d="M146.935 169.535C146.935 169.535 146.935 169.568 146.935 169.585C146.906 174.594 148.858 179.412 152.367 182.991C155.875 186.569 160.655 188.617 165.668 188.69C170.68 188.764 175.518 186.855 179.13 183.381C182.741 179.907 184.833 175.148 184.951 170.14C184.951 170.14 184.951 170.106 184.951 170.09L146.935 169.535Z" fill="#495D4C"/>
<path d="M152.592 169.668C152.559 172.3 153.306 174.883 154.74 177.09C156.175 179.298 158.231 181.031 160.651 182.071C163.07 183.111 165.744 183.412 168.334 182.934C170.924 182.457 173.314 181.223 175.203 179.389C177.092 177.555 178.395 175.202 178.947 172.629C179.498 170.055 179.275 167.376 178.304 164.929C177.333 162.482 175.658 160.378 173.491 158.882C171.324 157.386 168.762 156.565 166.129 156.523C164.376 156.495 162.634 156.813 161.004 157.459C159.374 158.105 157.888 159.067 156.63 160.288C155.373 161.509 154.369 162.966 153.676 164.576C152.983 166.185 152.615 167.916 152.592 169.668Z" fill="#FAFAFA"/>
<path d="M166.129 156.523C164.376 156.495 162.634 156.813 161.004 157.459C159.374 158.105 157.888 159.067 156.63 160.288C155.373 161.509 154.369 162.966 153.676 164.576C152.983 166.185 152.615 167.916 152.592 169.668L179.282 170.051C179.31 168.299 178.992 166.558 178.345 164.93C177.699 163.301 176.737 161.815 175.515 160.559C174.293 159.302 172.835 158.299 171.225 157.606C169.614 156.914 167.882 156.546 166.129 156.523Z" fill="#E0E0E0"/>
<path d="M157.806 169.74C157.782 171.348 158.236 172.927 159.11 174.277C159.984 175.627 161.238 176.687 162.716 177.325C164.193 177.962 165.826 178.147 167.408 177.857C168.991 177.566 170.452 176.813 171.606 175.693C172.76 174.573 173.556 173.136 173.893 171.564C174.23 169.991 174.093 168.355 173.499 166.86C172.905 165.366 171.881 164.081 170.556 163.169C169.231 162.256 167.666 161.757 166.057 161.733C164.989 161.717 163.928 161.912 162.935 162.305C161.943 162.699 161.037 163.284 160.271 164.028C159.505 164.772 158.893 165.659 158.47 166.639C158.047 167.619 157.821 168.673 157.806 169.74Z" fill="#495D4C"/>
<path d="M239.952 169.585C239.898 173.342 240.959 177.031 243.003 180.185C245.046 183.34 247.98 185.818 251.433 187.306C254.885 188.794 258.702 189.225 262.4 188.546C266.098 187.866 269.511 186.106 272.208 183.487C274.905 180.869 276.765 177.51 277.551 173.836C278.338 170.161 278.017 166.336 276.628 162.844C275.24 159.352 272.846 156.35 269.75 154.217C266.654 152.085 262.995 150.918 259.235 150.864C254.194 150.791 249.33 152.722 245.714 156.233C242.098 159.744 240.025 164.547 239.952 169.585Z" fill="#495D4C"/>
<path d="M239.958 169.535C239.958 169.535 239.958 169.568 239.958 169.585C239.929 174.594 241.881 179.412 245.39 182.991C248.898 186.569 253.679 188.617 258.691 188.69C263.703 188.764 268.541 186.855 272.153 183.381C275.764 179.907 277.857 175.148 277.974 170.14C277.971 170.123 277.971 170.106 277.974 170.09L239.958 169.535Z" fill="#495D4C"/>
<path d="M245.615 169.668C245.582 172.3 246.329 174.883 247.764 177.09C249.198 179.298 251.254 181.031 253.674 182.071C256.093 183.111 258.767 183.412 261.357 182.934C263.947 182.457 266.337 181.223 268.226 179.389C270.115 177.555 271.418 175.202 271.97 172.629C272.521 170.055 272.298 167.376 271.327 164.929C270.356 162.482 268.681 160.378 266.514 158.882C264.347 157.386 261.785 156.565 259.152 156.523C257.399 156.495 255.657 156.813 254.027 157.459C252.397 158.105 250.911 159.067 249.654 160.288C248.396 161.509 247.392 162.966 246.699 164.576C246.006 166.185 245.638 167.916 245.615 169.668Z" fill="#FAFAFA"/>
<path d="M259.152 156.523C257.399 156.495 255.657 156.813 254.027 157.459C252.397 158.105 250.911 159.067 249.653 160.288C248.396 161.509 247.392 162.966 246.699 164.576C246.006 166.185 245.638 167.916 245.615 169.668L272.305 170.051C272.333 168.299 272.015 166.558 271.368 164.93C270.722 163.301 269.76 161.815 268.538 160.559C267.316 159.302 265.858 158.299 264.247 157.606C262.637 156.914 260.905 156.546 259.152 156.523Z" fill="#E0E0E0"/>
<path d="M250.835 169.74C250.812 171.347 251.266 172.924 252.14 174.272C253.014 175.62 254.268 176.68 255.745 177.316C257.221 177.952 258.853 178.136 260.434 177.845C262.015 177.554 263.474 176.801 264.627 175.682C265.78 174.562 266.575 173.126 266.911 171.555C267.247 169.984 267.11 168.348 266.516 166.855C265.922 165.363 264.899 164.079 263.575 163.167C262.252 162.256 260.687 161.757 259.08 161.733C258.012 161.717 256.952 161.912 255.959 162.305C254.967 162.699 254.062 163.285 253.296 164.028C252.53 164.772 251.919 165.659 251.496 166.639C251.074 167.619 250.849 168.673 250.835 169.74Z" fill="#495D4C"/>
<path d="M283.699 156.335C283.699 156.335 283.665 156.296 283.604 156.207L283.36 155.807L282.971 155.153C282.806 154.849 282.62 154.556 282.416 154.276C281.197 152.443 279.757 150.766 278.13 149.282C277.641 148.788 277.019 148.356 276.464 147.867C275.909 147.379 275.215 146.952 274.549 146.48C273.882 146.008 273.149 145.57 272.367 145.187C271.978 144.987 271.589 144.771 271.189 144.577L269.94 144.022C268.169 143.273 266.322 142.715 264.432 142.357C258.43 141.215 252.217 142.196 246.859 145.132L245.671 145.803C245.288 146.031 244.927 146.286 244.561 146.519C243.811 146.979 243.167 147.529 242.506 148.011C241.846 148.494 241.274 149.049 240.73 149.576C240.185 150.103 239.652 150.603 239.208 151.147C237.73 152.778 236.456 154.583 235.416 156.523C235.244 156.824 235.088 157.133 234.95 157.45C234.822 157.716 234.711 157.944 234.622 158.138C234.533 158.332 234.472 158.449 234.417 158.554C234.394 158.604 234.368 158.652 234.339 158.698C234.347 158.644 234.364 158.592 234.389 158.543L234.567 158.11L234.872 157.411C235.001 157.09 235.149 156.777 235.316 156.473C236.326 154.5 237.584 152.663 239.058 151.008C239.497 150.453 240.047 149.965 240.574 149.415C241.102 148.866 241.735 148.367 242.356 147.828C242.978 147.29 243.667 146.774 244.416 146.308C244.783 146.069 245.149 145.814 245.527 145.576L246.72 144.899C250.266 142.944 254.205 141.807 258.247 141.569C262.293 141.417 266.321 142.176 270.035 143.789L271.289 144.344C271.695 144.544 272.083 144.76 272.472 144.965C273.266 145.354 273.96 145.853 274.693 146.28C275.426 146.708 276.02 147.207 276.614 147.69C277.208 148.172 277.791 148.627 278.28 149.132C279.906 150.638 281.332 152.346 282.522 154.215C282.723 154.502 282.908 154.801 283.077 155.108C283.218 155.367 283.34 155.589 283.443 155.774L283.66 156.19C283.679 156.236 283.692 156.285 283.699 156.335Z" fill="#495D4C"/>
<path d="M190.759 159.836C190.727 159.788 190.703 159.736 190.687 159.68L190.498 159.231L190.198 158.487L189.748 157.5C188.782 155.402 187.577 153.423 186.156 151.602C184.086 148.869 181.445 146.619 178.416 145.01C176.602 144.127 174.679 143.487 172.697 143.106C170.573 142.672 168.408 142.475 166.24 142.518C164.072 142.551 161.916 142.829 159.81 143.345C157.851 143.844 155.963 144.59 154.191 145.565C151.164 147.172 148.456 149.319 146.202 151.901C144.694 153.647 143.382 155.553 142.287 157.583C141.899 158.304 141.61 158.865 141.421 159.248L141.199 159.68C141.177 159.733 141.149 159.784 141.116 159.83C141.129 159.775 141.147 159.721 141.171 159.669L141.371 159.22C141.538 158.82 141.815 158.249 142.187 157.516C143.249 155.45 144.544 153.512 146.046 151.74C148.297 149.118 151.016 146.935 154.064 145.304C155.853 144.325 157.76 143.579 159.738 143.084C161.864 142.557 164.044 142.274 166.234 142.241C168.425 142.196 170.613 142.397 172.758 142.84C174.762 143.23 176.706 143.883 178.538 144.782C181.59 146.42 184.244 148.708 186.311 151.485C187.729 153.325 188.921 155.328 189.865 157.45C190.02 157.827 190.165 158.16 190.287 158.454C190.409 158.748 190.487 159.009 190.565 159.209C190.642 159.409 190.681 159.553 190.726 159.669C190.744 159.723 190.755 159.779 190.759 159.836Z" fill="#495D4C"/>
<path d="M139.478 160.008H55.2053V169.857H139.478V160.008Z" fill="#495D4C"/>
<path d="M137.196 164.186C137.196 164.671 137.052 165.145 136.782 165.548C136.513 165.952 136.129 166.266 135.681 166.452C135.233 166.637 134.739 166.686 134.263 166.591C133.787 166.497 133.35 166.263 133.007 165.92C132.663 165.577 132.43 165.14 132.335 164.664C132.24 164.189 132.289 163.696 132.475 163.247C132.66 162.799 132.975 162.416 133.378 162.147C133.782 161.877 134.256 161.733 134.742 161.733C135.064 161.733 135.383 161.797 135.681 161.92C135.979 162.043 136.249 162.224 136.477 162.452C136.705 162.679 136.886 162.95 137.009 163.247C137.132 163.545 137.196 163.864 137.196 164.186Z" fill="#89948F"/>
<path d="M238.414 150.808C238.414 150.891 226.554 150.958 211.93 150.958C197.305 150.958 185.445 150.891 185.445 150.808C185.445 150.725 197.299 150.664 211.93 150.664C226.56 150.664 238.414 150.73 238.414 150.808Z" fill="#495D4C"/>
<path d="M227.621 148.705C227.537 148.705 227.476 143.55 227.476 137.197C227.476 130.844 227.537 125.684 227.621 125.684C227.704 125.684 227.765 130.838 227.765 137.197C227.765 143.556 227.698 148.705 227.621 148.705Z" fill="#495D4C"/>
<path d="M139.478 141.703H130.233V160.135H139.478V141.703Z" fill="#495D4C"/>
<path d="M118.848 115.546H61.0038V160.135H118.848V115.546Z" fill="#8FE89A"/>
<path d="M104.356 159.802C104.306 159.802 104.262 149.865 104.262 137.607C104.262 125.35 104.306 115.413 104.356 115.413C104.406 115.413 104.45 125.345 104.45 137.607C104.45 149.87 104.406 159.802 104.356 159.802Z" fill="#495D4C"/>
<path d="M113.945 149.986H109.509V154.997H113.945V149.986Z" fill="#F5F5F5"/>
<path d="M105.37 115.663H98.8018V125.179H105.37V115.663Z" fill="#495D4C"/>
<path d="M85.2174 150.492H78.649V160.008H85.2174V150.492Z" fill="#495D4C"/>
<path d="M123.031 115.546C122.983 115.554 122.934 115.554 122.886 115.546H122.453H120.788L114.641 115.574H94.3697H74.0928L67.9519 115.546H66.2862H65.8532C65.8036 115.555 65.7529 115.555 65.7032 115.546H65.8532H66.2862H67.9519L74.0928 115.518H94.3697H114.641L120.788 115.546H122.453H122.886H123.031Z" fill="#263238"/>
<path d="M60.1343 115.546H2.29053V160.135H60.1343V115.546Z" fill="#E0E0E0"/>
<path d="M43.6864 159.802C43.6309 159.802 43.592 149.865 43.592 137.607C43.592 125.35 43.6309 115.413 43.6864 115.413C43.742 115.413 43.7753 125.345 43.7753 137.607C43.7753 149.87 43.7364 159.802 43.6864 159.802Z" fill="#263238"/>
<path d="M53.2755 149.986H48.8392V154.997H53.2755V149.986Z" fill="#F5F5F5"/>
<path opacity="0.5" d="M24.5477 115.663H17.9794V125.179H24.5477V115.663Z" fill="white"/>
<path opacity="0.5" d="M24.5477 150.492H17.9794V160.008H24.5477V150.492Z" fill="white"/>
<path d="M56.8377 115.546C56.788 115.555 56.7373 115.555 56.6877 115.546H56.2547H54.589L48.4481 115.574H28.1767H7.89976L1.75338 115.546H0.0876883H-0.34539C-0.393152 115.554 -0.441983 115.554 -0.489746 115.546H-0.34539H0.0876883H1.75338L7.89976 115.518H28.1767H48.4481L54.589 115.546H56.2547H56.6877H56.8377Z" fill="#263238"/>
<path d="M295.136 127.67C298.118 128.386 300.622 131.415 300.572 134.478C300.51 136.015 299.944 137.49 298.962 138.674C297.98 139.859 296.636 140.689 295.136 141.037" fill="#E8505B"/>
<g opacity="0.6">
<path d="M295.136 127.67C298.118 128.386 300.622 131.415 300.572 134.478C300.51 136.015 299.944 137.49 298.962 138.674C297.98 139.859 296.636 140.689 295.136 141.037" fill="white"/>
</g>
<path d="M295.258 125.944H292.71V142.818H295.258V125.944Z" fill="#498D51"/>
<path d="M319 188.856C319 188.933 238.636 189 139.528 189C40.4193 189 -39.9668 188.933 -39.9668 188.856C-39.9668 188.778 40.3804 188.711 139.528 188.711C238.675 188.711 319 188.772 319 188.856Z" fill="#495D4C"/>
</g>
<defs>
<clipPath id="clip0_86_2113">
<rect width="301" height="189" fill="white"/>
</clipPath>
</defs>
</svg>
