<svg width="22" height="23" viewBox="0 0 22 23" fill="none" xmlns="http://www.w3.org/2000/svg">
<path d="M21.4919 18.0058C21.4908 18.0046 21.4895 18.0033 21.4882 18.002C21.4598 17.9733 21.4082 17.9292 21.3235 17.8701C21.1544 17.7522 20.8977 17.6044 20.5422 17.4268L20.528 17.4197L20.5144 17.4117C20.3234 17.3007 20.0472 17.1474 19.6836 16.9497C19.3174 16.7508 18.9843 16.567 18.685 16.3988C18.384 16.2299 18.1014 16.066 17.8368 15.9072L17.8144 15.8938L17.7936 15.8782C17.762 15.8544 17.6428 15.7708 17.4193 15.6161C17.2105 15.4721 17.0496 15.3759 16.931 15.3186L17.1485 14.8684M21.4919 18.0058L5.17628 10.55C5.23067 10.6382 5.27209 10.7057 5.30092 10.7534C5.31542 10.7773 5.32599 10.795 5.33315 10.8072C5.3353 10.8109 5.33686 10.8135 5.33792 10.8154M21.4919 18.0058C21.4924 18.0086 21.4929 18.012 21.4935 18.0159C21.4971 18.041 21.5001 18.08 21.5 18.1362V18.1373C21.5 18.3648 21.457 18.6905 21.3564 19.1272L21.3563 19.1276C21.2553 19.5677 21.1547 19.8898 21.0581 20.1084L21.058 20.1083L21.0544 20.1171C20.9856 20.2812 20.8325 20.4903 20.5468 20.7388C20.2645 20.9844 19.8753 21.2488 19.3691 21.5298C18.4519 22.0274 17.5648 22.2656 16.7032 22.2656C16.4446 22.2656 16.1939 22.2486 15.951 22.2158C15.7135 22.1829 15.4372 22.1233 15.1197 22.0339C14.7889 21.9406 14.5546 21.8687 14.4097 21.8171L14.4096 21.8171C14.2528 21.7614 13.9675 21.656 13.5505 21.4996C13.1457 21.3473 12.8821 21.2502 12.7728 21.2136C11.7829 20.8592 10.9058 20.4421 10.1395 19.9641L10.1376 19.963C8.84498 19.1647 7.49739 18.0681 6.09556 16.6655C4.69379 15.2627 3.59788 13.9139 2.80045 12.6205L2.79925 12.6186C2.32144 11.8515 1.90447 10.974 1.55058 9.98323C1.5142 9.87495 1.41697 9.61106 1.26508 9.2053L1.26501 9.20513C1.1086 8.78776 1.00333 8.50253 0.947849 8.34591L21.4919 18.0058ZM17.1485 14.8684L16.9317 15.3189C16.8391 15.2744 16.7651 15.2596 16.7057 15.2592C16.7025 15.2597 16.6693 15.2651 16.5996 15.3048C16.516 15.3525 16.4054 15.4353 16.2669 15.5669C15.975 15.8447 15.7073 16.1463 15.464 16.473L15.4639 16.4731C15.1905 16.84 14.8998 17.1801 14.5921 17.4938L14.5919 17.494C14.4299 17.659 14.2657 17.8002 14.0999 17.903C13.9381 18.0033 13.7387 18.0894 13.5163 18.0894C13.3381 18.0894 13.1575 18.0417 12.9917 17.9806L12.9907 17.9802C12.8431 17.9255 12.7186 17.8742 12.6237 17.8276L12.6183 17.8249L12.6183 17.8249C12.5244 17.7774 12.3834 17.6944 12.206 17.5845M17.1485 14.8684C16.9975 14.7957 16.849 14.7592 16.7031 14.7592C16.4948 14.7592 16.2346 14.9078 15.9222 15.2047L18.094 15.4785C18.0524 15.4472 17.9222 15.3561 17.7035 15.2047C17.4845 15.0536 17.2998 14.9415 17.1485 14.8684ZM12.206 17.5845C12.206 17.5845 12.206 17.5845 12.2059 17.5844L12.4692 17.1595L12.2068 17.585C12.2066 17.5848 12.2063 17.5847 12.206 17.5845ZM12.206 17.5845C12.1179 17.5302 12.0504 17.4888 12.0028 17.4599C11.9788 17.4454 11.9611 17.4347 11.9488 17.4275C11.9448 17.4252 11.9419 17.4235 11.94 17.4224M11.94 17.4224L11.9475 17.4262C11.9412 17.423 11.9371 17.4207 11.9371 17.4207C11.9371 17.4207 11.938 17.4212 11.94 17.4224ZM11.94 17.4224L11.9384 17.4216L11.9295 17.4166C10.4669 16.6045 9.20443 15.6705 8.14662 14.6125L8.14646 14.6123C7.08902 13.5537 6.15552 12.2905 5.34414 10.8268L5.33883 10.8172L5.33792 10.8154M5.33792 10.8154C5.33922 10.8176 5.33978 10.8187 5.33979 10.8187C5.33979 10.8187 5.33732 10.8142 5.33394 10.8074L5.33792 10.8154ZM5.26689 8.16384L5.26696 8.16377C5.58058 7.85556 5.92086 7.56457 6.28704 7.29122L6.28719 7.29111C6.61348 7.04773 6.91486 6.77992 7.19226 6.48793C7.32395 6.34918 7.40677 6.23834 7.45443 6.15467C7.49467 6.08404 7.49968 6.05071 7.50019 6.04799C7.49979 5.98824 7.48496 5.91419 7.44051 5.82198L7.44039 5.82173C7.38335 5.70324 7.28742 5.54235 7.14337 5.33359C6.98954 5.11083 6.90505 4.99042 6.88079 4.95795L6.86555 4.93756L6.85246 4.91572C6.69359 4.65067 6.52994 4.36774 6.36115 4.06723L5.26689 8.16384ZM5.26689 8.16384C5.10206 8.32588 4.96093 8.49016 4.85827 8.65596C4.75804 8.81785 4.67203 9.01729 4.67203 9.23968C4.67203 9.41766 4.71954 9.59815 4.78113 9.76481C4.8351 9.91084 4.88677 10.0378 4.93548 10.1353L5.26689 8.16384ZM5.81061 3.06792L5.81057 3.06785C5.61333 2.70433 5.45984 2.42768 5.34868 2.2358L5.34094 2.22243L5.33403 2.2086C5.15637 1.85291 5.00873 1.59599 4.89081 1.42675C4.83175 1.34199 4.78772 1.29027 4.75902 1.26187C4.75772 1.26059 4.75649 1.25939 4.75533 1.25827C4.75258 1.25779 4.74934 1.25726 4.74556 1.25672C4.72036 1.2531 4.68126 1.25 4.62528 1.25C4.39798 1.25 4.07252 1.29305 3.63587 1.39365L3.63566 1.3937C3.19629 1.49472 2.8741 1.59565 2.65494 1.69228L2.64688 1.69584L2.64685 1.69577C2.48322 1.7645 2.27442 1.91751 2.02602 2.20355C1.78058 2.48619 1.51626 2.87573 1.23531 3.38241C0.738019 4.30006 0.5 5.18774 0.5 6.05019C0.5 6.30975 0.516817 6.56063 0.550038 6.80314L5.81061 3.06792ZM5.81061 3.06792C6.00936 3.43407 6.19272 3.76741 6.36113 4.06719L5.81061 3.06792ZM0.731431 7.6348L0.731481 7.63498C0.824519 7.96615 0.896463 8.20081 0.947835 8.34587L0.731431 7.6348ZM0.731431 7.6348C0.642123 7.31736 0.582631 7.04075 0.550048 6.8032L0.731431 7.6348ZM21.5037 18.019C21.5049 18.0204 21.5053 18.0211 21.5053 18.0211C21.5052 18.0211 21.5047 18.0204 21.5037 18.019ZM4.74209 1.24635C4.74067 1.24536 4.73996 1.24479 4.73996 1.24475C4.73996 1.24471 4.74067 1.24521 4.74209 1.24635ZM4.93565 10.1356C4.98361 10.2318 5.06782 10.3744 5.17621 10.5499L4.93565 10.1356Z" fill="#78C081" stroke="#577A5B"/>
</svg>
