<svg width="24" height="31" viewBox="0 0 24 31" fill="none" xmlns="http://www.w3.org/2000/svg">
<g clip-path="url(#clip0_86_1746)">
<path d="M12 0.5C15.0537 0.504089 17.9781 1.68122 20.1327 3.76852C22.287 5.85545 23.496 8.68138 23.5 11.6257C23.4998 13.6064 22.8344 15.746 21.7965 17.8706C20.7605 19.9909 19.3691 22.0645 17.9543 23.9043C15.1244 27.5839 12.2336 30.2856 12.0049 30.4979L12.0031 30.4996M12 0.5L12.0031 30.4996M12 0.5C8.94629 0.504089 6.02191 1.68122 3.86728 3.76852C1.71311 5.85537 0.504125 8.68116 0.5 11.6253M12 0.5L0.5 11.6253M12.0031 30.4996C12.0036 30.4994 12.0033 30.4994 12.0022 30.5003L12.0031 30.4996ZM0.5 11.6253C0.5 11.6252 0.5 11.6251 0.5 11.625H0M0.5 11.6253L12 0C8.8187 0.0040882 5.7689 1.23017 3.51938 3.4094C1.26986 5.58862 0.00422007 8.54311 0 11.625M0.5 11.6253C0.5 11.6255 0.5 11.6256 0.5 11.6257L0 11.625M0.5 11.6253L11.655 30.8644M0 11.625C0 19.9708 11.18 30.4236 11.655 30.8644M11.655 30.8644C11.7474 30.9514 11.8712 31 12 31C12.1288 31 12.2526 30.9514 12.345 30.8644C12.82 30.4236 24 19.9708 24 11.625L11.655 30.8644ZM12 17.4531H12.0003C13.5862 17.4522 15.1099 16.8416 16.236 15.7507C17.3626 14.6593 17.999 13.1759 18 11.6253V11.625C18 10.4687 17.646 9.33975 16.9847 8.38097C16.3235 7.42239 15.3855 6.67761 14.291 6.23842C13.1966 5.79927 11.9932 5.6846 10.8324 5.90829C9.67152 6.13198 8.60309 6.6845 7.76301 7.49833C6.92277 8.31232 6.34866 9.35136 6.1159 10.485C5.88311 11.6187 6.00274 12.7937 6.45892 13.8606C6.91503 14.9273 7.68628 15.8364 8.67267 16.4749C9.6589 17.1133 10.8168 17.4531 12 17.4531Z" fill="#78C081" stroke="#577A5B"/>
</g>
<defs>
<clipPath id="clip0_86_1746">
<rect width="24" height="31" fill="white"/>
</clipPath>
</defs>
</svg>
