<svg width="32" height="32" viewBox="0 0 32 32" fill="none" xmlns="http://www.w3.org/2000/svg">
<g clip-path="url(#clip0_86_1400)">
<path d="M31.4621 24.9691C31.4568 24.9618 31.4435 24.9444 31.4163 24.9169C31.362 24.8618 31.2748 24.789 31.1452 24.6985C30.8861 24.5179 30.5016 24.2975 29.9803 24.0372L29.9662 24.0301L29.9525 24.0221C29.6717 23.8589 29.2675 23.6348 28.7383 23.3473C28.2065 23.0586 27.7231 22.7921 27.2891 22.5482L31.4621 24.9691ZM31.4621 24.9691L31.4629 24.9714L31.4711 24.9905C31.471 24.9904 31.4733 24.9959 31.4766 25.0088C31.4799 25.0216 31.4837 25.0398 31.4872 25.0644C31.4944 25.1142 31.4991 25.1822 31.4989 25.2716V25.2727C31.4989 25.6279 31.4324 26.1202 31.2843 26.7624L31.2842 26.7628C31.1358 27.4086 30.9858 27.8926 30.8369 28.2292L30.8368 28.2292L30.8332 28.2379C30.7147 28.5203 30.4647 28.8512 30.0346 29.225C29.6079 29.5959 29.027 29.9892 28.2818 30.4025C26.9195 31.1412 25.5921 31.5001 24.2949 31.5001C23.9086 31.5001 23.5336 31.4746 23.17 31.4255C22.8117 31.3759 22.3994 31.2868 21.9302 31.1548C21.448 31.0189 21.1011 30.9126 20.8829 30.8351L20.8828 30.835C20.6528 30.7533 20.2362 30.5995 19.6302 30.3723C19.0358 30.1488 18.6559 30.0091 18.5039 29.9584C17.0501 29.4385 15.7588 28.8252 14.628 28.1204L14.6261 28.1192C12.7275 26.9475 10.7538 25.3415 8.70575 23.2935C6.65779 21.2454 5.05174 19.2714 3.8805 17.3729L3.87929 17.371C3.17431 16.2398 2.56091 14.9488 2.04136 13.4948C1.99072 13.3438 1.85078 12.964 1.62802 12.3693L1.62795 12.3691C1.40049 11.7626 1.24669 11.3462 1.16522 11.1163C1.08789 10.8981 0.981599 10.5511 0.84598 10.0687L0.845929 10.0685C0.713971 9.59976 0.624887 9.18723 0.575744 8.82917L31.4621 24.9691ZM26.0384 21.8235L26.0175 21.8079C25.967 21.7699 25.7887 21.6451 25.4659 21.4216C25.1577 21.2092 24.9129 21.0622 24.7256 20.9717C24.5632 20.8937 24.421 20.8625 24.2949 20.8625C24.2602 20.8625 24.1765 20.8761 24.0315 20.9588C23.8888 21.0402 23.713 21.1736 23.5034 21.3726L26.0384 21.8235ZM26.0384 21.8235L26.0608 21.8369M26.0384 21.8235L26.0608 21.8369M26.0608 21.8369C26.4436 22.0665 26.8528 22.3037 27.289 22.5482L26.0608 21.8369ZM22.3103 22.7183L22.3102 22.7184C21.9184 23.2437 21.5022 23.7303 21.0621 24.1787L21.0619 24.1789C20.8336 24.4113 20.609 24.6031 20.3888 24.7395C20.1725 24.8734 19.9246 24.9763 19.6597 24.9763C19.4388 24.9763 19.2051 24.9167 18.9754 24.8322L18.9743 24.8318C18.763 24.7535 18.5899 24.6819 18.4617 24.619L18.4563 24.6164L18.4563 24.6163C18.3293 24.5522 18.1317 24.4362 17.8739 24.2766M22.3103 22.7183L18.1369 23.8513M22.3103 22.7183C22.6718 22.2332 23.0696 21.7852 23.5034 21.3726L22.3103 22.7183ZM17.8739 24.2766C17.8738 24.2765 17.8738 24.2765 17.8737 24.2764L18.1369 23.8513M17.8739 24.2766C17.8741 24.2767 17.8744 24.2769 17.8746 24.277L18.1369 23.8513M17.8739 24.2766C17.7454 24.1974 17.6465 24.1368 17.5764 24.0943C17.5411 24.073 17.5143 24.0569 17.4953 24.0457C17.4827 24.0383 17.4766 24.0349 17.4749 24.0339L17.4712 24.032L17.4622 24.0271C15.3511 22.8556 13.5324 21.5103 12.0106 19.9892L12.0104 19.989C10.4891 18.467 9.14367 16.6484 7.97249 14.537L7.96718 14.5274L7.96519 14.5234M18.1369 23.8513C17.8787 23.6922 17.7351 23.6051 17.7048 23.5899C15.6292 22.4381 13.849 21.1199 12.3641 19.6355C10.8796 18.1503 9.56118 16.3703 8.40973 14.2944C8.39461 14.2641 8.30728 14.1201 8.14832 13.8627M7.96519 14.5234C7.96532 14.5236 7.96541 14.5238 7.96548 14.5239C7.96604 14.5249 7.96464 14.5223 7.96228 14.5176L7.96519 14.5234ZM7.96519 14.5234C7.96409 14.5215 7.96066 14.5154 7.95373 14.5036C7.94258 14.4846 7.9266 14.4579 7.9053 14.4228C7.86285 14.3527 7.80219 14.2538 7.72296 14.1255M7.72296 14.1255L8.14832 13.8627M7.72296 14.1255C7.72294 14.1255 7.72291 14.1254 7.72289 14.1254L8.14832 13.8627M7.72296 14.1255C7.56481 13.8695 7.44741 13.6702 7.38284 13.5408L7.63695 12.8512M8.14832 13.8627C7.98911 13.605 7.883 13.4234 7.82999 13.3171C7.77697 13.2111 7.71257 13.0557 7.63695 12.8512M7.63695 12.8512C7.56133 12.6467 7.52336 12.4764 7.52336 12.3399C7.52336 12.0673 7.73932 11.7187 8.17116 11.2944C8.60293 10.8703 9.07274 10.4687 9.58013 10.0902L7.63695 12.8512ZM11.0275 7.27384L11.0274 7.27359C10.9372 7.08644 10.7904 6.84176 10.5777 6.53366C10.3552 6.21164 10.2293 6.03219 10.1908 5.98072L10.1755 5.96032L10.1624 5.93848C9.93264 5.55534 9.69569 5.14596 9.45106 4.7107C9.20681 4.2762 8.94067 3.79268 8.65192 3.26107L8.65188 3.261C8.36472 2.73213 8.14027 2.32779 7.97699 2.0461L7.96924 2.03272L7.96233 2.01889C7.70187 1.49778 7.48148 1.11322 7.30086 0.854155C7.21045 0.724485 7.13759 0.637307 7.08256 0.582913C7.05505 0.555713 7.03767 0.542395 7.03034 0.53711L7.02781 0.53627L7.00853 0.52801C7.00871 0.528089 7.00345 0.525896 6.99109 0.522713C6.97833 0.519426 6.96008 0.515617 6.93541 0.512077C6.88534 0.504894 6.81723 0.5 6.72813 0.5C6.37291 0.5 5.88058 0.566661 5.23799 0.714598L5.23779 0.714646C4.59241 0.862937 4.10812 1.01345 3.77057 1.16219L3.76251 1.16574L3.76248 1.16567C3.48047 1.28405 3.14977 1.534 2.77594 1.96421C2.40508 2.391 2.01176 2.97198 1.59824 3.71737C0.859536 5.07929 0.500854 6.40667 0.500854 7.70392C0.500854 8.091 0.525951 8.46594 0.575734 8.8291L11.0275 7.27384ZM11.0275 7.27384C11.1057 7.43584 11.1368 7.57806 11.1368 7.70432C11.1368 7.73905 11.1232 7.82289 11.0405 7.96791M11.0275 7.27384L11.0405 7.96791M11.0405 7.96791C10.9592 8.11061 10.8258 8.28639 10.6268 8.49599L11.0405 7.96791Z" fill="#78C081" stroke="#577A5B"/>
</g>
<defs>
<clipPath id="clip0_86_1400">
<rect width="32" height="32" fill="white"/>
</clipPath>
</defs>
</svg>
