<svg width="34" height="34" viewBox="0 0 34 34" fill="none" xmlns="http://www.w3.org/2000/svg">
<path fill-rule="evenodd" clip-rule="evenodd" d="M17 0C7.61113 0 0 7.61113 0 17C0 26.3886 7.61113 34 17 34C26.3889 34 34 26.3886 34 17C34 7.61113 26.3889 0 17 0ZM21.9119 18.3651C22.0065 18.3042 22.0974 18.2342 22.1802 18.1514C22.4973 17.8342 22.6499 17.4171 22.6424 17.0017C22.6496 16.5861 22.4967 16.1687 22.1798 15.8518C22.0973 15.7689 22.0064 15.6989 21.9118 15.6381L15.5599 9.28653C14.9399 8.66728 13.9349 8.66694 13.315 9.28687C12.695 9.90658 12.695 10.9115 13.315 11.5318L18.785 17.0018L13.2873 22.5003C12.6674 23.12 12.6674 24.1253 13.2873 24.7452C13.5974 25.0553 14.0034 25.2102 14.4095 25.2102C14.8157 25.2102 15.2219 25.0553 15.5318 24.7452L21.9119 18.3651Z" fill="#5CCD6A"/>
<path d="M22.1802 18.1514C22.0974 18.2342 22.0065 18.3042 21.9119 18.3651L15.5318 24.7452C15.2219 25.0553 14.8157 25.2102 14.4095 25.2102C14.0034 25.2102 13.5974 25.0553 13.2873 24.7452C12.6674 24.1253 12.6674 23.12 13.2873 22.5003L18.785 17.0018L13.315 11.5318C12.695 10.9115 12.695 9.90658 13.315 9.28687C13.9349 8.66694 14.9399 8.66728 15.5599 9.28653L21.9118 15.6381C22.0064 15.6989 22.0973 15.7689 22.1798 15.8518C22.4967 16.1687 22.6496 16.5861 22.6424 17.0017C22.6499 17.4171 22.4973 17.8342 22.1802 18.1514Z" fill="white"/>
</svg>
