<svg width="34" height="34" viewBox="0 0 34 34" fill="none" xmlns="http://www.w3.org/2000/svg">
<path fill-rule="evenodd" clip-rule="evenodd" d="M17 0C26.3889 0 34 7.61113 34 17C34 26.3886 26.3889 34 17 34C7.61113 34 0 26.3886 0 17C0 7.61113 7.61113 0 17 0ZM12.0881 18.3651C11.9935 18.3042 11.9026 18.2342 11.8198 18.1514C11.5027 17.8342 11.3501 17.4171 11.3576 17.0017C11.3504 16.5861 11.5033 16.1687 11.8202 15.8518C11.9027 15.7689 11.9936 15.6989 12.0882 15.6381L18.4401 9.28653C19.0601 8.66728 20.0651 8.66694 20.685 9.28687C21.305 9.90658 21.305 10.9115 20.685 11.5318L15.215 17.0018L20.7127 22.5003C21.3326 23.12 21.3326 24.1253 20.7127 24.7452C20.4026 25.0553 19.9966 25.2102 19.5905 25.2102C19.1843 25.2102 18.7781 25.0553 18.4682 24.7452L12.0881 18.3651Z" fill="#54E165"/>
<path d="M11.8198 18.1514C11.9026 18.2342 11.9935 18.3042 12.0881 18.3651L18.4682 24.7452C18.7781 25.0553 19.1843 25.2102 19.5905 25.2102C19.9966 25.2102 20.4026 25.0553 20.7127 24.7452C21.3326 24.1253 21.3326 23.12 20.7127 22.5003L15.215 17.0018L20.685 11.5318C21.305 10.9115 21.305 9.90658 20.685 9.28687C20.0651 8.66694 19.0601 8.66728 18.4401 9.28653L12.0882 15.6381C11.9936 15.6989 11.9027 15.7689 11.8202 15.8518C11.5033 16.1687 11.3504 16.5861 11.3576 17.0017C11.3501 17.4171 11.5027 17.8342 11.8198 18.1514Z" fill="white"/>
</svg>
