<svg width="529" height="80" viewBox="0 0 529 80" fill="none" xmlns="http://www.w3.org/2000/svg">
<path d="M0.999986 13.3147C13.0398 24.6534 80.7098 44.2848 88.7429 51.4841C101.13 62.585 114.137 70.5786 131.118 75.9677C161.531 85.62 200.883 70.4398 219.436 55.5331C232.089 44.1004 234.963 33.839 234.963 23.5768C234.963 10.2361 219.436 1 207.863 1C196.29 0.999837 185.57 1 175.425 13.3147C158.672 33.6516 178.659 59.4663 202.957 64.0106C234.562 69.9214 253.785 76.9384 283.414 67.0197C310.065 58.0982 328.901 50.4586 353.494 43.1149C371.124 37.8506 397.036 44.4477 409.393 47.9744C451.963 60.1229 483.281 44.5588 528 76.5625" stroke="#5CCD6A" stroke-linecap="round" stroke-dasharray="8 8"/>
</svg>
