<svg width="302" height="273" viewBox="0 0 302 273" fill="none" xmlns="http://www.w3.org/2000/svg">
<g opacity="0.5" clip-path="url(#clip0_86_2007)">
<path d="M16.1333 68.2202C17.0139 67.5294 17.9843 66.9611 19.0178 66.5309L19.2797 63.4563L24.3627 62.7555L25.4568 65.6525C26.5672 65.7906 27.6546 66.0739 28.6909 66.4953L31.063 64.5034L35.1498 67.5965L33.8731 70.4124C34.5594 71.2943 35.1259 72.263 35.5578 73.2933L38.6369 73.5601L39.3373 78.6364L36.4357 79.7238C36.3011 80.8355 36.0172 81.924 35.5916 82.96L37.5849 85.3225L34.5072 89.4272L31.6603 88.1191C30.7797 88.8099 29.8094 89.3782 28.7758 89.8084L28.5079 92.8836L23.4309 93.5839L22.3368 90.6868C21.226 90.5508 20.1384 90.2674 19.1027 89.844L16.7681 91.8445L12.6813 88.7513L13.958 85.9354C13.2699 85.0539 12.7014 84.0854 12.2673 83.0551L9.15309 82.804L8.46358 77.7144L11.3652 76.627C11.4997 75.5153 11.7837 74.4268 12.2093 73.3908L10.21 71.0289L13.3076 66.9405L16.1333 68.2202ZM19.6625 74.6674C19.0061 75.5334 18.6216 76.5743 18.5575 77.6584C18.4934 78.7425 18.7526 79.8211 19.3024 80.7579C19.8521 81.6947 20.6677 82.4476 21.646 82.9214C22.6243 83.3952 23.7214 83.5685 24.7985 83.4196C25.8756 83.2707 26.8844 82.8061 27.6973 82.0846C28.5102 81.3632 29.0908 80.4172 29.3655 79.3664C29.6402 78.3156 29.5967 77.2071 29.2406 76.1811C28.8846 75.1552 28.2318 74.2577 27.365 73.6024C26.2018 72.725 24.7376 72.3444 23.2936 72.5441C21.8496 72.7438 20.5437 73.5074 19.6625 74.6674Z" fill="#B4FFCD"/>
<path d="M260.72 152.751C261.602 152.065 262.573 151.499 263.605 151.068L263.867 147.993L268.95 147.292L270.044 150.189C271.155 150.325 272.242 150.608 273.278 151.032L275.649 149.034L279.736 152.127L278.454 154.95C279.145 155.829 279.714 156.798 280.145 157.83L283.224 158.097L283.924 163.167L281.023 164.261C280.885 165.37 280.601 166.456 280.178 167.491L282.172 169.859L279.074 173.942L276.274 172.684C275.391 173.371 274.422 173.939 273.39 174.373L273.122 177.448L268.039 178.149L266.951 175.251C265.84 175.118 264.752 174.835 263.717 174.409L261.345 176.407L257.252 173.314L258.535 170.492C257.843 169.612 257.274 168.643 256.844 167.611L253.765 167.344L253.059 162.275L255.96 161.181C256.097 160.072 256.381 158.986 256.805 157.951L254.811 155.583L257.909 151.5L260.728 152.775L260.72 152.751ZM264.249 159.198C263.591 160.065 263.204 161.106 263.139 162.192C263.074 163.277 263.332 164.357 263.882 165.296C264.431 166.234 265.247 166.989 266.226 167.464C267.205 167.94 268.304 168.114 269.382 167.966C270.461 167.818 271.471 167.353 272.286 166.631C273.1 165.91 273.682 164.963 273.958 163.911C274.233 162.859 274.191 161.749 273.835 160.722C273.479 159.694 272.826 158.795 271.958 158.139C270.795 157.259 269.33 156.876 267.884 157.075C266.438 157.273 265.131 158.037 264.249 159.198Z" fill="#B4FFCD"/>
<path d="M20.1873 40.3006C20.5999 39.9729 21.056 39.7039 21.5424 39.5012L21.6618 38.0626L24.0232 37.7423L24.5355 39.0876C25.0498 39.1494 25.5535 39.2798 26.0332 39.4751L27.1618 38.5458L29.0632 39.9846L28.4446 41.3143C28.7657 41.7246 29.0303 42.1761 29.2314 42.6567L30.6657 42.7761L30.9919 45.1338L29.6447 45.6458C29.5797 46.1617 29.4473 46.6668 29.2509 47.1483L30.1811 48.2752L28.737 50.1444L27.4564 49.5462C27.0337 49.8734 26.5669 50.1394 26.0698 50.3365L25.9438 51.7697L23.6018 52.1003L23.0955 50.7544C22.5788 50.6906 22.0729 50.5585 21.5912 50.3614L20.4626 51.2907L18.5678 49.8574L19.175 48.5349C18.8553 48.1258 18.591 47.6765 18.3888 47.1986L16.9538 47.0731L16.6276 44.7154L17.9814 44.2088C18.0433 43.6932 18.1737 43.1881 18.3693 42.7069L17.4481 41.6096L18.9073 39.7085L20.1873 40.3006ZM21.829 43.3017C21.5282 43.7056 21.3536 44.1893 21.3271 44.6919C21.3006 45.1946 21.4234 45.6938 21.68 46.1269C21.9367 46.5601 22.3158 46.9078 22.7697 47.1264C23.2236 47.345 23.7321 47.4248 24.2313 47.3558C24.7306 47.2867 25.1983 47.0719 25.5758 46.7383C25.9532 46.4047 26.2236 45.9672 26.353 45.4807C26.4824 44.9942 26.465 44.4804 26.303 44.0038C26.1409 43.5272 25.8415 43.1091 25.4423 42.8019C25.1738 42.5968 24.8672 42.447 24.5403 42.361C24.2134 42.275 23.8726 42.2546 23.5378 42.3009C23.2029 42.3473 22.8805 42.4595 22.5892 42.6311C22.298 42.8026 22.0437 43.0301 21.8411 43.3005L21.829 43.3017Z" fill="#B4FFCD"/>
<path d="M56.8629 251.417L50.8136 254.617C50.8136 254.617 53.5039 259.69 48.2721 262.576C47.2782 263.154 46.1289 263.408 44.9839 263.303C43.8389 263.199 42.7551 262.74 41.883 261.992C41.1424 261.371 40.5597 260.583 40.1826 259.693C39.8054 258.803 39.6446 257.837 39.7131 256.873C39.8451 254.641 41.277 251.913 45.7367 250.47L38.5187 236.829L32.5395 239.997L36.758 247.973C36.758 247.973 29.5156 254.583 34.4206 263.814C39.1089 272.646 48.1256 270.493 51.5246 268.697C54.1187 267.342 62.6297 262.007 56.8629 251.417Z" fill="#EBEBEB"/>
<path d="M30.9759 237.219L37.0468 234.004L34.0425 228.344L27.9716 231.559L30.9759 237.219Z" fill="#EBEBEB"/>
<path d="M261.468 71.231L267.542 73.0656C267.542 73.0656 269.111 67.9708 274.44 69.5015C275.473 69.7793 276.393 70.3712 277.073 71.195C277.754 72.0188 278.16 73.0337 278.237 74.099C278.311 74.9951 278.172 75.8961 277.83 76.7282C277.488 77.5602 276.954 78.2996 276.271 78.8857C274.717 80.2598 271.984 81.1414 268.11 79.1428L263.897 92.8293L269.911 94.6698L272.373 86.651C272.373 86.651 281.474 87.0626 284.312 77.7809C287.043 68.9061 279.708 64.4045 276.293 63.3358C273.727 62.579 264.642 60.4831 261.468 71.231Z" fill="#EBEBEB"/>
<path d="M269.131 97.5504L263.033 95.6813L261.283 101.371L267.381 103.24L269.131 97.5504Z" fill="#EBEBEB"/>
<path d="M242.958 11.5952L237.842 32.3406C237.64 33.1601 237.745 34.0253 238.137 34.7727C238.53 35.52 239.183 36.0977 239.974 36.3965C240.803 36.7135 241.724 36.6992 242.543 36.3565C243.363 36.0138 244.019 35.3692 244.376 34.5563L253.072 14.8265C253.227 14.4745 253.305 14.0935 253.301 13.7091C253.298 13.3246 253.212 12.9453 253.05 12.5964C252.889 12.2476 252.654 11.937 252.363 11.6854C252.072 11.4338 251.731 11.247 251.362 11.1372L246.372 9.64593C246.02 9.54084 245.65 9.50831 245.285 9.55029C244.919 9.59227 244.566 9.70791 244.247 9.89018C243.928 10.0724 243.649 10.3176 243.428 10.6107C243.206 10.9037 243.046 11.2387 242.958 11.5952Z" fill="#E0E0E0"/>
<path d="M241.769 49.534C241.166 50.369 240.328 51.0066 239.362 51.3662C238.396 51.7258 237.345 51.7912 236.341 51.5541C235.338 51.3171 234.428 50.7882 233.726 50.0344C233.024 49.2806 232.561 48.3357 232.397 47.3193C232.233 46.3028 232.374 45.2605 232.803 44.324C233.232 43.3876 233.929 42.5991 234.806 42.0584C235.684 41.5176 236.702 41.2488 237.732 41.2859C238.763 41.3231 239.759 41.6646 240.594 42.2672C241.15 42.6667 241.621 43.1717 241.981 43.7534C242.341 44.335 242.582 44.9819 242.691 45.6568C242.8 46.3318 242.775 47.0217 242.617 47.687C242.459 48.3523 242.171 48.9799 241.769 49.534Z" fill="#E0E0E0"/>
<path d="M253.641 107.678C257.337 99.6927 258.066 90.6542 255.695 82.1827C255.607 81.844 255.5 81.5131 255.382 81.1835C254.483 78.2793 253.741 75.9203 252.053 73.5519C251.876 73.2463 251.702 72.977 251.512 72.6545C251.321 72.3321 251.137 72.0821 250.942 71.7783C247.357 66.598 242.51 62.4153 236.857 59.6249C231.205 56.8344 224.933 55.5282 218.634 55.8293C214.504 35.9184 198.594 18.9172 179.007 13.4335C159.419 7.94987 136.969 14.3172 123.123 29.2244C105.863 18.8509 83.3696 17.7231 65.198 26.3476C47.0264 34.9721 33.6707 53.0984 30.8291 73.0139C29.9638 79.1057 29.9858 85.4628 27.4796 91.0776C25.5818 95.321 22.3825 98.8159 19.7336 102.628C15.4834 108.735 12.6215 115.696 11.3482 123.023C10.0749 130.35 10.4211 137.866 12.3625 145.045C14.3039 152.223 17.7936 158.891 22.5871 164.58C27.3806 170.269 33.3619 174.842 40.112 177.979C31.3471 192.911 37.0887 214.479 52.1211 223.086C60.7507 228.026 71.7184 229.16 78.6317 236.301C81.5718 239.344 83.4831 243.214 86.1027 246.533C95.0117 257.841 112.626 261.045 124.967 253.641L192.015 229.356C215.589 228.787 238.026 219.113 254.612 202.368C260.658 196.187 265.921 188.957 267.965 180.54C270.01 172.124 268.371 162.526 262.23 156.46C273.882 141.826 269.557 117.441 253.641 107.678Z" fill="#E9E9E9"/>
<path d="M58.924 202.372C58.6991 201.229 58.6282 200.06 58.7131 198.897L55.9727 197.186L57.7064 192.131L60.9152 192.48C61.5672 191.509 62.3449 190.629 63.228 189.863L62.4901 186.725L67.3009 184.377L69.3211 186.891C70.466 186.667 71.6353 186.596 72.7987 186.679L74.5105 183.935L79.5591 185.666L79.1754 188.878C80.1434 189.529 81.0199 190.306 81.7816 191.189L84.9232 190.45L87.264 195.263L84.7452 197.285C84.9801 198.418 85.0657 199.577 84.9996 200.732L87.7401 202.443L86.0007 207.496L82.7919 207.147C82.1437 208.118 81.3664 208.997 80.4813 209.758L81.217 212.902L76.4062 215.249L74.3826 212.727C73.2394 212.955 72.071 213.029 70.9085 212.947L69.1966 215.692L64.1502 213.955L64.4956 210.741C63.5271 210.091 62.6506 209.314 61.8894 208.43L58.7535 209.172L56.4126 204.358L58.928 202.328L58.924 202.372ZM66.5854 202.124C67.0824 203.142 67.8702 203.991 68.8491 204.561C69.828 205.131 70.9541 205.397 72.085 205.327C73.2158 205.256 74.3006 204.851 75.2022 204.164C76.1038 203.476 76.7817 202.537 77.1502 201.464C77.5186 200.391 77.5611 199.233 77.2722 198.137C76.9833 197.041 76.376 196.055 75.5272 195.305C74.6783 194.554 73.626 194.073 72.5033 193.921C71.3806 193.77 70.238 193.955 69.2199 194.453C68.5433 194.784 67.9384 195.244 67.4398 195.809C66.9411 196.373 66.5585 197.031 66.3138 197.743C66.0691 198.456 65.9671 199.209 66.0137 199.961C66.0603 200.713 66.2546 201.448 66.5854 202.124Z" fill="white"/>
<path d="M181.019 61.3946C181.517 61.0081 182.064 60.6892 182.646 60.4462L182.791 58.7063L185.657 58.3113L186.272 59.9452C186.896 60.0192 187.508 60.1779 188.089 60.4168L189.424 59.2962L191.728 61.0364L191.007 62.6203C191.395 63.1173 191.717 63.6635 191.962 64.2446L193.699 64.395L194.093 67.2519L192.463 67.8653C192.383 68.4907 192.222 69.1031 191.985 69.6871L193.106 71.0206L191.363 73.3219L189.778 72.6016C189.279 72.9881 188.732 73.307 188.15 73.5501L188 75.2905L185.139 75.6849L184.525 74.051C183.899 73.9762 183.285 73.8178 182.701 73.58L181.366 74.7006L179.062 72.9604L179.783 71.3705C179.384 70.8784 179.053 70.3352 178.798 69.7552L177.056 69.6054L176.667 66.7479L178.303 66.1279C178.378 65.5034 178.539 64.8923 178.782 64.3121L177.667 62.9902L179.41 60.6888L181.019 61.3946ZM183.004 65.0261C182.635 65.5143 182.419 66.101 182.383 66.7118C182.347 67.3227 182.494 67.9304 182.804 68.458C183.114 68.9856 183.574 69.4095 184.125 69.6761C184.677 69.9428 185.295 70.0401 185.902 69.9559C186.509 69.8716 187.077 69.6096 187.535 69.2029C187.993 68.7962 188.32 68.2631 188.474 67.6709C188.629 67.0788 188.604 66.4542 188.403 65.8762C188.202 65.2982 187.835 64.7926 187.346 64.4234C187.021 64.1754 186.65 63.9942 186.254 63.8903C185.858 63.7864 185.445 63.7618 185.04 63.818C184.635 63.8742 184.244 64.0101 183.892 64.2177C183.539 64.4254 183.231 64.7007 182.986 65.0279L183.004 65.0261Z" fill="#78C081"/>
<path d="M98.7221 230.173C98.5545 229.37 98.4961 228.548 98.5486 227.729L96.6321 226.545L97.8439 223.007L100.095 223.226C100.551 222.55 101.094 221.936 101.711 221.402L101.195 219.203L104.549 217.563L105.958 219.319C106.758 219.161 107.576 219.111 108.389 219.171L109.576 217.246L113.106 218.462L112.885 220.715C113.562 221.168 114.176 221.709 114.709 222.325L116.9 221.805L118.542 225.163L116.784 226.58C116.934 227.388 116.976 228.213 116.909 229.032L118.823 230.222L117.614 233.753L115.363 233.534C114.909 234.211 114.368 234.825 113.753 235.361L114.272 237.535L110.912 239.173L109.503 237.417C108.715 237.57 107.91 237.616 107.109 237.553L105.922 239.478L102.392 238.262L102.613 236.009C101.935 235.557 101.322 235.015 100.789 234.399L98.6111 234.918L96.9693 231.56L98.733 230.145L98.7221 230.173ZM104.071 230.001C104.419 230.713 104.97 231.305 105.654 231.703C106.339 232.102 107.126 232.287 107.917 232.238C108.707 232.188 109.465 231.905 110.095 231.424C110.725 230.943 111.199 230.286 111.456 229.536C111.714 228.786 111.743 227.976 111.541 227.21C111.339 226.444 110.914 225.755 110.321 225.23C109.727 224.706 108.992 224.369 108.207 224.264C107.422 224.158 106.623 224.287 105.911 224.636C104.958 225.104 104.228 225.933 103.883 226.938C103.538 227.944 103.606 229.046 104.071 230.001Z" fill="#78C081"/>
<path d="M199.72 194.039C200.364 193.538 201.072 193.125 201.826 192.812L202.017 190.561L205.721 190.052L206.542 192.159C207.351 192.258 208.144 192.464 208.898 192.773L210.628 191.32L213.605 193.572L212.674 195.628C213.159 196.274 213.558 196.981 213.86 197.73L216.108 197.927L216.622 201.619L214.512 202.439C214.412 203.247 214.205 204.039 213.897 204.793L215.351 206.52L213.095 209.494L211.037 208.565C210.396 209.047 209.695 209.443 208.95 209.742L208.759 211.992L205.055 212.501L204.235 210.394C203.425 210.296 202.633 210.09 201.878 209.781L200.155 211.233L197.171 208.981L198.108 206.924C197.605 206.284 197.189 205.579 196.874 204.828L194.626 204.637L194.112 200.938L196.228 200.118C196.325 199.309 196.532 198.518 196.843 197.764L195.389 196.037L197.645 193.063L199.697 193.993L199.72 194.039ZM202.293 198.734C201.814 199.365 201.534 200.124 201.486 200.915C201.439 201.705 201.628 202.492 202.028 203.175C202.428 203.859 203.023 204.408 203.736 204.754C204.449 205.1 205.249 205.227 206.034 205.119C206.82 205.011 207.556 204.673 208.149 204.147C208.742 203.622 209.166 202.932 209.367 202.166C209.568 201.4 209.537 200.592 209.278 199.844C209.019 199.095 208.544 198.44 207.913 197.962C207.493 197.644 207.015 197.412 206.505 197.278C205.996 197.145 205.465 197.113 204.943 197.185C204.421 197.257 203.919 197.431 203.464 197.696C203.009 197.962 202.611 198.315 202.293 198.734Z" fill="white"/>
<path d="M64.1005 130.681C63.5619 129.639 62.796 128.73 61.8592 128.022C60.9224 127.315 59.8386 126.826 58.6875 126.592C56.7104 126.234 54.465 126.677 52.8343 125.504C52.0609 124.971 51.5464 124.095 50.8468 123.446C49.5187 122.345 47.8404 121.755 46.1147 121.782C40.3927 121.583 35.5958 125.957 33.9897 130.677C31.8323 132.434 29.6357 134.226 28.1085 136.548C26.5813 138.871 25.7905 141.846 26.6986 144.469C27.3726 146.395 28.8762 147.947 29.5617 149.866C30.1832 151.634 30.0743 153.547 30.4032 155.38C30.7321 157.213 31.7198 159.163 33.516 159.667C35.7263 160.283 38.2125 158.456 40.2992 159.425C41.7139 160.083 42.3155 161.773 43.519 162.763C45.6016 164.489 48.7448 163.682 51.2082 162.547C54.0569 161.237 56.748 159.609 59.2299 157.694C60.8983 156.495 62.3326 155.001 63.4617 153.286C64.0193 152.426 64.3996 151.464 64.5802 150.455C64.7609 149.447 64.7382 148.413 64.5136 147.413C64.1879 146.226 63.479 145.114 63.2827 143.878C62.9262 141.706 64.1794 139.636 64.7496 137.513C65.3923 135.234 65.1608 132.798 64.1005 130.681Z" fill="white"/>
<path d="M62.239 154.804L57.0975 159.15L57.092 159.157L62.9371 160.594L62.239 154.804Z" fill="#F5F5F5"/>
<path d="M42.8871 142.913C42.9318 143.362 42.8422 143.814 42.6295 144.212C42.4169 144.61 42.0909 144.937 41.6926 145.15C41.2944 145.363 40.8418 145.453 40.3922 145.41C39.9425 145.366 39.516 145.19 39.1665 144.904C38.8171 144.618 38.5603 144.235 38.4288 143.804C38.2973 143.372 38.2969 142.911 38.4277 142.479C38.5584 142.047 38.8145 141.664 39.1635 141.377C39.5125 141.091 39.9387 140.914 40.3883 140.869C40.9911 140.809 41.5931 140.991 42.0617 141.374C42.5303 141.757 42.8272 142.311 42.8871 142.913Z" fill="#495E4C"/>
<path d="M49.9541 142.21C50.0002 142.66 49.9113 143.114 49.699 143.514C49.4866 143.914 49.1602 144.242 48.7611 144.457C48.362 144.671 47.9081 144.763 47.4569 144.72C47.0058 144.677 46.5776 144.501 46.2266 144.214C45.8756 143.928 45.6176 143.544 45.4852 143.111C45.3529 142.678 45.3521 142.216 45.483 141.783C45.6139 141.349 45.8706 140.964 46.2206 140.677C46.5706 140.389 46.9982 140.211 47.4492 140.167C48.0526 140.107 48.6552 140.288 49.1248 140.671C49.5943 141.054 49.8926 141.607 49.9541 142.21Z" fill="#495E4C"/>
<path d="M57.0149 141.507C57.0596 141.956 56.97 142.408 56.7573 142.807C56.5447 143.205 56.2187 143.531 55.8204 143.744C55.4222 143.957 54.9696 144.048 54.52 144.004C54.0703 143.96 53.6438 143.784 53.2943 143.499C52.9449 143.213 52.6881 142.83 52.5566 142.398C52.4251 141.967 52.4247 141.506 52.5555 141.074C52.6863 140.642 52.9423 140.258 53.2913 139.972C53.6403 139.685 54.0665 139.508 54.5161 139.463C55.1189 139.403 55.7209 139.585 56.1895 139.968C56.6581 140.352 56.955 140.905 57.0149 141.507Z" fill="#495E4C"/>
<path d="M233.333 75.1338C232.737 74.3578 231.623 74.2675 230.641 74.2798C227.092 74.3113 223.56 74.7876 220.129 75.6975C218.939 76.011 217.151 76.0792 216.906 74.8475C216.887 74.4782 216.985 74.1123 217.187 73.802C217.388 73.4918 217.683 73.2531 218.029 73.1201C219.192 72.541 220.526 72.6278 221.798 72.4707C223.071 72.3136 224.473 71.7473 224.871 70.5309C225.475 68.6844 223.266 67.0324 221.323 66.9634C219.381 66.8945 217.419 67.6019 215.518 67.2118L211.494 67.6975C208.518 68.0442 205.599 68.769 202.807 69.8543C202.025 70.1577 201.119 70.6808 201.141 71.5139C201.163 72.347 202.057 72.8068 202.515 73.4867C203.439 74.8581 202.351 76.8017 200.866 77.5226C199.381 78.2434 197.647 78.1903 196.021 78.474C194.395 78.7577 192.638 79.6337 192.249 81.2394C191.94 82.4896 192.593 83.8452 192.342 85.1201C192.021 86.7434 190.363 87.7558 188.771 88.1947C187.178 88.6336 185.458 88.7682 184.027 89.6056C182.98 90.2149 182.171 91.1605 181.731 92.2881C181.292 93.4157 181.247 94.6588 181.606 95.8144C181.965 96.9701 182.705 97.9701 183.706 98.6514C184.707 99.3327 185.91 99.655 187.118 99.5657C188.279 99.4502 189.39 99.0165 190.538 98.8413C191.382 98.6927 192.251 98.8201 193.016 99.2044C193.203 100.434 193.76 101.577 194.614 102.482C195.467 103.387 196.577 104.012 197.794 104.271C199.439 104.541 201.129 104.098 202.783 104.281C204.437 104.464 206.249 105.674 206.102 107.329C205.994 108.516 204.924 109.482 204.951 110.669C204.98 112.123 206.65 113.018 208.108 113.007C209.566 112.996 210.96 112.406 212.413 112.347C213.867 112.288 215.572 113.045 215.752 114.484C215.948 116.092 214.163 117.416 214.293 119.025C214.396 120.375 215.783 121.243 217.089 121.6C218.394 121.958 219.834 122.071 220.916 122.884C221.998 123.697 222.355 125.631 221.176 126.297C223.165 126.032 224.044 123.024 222.553 121.728C221.606 120.925 220.144 120.827 219.381 119.848C218.528 118.762 219.009 117.093 219.988 116.13C220.966 115.166 222.281 114.639 223.495 113.951C224.709 113.264 225.859 112.247 226.053 110.88C226.338 108.834 224.233 107.129 222.175 106.882C220.118 106.636 218.082 107.35 216.039 107.675C213.996 108.001 211.615 107.817 210.285 106.23L216.689 102.367C217.002 102.231 217.284 102.033 217.518 101.785C217.752 101.538 217.935 101.246 218.054 100.927C218.314 99.7362 216.902 98.9255 215.746 98.5344L211.172 96.9836C211.129 96.7179 211.043 96.4609 210.919 96.2222C213.471 94.8708 216.517 94.9885 219.403 95.0916C222.288 95.1947 225.359 95.1941 227.806 93.6459C230.253 92.0977 231.562 88.4433 229.666 86.2601C228.652 85.0867 226.842 84.3888 226.646 82.8414C226.518 81.5614 227.631 80.4752 228.799 79.9443C229.968 79.4135 231.301 79.1955 232.364 78.4678C233.428 77.7401 234.116 76.129 233.333 75.1338Z" fill="white"/>
<path d="M202.353 87.8068C203.555 87.6872 204.432 86.6172 204.313 85.4168C204.193 84.2165 203.122 83.3403 201.92 83.4599C200.718 83.5795 199.841 84.6495 199.96 85.8499C200.08 87.0502 201.151 87.9264 202.353 87.8068Z" fill="#495E4C"/>
<path d="M211.065 84.7449C211.108 85.1748 211.022 85.6077 210.819 85.9889C210.615 86.3701 210.303 86.6825 209.922 86.8866C209.54 87.0907 209.107 87.1773 208.676 87.1354C208.246 87.0935 207.838 86.9251 207.503 86.6514C207.168 86.3777 206.923 86.0111 206.797 85.5978C206.671 85.1846 206.67 84.7433 206.796 84.3297C206.921 83.9162 207.166 83.549 207.5 83.2746C207.834 83.0002 208.242 82.8308 208.673 82.788C209.25 82.7306 209.826 82.9045 210.275 83.2715C210.724 83.6385 211.008 84.1685 211.065 84.7449Z" fill="#495E4C"/>
<path d="M215.864 86.4625C217.066 86.343 217.943 85.2729 217.824 84.0726C217.705 82.8722 216.633 81.9961 215.431 82.1156C214.229 82.2352 213.352 83.3052 213.471 84.5056C213.591 85.706 214.662 86.5821 215.864 86.4625Z" fill="#495E4C"/>
<path d="M58.3315 49.3768C55.896 49.6082 53.5824 50.5505 51.6792 52.0862C49.776 53.6219 48.3675 55.683 47.6292 58.0126C46.8909 60.3422 46.8556 62.8371 47.5276 65.1862C48.1997 67.5354 49.5493 69.6348 51.4083 71.2226C45.5859 73.0823 42.4941 80.4199 44.6424 86.1204C46.7908 91.8209 53.4821 95.1975 59.486 94.1795C65.4898 93.1615 70.4915 88.2069 72.1582 82.3159C73.2195 84.5893 74.945 86.4885 77.1078 87.7636C79.2706 89.0388 81.7694 89.6302 84.2755 89.46C86.7816 89.2899 89.1776 88.3661 91.1484 86.8103C93.1192 85.2545 94.5725 83.1395 95.3172 80.7435C98.4908 85.4579 106.202 85.526 110.216 81.5049C114.23 77.4839 114.563 70.7073 111.951 65.681C109.338 60.6547 104.289 57.2183 98.9325 55.3489C101.91 52.0773 101.784 46.639 99.0792 43.1401C96.3746 39.6411 91.5868 38.0932 87.1905 38.7623C82.7942 39.4313 78.893 42.0693 76.0951 45.4877C75.2107 43.6639 73.7419 42.1872 71.9217 41.2918C70.1015 40.3964 68.0339 40.1335 66.0467 40.5447C64.0596 40.9559 62.2666 42.0178 60.9519 43.562C59.6372 45.1061 58.8761 47.0442 58.7893 49.0691" fill="white"/>
<path d="M66.1205 59.4913L72.7972 68.9178C73.0602 69.2907 73.4512 69.5542 73.8959 69.6583C74.3407 69.7624 74.8082 69.6999 75.2099 69.4826C75.6328 69.2559 75.9523 68.8756 76.1024 68.4204C76.2526 67.9652 76.2219 67.4698 76.0167 67.0366L71.0272 56.5277C70.9375 56.3399 70.809 56.1733 70.6502 56.0387C70.4914 55.9041 70.3058 55.8047 70.1057 55.7468C69.9057 55.689 69.6956 55.6741 69.4893 55.7031C69.283 55.7322 69.0852 55.8045 68.9089 55.9153L66.5377 57.4255C66.3716 57.5312 66.2285 57.6694 66.117 57.8316C66.0056 57.9939 65.928 58.177 65.8891 58.3698C65.8501 58.5627 65.8505 58.7615 65.8903 58.9542C65.9301 59.1468 66.0084 59.3295 66.1205 59.4913Z" fill="#495E4C"/>
<path d="M81.2167 73.4029C81.343 73.945 81.3057 74.5123 81.1093 75.0332C80.9129 75.5541 80.5664 76.0052 80.1134 76.3296C79.6605 76.6539 79.1215 76.8369 78.5645 76.8555C78.0075 76.874 77.4576 76.7273 76.9842 76.4338C76.5108 76.1403 76.1351 75.7132 75.9047 75.2065C75.6743 74.6998 75.5994 74.1362 75.6896 73.5869C75.7798 73.0377 76.031 72.5274 76.4114 72.1206C76.7918 71.7138 77.2844 71.4287 77.8269 71.3013C78.1877 71.2166 78.5617 71.2038 78.9274 71.2636C79.2932 71.3234 79.6435 71.4547 79.9584 71.6499C80.2733 71.8451 80.5465 72.1004 80.7624 72.4012C80.9783 72.702 81.1327 73.0424 81.2167 73.4029Z" fill="#495E4C"/>
<path d="M83.9005 51.7167L85.0747 61.6175C85.1205 62.0081 85.308 62.3683 85.6018 62.6301C85.8956 62.8919 86.2753 63.037 86.6691 63.038C87.0829 63.0409 87.482 62.8845 87.7835 62.6014C88.085 62.3182 88.2658 61.93 88.2883 61.5173L88.852 51.4741C88.8619 51.2947 88.8336 51.1153 88.7688 50.9477C88.704 50.7801 88.6044 50.6281 88.4764 50.5019C88.3484 50.3757 88.195 50.2782 88.0263 50.2156C87.8577 50.1531 87.6777 50.1271 87.4982 50.1394L85.0729 50.3075C84.9019 50.3195 84.7351 50.366 84.5826 50.4442C84.4301 50.5223 84.295 50.6305 84.1855 50.7622C84.0759 50.8938 83.9942 51.0463 83.9452 51.2104C83.8962 51.3744 83.881 51.5466 83.9005 51.7167Z" fill="#E0E0E0"/>
<path d="M89.6101 68.4829C89.4832 68.9456 89.2219 69.3605 88.8591 69.6751C88.4963 69.9897 88.0483 70.1899 87.5717 70.2503C87.0951 70.3107 86.6113 70.2287 86.1815 70.0146C85.7516 69.8005 85.3949 69.464 85.1565 69.0475C84.9182 68.631 84.8087 68.1533 84.8421 67.6746C84.8755 67.196 85.0502 66.738 85.3442 66.3584C85.6381 65.9788 86.038 65.6947 86.4935 65.542C86.9489 65.3893 87.4395 65.3748 87.9031 65.5005C88.2114 65.584 88.5003 65.7275 88.753 65.9227C89.0058 66.1178 89.2175 66.3609 89.376 66.6379C89.5346 66.9149 89.6369 67.2205 89.677 67.5371C89.7172 67.8536 89.6944 68.175 89.6101 68.4829Z" fill="#E0E0E0"/>
<path d="M213.949 147.147L210.246 162.149C210.102 162.743 210.179 163.37 210.463 163.911C210.747 164.453 211.219 164.873 211.791 165.092C212.392 165.32 213.058 165.309 213.652 165.06C214.245 164.812 214.72 164.345 214.979 163.757L221.275 149.473C221.387 149.218 221.444 148.942 221.442 148.663C221.439 148.384 221.378 148.109 221.261 147.856C221.144 147.603 220.974 147.378 220.763 147.196C220.553 147.013 220.305 146.877 220.038 146.797L216.426 145.718C216.17 145.642 215.9 145.62 215.635 145.652C215.369 145.683 215.113 145.769 214.881 145.902C214.649 146.036 214.447 146.215 214.287 146.429C214.127 146.643 214.012 146.887 213.949 147.147Z" fill="white"/>
<path d="M213.092 174.609C212.655 175.213 212.048 175.675 211.349 175.935C210.649 176.195 209.888 176.242 209.162 176.071C208.436 175.899 207.777 175.516 207.269 174.97C206.761 174.424 206.426 173.739 206.308 173.004C206.189 172.268 206.292 171.513 206.603 170.835C206.914 170.158 207.419 169.587 208.055 169.196C208.691 168.805 209.428 168.611 210.174 168.639C210.92 168.667 211.64 168.915 212.245 169.352C212.647 169.641 212.987 170.007 213.247 170.428C213.507 170.848 213.681 171.316 213.76 171.805C213.838 172.293 213.82 172.792 213.705 173.273C213.591 173.754 213.382 174.208 213.092 174.609Z" fill="white"/>
<path d="M120.185 49.0334L125.081 48.5463C125.081 48.5463 124.633 44.0363 128.899 43.5326C129.75 43.4397 130.609 43.6215 131.35 44.0514C132.09 44.4814 132.673 45.1369 133.013 45.9219C133.343 46.6026 133.522 47.3466 133.537 48.1028C133.552 48.859 133.404 49.6095 133.101 50.3031C132.417 51.8894 130.733 53.4349 127.369 53.1293L128.573 65.2343L133.409 64.7531L132.704 57.6592C132.704 57.6592 139.308 55.0633 138.491 46.8525C137.71 39.0039 131.104 37.832 128.353 38.1056C126.259 38.2956 119.149 39.5457 120.185 49.0334Z" fill="white"/>
<path d="M133.73 67.2393L128.809 67.7289L129.31 72.7641L134.231 72.2745L133.73 67.2393Z" fill="white"/>
<path d="M252.694 123.625C252.694 123.625 252.753 123.552 252.881 123.423C253.084 123.233 253.322 123.083 253.582 122.982C254.01 122.821 254.473 122.775 254.924 122.848C255.557 122.925 256.144 123.22 256.582 123.683C257.133 124.273 257.485 125.02 257.588 125.821C257.706 126.783 257.569 127.759 257.193 128.652C256.196 130.844 254.741 132.797 252.927 134.381C251.874 135.342 250.77 136.246 249.619 137.088C248.42 137.982 247.144 138.902 245.754 139.784C244.309 140.712 242.785 141.511 241.199 142.17C240.357 142.524 239.49 142.814 238.605 143.037C237.685 143.272 236.745 143.417 235.797 143.469C234.807 143.605 233.799 143.451 232.896 143.026C232.432 142.775 232.082 142.356 231.918 141.855C231.77 141.347 231.783 140.805 231.953 140.303C232.323 139.314 232.889 138.409 233.618 137.644C234.324 136.832 235.087 136.072 235.901 135.368C237.547 133.936 239.324 132.589 241.15 131.187C243.015 129.731 245.05 128.504 247.21 127.536C248.338 127.047 249.519 126.69 250.73 126.472C251.972 126.226 253.25 126.219 254.495 126.451C255.798 126.661 256.976 127.351 257.795 128.385C258.173 128.942 258.412 129.581 258.491 130.249C258.57 130.917 258.488 131.594 258.25 132.224C257.78 133.504 256.93 134.61 255.812 135.393C254.701 136.196 253.493 136.855 252.216 137.354C249.589 138.348 246.814 138.896 244.007 138.976C241.117 139.058 238.224 138.938 235.351 138.618C233.872 138.495 232.402 138.287 230.948 137.995C230.212 137.84 229.487 137.639 228.776 137.394C228.03 137.181 227.34 136.806 226.756 136.296C226.457 136.02 226.244 135.665 226.141 135.272C226.04 134.865 226.068 134.436 226.221 134.045C226.535 133.313 227.056 132.689 227.721 132.249C229.021 131.369 230.499 130.783 232.049 130.532C235.156 129.949 238.307 129.635 241.468 129.595C243.079 129.581 244.689 129.661 246.29 129.835C247.099 129.919 247.904 130.04 248.708 130.204C249.538 130.304 250.341 130.561 251.073 130.962C251.456 131.177 251.774 131.492 251.993 131.872C252.211 132.253 252.322 132.686 252.314 133.125C252.237 133.552 252.071 133.957 251.827 134.316C251.583 134.674 251.266 134.977 250.897 135.205C249.514 136.171 247.957 136.862 246.313 137.24C245.487 137.428 244.646 137.539 243.8 137.57C242.944 137.62 242.086 137.547 241.251 137.354C240.38 137.17 239.601 136.689 239.046 135.994C238.792 135.62 238.636 135.19 238.591 134.741C238.547 134.291 238.615 133.838 238.79 133.422C239.136 132.599 239.717 131.897 240.46 131.401C241.203 130.905 242.076 130.639 242.969 130.635C243.882 130.615 244.766 130.948 245.437 131.566C246.093 132.207 246.469 133.081 246.485 133.998C246.49 134.46 246.383 134.917 246.171 135.328C245.95 135.733 245.629 136.076 245.239 136.323C244.454 136.801 243.526 136.988 242.617 136.852C242.153 136.818 241.702 136.677 241.301 136.441C240.9 136.205 240.558 135.88 240.302 135.491C240.184 135.275 240.121 135.033 240.122 134.787C240.122 134.541 240.184 134.298 240.303 134.083C240.548 133.664 240.938 133.35 241.399 133.199C242.291 132.991 243.221 133.009 244.103 133.253C244.996 133.403 245.86 133.694 246.661 134.115C247.48 134.554 248.147 135.229 248.576 136.052C248.795 136.469 248.92 136.93 248.941 137.401C248.963 137.872 248.88 138.341 248.7 138.777C248.316 139.622 247.699 140.341 246.922 140.85C246.165 141.384 245.307 141.758 244.4 141.949C242.574 142.343 240.666 142.07 239.025 141.179C237.396 140.267 236.071 138.898 235.214 137.241C234.288 135.604 233.968 133.693 234.311 131.844C234.509 130.906 234.999 130.055 235.711 129.412C236.423 128.8 237.251 128.339 238.146 128.054C239.892 127.483 241.709 127.156 243.544 127.084C245.362 126.929 247.19 126.951 249.003 127.15C250.849 127.351 252.561 128.211 253.823 129.573C254.425 130.279 254.824 131.135 254.979 132.049C255.118 132.956 255.064 133.881 254.821 134.766C254.299 136.502 253.276 138.045 251.881 139.205C251.216 139.794 250.511 140.336 249.771 140.829C249.046 141.333 248.29 141.793 247.509 142.206C245.951 143.077 244.174 143.48 242.393 143.368C238.912 142.915 235.696 141.273 233.291 138.719C232.156 137.412 231.391 135.825 231.076 134.123C230.765 132.445 230.824 130.721 231.251 129.069C231.661 127.435 232.411 125.906 233.454 124.582C234.48 123.271 235.737 122.158 237.163 121.298C238.577 120.459 240.124 119.866 241.738 119.544C243.355 119.233 245.016 119.231 246.634 119.539C248.24 119.81 249.718 120.585 250.853 121.753C251.882 122.977 252.545 124.467 252.764 126.051C253.25 129.112 253.014 132.244 252.074 135.198C251.629 136.643 251.006 138.028 250.22 139.321C249.445 140.606 248.415 141.719 247.193 142.591C245.975 143.438 244.542 143.925 243.059 143.997C241.59 144.026 240.151 143.579 238.958 142.722C237.811 141.894 236.741 140.966 235.758 139.949C234.709 139.02 233.807 137.938 233.082 136.74C232.752 136.127 232.529 135.463 232.423 134.775C232.331 134.089 232.361 133.393 232.511 132.718C232.835 131.409 233.404 130.173 234.188 129.075C235.623 126.878 237.715 125.187 240.166 124.243C241.339 123.799 242.588 123.593 243.842 123.638C245.095 123.683 246.326 123.978 247.464 124.505C249.59 125.617 251.29 127.398 252.302 129.572C253.316 131.582 253.821 133.809 253.772 136.059C253.753 138.21 252.981 140.286 251.59 141.928C250.204 143.387 248.448 144.443 246.509 144.983C244.735 145.552 242.876 145.817 241.013 145.767C239.272 145.709 237.592 145.113 236.204 144.063C234.948 143.094 233.957 141.826 233.322 140.374C232.739 139.057 232.457 137.628 232.496 136.188C232.565 133.775 233.347 131.435 234.746 129.465C235.765 128.028 237.03 126.782 238.482 125.783C239.365 125.165 240.303 124.629 241.283 124.181C241.949 123.877 242.303 123.75 242.303 123.75L242.046 123.867L241.299 124.21C240.327 124.671 239.397 125.215 238.517 125.834C237.082 126.839 235.832 128.086 234.824 129.518C233.446 131.478 232.678 133.801 232.619 136.194C232.586 137.611 232.867 139.018 233.444 140.313C234.078 141.743 235.06 142.991 236.302 143.943C237.668 144.97 239.318 145.549 241.027 145.601C242.864 145.644 244.695 145.377 246.444 144.812C248.346 144.277 250.069 143.24 251.432 141.81C252.787 140.195 253.537 138.158 253.551 136.051C253.602 133.825 253.104 131.622 252.101 129.635C251.101 127.505 249.426 125.764 247.335 124.682C246.231 124.173 245.037 123.889 243.822 123.847C242.606 123.806 241.395 124.008 240.259 124.441C237.857 125.368 235.808 127.029 234.407 129.188C233.639 130.259 233.084 131.467 232.77 132.747C232.628 133.392 232.6 134.057 232.685 134.712C232.791 135.371 233.007 136.007 233.324 136.594C234.018 137.775 234.888 138.844 235.904 139.764C236.877 140.766 237.937 141.68 239.07 142.497C240.219 143.324 241.605 143.757 243.021 143.732C244.457 143.659 245.844 143.185 247.024 142.364C248.213 141.509 249.216 140.422 249.972 139.169C250.747 137.896 251.36 136.533 251.797 135.11C252.72 132.199 252.95 129.113 252.469 126.098C252.258 124.567 251.62 123.126 250.627 121.94C249.535 120.818 248.111 120.075 246.564 119.82C245.003 119.519 243.4 119.517 241.838 119.815C240.257 120.126 238.741 120.706 237.357 121.529C234.506 123.203 232.432 125.934 231.586 129.127C231.174 130.727 231.115 132.397 231.414 134.022C231.711 135.688 232.454 137.243 233.565 138.521C235.914 141.018 239.057 142.623 242.46 143.062C244.182 143.183 245.903 142.8 247.411 141.96C248.18 141.553 248.924 141.1 249.639 140.604C250.366 140.119 251.06 139.586 251.715 139.008C253.065 137.887 254.057 136.396 254.566 134.718C254.795 133.877 254.845 132.998 254.713 132.137C254.571 131.275 254.196 130.469 253.626 129.806C252.415 128.502 250.772 127.679 249 127.492C247.209 127.292 245.403 127.267 243.608 127.419C241.797 127.488 240.004 127.808 238.281 128.369C237.432 128.645 236.646 129.086 235.968 129.667C235.305 130.265 234.848 131.058 234.661 131.931C234.336 133.715 234.647 135.556 235.539 137.136C236.368 138.737 237.648 140.062 239.221 140.946C240.8 141.789 242.629 142.04 244.377 141.652C245.242 141.472 246.06 141.117 246.782 140.608C247.501 140.121 248.069 139.441 248.419 138.647C248.581 138.253 248.656 137.828 248.637 137.402C248.618 136.976 248.505 136.56 248.308 136.182C247.906 135.416 247.285 134.788 246.523 134.378C245.748 133.976 244.915 133.696 244.053 133.551C243.224 133.324 242.353 133.302 241.513 133.487C241.125 133.613 240.796 133.875 240.585 134.225C240.492 134.396 240.444 134.589 240.445 134.784C240.446 134.979 240.497 135.17 240.593 135.34C240.825 135.683 241.132 135.969 241.491 136.176C241.85 136.384 242.252 136.507 242.665 136.536C243.495 136.657 244.34 136.489 245.06 136.06C245.409 135.842 245.694 135.536 245.889 135.174C246.083 134.811 246.179 134.404 246.167 133.993C246.166 133.58 246.081 133.171 245.918 132.791C245.755 132.412 245.516 132.069 245.217 131.784C244.918 131.499 244.564 131.277 244.177 131.132C243.789 130.987 243.377 130.922 242.963 130.94C242.133 130.944 241.321 131.19 240.629 131.649C239.937 132.108 239.394 132.759 239.069 133.522C238.914 133.893 238.854 134.296 238.894 134.695C238.934 135.095 239.072 135.478 239.296 135.811C239.807 136.448 240.524 136.888 241.325 137.054C242.132 137.239 242.961 137.31 243.788 137.266C244.616 137.232 245.439 137.121 246.246 136.936C247.85 136.571 249.369 135.9 250.72 134.961C251.054 134.757 251.342 134.486 251.565 134.165C251.787 133.843 251.94 133.479 252.012 133.094C252.017 132.71 251.918 132.332 251.725 132C251.531 131.668 251.251 131.395 250.914 131.21C250.215 130.829 249.449 130.585 248.657 130.489C247.856 130.35 247.062 130.227 246.258 130.118C244.668 129.944 243.07 129.863 241.471 129.875C238.329 129.901 235.194 130.201 232.104 130.77C230.594 131.003 229.154 131.563 227.883 132.41C227.263 132.818 226.775 133.399 226.48 134.08C226.351 134.41 226.325 134.772 226.407 135.117C226.49 135.462 226.676 135.773 226.941 136.009C227.503 136.489 228.163 136.84 228.875 137.036C229.575 137.28 230.29 137.477 231.015 137.628C232.459 137.919 233.919 138.126 235.387 138.248C238.243 138.599 241.121 138.751 243.998 138.702C246.777 138.629 249.524 138.088 252.123 137.101C253.38 136.618 254.567 135.973 255.657 135.183C256.736 134.432 257.559 133.369 258.015 132.137C258.24 131.545 258.32 130.908 258.248 130.278C258.176 129.649 257.954 129.046 257.601 128.52C256.821 127.531 255.696 126.872 254.45 126.675C253.24 126.446 251.997 126.452 250.789 126.692C249.593 126.906 248.425 127.255 247.309 127.733C245.167 128.694 243.148 129.906 241.294 131.344C239.474 132.744 237.69 134.086 236.05 135.524C235.244 136.221 234.486 136.972 233.783 137.774C233.071 138.522 232.517 139.407 232.156 140.374C231.994 140.838 231.98 141.34 232.115 141.811C232.268 142.269 232.588 142.653 233.01 142.887C233.881 143.296 234.852 143.442 235.805 143.31C236.743 143.26 237.674 143.119 238.584 142.887C239.461 142.664 240.32 142.375 241.154 142.022C242.734 141.369 244.252 140.577 245.692 139.656C247.077 138.786 248.354 137.873 249.56 136.984C250.708 136.145 251.81 135.246 252.863 134.29C254.671 132.726 256.124 130.794 257.122 128.623C257.5 127.744 257.64 126.782 257.529 125.833C257.432 125.047 257.092 124.311 256.556 123.728C256.127 123.273 255.555 122.979 254.935 122.896C254.49 122.826 254.034 122.871 253.611 123.027C253.262 123.151 252.947 123.356 252.694 123.625Z" fill="#F5F5F5"/>
<path d="M178.564 27.1414C178.658 27.026 178.759 26.9162 178.867 26.8124C179.188 26.5037 179.566 26.2592 179.979 26.092C180.666 25.8366 181.408 25.7629 182.131 25.8779C183.141 26.0054 184.075 26.4793 184.774 27.2186C185.654 28.1599 186.215 29.3542 186.377 30.632C186.559 32.169 186.337 33.7269 185.734 35.1529C184.48 38.2531 182.08 41.3759 178.91 44.3069C177.222 45.8469 175.452 47.295 173.609 48.645C171.68 50.0564 169.624 51.5474 167.414 52.9562C165.102 54.4523 162.662 55.7417 160.123 56.8094C158.78 57.3667 157.396 57.8203 155.984 58.1662C154.515 58.5404 153.013 58.7735 151.499 58.8624C149.916 59.0697 148.307 58.8148 146.866 58.1284C146.138 57.7256 145.588 57.0643 145.326 56.2756C145.09 55.4742 145.112 54.6192 145.388 53.8306C145.968 52.2545 146.863 50.8128 148.019 49.5935C149.149 48.2972 150.368 47.0818 151.668 45.9563C152.982 44.8012 154.362 43.7006 155.772 42.5969C157.183 41.4933 158.603 40.3703 160.081 39.266C163.065 36.9368 166.32 34.9752 169.774 33.4239C171.583 32.6519 173.472 32.0836 175.406 31.7296C177.389 31.338 179.429 31.3275 181.416 31.6987C182.427 31.8977 183.402 32.2466 184.309 32.7339C185.238 33.2217 186.041 33.9182 186.655 34.7687C187.252 35.6523 187.629 36.6661 187.753 37.7251C187.878 38.7842 187.746 39.8576 187.37 40.8556C186.618 42.8908 185.264 44.6499 183.488 45.9C181.716 47.1794 179.787 48.2278 177.749 49.0197C173.549 50.6149 169.11 51.4914 164.618 51.6125C159.989 51.7288 155.358 51.5213 150.759 50.9915C148.395 50.7915 146.045 50.4594 143.718 49.9969C142.546 49.7456 141.391 49.4227 140.258 49.0303C139.069 48.6878 137.969 48.0922 137.032 47.2844C136.58 46.8493 136.261 46.2956 136.11 45.6872C135.961 45.0637 136.009 44.4092 136.247 43.8139C136.746 42.6596 137.568 41.6737 138.614 40.9749C140.688 39.5732 143.044 38.6436 145.517 38.2517C150.492 37.3321 155.538 36.8444 160.598 36.794C163.175 36.7736 165.75 36.9042 168.311 37.1851C169.6 37.319 170.892 37.5381 172.175 37.7335C173.502 37.889 174.786 38.2974 175.958 38.9364C176.536 39.2923 177.025 39.7755 177.387 40.349C177.768 40.9311 177.949 41.622 177.9 42.3161C177.828 43.0021 177.56 43.653 177.128 44.1915C176.711 44.7247 176.219 45.1947 175.667 45.5868C173.463 47.1236 170.984 48.223 168.364 48.8254C167.046 49.1261 165.702 49.3047 164.351 49.3587C162.975 49.4431 161.593 49.3259 160.251 49.0107C158.876 48.7254 157.644 47.9676 156.771 46.8692C156.36 46.2885 156.115 45.6067 156.062 44.8972C156.02 44.1923 156.131 43.4866 156.388 42.8284C156.936 41.5296 157.856 40.4206 159.03 39.6392C160.205 38.8578 161.584 38.4385 162.996 38.4334C163.711 38.4041 164.424 38.5191 165.093 38.7715C165.763 39.0238 166.374 39.4084 166.891 39.9023C167.408 40.3961 167.82 40.989 168.102 41.6456C168.385 42.3021 168.532 43.0088 168.534 43.7234C168.556 44.449 168.387 45.1676 168.045 45.8081C167.703 46.4486 167.199 46.9886 166.584 47.3746C165.342 48.1257 163.876 48.4182 162.441 48.2013C161.714 48.1466 161.008 47.9266 160.379 47.558C159.75 47.1895 159.214 46.6822 158.811 46.0749C158.626 45.7432 158.528 45.3698 158.528 44.99C158.527 44.6103 158.624 44.2366 158.808 43.9045C159.184 43.251 159.787 42.7574 160.502 42.5166C161.198 42.2949 161.934 42.2217 162.66 42.3019C163.38 42.3583 164.082 42.4775 164.784 42.6027C166.207 42.8405 167.583 43.3047 168.859 43.9777C170.156 44.6698 171.214 45.7378 171.892 47.0415C172.224 47.7004 172.418 48.4194 172.463 49.1553C172.493 49.8998 172.358 50.6417 172.069 51.3286C171.474 52.6813 170.504 53.8357 169.274 54.6552C168.679 55.0818 168.039 55.4419 167.366 55.7291C166.692 56.0213 165.99 56.2443 165.271 56.3948C162.367 57.0214 159.335 56.5876 156.724 55.1721C154.13 53.7205 152.021 51.5384 150.66 48.8978C149.957 47.5893 149.459 46.1811 149.183 44.7219C148.886 43.2549 148.898 41.7423 149.217 40.2798C149.529 38.7882 150.301 37.4319 151.426 36.4018C152.564 35.4356 153.88 34.7018 155.301 34.2419C158.099 33.3295 161.01 32.8101 163.951 32.6985C166.861 32.5553 169.781 32.3807 172.68 32.8056C175.58 33.2305 178.42 34.4173 180.34 36.6529C181.302 37.7739 181.939 39.1353 182.185 40.5911C182.409 42.0229 182.326 43.4861 181.94 44.8834C181.201 47.7007 179.367 50.072 177.253 51.9529C176.19 52.893 175.065 53.7607 173.885 54.5501C172.724 55.3509 171.517 56.0818 170.269 56.739C169.017 57.3965 167.693 57.9067 166.323 58.2595C164.951 58.5945 163.533 58.7047 162.125 58.5857C159.349 58.2987 156.654 57.4822 154.187 56.1805C151.691 54.9684 149.452 53.2891 147.59 51.2336C145.783 49.1513 144.566 46.6242 144.066 43.914C143.341 39.8871 143.929 35.7337 145.744 32.065C146.019 31.4583 146.391 30.897 146.711 30.3103C147.031 29.7236 147.449 29.1943 147.867 28.6771C149.507 26.5883 151.513 24.8145 153.787 23.4421C156.043 22.097 158.514 21.15 161.091 20.6424C163.644 20.1623 166.265 20.1684 168.816 20.6604C171.374 21.0875 173.728 22.3211 175.534 24.1808C177.168 26.1353 178.22 28.5084 178.572 31.0305C179.343 35.9214 178.965 40.9249 177.468 45.6454C176.757 47.9536 175.761 50.1644 174.502 52.2266C173.268 54.2761 171.627 56.0516 169.679 57.4439C167.733 58.7958 165.445 59.5747 163.078 59.6921C161.908 59.7281 160.741 59.5616 159.628 59.1999C158.537 58.8359 157.502 58.3234 156.552 57.6768C154.718 56.3531 153.004 54.8711 151.429 53.2478C149.784 51.7491 148.376 50.0103 147.253 48.0905C146.732 47.1135 146.377 46.0567 146.203 44.9635C146.06 43.8754 146.109 42.7705 146.348 41.6993C146.861 39.6117 147.767 37.6406 149.018 35.8913C151.31 32.3822 154.649 29.6822 158.562 28.174C160.432 27.4613 162.425 27.1308 164.425 27.2021C166.425 27.2734 168.39 27.745 170.203 28.5889C171.931 29.4461 173.484 30.6168 174.784 32.0415C176.041 33.4302 177.098 34.9873 177.924 36.6677C179.551 39.8928 180.354 43.4702 180.26 47.0809C180.213 48.8066 179.896 50.5145 179.323 52.1433C178.755 53.727 177.894 55.1902 176.785 56.4565C174.59 58.9369 171.599 60.4113 168.68 61.3296C165.842 62.2387 162.871 62.6622 159.891 62.5821C158.481 62.5184 157.088 62.246 155.757 61.7739C154.481 61.3227 153.283 60.6744 152.208 59.8528C150.198 58.3034 148.608 56.275 147.586 53.9533C146.655 51.8524 146.203 49.5713 146.262 47.2745C146.304 45.2259 146.684 43.1982 147.386 41.2728C147.995 39.5791 148.822 37.9718 149.847 36.4917C151.48 34.1961 153.5 32.2022 155.818 30.5993C157.232 29.605 158.734 28.7414 160.305 28.0189C161.361 27.5297 161.927 27.3271 161.927 27.3271L161.524 27.5074C161.248 27.6202 160.845 27.8006 160.32 28.0479C158.757 28.7825 157.263 29.6535 155.854 30.6506C153.551 32.2576 151.545 34.252 149.926 36.5449C148.906 38.014 148.083 39.6108 147.48 41.294C146.787 43.2079 146.414 45.2225 146.376 47.2571C146.323 49.5337 146.775 51.7938 147.7 53.8749C148.717 56.1737 150.296 58.1803 152.292 59.7103C154.486 61.3617 157.137 62.2948 159.884 62.3816C162.843 62.457 165.794 62.0294 168.61 61.1171C171.512 60.2187 174.475 58.7044 176.628 56.2892C177.716 55.0393 178.562 53.599 179.124 52.0412C179.687 50.4279 179.997 48.7373 180.042 47.0295C180.128 43.4541 179.331 39.9127 177.721 36.7184C176.897 35.0607 175.848 33.5238 174.605 32.1507C173.324 30.7489 171.793 29.5967 170.091 28.7525C166.642 27.0348 162.395 26.994 158.629 28.3564C154.765 29.8535 151.47 32.5279 149.212 36.0001C147.979 37.7322 147.087 39.6833 146.585 41.7489C146.35 42.7916 146.304 43.8679 146.45 44.9268C146.616 45.9921 146.962 47.0216 147.473 47.9711C148.598 49.8621 150.003 51.5723 151.641 53.0439C153.201 54.649 154.901 56.1122 156.722 57.4161C158.576 58.7499 160.813 59.4472 163.098 59.4035C165.413 59.2886 167.65 58.5252 169.551 57.2006C171.469 55.8293 173.086 54.0812 174.303 52.0635C175.542 50.0169 176.526 47.8264 177.232 45.5409C178.711 40.8632 179.083 35.9069 178.319 31.0618C177.974 28.5914 176.943 26.267 175.343 24.3522C173.58 22.5413 171.283 21.3407 168.787 20.9254C166.254 20.4453 163.653 20.4497 161.121 20.9382C158.579 21.4386 156.142 22.372 153.916 23.6975C151.676 25.0541 149.699 26.8042 148.081 28.8631C147.668 29.3737 147.321 29.9326 146.941 30.4704C146.561 31.0082 146.259 31.5991 145.989 32.1991C144.217 35.8075 143.645 39.8871 144.358 43.8423C144.848 46.5006 146.041 48.9795 147.813 51.0224C149.647 53.0463 151.85 54.702 154.306 55.9004C156.734 57.2024 159.39 58.0268 162.13 58.3291C163.505 58.4431 164.89 58.3341 166.231 58.0065C167.593 57.6627 168.91 57.1592 170.154 56.5065C171.392 55.8506 172.59 55.1207 173.74 54.3206C174.907 53.5363 176.02 52.676 177.074 51.7452C179.16 49.8914 180.932 47.5689 181.661 44.832C182.035 43.4724 182.118 42.0493 181.904 40.6556C181.672 39.2622 181.063 37.9587 180.144 36.8859C179.209 35.8151 178.06 34.9512 176.771 34.3496C175.476 33.7422 174.095 33.3348 172.677 33.1413C169.8 32.8301 166.899 32.796 164.016 33.0396C161.105 33.148 158.224 33.6625 155.456 34.568C154.073 35.0119 152.791 35.7237 151.684 36.6627C150.611 37.6414 149.87 38.93 149.566 40.3488C149.259 41.7694 149.249 43.2378 149.537 44.6623C149.806 46.0906 150.294 47.4692 150.981 48.75C152.318 51.3262 154.383 53.453 156.92 54.8661C159.452 56.2574 162.401 56.6953 165.229 56.1002C165.928 55.9514 166.61 55.7324 167.265 55.4465C167.921 55.1728 168.544 54.8244 169.121 54.4082C170.302 53.6241 171.232 52.5178 171.802 51.221C172.068 50.5777 172.189 49.884 172.158 49.1887C172.127 48.4934 171.944 47.8134 171.621 47.1966C170.972 45.9504 169.962 44.9289 168.722 44.2656C167.471 43.6143 166.124 43.1659 164.732 42.9372C163.359 42.7018 161.912 42.3946 160.613 42.8348C159.971 43.0448 159.426 43.4802 159.08 44.0604C158.922 44.347 158.839 44.6692 158.839 44.9966C158.84 45.324 158.924 45.6459 159.083 45.9319C159.43 46.5137 159.934 46.9856 160.538 47.2932C161.142 47.6173 161.803 47.8227 162.484 47.8983C163.844 48.1067 165.234 47.8325 166.412 47.1234C166.986 46.7681 167.456 46.2677 167.774 45.6729C168.092 45.078 168.247 44.4099 168.224 43.736C168.221 43.0631 168.081 42.398 167.814 41.7803C167.547 41.1626 167.158 40.6051 166.67 40.1413C166.182 39.6775 165.605 39.3168 164.974 39.0809C164.344 38.845 163.671 38.7387 162.998 38.7685C161.654 38.778 160.341 39.18 159.222 39.9251C158.103 40.6702 157.226 41.7258 156.7 42.9619C156.457 43.5759 156.351 44.2358 156.392 44.8949C156.443 45.5492 156.67 46.1776 157.049 46.7135C157.878 47.7544 159.047 48.4712 160.352 48.7384C161.645 49.0369 162.974 49.1511 164.299 49.0774C165.63 49.0244 166.953 48.8499 168.252 48.5561C170.834 47.963 173.277 46.8795 175.45 45.3645C175.978 44.9811 176.449 44.5236 176.847 44.0061C177.248 43.5095 177.493 42.9062 177.553 42.2713C177.558 41.6438 177.393 41.0267 177.077 40.4844C176.761 39.942 176.305 39.4944 175.757 39.188C174.625 38.5736 173.386 38.1796 172.107 38.0269C170.827 37.8067 169.544 37.6112 168.261 37.4767C165.71 37.1993 163.145 37.0697 160.578 37.0886C155.539 37.136 150.513 37.6177 145.557 38.5283C143.124 38.9123 140.806 39.8257 138.765 41.2038C137.762 41.8719 136.972 42.814 136.489 43.9178C136.273 44.4606 136.23 45.057 136.366 45.6251C136.51 46.1921 136.818 46.7042 137.252 47.0979C138.15 47.8765 139.207 48.4515 140.35 48.7834C141.478 49.1709 142.629 49.4881 143.796 49.7332C146.112 50.1939 148.452 50.5249 150.805 50.7247C155.393 51.2597 160.012 51.4705 164.629 51.3553C169.089 51.235 173.498 50.3677 177.671 48.7896C179.689 48.0081 181.598 46.9718 183.353 45.7062C185.087 44.4896 186.407 42.7735 187.137 40.7873C187.504 39.826 187.633 38.791 187.516 37.7693C187.398 36.7476 187.037 35.769 186.462 34.9159C185.869 34.0935 185.093 33.4194 184.196 32.9464C183.308 32.4712 182.354 32.1285 181.366 31.9293C179.409 31.5641 177.4 31.5756 175.447 31.9633C173.529 32.3102 171.656 32.8708 169.863 33.6346C166.424 35.1759 163.182 37.1237 160.208 39.4363C158.736 40.5339 157.309 41.6575 155.899 42.7612C154.488 43.8648 153.107 44.9595 151.805 46.1072C150.506 47.2231 149.289 48.4323 148.166 49.7251C147.012 50.9197 146.115 52.3368 145.528 53.8898C145.268 54.6456 145.247 55.463 145.468 56.231C145.712 56.9773 146.233 57.6018 146.924 57.9762C148.33 58.6346 149.897 58.8745 151.437 58.6674C152.941 58.5844 154.433 58.3542 155.892 57.9802C157.305 57.638 158.689 57.1884 160.032 56.6355C162.562 55.5922 164.997 54.33 167.307 52.8632C169.53 51.4652 171.576 49.9996 173.505 48.5882C175.346 47.2431 177.114 45.8013 178.802 44.2688C181.967 41.3505 184.361 38.2283 185.62 35.1704C186.223 33.759 186.448 32.2154 186.273 30.6911C186.123 29.4265 185.578 28.2414 184.715 27.3037C184.123 26.6799 183.362 26.2413 182.525 26.041C181.688 25.8408 180.811 25.8874 180 26.1753C179.449 26.3755 178.956 26.7072 178.564 27.1414Z" fill="#495E4C"/>
<path d="M75.8701 108.709C75.8701 108.709 75.7552 108.72 75.534 108.706L74.5396 108.652C73.2708 108.586 72.0162 108.355 70.8079 107.962C69.9244 107.663 69.1108 107.188 68.4163 106.566C67.5719 105.83 66.991 104.839 66.7618 103.743C66.6487 103.125 66.7034 102.488 66.9201 101.898C67.169 101.278 67.5729 100.732 68.0932 100.312C68.6482 99.8568 69.3436 99.6067 70.0619 99.6043C70.4396 99.6246 70.8084 99.7271 71.1424 99.9045C71.4763 100.082 71.7675 100.33 71.9956 100.631C72.4599 101.268 72.7113 102.034 72.7141 102.822C72.7322 103.632 72.5793 104.436 72.2653 105.183C72.103 105.568 71.893 105.931 71.6402 106.264C71.3938 106.609 71.1198 106.934 70.8211 107.236C70.188 107.832 69.4705 108.333 68.6917 108.722C67.8787 109.111 67.0124 109.378 66.121 109.514C65.2028 109.664 64.2663 109.662 63.3488 109.509C62.4004 109.356 61.4875 109.034 60.6533 108.558C59.7983 108.06 59.0575 107.388 58.479 106.585C57.2762 104.917 56.6878 102.884 56.8137 100.831C56.8762 99.7752 57.1401 98.7411 57.5912 97.7842C57.8227 97.2997 58.1068 96.842 58.4384 96.4195C58.7587 95.9736 59.1625 95.5938 59.6275 95.3013C60.1069 94.9713 60.696 94.8406 61.2701 94.9367C61.5594 95.0035 61.8306 95.1326 62.0648 95.3149C62.2864 95.512 62.4592 95.7578 62.5697 96.0329C62.7608 96.5726 62.8182 97.1505 62.7373 97.7173C62.671 98.2744 62.539 98.8217 62.3439 99.3478C61.9219 100.384 61.4528 101.375 60.942 102.377C60.4262 103.392 59.7934 104.343 59.0566 105.211C58.3089 106.088 57.3887 106.802 56.3532 107.309C55.3209 107.813 54.1609 107.997 53.0233 107.836C51.9106 107.651 50.8688 107.169 50.009 106.44C49.1608 105.739 48.454 104.882 47.9263 103.916C47.0031 102.014 46.4172 99.9657 46.1947 97.8632C46.0089 96.8561 45.9255 95.8328 45.9458 94.8089C45.9258 93.7515 46.2948 92.7233 46.9831 91.9193C47.3452 91.5518 47.8045 91.2946 48.3074 91.1779C48.7989 91.0613 49.3116 91.069 49.7993 91.2002C50.7543 91.4561 51.5776 92.0621 52.1049 92.8975C52.5825 93.7132 52.8232 94.6456 52.8002 95.5903C52.796 96.4917 52.6437 97.3864 52.3494 98.2386C52.0802 99.0618 51.7162 99.851 51.2646 100.59C50.8241 101.298 50.3155 101.961 49.7461 102.571C48.6623 103.713 47.3734 104.641 45.9464 105.308C44.6557 105.914 43.2617 106.27 41.8382 106.357C40.569 106.433 39.2963 106.287 38.0773 105.926C36.1196 105.356 34.3361 104.305 32.8891 102.87C31.9762 101.963 31.2249 100.908 30.6678 99.7494C30.5177 99.4521 30.3873 99.1453 30.2773 98.831C30.2018 98.6251 30.1663 98.5128 30.1663 98.5128C30.1663 98.5128 30.3256 98.9481 30.7258 99.7192C31.3056 100.847 32.0675 101.871 32.9811 102.751C34.4228 104.149 36.1873 105.171 38.1186 105.727C39.3204 106.073 40.5732 106.208 41.8214 106.127C43.2179 106.031 44.5843 105.676 45.8504 105.08C47.9947 104.072 49.7973 102.46 51.0362 100.442C51.4729 99.7168 51.8241 98.9432 52.0829 98.1371C52.3695 97.3134 52.5165 96.4477 52.5179 95.5757C52.5366 94.681 52.3073 93.7986 51.8552 93.026C51.3645 92.2534 50.6004 91.6938 49.7151 91.4585C49.2722 91.3308 48.8029 91.3248 48.3568 91.4411C47.9106 91.5574 47.5041 91.7916 47.1801 92.1192C46.5636 92.8623 46.2346 93.8015 46.2529 94.7662C46.2312 95.78 46.3157 96.7934 46.5049 97.7897C46.7263 99.8487 47.3017 101.854 48.2058 103.718C48.7183 104.647 49.4053 105.469 50.2293 106.138C51.0439 106.834 52.0332 107.294 53.0907 107.469C54.1649 107.62 55.2599 107.445 56.2337 106.967C57.2287 106.483 58.1162 105.804 58.8434 104.97C60.3055 103.282 61.2154 101.198 62.0671 99.2046C62.4859 98.2353 62.5696 97.1543 62.3049 96.1324C62.2057 95.9168 62.064 95.7236 61.8881 95.5641C61.6994 95.4144 61.4805 95.3072 61.2463 95.25C60.7512 95.1689 60.2439 95.2827 59.831 95.5676C59.3952 95.8433 59.0163 96.1998 58.7145 96.6176C58.3992 97.0213 58.1274 97.4571 57.9036 97.9177C57.4677 98.8384 57.2144 99.8347 57.1576 100.852C57.0283 102.835 57.5907 104.802 58.7494 106.418C59.3041 107.175 60.0037 107.813 60.8074 108.297C61.6112 108.781 62.5032 109.101 63.4318 109.239C64.7264 109.459 66.0547 109.378 67.3125 109C68.5703 108.622 69.7235 107.958 70.6816 107.06C71.2645 106.496 71.7383 105.828 72.0792 105.092C72.3762 104.366 72.515 103.585 72.4863 102.802C72.4909 102.062 72.261 101.34 71.8293 100.739C71.6149 100.468 71.345 100.246 71.0376 100.087C70.7301 99.9282 70.3923 99.8369 70.0466 99.8192C69.3783 99.8183 68.7303 100.049 68.2128 100.471C67.7091 100.87 67.3173 101.392 67.0754 101.987C66.8645 102.542 66.8083 103.144 66.9129 103.728C67.1307 104.79 67.687 105.753 68.4985 106.473C69.1726 107.086 69.9627 107.559 70.8225 107.863C72.0309 108.267 73.2866 108.513 74.5584 108.595L75.5503 108.686L75.8701 108.709Z" fill="#495E4C"/>
<path d="M167.111 214.375L129.989 218.068C128.524 218.214 127.454 219.518 127.6 220.982L127.621 221.193C127.767 222.657 129.073 223.726 130.538 223.58L167.659 219.887C169.124 219.741 170.194 218.436 170.048 216.972L170.027 216.761C169.882 215.297 168.576 214.229 167.111 214.375Z" fill="#495E4C"/>
<path d="M138.387 226.13L161.254 223.855C161.254 223.855 158.816 230.231 149.954 231.113C140.712 232.032 138.387 226.13 138.387 226.13Z" fill="#495E4C"/>
<path d="M147.872 95.5395C146.894 94.2769 145.564 93.3314 144.049 92.8217C142.534 92.3121 140.903 92.2611 139.359 92.675C137.815 93.089 136.428 93.9496 135.372 95.1486C134.316 96.3476 133.638 97.8315 133.424 99.4139C133.21 100.996 133.468 102.607 134.167 104.043C134.866 105.479 135.974 106.676 137.352 107.485C138.73 108.294 140.317 108.677 141.913 108.588C143.509 108.498 145.043 107.939 146.322 106.982L146.416 106.904L143.178 129.827L161.214 132.362L161.132 132.269C160.188 130.995 159.64 129.472 159.558 127.89C159.476 126.308 159.863 124.736 160.67 123.372C161.477 122.008 162.669 120.912 164.096 120.221C165.524 119.529 167.123 119.274 168.695 119.486C170.267 119.699 171.741 120.369 172.933 121.414C174.125 122.459 174.982 123.832 175.397 125.361C175.812 126.89 175.767 128.508 175.267 130.012C174.766 131.515 173.833 132.838 172.585 133.815L172.427 133.938L191.812 136.669C194.999 127.139 196.152 114.675 189.739 101.198C186.38 93.9595 181.335 87.6299 175.027 82.7383C168.718 77.8466 161.329 74.5349 153.476 73.0801L151.232 72.7652L147.995 95.7018L147.872 95.5395Z" fill="#E9E9E9"/>
<path d="M147.873 95.5393C147.918 95.5895 147.96 95.6419 148 95.6964C148.104 94.789 149.247 86.5197 151.168 72.7568L151.161 72.6848L151.233 72.6776L153.079 72.9353C153.708 73.0133 154.339 73.159 154.982 73.2841C156.263 73.5688 157.577 73.9035 158.909 74.3141C161.742 75.1738 164.493 76.2825 167.131 77.6273C170.043 79.1203 172.811 80.8787 175.399 82.8801C178.171 85.1014 180.713 87.5936 182.988 90.3196C183.578 91.027 184.105 91.7939 184.664 92.5335L185.509 93.6616C185.772 94.0525 186.016 94.4598 186.274 94.8608L187.807 97.2926L189.166 99.8728C191.028 103.444 192.436 107.235 193.356 111.156C194.294 115.287 194.654 119.528 194.425 123.758C194.387 124.838 194.252 125.919 194.146 127.006C194.041 128.092 193.842 129.169 193.62 130.248C193.195 132.429 192.629 134.579 191.925 136.686L191.897 136.786L191.796 136.796L178.264 134.894L172.408 134.09L172.108 134.047L172.352 133.863C173.68 132.875 174.666 131.496 175.173 129.921C175.421 129.144 175.547 128.333 175.545 127.518C175.557 126.708 175.437 125.901 175.191 125.129C175.072 124.744 174.926 124.368 174.754 124.004C174.571 123.645 174.365 123.3 174.136 122.969C173.688 122.308 173.138 121.721 172.507 121.231C171.583 120.508 170.511 119.999 169.367 119.74C168.223 119.481 167.035 119.477 165.889 119.73C164.744 119.983 163.668 120.486 162.74 121.203C161.812 121.92 161.054 122.834 160.52 123.878C160.172 124.552 159.927 125.274 159.792 126.021C159.641 126.756 159.603 127.511 159.68 128.257C159.834 129.737 160.401 131.144 161.316 132.318L161.495 132.552L161.21 132.513L143.178 129.967L143.069 129.949L143.083 129.841C144.275 121.479 145.369 113.792 146.336 106.922L146.484 107.004C145.335 107.898 143.968 108.469 142.524 108.659C141.154 108.832 139.763 108.648 138.486 108.125C137.394 107.686 136.41 107.015 135.602 106.16C134.794 105.304 134.182 104.284 133.807 103.169C133.431 102.055 133.302 100.872 133.429 99.7026C133.555 98.5332 133.933 97.405 134.538 96.3956C135.503 94.82 136.965 93.61 138.695 92.9564C139.429 92.6966 140.195 92.534 140.971 92.4729C141.655 92.4387 142.339 92.4812 143.013 92.5996C144.726 92.9147 146.288 93.781 147.461 95.0662C147.615 95.2275 147.758 95.3997 147.886 95.5816L147.777 95.4567C147.705 95.3669 147.595 95.242 147.444 95.0826C146.994 94.6075 146.489 94.1873 145.941 93.8308C145.046 93.2546 144.047 92.8598 143 92.6687C142.333 92.5572 141.655 92.5205 140.98 92.5594C140.211 92.6212 139.454 92.7846 138.728 93.0453C137.024 93.6977 135.586 94.8985 134.641 96.4581C134.048 97.4515 133.677 98.5615 133.555 99.7117C133.433 100.862 133.562 102.025 133.933 103.12C134.304 104.216 134.908 105.218 135.704 106.057C136.501 106.897 137.469 107.554 138.544 107.983C139.831 108.504 141.232 108.677 142.606 108.482C143.981 108.287 145.279 107.733 146.37 106.875L146.55 106.736L146.519 106.957C145.553 113.841 144.476 121.498 143.3 129.882L143.211 129.76L161.24 132.287L161.138 132.481C160.189 131.27 159.602 129.816 159.445 128.286C159.362 127.516 159.399 126.739 159.555 125.981C159.693 125.212 159.946 124.467 160.306 123.773C161.032 122.359 162.153 121.185 163.532 120.393C164.944 119.579 166.565 119.204 168.191 119.314C169.816 119.424 171.372 120.015 172.66 121.012C173.31 121.513 173.878 122.11 174.346 122.784C174.581 123.125 174.793 123.481 174.981 123.85C175.159 124.225 175.309 124.612 175.431 125.008C175.688 125.804 175.813 126.636 175.803 127.473C175.806 128.75 175.508 130.009 174.935 131.15C174.361 132.291 173.527 133.282 172.501 134.042L172.444 133.815L178.302 134.638L191.829 136.546L191.691 136.627C192.391 134.529 192.954 132.389 193.379 130.219C193.602 129.145 193.747 128.068 193.902 126.991C194.057 125.914 194.144 124.838 194.178 123.768C194.413 119.561 194.058 115.342 193.125 111.232C192.218 107.314 190.822 103.526 188.97 99.9553L187.617 97.3843C187.109 96.5717 186.597 95.7645 186.095 94.961C185.842 94.5644 185.598 94.1571 185.336 93.771L184.496 92.6472C183.937 91.9029 183.405 91.1412 182.82 90.4381C178.507 85.168 173.137 80.8594 167.055 77.79C164.43 76.4464 161.691 75.3365 158.872 74.473C157.544 74.0572 156.234 73.722 154.958 73.4368C154.315 73.3117 153.694 73.165 153.064 73.0822L151.225 72.8385L151.306 72.7771C149.347 86.5485 148.158 94.7981 148 95.7012L147.873 95.5393Z" fill="#495E4C"/>
<path d="M170.179 151.986L170.3 151.833C171.278 150.608 171.871 149.122 172.006 147.561C172.14 146 171.81 144.435 171.057 143.061C170.303 141.687 169.16 140.567 167.771 139.84C166.382 139.113 164.809 138.813 163.25 138.977C161.69 139.141 160.214 139.762 159.007 140.761C157.799 141.76 156.914 143.094 156.463 144.594C156.011 146.095 156.014 147.695 156.47 149.194C156.926 150.692 157.816 152.023 159.027 153.018L159.121 153.086L140.329 154.955L142.426 176.028L142.494 175.929C143.146 175.13 143.95 174.466 144.859 173.977C145.768 173.488 146.765 173.183 147.792 173.08C149.084 172.949 150.389 173.138 151.591 173.629C152.793 174.12 153.856 174.898 154.687 175.896C155.518 176.893 156.09 178.079 156.355 179.349C156.62 180.62 156.569 181.936 156.205 183.182C155.842 184.428 155.179 185.566 154.273 186.496C153.367 187.426 152.246 188.119 151.009 188.516C149.772 188.912 148.457 188.999 147.179 188.769C145.9 188.539 144.698 187.999 143.678 187.196L143.524 187.071L145.928 211.231L167.118 209.123C167.118 209.123 167.277 200.966 167.629 194.744C167.98 188.522 180.458 174.659 183.876 169.058C185.253 166.802 188.485 159.532 189.27 150.096L170.179 151.986Z" fill="#E9E9E9"/>
<path d="M179.065 175.641C178.778 175.13 178.322 174.735 177.774 174.524C177.227 174.313 176.623 174.299 176.067 174.485C175.322 174.753 174.7 175.382 173.889 175.376C173.528 175.336 173.183 175.208 172.884 175.004C172.584 174.799 172.339 174.525 172.171 174.204C171.78 173.593 171.531 172.895 171.086 172.324C170.887 172.019 170.604 171.779 170.272 171.631C169.939 171.484 169.571 171.435 169.212 171.492C168.3 171.738 167.831 172.933 166.891 173.046C166.611 173.053 166.333 172.99 166.082 172.865C165.831 172.739 165.614 172.555 165.451 172.327C165.091 171.877 164.848 171.388 164.481 170.968C163.875 170.329 163.042 169.952 162.161 169.917C161.28 169.883 160.42 170.193 159.764 170.783C158.906 171.329 158.096 172.937 158.119 174.491C158.193 179.187 156.46 180.203 156.46 180.203C156.615 181.75 156.311 183.308 155.587 184.683C154.862 186.059 153.749 187.191 152.385 187.939C151.021 188.687 149.467 189.018 147.917 188.891C146.366 188.763 144.888 188.183 143.665 187.222L143.512 187.097L145.915 211.256L167.105 209.148C167.105 209.148 167.264 200.991 167.616 194.769L167.567 194.619C167.575 194.554 167.58 194.489 167.582 194.424C167.77 189.978 179.065 175.641 179.065 175.641Z" fill="#5CCD6A"/>
<path d="M170.179 151.985L189.281 150.017L189.363 150.009L189.371 150.091C189.015 154.258 188.18 158.371 186.882 162.349C186.146 164.676 185.182 166.926 184.003 169.065C182.65 171.231 181.029 173.322 179.364 175.514C177.699 177.707 175.982 179.962 174.27 182.324C172.478 184.749 170.855 187.293 169.412 189.94C168.647 191.3 168.107 192.775 167.813 194.308C167.673 195.878 167.646 197.501 167.555 199.124C167.422 202.376 167.322 205.713 167.252 209.104L167.262 209.21L145.813 211.344L143.369 186.781L143.602 186.976C144.534 187.748 145.634 188.291 146.814 188.563C147.994 188.835 149.221 188.827 150.398 188.54C151.174 188.362 151.916 188.059 152.594 187.642C152.934 187.439 153.258 187.213 153.566 186.964C153.864 186.706 154.146 186.43 154.41 186.138C155.307 185.13 155.927 183.908 156.209 182.589C156.491 181.271 156.427 179.902 156.021 178.617C155.615 177.331 154.883 176.172 153.895 175.254C152.907 174.336 151.697 173.69 150.384 173.379C149.662 173.203 148.917 173.135 148.175 173.177C147.437 173.206 146.708 173.347 146.013 173.596C144.637 174.085 143.426 174.951 142.52 176.096L142.334 176.328L142.306 176.04C141.566 168.607 140.865 161.564 140.209 154.967L140.199 154.861L140.304 154.851L159.096 152.981L159.054 153.146C157.925 152.255 157.058 151.077 156.545 149.734C156.069 148.46 155.932 147.083 156.148 145.74C156.413 143.938 157.287 142.281 158.625 141.044C159.963 139.808 161.684 139.065 163.503 138.941C165.321 138.817 167.128 139.318 168.621 140.361C170.115 141.404 171.206 142.927 171.714 144.676C171.897 145.323 172.004 145.989 172.033 146.661C172.068 147.719 171.889 148.772 171.506 149.759C171.274 150.364 170.966 150.937 170.589 151.465C170.466 151.647 170.357 151.774 170.293 151.858L170.184 151.985L170.283 151.854C170.346 151.76 170.445 151.634 170.568 151.452C171.537 150.048 172.024 148.368 171.955 146.664C171.948 146.342 171.916 146.021 171.86 145.704C171.691 144.61 171.287 143.565 170.677 142.641C169.807 141.305 168.551 140.265 167.075 139.659C165.599 139.054 163.974 138.912 162.415 139.251C160.856 139.591 159.437 140.397 158.348 141.562C157.259 142.726 156.55 144.195 156.316 145.772C156.107 147.088 156.241 148.435 156.705 149.685C157.212 150.992 158.06 152.14 159.162 153.009L159.336 153.151L159.115 153.173L140.324 155.043L140.419 154.927C141.075 161.524 141.776 168.567 142.515 175.999L142.306 175.943C143.238 174.758 144.486 173.861 145.907 173.354C147.358 172.856 148.92 172.778 150.413 173.129C151.567 173.402 152.647 173.927 153.574 174.666C154.502 175.405 155.254 176.34 155.778 177.404C156.301 178.468 156.582 179.634 156.601 180.819C156.62 182.005 156.377 183.18 155.888 184.26C155.557 185 155.113 185.684 154.571 186.287C154.294 186.59 153.998 186.875 153.685 187.141C153.367 187.397 153.032 187.632 152.682 187.842C151.982 188.271 151.216 188.583 150.415 188.766C149.613 188.963 148.785 189.034 147.961 188.976C146.292 188.857 144.701 188.22 143.411 187.155L143.619 187.042L144.346 194.354C144.919 200.116 145.485 205.805 146.022 211.202L145.89 211.094L167.08 208.985L166.97 209.103C167.049 205.698 167.154 202.368 167.287 199.112C167.362 197.48 167.407 195.881 167.549 194.281C167.847 192.722 168.396 191.222 169.174 189.838C170.627 187.184 172.259 184.632 174.059 182.2C175.763 179.819 177.505 177.561 179.167 175.388C180.829 173.216 182.459 171.109 183.803 168.963C184.98 166.839 185.945 164.604 186.683 162.291C187.984 158.327 188.829 154.228 189.199 150.074L189.27 150.144L170.179 151.985Z" fill="#495E4C"/>
<path d="M157.573 168.464C157.609 168.826 157.537 169.19 157.366 169.511C157.195 169.832 156.932 170.095 156.611 170.267C156.29 170.439 155.926 170.511 155.564 170.476C155.201 170.441 154.858 170.299 154.576 170.069C154.295 169.838 154.088 169.53 153.982 169.182C153.876 168.834 153.876 168.463 153.981 168.115C154.086 167.767 154.293 167.458 154.574 167.227C154.855 166.996 155.198 166.853 155.56 166.817C156.046 166.769 156.531 166.915 156.908 167.224C157.286 167.533 157.525 167.979 157.573 168.464Z" fill="#5CCD6A"/>
<g opacity="0.2">
<path d="M150.078 188.644C148.229 188.983 146.087 188.435 145.047 186.856L143.668 187.633C143.763 188.593 145.148 190.361 146.063 190.634C147.901 191.242 149.893 191.195 151.699 190.5C152.603 190.083 153.386 189.444 153.974 188.641C154.561 187.839 154.934 186.9 155.058 185.913C153.529 187.277 151.927 188.305 150.078 188.644Z" fill="black"/>
</g>
<path d="M124.245 103.971C126.226 103.451 128.332 103.72 130.119 104.72L130.28 104.825L124.531 82.841L122.383 83.4038C114.894 85.71 108.066 89.7742 102.471 95.2565C96.8762 100.739 92.6764 107.48 90.2231 114.915C85.5008 128.772 88.0372 140.802 92.2291 149.714L94.5184 149.113L112.353 144.454L112.254 144.628C111.48 145.991 111.126 147.551 111.237 149.113C111.348 150.676 111.919 152.17 112.878 153.41C113.836 154.649 115.14 155.577 116.625 156.078C118.111 156.579 119.711 156.631 121.226 156.226C122.74 155.821 124.102 154.978 125.138 153.803C126.175 152.628 126.841 151.173 127.053 149.621C127.265 148.069 127.013 146.489 126.329 145.08C125.645 143.671 124.559 142.495 123.208 141.701L123.101 141.648L123.597 141.517L138.87 137.505L133.122 115.535L133.065 115.642C132.546 116.534 131.856 117.315 131.034 117.94C130.213 118.565 129.276 119.022 128.278 119.285C126.285 119.705 124.207 119.343 122.474 118.275C120.741 117.207 119.485 115.514 118.967 113.547C118.449 111.579 118.708 109.488 119.69 107.705C120.673 105.923 122.303 104.586 124.245 103.971Z" fill="#5CCD6A"/>
<path d="M124.245 103.971L123.728 104.143C123.516 104.211 123.308 104.294 123.107 104.389C122.986 104.445 122.855 104.497 122.717 104.569L122.285 104.811C121.536 105.248 120.865 105.806 120.299 106.463C119.532 107.363 118.974 108.422 118.666 109.564C118.575 109.889 118.505 110.22 118.454 110.555C118.408 110.913 118.387 111.275 118.392 111.637C118.388 112.415 118.506 113.189 118.741 113.93C119.304 115.764 120.52 117.329 122.159 118.327C123.799 119.326 125.748 119.689 127.638 119.348C128.738 119.151 129.781 118.716 130.695 118.074C131.66 117.4 132.46 116.516 133.035 115.49L133.138 115.305L133.192 115.508C134.889 121.977 136.827 129.363 138.96 137.476L138.97 137.577L138.869 137.587L123.126 141.708L123.149 141.498C124.444 142.22 125.512 143.29 126.232 144.585C126.601 145.24 126.867 145.948 127.019 146.684C127.191 147.424 127.254 148.186 127.205 148.944C127.154 149.711 126.995 150.466 126.734 151.188C126.463 151.918 126.092 152.608 125.632 153.237C124.685 154.507 123.385 155.471 121.894 156.009C120.373 156.562 118.72 156.639 117.154 156.228C115.564 155.812 114.139 154.922 113.066 153.677C112.515 153.059 112.075 152.35 111.766 151.581C111.434 150.818 111.227 150.007 111.153 149.179C110.996 147.493 111.376 145.8 112.24 144.343L112.379 144.528L99.3654 147.927L92.2697 149.782L92.1639 149.793L92.1202 149.695C90.3226 145.876 89.0316 141.838 88.2801 137.684C87.9149 135.662 87.6904 133.617 87.6081 131.564C87.5943 130.547 87.5516 129.533 87.6066 128.524C87.6261 128.037 87.623 127.518 87.6656 127.02L87.7934 125.523C88.1694 121.637 89.04 117.814 90.3843 114.147L91.4023 111.5L91.6574 110.845C91.7474 110.627 91.858 110.422 91.9533 110.209L92.561 108.951C92.7574 108.534 92.9633 108.116 93.1601 107.703L93.4575 107.082L93.8014 106.49L95.1734 104.133C95.3866 103.739 95.6564 103.377 95.906 103.008L96.6655 101.91L97.4159 100.817C97.6717 100.461 97.9641 100.132 98.2358 99.7895C98.7851 99.1143 99.3136 98.4265 99.8753 97.7791L101.631 95.9122C103.911 93.5958 106.407 91.5015 109.085 89.6575C111.563 87.9889 114.178 86.5348 116.904 85.311C119.36 84.1934 121.919 83.3153 124.544 82.6889L124.621 82.6812L124.629 82.7581C127.213 92.727 129.149 100.186 130.336 104.752L130.345 104.843L130.28 104.825C128.92 104.017 127.349 103.633 125.768 103.722C125.383 103.745 125.001 103.795 124.623 103.87L124.252 103.946C124.252 103.946 124.37 103.91 124.621 103.851C124.997 103.765 125.379 103.709 125.764 103.684C127.356 103.575 128.943 103.949 130.317 104.758L130.258 104.803C129.057 100.243 127.092 92.7875 124.466 82.8324L124.564 82.8906C121.951 83.5171 119.405 84.3973 116.963 85.5184C111.264 88.0485 106.099 91.6413 101.747 96.1043L100.015 97.964C99.4534 98.6114 98.9296 99.2987 98.3799 99.9692C98.113 100.311 97.8254 100.64 97.5719 101.019C97.3184 101.398 97.076 101.743 96.8259 102.107L96.0707 103.2C95.8068 103.562 95.5623 103.938 95.3382 104.325L93.9791 106.667L93.6328 107.235L93.3349 107.851L92.7407 109.098L92.1421 110.35C92.0415 110.559 91.9362 110.768 91.8457 110.981L91.5954 111.636C91.2551 112.509 90.9201 113.386 90.5808 114.268C89.2464 117.919 88.3823 121.725 88.0091 125.594C87.9704 126.083 87.9268 126.572 87.8833 127.061C87.8397 127.55 87.8395 128.035 87.8238 128.56C87.7655 129.536 87.81 130.569 87.8282 131.581C87.9093 133.623 88.1328 135.656 88.4968 137.667C89.2459 141.8 90.5315 145.817 92.3212 149.617L92.1785 149.549L99.2742 147.694L112.293 144.294L112.586 144.217L112.432 144.474C111.804 145.524 111.435 146.708 111.355 147.928C111.275 149.148 111.486 150.37 111.971 151.493C112.125 151.862 112.307 152.22 112.514 152.564C112.729 152.901 112.969 153.223 113.231 153.525C114.271 154.732 115.653 155.595 117.195 156.001C117.953 156.195 118.734 156.281 119.516 156.255C120.292 156.209 121.057 156.056 121.791 155.801C122.514 155.541 123.196 155.178 123.814 154.722C125.035 153.81 125.965 152.564 126.491 151.134C126.741 150.432 126.895 149.699 126.948 148.955C126.995 148.219 126.934 147.481 126.769 146.762C126.618 146.049 126.362 145.362 126.008 144.724C125.309 143.467 124.277 142.428 123.025 141.719L122.773 141.579L123.048 141.508L138.819 137.432L138.745 137.561C136.609 129.409 134.7 122.025 133.018 115.559L133.169 115.573C132.579 116.622 131.76 117.524 130.772 118.212C129.837 118.863 128.771 119.3 127.648 119.493C125.724 119.834 123.743 119.458 122.078 118.437C120.414 117.416 119.182 115.82 118.617 113.952C118.383 113.199 118.267 112.413 118.274 111.625C118.258 110.912 118.351 110.202 118.55 109.517C118.822 108.519 119.29 107.584 119.924 106.766C120.559 105.948 121.35 105.263 122.25 104.751L122.687 104.509L123.082 104.339C123.285 104.244 123.494 104.166 123.71 104.106C124.062 103.989 124.245 103.971 124.245 103.971Z" fill="#495E4C"/>
<path d="M145.598 211.326L126.437 213.232C126.437 213.232 124.673 205.266 123.103 199.236C121.532 193.205 106.567 182.072 102.113 177.25C100.318 175.31 95.717 168.824 93.0885 159.722L111.188 157.922L111.063 158.08C110.084 159.305 109.49 160.793 109.355 162.354C109.22 163.916 109.55 165.483 110.304 166.858C111.058 168.232 112.202 169.354 113.592 170.081C114.981 170.808 116.556 171.109 118.116 170.945C119.677 170.781 121.154 170.16 122.362 169.159C123.571 168.159 124.456 166.825 124.908 165.323C125.359 163.822 125.356 162.221 124.9 160.721C124.443 159.221 123.553 157.89 122.341 156.895L122.246 156.822L139.873 155.199L141.97 176.271C141.97 176.271 143.364 173.606 147.339 173.313C151.314 173.019 154.589 175.54 155.511 178.318C156.433 181.097 156.433 186.513 151.232 188.49C146.032 190.467 142.976 186.97 142.976 186.97L145.47 211.45" fill="white"/>
<path d="M145.327 210.267C145.394 210.26 145.479 210.523 145.512 210.855C145.545 211.186 145.519 211.46 145.447 211.467C145.374 211.474 145.295 211.211 145.262 210.879C145.229 210.548 145.255 210.274 145.327 210.267Z" fill="#495E4C"/>
<path d="M144.824 205.356C144.985 205.742 145.071 206.155 145.076 206.573C145.159 206.982 145.158 207.405 145.073 207.814C144.912 207.429 144.828 207.015 144.826 206.597C144.743 206.188 144.742 205.766 144.824 205.356Z" fill="#495E4C"/>
<path d="M144.326 200.446C144.487 200.831 144.571 201.245 144.573 201.663C144.657 202.072 144.657 202.494 144.575 202.904C144.411 202.519 144.325 202.106 144.323 201.687C144.24 201.278 144.241 200.855 144.326 200.446Z" fill="#495E4C"/>
<path d="M143.824 195.536C143.988 195.92 144.073 196.334 144.076 196.752C144.159 197.162 144.158 197.584 144.073 197.994C143.912 197.608 143.828 197.195 143.826 196.777C143.742 196.368 143.742 195.946 143.824 195.536Z" fill="#495E4C"/>
<path d="M143.325 190.625C143.486 191.01 143.57 191.424 143.572 191.842C143.655 192.251 143.656 192.673 143.574 193.083C143.412 192.697 143.327 192.284 143.322 191.866C143.239 191.457 143.24 191.034 143.325 190.625Z" fill="#495E4C"/>
<path d="M143.869 187.754C143.872 187.783 143.721 187.73 143.534 187.613C143.424 187.544 143.317 187.469 143.216 187.387L143.041 187.235L142.949 187.147L142.906 187.103L142.904 187.079L143.123 186.984C143.205 187.385 143.203 187.798 143.117 188.197C142.934 187.815 142.833 187.399 142.821 186.976L143.039 186.881L143.042 186.905L143.085 186.949L143.166 187.033L143.322 187.188L143.596 187.451C143.793 187.626 143.866 187.73 143.869 187.754Z" fill="#495E4C"/>
<path d="M148.303 189.092C147.516 189.285 146.686 189.175 145.977 188.785C146.369 188.773 146.762 188.814 147.144 188.906C147.537 188.918 147.926 188.98 148.303 189.092Z" fill="#495E4C"/>
<path d="M152.757 187.713C152.801 187.766 152.385 188.118 151.776 188.392C151.424 188.59 151.026 188.695 150.622 188.696C150.614 188.619 151.081 188.427 151.671 188.165C152.011 187.966 152.376 187.814 152.757 187.713Z" fill="#495E4C"/>
<path d="M155.549 184.026C155.549 184.434 155.432 184.832 155.212 185.175C154.911 185.767 154.528 186.16 154.48 186.116C154.432 186.072 154.702 185.609 154.986 185.057C155.271 184.505 155.479 184.004 155.549 184.026Z" fill="#495E4C"/>
<path d="M155.762 179.385C155.958 179.737 156.056 180.136 156.046 180.539C156.121 180.937 156.087 181.348 155.946 181.728C155.84 181.348 155.789 180.954 155.796 180.559C155.726 180.172 155.715 179.776 155.762 179.385Z" fill="#495E4C"/>
<path d="M153.455 175.362C153.498 175.309 153.965 175.612 154.375 176.124C154.668 176.405 154.873 176.765 154.964 177.161C154.904 177.196 154.6 176.77 154.186 176.269C153.772 175.767 153.407 175.415 153.455 175.362Z" fill="#495E4C"/>
<path d="M149.235 173.396C149.636 173.333 150.046 173.382 150.42 173.54C151.055 173.729 151.515 174.017 151.483 174.079C151.092 174.031 150.71 173.93 150.346 173.78C149.961 173.701 149.587 173.572 149.235 173.396Z" fill="#495E4C"/>
<path d="M144.614 173.977C144.917 173.703 145.291 173.523 145.694 173.457C146.071 173.31 146.482 173.269 146.881 173.339C146.523 173.505 146.144 173.621 145.755 173.684C145.388 173.826 145.005 173.924 144.614 173.977Z" fill="#495E4C"/>
<path d="M141.825 175.064C141.988 175.439 142.071 175.844 142.07 176.252L141.832 176.203L141.829 176.179L141.863 176.123L141.93 176.019L142.072 175.835C142.152 175.731 142.242 175.635 142.339 175.547C142.499 175.395 142.618 175.325 142.644 175.347C142.671 175.368 142.595 175.487 142.472 175.664C142.349 175.841 142.319 175.883 142.255 175.972L142.133 176.159L142.075 176.257L142.046 176.308L142.048 176.332L141.811 176.288C141.733 175.883 141.738 175.467 141.825 175.064Z" fill="#495E4C"/>
<path d="M141.294 169.73C141.548 170.594 141.638 171.498 141.559 172.395C141.305 171.531 141.215 170.627 141.294 169.73Z" fill="#495E4C"/>
<path d="M140.763 164.391C141.017 165.254 141.107 166.158 141.028 167.055C140.774 166.191 140.684 165.288 140.763 164.391Z" fill="#495E4C"/>
<path d="M140.233 159.061C140.487 159.925 140.577 160.829 140.498 161.726C140.244 160.862 140.154 159.958 140.233 159.061Z" fill="#495E4C"/>
<path d="M138.646 155.302C139.023 155.145 139.427 155.065 139.836 155.067L139.973 155.18L139.996 155.405C140.003 155.477 140.01 155.554 140.018 155.631C140.026 155.708 140.045 155.905 140.056 156.015C140.054 156.234 140.034 156.371 140 156.375C139.966 156.378 139.919 156.247 139.878 156.033C139.868 155.922 139.855 155.793 139.811 155.652L139.767 155.2L139.904 155.313C139.489 155.4 139.059 155.396 138.646 155.302Z" fill="#495E4C"/>
<path d="M134.298 155.705C134.633 155.547 135.001 155.469 135.372 155.477C135.736 155.404 136.112 155.413 136.472 155.503C136.134 155.656 135.767 155.733 135.397 155.727C135.033 155.799 134.658 155.792 134.298 155.705Z" fill="#495E4C"/>
<path d="M129.946 156.104C130.646 155.87 131.39 155.796 132.123 155.888C131.786 156.046 131.417 156.124 131.044 156.116C130.682 156.193 130.307 156.189 129.946 156.104Z" fill="#495E4C"/>
<path d="M125.598 156.507C125.934 156.349 126.302 156.271 126.673 156.279C127.036 156.203 127.412 156.212 127.772 156.306C127.435 156.458 127.068 156.535 126.697 156.529C126.334 156.602 125.959 156.594 125.598 156.507Z" fill="#495E4C"/>
<path d="M123.109 157.633C123.08 157.636 122.963 157.585 122.79 157.452C122.701 157.388 122.601 157.306 122.494 157.214L122.329 157.066L122.244 156.987L122.197 156.953C122.144 157.152 122.276 156.674 122.261 156.724C122.663 156.647 123.076 156.652 123.476 156.739C123.1 156.898 122.695 156.978 122.286 156.973C122.291 157.021 122.404 156.545 122.346 156.749L122.349 156.773L122.396 156.812L122.487 156.895L122.649 157.058C122.752 157.165 122.844 157.262 122.915 157.347C123.056 157.493 123.135 157.606 123.109 157.633Z" fill="#495E4C"/>
<path d="M125.117 161.772C124.943 161.423 124.815 161.053 124.735 160.671C124.581 160.312 124.477 159.935 124.425 159.548C124.705 159.839 124.896 160.203 124.976 160.599C125.135 160.968 125.184 161.376 125.117 161.772Z" fill="#495E4C"/>
<path d="M124.46 166.333C124.629 165.573 124.853 164.826 125.131 164.099C125.18 164.899 124.942 165.691 124.46 166.333Z" fill="#495E4C"/>
<path d="M121.373 169.753C121.338 169.689 121.759 169.385 122.267 168.981C122.775 168.576 123.133 168.22 123.167 168.27C123.201 168.32 122.917 168.78 122.408 169.175C122.124 169.462 121.766 169.662 121.373 169.753Z" fill="#495E4C"/>
<path d="M116.903 170.881C117.273 170.751 117.666 170.697 118.057 170.723C118.436 170.614 118.835 170.59 119.225 170.65C118.871 170.834 118.484 170.944 118.087 170.972C117.69 171.026 117.287 170.995 116.903 170.881Z" fill="#495E4C"/>
<path d="M112.562 169.339C112.605 169.282 113.068 169.551 113.584 169.854C114.099 170.156 114.606 170.368 114.612 170.435C114.208 170.42 113.817 170.29 113.483 170.062C112.91 169.765 112.519 169.392 112.562 169.339Z" fill="#495E4C"/>
<path d="M109.811 165.647C110.051 165.953 110.248 166.291 110.397 166.65C110.614 166.974 110.788 167.326 110.913 167.695C110.859 167.739 110.486 167.35 110.175 166.769C109.948 166.438 109.822 166.048 109.811 165.647Z" fill="#495E4C"/>
<path d="M109.581 161.045C109.61 161.434 109.585 161.824 109.508 162.206C109.511 162.596 109.46 162.985 109.356 163.361C109.147 162.587 109.228 161.764 109.581 161.045Z" fill="#495E4C"/>
<path d="M109.961 158.034C110.337 157.874 110.741 157.791 111.15 157.79C111.198 157.882 111.042 157.587 111.263 157.997L111.224 158.044L111.15 158.134L111.018 158.317L110.78 158.612C110.641 158.776 110.534 158.869 110.508 158.853C110.482 158.836 110.528 158.705 110.635 158.515C110.688 158.418 110.754 158.3 110.829 158.176L110.956 157.984C110.977 157.949 111.001 157.916 111.028 157.885L111.067 157.837C111.288 158.247 111.127 157.952 111.175 158.04C110.774 158.122 110.361 158.12 109.961 158.034Z" fill="#495E4C"/>
<path d="M105.795 158.449C105.788 158.381 106.052 158.297 106.383 158.264C106.715 158.231 106.99 158.262 106.997 158.329C107.003 158.396 106.74 158.481 106.408 158.514C106.077 158.547 105.802 158.521 105.795 158.449Z" fill="#495E4C"/>
<path d="M145.66 211.319L145.314 211.354L144.31 211.453L140.465 211.836L126.514 213.326L126.427 213.334L126.419 213.248C125.547 209.364 124.517 204.962 123.309 200.238C122.883 197.807 121.257 195.763 119.579 193.821C117.798 191.829 115.915 189.932 113.937 188.137C111.312 185.707 108.668 183.429 106.16 181.196C104.913 180.074 103.686 178.969 102.553 177.821C101.993 177.254 101.474 176.647 100.999 176.007C100.52 175.386 100.077 174.746 99.6506 174.115C98.0788 171.721 96.7095 169.201 95.5569 166.58C94.5575 164.36 93.7138 162.074 93.0318 159.737L93.0217 159.636L93.1227 159.626L102.171 158.765L104.577 158.55L105.206 158.487L105.418 158.466L105.206 158.487L104.577 158.55L102.174 158.789L93.1327 159.727L93.2044 159.618C93.887 161.936 94.7257 164.205 95.7146 166.409C96.8731 169.015 98.2458 171.52 99.8185 173.899C100.24 174.531 100.682 175.166 101.161 175.783C101.633 176.413 102.149 177.009 102.703 177.569C103.825 178.703 105.051 179.803 106.302 180.92C108.811 183.153 111.459 185.426 114.084 187.865C116.073 189.686 117.962 191.612 119.745 193.634C120.601 194.6 121.388 195.625 122.098 196.702C122.441 197.236 122.738 197.799 122.984 198.384C123.207 198.965 123.386 199.561 123.521 200.168C124.719 204.898 125.725 209.302 126.594 213.201L126.484 213.12L140.454 211.774L144.302 211.42L145.306 211.32C145.544 211.321 145.66 211.319 145.66 211.319Z" fill="#495E4C"/>
<path d="M144.397 211.446C144.39 211.374 144.654 211.294 144.985 211.261C145.317 211.228 145.591 211.254 145.598 211.326C145.606 211.398 145.342 211.478 145.01 211.511C144.678 211.544 144.404 211.513 144.397 211.446Z" fill="#495E4C"/>
<path d="M139.61 211.922C140.386 211.675 141.204 211.594 142.013 211.683C141.238 211.929 140.419 212.011 139.61 211.922Z" fill="#495E4C"/>
<path d="M134.817 212.399C135.593 212.152 136.412 212.07 137.22 212.16C136.445 212.406 135.626 212.488 134.817 212.399Z" fill="#495E4C"/>
<path d="M130.031 212.875C130.806 212.628 131.625 212.547 132.434 212.636C131.658 212.882 130.839 212.964 130.031 212.875Z" fill="#495E4C"/>
<path d="M126.169 212.056C126.203 212.053 126.264 212.173 126.337 212.379C126.348 212.489 126.409 212.61 126.447 212.751C126.486 212.893 126.487 212.902 126.503 212.969L126.515 213.089L126.521 213.151L126.526 213.204C126.464 213.162 126.658 213.307 126.39 213.106C126.791 213.024 127.204 213.025 127.604 213.111C127.228 213.272 126.824 213.355 126.415 213.356C126.39 213.101 126.246 213.314 126.279 213.253L126.267 213.138L126.255 213.018L126.233 212.797C126.219 212.653 126.206 212.523 126.195 212.413C126.135 212.2 126.136 212.064 126.169 212.056Z" fill="#495E4C"/>
<path d="M125.042 207.169C125.397 207.935 125.59 208.766 125.61 209.61C125.261 208.842 125.068 208.012 125.042 207.169Z" fill="#495E4C"/>
<path d="M123.869 202.306C124.088 202.669 124.23 203.072 124.288 203.491C124.427 203.892 124.487 204.316 124.466 204.739C124.108 203.976 123.905 203.149 123.869 202.306Z" fill="#495E4C"/>
<path d="M122.385 197.537C122.691 197.84 122.912 198.218 123.028 198.632C123.204 199.022 123.283 199.448 123.258 199.874C123.177 199.883 123.022 199.35 122.794 198.718C122.608 198.343 122.471 197.947 122.385 197.537Z" fill="#495E4C"/>
<path d="M119.412 193.518C119.763 193.753 120.066 194.052 120.306 194.399C120.606 194.697 120.843 195.053 121.002 195.445C120.948 195.489 120.549 195.093 120.108 194.564C119.809 194.266 119.572 193.91 119.412 193.518Z" fill="#495E4C"/>
<path d="M115.933 189.912C115.982 189.864 116.42 190.223 116.911 190.712C117.238 190.982 117.51 191.312 117.711 191.685C117.658 191.734 117.224 191.374 116.734 190.89C116.405 190.62 116.133 190.288 115.933 189.912Z" fill="#495E4C"/>
<path d="M112.265 186.501C112.309 186.453 112.778 186.784 113.272 187.254C113.611 187.509 113.897 187.828 114.113 188.194C114.065 188.247 113.599 187.91 113.101 187.441C112.603 186.972 112.202 186.556 112.265 186.501Z" fill="#495E4C"/>
<path d="M108.517 183.173C108.56 183.12 109.03 183.447 109.561 183.908C109.905 184.157 110.196 184.471 110.42 184.831C110.371 184.88 109.907 184.553 109.376 184.096C108.845 183.64 108.474 183.226 108.517 183.173Z" fill="#495E4C"/>
<path d="M104.773 179.841C104.816 179.788 105.286 180.12 105.789 180.584C106.127 180.838 106.415 181.153 106.638 181.513C106.59 181.566 106.125 181.234 105.618 180.771C105.111 180.307 104.744 179.888 104.773 179.841Z" fill="#495E4C"/>
<path d="M102.103 177.251C102.152 177.203 102.381 177.359 102.623 177.597C102.865 177.835 102.997 178.045 102.951 178.117C102.905 178.19 102.673 178.009 102.431 177.771C102.189 177.533 102.059 177.299 102.103 177.251Z" fill="#495E4C"/>
</g>
<defs>
<clipPath id="clip0_86_2007">
<rect width="279" height="246" fill="white" transform="translate(0 27.621) rotate(-5.68159)"/>
</clipPath>
</defs>
</svg>
