<svg width="280" height="301" viewBox="0 0 280 301" fill="none" xmlns="http://www.w3.org/2000/svg">
<g opacity="0.5" clip-path="url(#clip0_86_2387)">
<path d="M224.357 63.3117L261.467 71.6217C263.067 71.9781 264.579 72.6496 265.915 73.5969C267.252 74.5441 268.386 75.7482 269.252 77.1385C270.117 78.5288 270.697 80.0775 270.956 81.694C271.215 83.3104 271.149 84.9622 270.762 86.5525L256.884 143.533C256.149 146.539 254.309 149.158 251.729 150.87C249.15 152.582 246.02 153.261 242.961 152.773C241.935 152.608 240.884 152.839 240.024 153.421C239.163 154.002 238.557 154.889 238.328 155.902L210.845 276.781C209.946 280.738 207.517 284.179 204.087 286.351C200.657 288.524 196.505 289.251 192.538 288.375L50.7051 256.988C50.1766 256.871 49.6765 256.651 49.2336 256.34C48.7908 256.029 48.414 255.634 48.1251 255.177C47.8362 254.719 47.6409 254.209 47.5506 253.676C47.4603 253.143 47.4767 252.598 47.5989 252.071L97.0413 42.7407C97.2841 41.7136 97.9145 40.82 98.801 40.2463C99.6875 39.6727 100.762 39.4633 101.799 39.6618L224.357 63.3117Z" fill="#5CCD6A"/>
<g opacity="0.3">
<path d="M48.5423 248.093L47.603 252.056L202.27 278.633L255.039 70.1608C255.039 70.1608 216.935 65.8972 216.24 65.7112C215.546 65.5252 48.5423 248.093 48.5423 248.093Z" fill="black"/>
</g>
<path d="M208.234 47.0414L252.753 56.1114L199.594 272.598L41.2227 246.907L75.8998 26.6777L208.234 47.0414Z" fill="#EBEBEB"/>
<path d="M208.234 47.0414L205.872 46.7026L199 45.6781L172.634 41.6683L75.8766 26.8266L76.0491 26.7013C66.7794 85.7085 54.7266 162.365 41.4234 246.953L41.2568 246.721L76.7525 252.482L199.651 272.417L199.432 272.563C222.686 177.907 241.792 100.256 252.662 56.0869L252.737 56.2049L219.617 49.3889L211.094 47.6281C209.189 47.2319 208.225 47.0145 208.225 47.0145C208.225 47.0145 209.199 47.1938 211.108 47.5747L219.643 49.2898L252.784 55.9971L252.883 56.0237L252.857 56.1228C242.018 100.325 222.989 177.996 199.751 272.624L199.704 272.799L199.529 272.752L76.6885 252.874L41.1928 247.112L40.9945 247.059L41.0476 246.86C54.3792 162.288 66.4625 85.64 75.7725 26.6353L75.8113 26.4905L75.9562 26.5293L172.683 41.4854L199.034 45.5811L205.9 46.6609C207.435 46.9417 208.234 47.0414 208.234 47.0414Z" fill="#495E4C"/>
<path d="M70.1563 17.4767L32.9764 239.723L198.517 267.8L233.246 45.0602L70.1563 17.4767Z" fill="white"/>
<path d="M70.148 17.5072L233.277 44.8809L233.437 44.9238L233.394 45.0838C223.654 107.616 211.655 184.655 198.706 267.827L198.653 268.025L198.455 267.972L197.28 267.779L32.9426 239.91L32.7671 239.863L32.8141 239.688C54.9096 108.128 69.8922 19.0723 70.148 17.5072C69.8779 19.1256 55.0423 108.212 33.1477 239.786L32.9999 239.574L197.374 267.429L198.547 267.629L198.306 267.793C211.3 184.576 223.318 107.559 233.081 45.0325L233.218 45.2244L70.148 17.5072Z" fill="#495E4C"/>
<path d="M150.649 225.767C151.92 221.066 154.558 216.849 158.228 213.647C161.899 210.446 166.438 208.405 171.271 207.782C176.105 207.158 181.015 207.982 185.381 210.147C189.748 212.312 193.374 215.722 195.802 219.945C198.23 224.169 199.35 229.016 199.02 233.874C198.691 238.732 196.927 243.383 193.951 247.238C190.976 251.093 186.922 253.979 182.304 255.531C177.685 257.084 172.709 257.233 168.004 255.959C161.701 254.246 156.334 250.106 153.08 244.445C149.826 238.785 148.952 232.068 150.649 225.767ZM197.782 238.51C199.031 233.896 198.883 229.015 197.355 224.484C195.828 219.953 192.99 215.975 189.201 213.055C185.411 210.134 180.841 208.401 176.067 208.076C171.294 207.75 166.531 208.846 162.383 211.225C158.234 213.604 154.885 217.159 152.759 221.441C150.634 225.723 149.827 230.539 150.442 235.28C151.056 240.021 153.064 244.474 156.211 248.077C159.359 251.679 163.504 254.268 168.123 255.517C174.315 257.185 180.915 256.331 186.475 253.143C192.035 249.954 196.102 244.692 197.782 238.51Z" fill="#E0E0E0"/>
<path d="M153.388 226.5C154.497 222.402 156.798 218.725 160 215.934C163.201 213.144 167.16 211.364 171.374 210.822C175.589 210.279 179.871 210.997 183.678 212.885C187.485 214.773 190.647 217.747 192.764 221.43C194.881 225.112 195.858 229.339 195.571 233.575C195.285 237.812 193.747 241.867 191.153 245.229C188.559 248.591 185.025 251.109 180.998 252.463C176.971 253.818 172.632 253.949 168.529 252.84C163.029 251.347 158.346 247.735 155.507 242.797C152.669 237.858 151.906 231.997 153.388 226.5ZM191.82 236.896C192.766 233.401 192.654 229.704 191.497 226.272C190.34 222.84 188.19 219.827 185.32 217.615C182.449 215.403 178.988 214.091 175.372 213.844C171.756 213.598 168.149 214.428 165.006 216.231C161.864 218.033 159.328 220.726 157.718 223.969C156.109 227.213 155.498 230.861 155.964 234.452C156.43 238.043 157.951 241.416 160.335 244.144C162.719 246.872 165.859 248.833 169.358 249.779C174.045 251.032 179.037 250.38 183.241 247.964C187.445 245.548 190.519 241.565 191.79 236.888L191.82 236.896Z" fill="#E0E0E0"/>
<path d="M158.381 228.189C159.02 225.805 160.215 223.606 161.867 221.772L164.228 223.883C162.906 225.357 161.948 227.12 161.434 229.032C160.843 231.215 160.845 233.517 161.441 235.699C162.037 237.882 163.204 239.867 164.823 241.449C166.442 243.031 168.453 244.153 170.65 244.701C172.847 245.248 175.15 245.2 177.322 244.561L178.218 247.595C175.505 248.392 172.628 248.452 169.883 247.768C167.139 247.084 164.626 245.681 162.605 243.704C160.583 241.726 159.126 239.246 158.384 236.519C157.641 233.792 157.64 230.916 158.381 228.189Z" fill="#E0E0E0"/>
<path d="M170.294 216.809C173.703 216.059 177.265 216.451 180.43 217.924C183.595 219.397 186.187 221.869 187.808 224.959C189.428 228.05 189.986 231.586 189.396 235.023C188.806 238.461 187.1 241.608 184.542 243.98L182.388 241.646C184.435 239.747 185.8 237.228 186.272 234.476C186.744 231.725 186.297 228.894 184.999 226.421C183.702 223.947 181.626 221.969 179.092 220.79C176.558 219.612 173.707 219.299 170.978 219.9L170.294 216.809Z" fill="#E0E0E0"/>
<path d="M214.48 99.7752C214.451 99.8819 183.209 94.6635 144.659 88.1567C106.108 81.6499 74.8749 76.246 74.8958 76.1373C74.9168 76.0286 106.167 81.249 144.727 87.7502C183.287 94.2514 214.503 99.6588 214.48 99.7752Z" fill="#495E4C"/>
<path d="M141.068 78.2747C141.039 78.3814 126.607 76.0336 108.813 73.0218C91.0182 70.0099 76.6123 67.4731 76.6256 67.3623C76.6389 67.2516 91.0862 69.6034 108.881 72.6152C126.675 75.6271 141.079 78.1715 141.068 78.2747Z" fill="#495E4C"/>
<path d="M212.7 108.798C212.672 108.905 181.422 103.684 142.879 97.1795C104.336 90.6748 73.0949 85.2688 73.1159 85.1601C73.1368 85.0514 104.387 90.2718 142.945 96.7806C181.503 103.289 212.731 108.651 212.7 108.798Z" fill="#495E4C"/>
<path d="M210.941 117.745C210.91 117.859 179.662 112.631 141.117 106.134C102.573 99.6369 71.3335 94.2233 71.3565 94.1069C71.3795 93.9906 102.627 99.2186 141.185 105.727C179.743 112.236 210.962 117.636 210.941 117.745Z" fill="#495E4C"/>
<path d="M209.169 126.737C209.14 126.844 177.89 121.623 139.348 115.118C100.805 108.614 69.5638 103.208 69.5786 103.122C69.5935 103.036 100.85 108.234 139.41 114.735C177.97 121.236 209.186 126.643 209.169 126.737Z" fill="#495E4C"/>
<path d="M207.399 135.722C207.371 135.828 176.121 130.608 137.57 124.101C99.02 117.594 67.7941 112.192 67.8074 112.082C67.8208 111.971 99.0784 117.193 137.638 123.695C176.198 130.196 207.413 135.611 207.399 135.722Z" fill="#495E4C"/>
<path d="M205.622 144.704C205.591 144.819 174.351 139.593 135.799 133.093C97.2462 126.594 66.0147 121.183 66.0454 121.068C66.076 120.954 97.3163 126.18 135.874 132.689C174.432 139.198 205.643 144.596 205.622 144.704Z" fill="#495E4C"/>
<path d="M203.85 153.697C203.822 153.803 172.976 148.691 134.967 142.24C96.9577 135.788 66.098 130.484 66.119 130.376C66.1399 130.267 96.9932 135.381 135.043 141.835C173.092 148.289 203.873 153.58 203.85 153.697Z" fill="#495E4C"/>
<path d="M146.845 156.621C146.816 156.728 128.206 153.587 105.277 149.567C82.3479 145.547 63.7458 142.254 63.7667 142.145C63.7877 142.036 82.3981 145.177 105.345 149.161C128.292 153.145 146.86 156.503 146.845 156.621Z" fill="#495E4C"/>
<path d="M105.247 223.678C105.218 223.785 93.9038 221.856 79.9551 219.352C66.0065 216.848 54.7217 214.747 54.737 214.629C54.7524 214.51 66.0801 216.451 80.0288 218.955C93.9774 221.459 105.27 223.562 105.247 223.678Z" fill="#495E4C"/>
<path d="M81.7671 226.413C81.7365 226.527 75.376 225.517 67.5589 224.084C59.7418 222.651 53.3998 221.45 53.4131 221.34C53.4264 221.229 59.8017 222.275 67.6269 223.678C75.4522 225.08 81.7881 226.304 81.7671 226.413Z" fill="#495E4C"/>
<path d="M96.713 163.83C96.6823 163.944 89.19 162.794 79.9415 161.272C70.693 159.749 63.2151 158.424 63.2381 158.307C63.2611 158.191 70.7631 159.335 80.0096 160.865C89.256 162.395 96.7339 163.721 96.713 163.83Z" fill="#5CCD6A"/>
<g opacity="0.3">
<path d="M39.4727 202.174L55.0612 203.288L66.691 193.025L40.9955 194.447L39.4727 202.174Z" fill="black"/>
</g>
<path d="M17.7478 179.257L58.3286 186.12L66.691 193.025L56.7959 199.53L15.4323 193.086L17.7478 179.257Z" fill="#5CCD6A"/>
<path d="M147.164 176.303L147.289 176.385C147.411 176.467 147.522 176.563 147.622 176.67C148.021 177.089 148.353 177.567 148.608 178.086C149.554 180.098 150.14 182.259 150.339 184.472C150.769 187.968 150.427 191.515 149.337 194.863C148.982 195.874 148.527 196.847 147.979 197.767C147.375 198.728 146.694 199.638 145.941 200.488C144.306 202.339 142.358 203.888 140.185 205.064C137.805 206.375 135.199 207.228 132.504 207.58C129.57 207.974 126.584 207.659 123.797 206.66C120.747 205.486 118.052 203.543 115.974 201.021C113.896 198.499 112.506 195.484 111.938 192.267C111.641 190.547 111.631 188.788 111.91 187.065C112.159 185.287 112.809 183.59 113.812 182.102C114.797 180.526 116.27 179.315 118.007 178.651C118.907 178.342 119.867 178.252 120.809 178.388C121.751 178.524 122.647 178.882 123.423 179.433C125.012 180.536 126.165 182.16 126.682 184.023C127.183 185.89 127.265 187.845 126.922 189.748C126.294 193.624 124.715 197.284 122.326 200.401C119.954 203.537 116.806 206.001 113.191 207.551C109.657 209.018 105.786 209.485 102.004 208.899C98.342 208.381 94.9027 206.834 92.0874 204.437C89.4258 202.09 87.5039 199.021 86.5559 195.603C85.6111 192.369 85.6043 188.934 86.5363 185.698C86.9663 184.134 87.6846 182.665 88.6541 181.364C89.5782 180.091 90.8104 179.072 92.2357 178.403C92.9329 178.079 93.6896 177.902 94.4586 177.883C95.2276 177.864 95.9923 178.004 96.7048 178.294C98.0558 178.907 99.1525 179.968 99.8082 181.298C100.448 182.557 100.748 183.961 100.679 185.371C100.586 186.695 100.24 187.988 99.6583 189.181C98.5323 191.378 97.0171 193.352 95.1863 195.008C93.6043 196.529 91.8712 197.884 90.0139 199.054C88.4005 200.069 86.7088 200.954 84.9548 201.701C83.4747 202.309 81.9559 202.819 80.4085 203.227C78.268 203.801 76.0714 204.141 73.8573 204.241C73.0873 204.288 72.3155 204.296 71.5446 204.266C71.5446 204.266 71.7461 204.247 72.1332 204.236C72.5204 204.225 73.0988 204.233 73.8548 204.158C76.057 204.022 78.2392 203.66 80.3669 203.077C81.901 202.653 83.4063 202.132 84.8735 201.515C86.6102 200.763 88.2841 199.873 89.8793 198.854C91.72 197.708 93.4403 196.379 95.0139 194.888C96.8099 193.243 98.2968 191.29 99.4045 189.121C99.9753 187.953 100.315 186.685 100.405 185.387C100.469 184.034 100.176 182.687 99.5542 181.483C98.9276 180.224 97.8863 179.218 96.6053 178.635C95.9349 178.366 95.2162 178.238 94.4942 178.26C93.7723 178.281 93.0627 178.452 92.4098 178.76C91.0383 179.408 89.8525 180.391 88.9621 181.618C88.0264 182.879 87.3343 184.303 86.9212 185.817C86.02 188.996 86.0385 192.366 86.9746 195.536C87.9171 198.873 89.8029 201.869 92.4061 204.163C95.1708 206.498 98.5376 208.009 102.121 208.522C105.836 209.092 109.636 208.633 113.106 207.194C116.653 205.661 119.737 203.23 122.053 200.14C124.396 197.073 125.949 193.478 126.575 189.671C126.899 187.826 126.821 185.933 126.345 184.12C125.852 182.352 124.759 180.809 123.255 179.755C122.518 179.243 121.675 178.906 120.788 178.768C119.913 178.651 119.023 178.737 118.187 179.018C116.531 179.651 115.128 180.807 114.19 182.309C113.214 183.749 112.583 185.393 112.346 187.116C112.053 188.789 112.045 190.499 112.323 192.174C112.879 195.327 114.238 198.284 116.27 200.76C118.302 203.236 120.938 205.148 123.924 206.31C126.66 207.293 129.59 207.611 132.473 207.237C135.133 206.895 137.705 206.061 140.058 204.777C143.199 203.08 145.848 200.602 147.75 197.583C148.295 196.688 148.744 195.738 149.09 194.748C150.201 191.425 150.568 187.899 150.165 184.418C149.985 182.218 149.427 180.066 148.518 178.054C148.275 177.537 147.961 177.057 147.584 176.628C147.331 176.413 147.15 176.323 147.164 176.303Z" fill="#495E4C"/>
<path d="M187.922 72.9568C187.922 72.9568 187.956 72.8272 187.968 72.569C187.98 72.3109 188.057 71.9313 188.128 71.4521C188.279 70.4632 188.504 69.0124 188.786 67.1358L191.288 50.9631L191.389 51.1045L106.674 37.7008L106.907 37.5344C105.706 45.0704 104.553 52.4234 103.407 59.5086L103.24 59.2761L163.654 68.9866L181.442 71.8739L186.235 72.6601L187.479 72.8708L187.906 72.9852L187.495 72.9323L186.268 72.7506L181.508 72.0224L163.746 69.2561L103.189 59.6791L102.991 59.6259L103.042 59.4354C104.117 52.372 105.333 44.9951 106.527 37.4571L106.58 37.259L106.779 37.3121L191.44 50.824L191.562 50.8567L191.531 50.9711C190.395 57.9282 189.501 63.431 188.883 67.2025C188.572 69.0633 188.336 70.4948 188.17 71.4796C188.091 71.9567 188.028 72.3155 187.983 72.5731C187.939 72.8308 187.922 72.9568 187.922 72.9568Z" fill="#455A64"/>
<path d="M108.609 53.5034L110.138 44.4498L114.69 45.2188C115.785 45.4037 116.543 45.7756 116.963 46.3343C117.384 46.8844 117.508 47.6767 117.333 48.7114C117.158 49.7461 116.781 50.4584 116.201 50.8481C115.622 51.2293 114.785 51.3274 113.69 51.1424L110.702 50.6378L110.173 53.7677L108.609 53.5034ZM110.951 49.1633L113.848 49.6527C114.426 49.7503 114.868 49.7052 115.175 49.5176C115.483 49.3213 115.681 48.9645 115.768 48.4471C115.857 47.9211 115.787 47.5192 115.559 47.2412C115.34 46.9647 114.937 46.777 114.351 46.6779L111.454 46.1886L110.951 49.1633Z" fill="#78C081"/>
<path d="M119.767 55.5079C118.888 55.3594 118.269 55.0863 117.91 54.6888C117.553 54.2826 117.435 53.7216 117.556 53.006C117.681 52.2644 117.994 51.7763 118.495 51.5417C119.006 51.2998 119.77 51.2648 120.788 51.4367L122.948 51.8015C123.021 51.264 122.935 50.8505 122.691 50.561C122.458 50.2643 122.039 50.065 121.436 49.9631C120.944 49.8801 120.551 49.8979 120.256 50.0166C119.962 50.1267 119.743 50.3512 119.597 50.6901L118.135 50.4433C118.391 49.6618 118.8 49.1322 119.361 48.8545C119.924 48.5682 120.706 48.5095 121.706 48.6785C122.827 48.8678 123.599 49.2332 124.021 49.7747C124.453 50.3176 124.584 51.0934 124.413 52.1023L123.745 56.06L122.27 55.811L122.399 55.0479C121.8 55.5497 120.923 55.7031 119.767 55.5079ZM119.026 53.2011C118.933 53.7529 119.369 54.1104 120.335 54.2735C120.999 54.3857 121.519 54.3494 121.896 54.1648C122.274 53.9802 122.549 53.6365 122.722 53.1337L122.762 52.9009L120.99 52.6016C119.783 52.3977 119.128 52.5975 119.026 53.2011Z" fill="#78C081"/>
<path d="M125.472 54.1968L126.934 54.4436C127.012 55.0864 127.568 55.4952 128.602 55.6699C129.637 55.8447 130.193 55.7036 130.27 55.2466C130.339 54.8414 129.775 54.4491 128.58 54.0698C127.543 53.7527 126.83 53.4019 126.443 53.0172C126.066 52.6253 125.931 52.1104 126.039 51.4723C126.154 50.7911 126.468 50.3253 126.98 50.0748C127.501 49.8258 128.257 49.7851 129.249 49.9525C130.258 50.1229 130.987 50.4279 131.436 50.8673C131.885 51.3068 132.1 51.9197 132.083 52.706L130.621 52.4591C130.582 52.1155 130.431 51.8506 130.17 51.6646C129.919 51.4714 129.53 51.3304 129.005 51.2415C128.056 51.0813 127.545 51.2168 127.473 51.6479C127.436 51.8635 127.545 52.0592 127.799 52.2352C128.063 52.404 128.485 52.5817 129.066 52.7684C130.168 53.123 130.909 53.4876 131.289 53.8623C131.679 54.2297 131.821 54.7281 131.715 55.3576C131.597 56.056 131.267 56.5412 130.724 56.8132C130.181 57.0851 129.388 57.133 128.345 56.9568C127.328 56.7849 126.59 56.4785 126.133 56.0376C125.683 55.5982 125.463 54.9846 125.472 54.1968Z" fill="#78C081"/>
<path d="M135.787 58.2138C134.615 58.0157 133.808 57.5956 133.366 56.9535C132.925 56.3114 132.807 55.3824 133.012 54.1666C133.218 52.9509 133.634 52.1122 134.262 51.6507C134.89 51.1891 135.79 51.0574 136.963 51.2554C138.006 51.4317 138.755 51.7754 139.21 52.2868C139.664 52.7981 139.874 53.5253 139.839 54.4683L138.377 54.2214C138.358 53.757 138.219 53.4009 137.959 53.1531C137.699 52.9053 137.298 52.7355 136.755 52.6437C136.082 52.5301 135.567 52.616 135.208 52.9013C134.851 53.178 134.61 53.6828 134.487 54.4157C134.363 55.1486 134.423 55.7087 134.668 56.0959C134.915 56.4745 135.374 56.7207 136.047 56.8343C136.582 56.9246 137.012 56.8953 137.339 56.7465C137.676 56.5905 137.928 56.3007 138.098 55.877L139.559 56.1238C139.293 57.0189 138.856 57.6368 138.248 57.9776C137.651 58.3113 136.831 58.39 135.787 58.2138Z" fill="#78C081"/>
<path d="M142.793 59.3971C141.913 59.2485 141.294 58.9755 140.936 58.5779C140.579 58.1717 140.461 57.6108 140.582 56.8951C140.707 56.1536 141.02 55.6655 141.521 55.4308C142.032 55.189 142.796 55.154 143.813 55.3258L145.973 55.6907C146.046 55.1532 145.961 54.7397 145.717 54.4502C145.483 54.1535 145.065 53.9542 144.461 53.8523C143.97 53.7692 143.576 53.7871 143.281 53.9058C142.988 54.0158 142.768 54.2403 142.622 54.5793L141.161 54.3324C141.417 53.5509 141.826 53.0213 142.387 52.7437C142.95 52.4574 143.731 52.3987 144.731 52.5676C145.852 52.757 146.624 53.1224 147.047 53.6638C147.479 54.2067 147.609 54.9826 147.439 55.9914L146.77 59.9492L145.296 59.7001L145.425 58.937C144.826 59.4389 143.948 59.5922 142.793 59.3971ZM142.052 57.0903C141.959 57.6421 142.395 57.9996 143.361 58.1627C144.025 58.2748 144.545 58.2386 144.922 58.054C145.299 57.8693 145.574 57.5256 145.748 57.0228L145.787 56.79L144.015 56.4907C142.808 56.2869 142.154 56.4867 142.052 57.0903Z" fill="#78C081"/>
<path d="M148.48 60.238L150.119 50.5377L151.58 50.7845L149.942 60.4849L148.48 60.238Z" fill="#78C081"/>
<path d="M156.071 52.2082L157.726 52.4878L159.773 60.4559L164.323 53.6019L165.978 53.8816L160.388 62.2492L158.603 61.9478L156.071 52.2082Z" fill="#78C081"/>
<path d="M165.334 59.626C165.538 58.4188 165.958 57.5852 166.594 57.1251C167.232 56.6564 168.155 56.524 169.362 56.7279C170.569 56.9318 171.393 57.3548 171.835 57.9969C172.276 58.6391 172.394 59.568 172.189 60.7838C172.173 60.8786 172.139 61.0281 172.086 61.2321L166.771 60.3342C166.72 60.9466 166.827 61.4169 167.091 61.7452C167.364 62.075 167.806 62.2916 168.418 62.3951C169.323 62.548 169.957 62.3402 170.319 61.7717L171.845 62.0295C171.535 62.8195 171.071 63.331 170.455 63.564C169.84 63.7969 169.083 63.8377 168.187 63.6862C166.979 63.4823 166.151 63.0586 165.701 62.415C165.251 61.7714 165.129 60.8417 165.334 59.626ZM166.969 59.2371L170.811 59.8859C170.826 59.3209 170.699 58.8958 170.427 58.6106C170.158 58.3167 169.734 58.121 169.156 58.0234C168.579 57.9259 168.11 57.9709 167.75 58.1584C167.399 58.3474 167.139 58.7069 166.969 59.2371Z" fill="#78C081"/>
<path d="M174.158 57.6576L175.619 57.9045L175.484 58.7064C176.061 58.1743 176.889 57.9993 177.967 58.1813C178.924 58.343 179.582 58.7024 179.94 59.2595C180.308 59.8095 180.403 60.6104 180.226 61.6624L179.579 65.4908L178.117 65.2439L178.764 61.4155C178.86 60.8464 178.788 60.4085 178.547 60.1018C178.315 59.7965 177.901 59.5936 177.306 59.4931C176.634 59.3795 176.119 59.4611 175.762 59.7377C175.413 60.0159 175.176 60.5257 175.051 61.2673L174.483 64.63L173.022 64.3832L174.158 57.6576Z" fill="#78C081"/>
<path d="M184.384 59.3849L186.337 59.7147L186.105 61.0857L184.152 60.7558L183.663 63.653C183.599 64.0324 183.643 64.3236 183.794 64.5266C183.946 64.7297 184.229 64.8661 184.643 64.936L185.523 65.0846L185.291 66.4556L184.373 66.3005C183.467 66.1475 182.838 65.8551 182.486 65.423C182.143 64.9838 182.039 64.3675 182.173 63.5743L182.691 60.509L181.63 60.3298L181.862 58.9589L182.922 59.138L183.171 57.6636L184.633 57.9104L184.384 59.3849Z" fill="#78C081"/>
</g>
<defs>
<clipPath id="clip0_86_2387">
<rect width="221.742" height="252.132" fill="white" transform="translate(65.7795) rotate(15)"/>
</clipPath>
</defs>
</svg>
