<svg width="34" height="34" viewBox="0 0 34 34" fill="none" xmlns="http://www.w3.org/2000/svg">
<rect width="34" height="34" rx="10" fill="white"/>
<g clip-path="url(#clip0_167_62)">
<path d="M8.875 26.6875H25.125C25.5392 26.687 25.9364 26.5222 26.2293 26.2293C26.5222 25.9364 26.687 25.5392 26.6875 25.125V8.875C26.687 8.46075 26.5222 8.06361 26.2293 7.77069C25.9364 7.47778 25.5392 7.313 25.125 7.3125H8.875C8.46075 7.313 8.06361 7.47778 7.77069 7.77069C7.47778 8.06361 7.313 8.46075 7.3125 8.875V25.125C7.313 25.5392 7.47778 25.9364 7.77069 26.2293C8.06361 26.5222 8.46075 26.687 8.875 26.6875ZM7.9375 25.125V8.875C7.93804 8.73578 7.97009 8.5985 8.03125 8.47344L11.1562 11.5984C11.0953 11.7236 11.0633 11.8608 11.0625 12V22C11.0632 22.1393 11.0953 22.2766 11.1562 22.4019L8.03125 25.5269C7.97004 25.4017 7.93799 25.2643 7.9375 25.125ZM25.9688 8.47344C26.0299 8.5985 26.062 8.73578 26.0625 8.875V25.125C26.0618 25.2642 26.0298 25.4015 25.9688 25.5266L22.8438 22.4016C22.9048 22.2765 22.9368 22.1392 22.9375 22V12C22.937 11.8608 22.9049 11.7235 22.8438 11.5984L25.9688 8.47344ZM22.3125 21.0625H17.9375V20.4375H22.3125V21.0625ZM22.3125 19.8125H17.9375V19.1875H22.3125V19.8125ZM22.3125 18.5625H17.9375V17.9375H22.3125V18.5625ZM22.3125 17.3125H17.9375V16.6875H22.3125V17.3125ZM22.3125 16.0625H17.9375V15.4375H22.3125V16.0625ZM22.3125 14.8125H17.9375V14.1875H22.3125V14.8125ZM22.3125 13.5625H17.9375V12.9375H22.3125V13.5625ZM17.9375 21.6875H22.3125V22C22.3125 22.0829 22.2796 22.1624 22.221 22.221C22.1624 22.2796 22.0829 22.3125 22 22.3125H17.9375V21.6875ZM22.3125 12V12.3125H17.9375V11.6875H22C22.0829 11.6875 22.1624 11.7204 22.221 11.779C22.2796 11.8376 22.3125 11.9171 22.3125 12ZM17.3125 22.3125H16.6875V11.6875H17.3125V22.3125ZM11.6875 12.9375H16.0625V13.5625H11.6875V12.9375ZM11.6875 14.1875H16.0625V14.8125H11.6875V14.1875ZM11.6875 15.4375H16.0625V16.0625H11.6875V15.4375ZM11.6875 16.6875H16.0625V17.3125H11.6875V16.6875ZM11.6875 17.9375H16.0625V18.5625H11.6875V17.9375ZM11.6875 19.1875H16.0625V19.8125H11.6875V19.1875ZM11.6875 20.4375H16.0625V21.0625H11.6875V20.4375ZM11.6875 22V21.6875H16.0625V22.3125H12C11.9171 22.3125 11.8376 22.2796 11.779 22.221C11.7204 22.1624 11.6875 22.0829 11.6875 22ZM16.0625 12.3125H11.6875V12C11.6875 11.9171 11.7204 11.8376 11.779 11.779C11.8376 11.7204 11.9171 11.6875 12 11.6875H16.0625V12.3125ZM8.875 26.0625C8.73578 26.062 8.5985 26.0299 8.47344 25.9688L11.5984 22.8438C11.7235 22.9048 11.8608 22.9368 12 22.9375H22C22.1393 22.9368 22.2766 22.9047 22.4019 22.8438L25.5269 25.9688C25.4016 26.0297 25.2643 26.0618 25.125 26.0625H8.875ZM25.125 7.9375C25.2642 7.93804 25.4015 7.97009 25.5266 8.03125L22.4016 11.1562C22.2765 11.0951 22.1392 11.063 22 11.0625H12C11.8608 11.0632 11.7235 11.0952 11.5984 11.1562L8.47344 8.03125C8.59855 7.97023 8.7358 7.93819 8.875 7.9375H25.125Z" fill="#78C081"/>
<path d="M21.0625 23.5625H12.9375C12.6889 23.5625 12.4504 23.6613 12.2746 23.8371C12.0988 24.0129 12 24.2514 12 24.5C12 24.7486 12.0988 24.9871 12.2746 25.1629C12.4504 25.3387 12.6889 25.4375 12.9375 25.4375H21.0625C21.3111 25.4375 21.5496 25.3387 21.7254 25.1629C21.9012 24.9871 22 24.7486 22 24.5C22 24.2514 21.9012 24.0129 21.7254 23.8371C21.5496 23.6613 21.3111 23.5625 21.0625 23.5625ZM21.0625 24.8125H12.9375C12.8546 24.8125 12.7751 24.7796 12.7165 24.721C12.6579 24.6624 12.625 24.5829 12.625 24.5C12.625 24.4171 12.6579 24.3376 12.7165 24.279C12.7751 24.2204 12.8546 24.1875 12.9375 24.1875H21.0625C21.1454 24.1875 21.2249 24.2204 21.2835 24.279C21.3421 24.3376 21.375 24.4171 21.375 24.5C21.375 24.5829 21.3421 24.6624 21.2835 24.721C21.2249 24.7796 21.1454 24.8125 21.0625 24.8125Z" fill="#78C081"/>
<path d="M12.9375 10.4375H21.0625C21.3111 10.4375 21.5496 10.3387 21.7254 10.1629C21.9012 9.9871 22 9.74864 22 9.5C22 9.25136 21.9012 9.0129 21.7254 8.83709C21.5496 8.66127 21.3111 8.5625 21.0625 8.5625H12.9375C12.6889 8.5625 12.4504 8.66127 12.2746 8.83709C12.0988 9.0129 12 9.25136 12 9.5C12 9.74864 12.0988 9.9871 12.2746 10.1629C12.4504 10.3387 12.6889 10.4375 12.9375 10.4375ZM12.9375 9.1875H21.0625C21.1454 9.1875 21.2249 9.22042 21.2835 9.27903C21.3421 9.33763 21.375 9.41712 21.375 9.5C21.375 9.58288 21.3421 9.66237 21.2835 9.72097C21.2249 9.77958 21.1454 9.8125 21.0625 9.8125H12.9375C12.8546 9.8125 12.7751 9.77958 12.7165 9.72097C12.6579 9.66237 12.625 9.58288 12.625 9.5C12.625 9.41712 12.6579 9.33763 12.7165 9.27903C12.7751 9.22042 12.8546 9.1875 12.9375 9.1875Z" fill="#78C081"/>
<path d="M24.5 22C24.7486 22 24.9871 21.9012 25.1629 21.7254C25.3387 21.5496 25.4375 21.3111 25.4375 21.0625V12.9375C25.4375 12.6889 25.3387 12.4504 25.1629 12.2746C24.9871 12.0988 24.7486 12 24.5 12C24.2514 12 24.0129 12.0988 23.8371 12.2746C23.6613 12.4504 23.5625 12.6889 23.5625 12.9375V21.0625C23.5625 21.3111 23.6613 21.5496 23.8371 21.7254C24.0129 21.9012 24.2514 22 24.5 22ZM24.1875 12.9375C24.1875 12.8546 24.2204 12.7751 24.279 12.7165C24.3376 12.6579 24.4171 12.625 24.5 12.625C24.5829 12.625 24.6624 12.6579 24.721 12.7165C24.7796 12.7751 24.8125 12.8546 24.8125 12.9375V21.0625C24.8125 21.1454 24.7796 21.2249 24.721 21.2835C24.6624 21.3421 24.5829 21.375 24.5 21.375C24.4171 21.375 24.3376 21.3421 24.279 21.2835C24.2204 21.2249 24.1875 21.1454 24.1875 21.0625V12.9375Z" fill="#78C081"/>
<path d="M9.5 12C9.25136 12 9.0129 12.0988 8.83709 12.2746C8.66127 12.4504 8.5625 12.6889 8.5625 12.9375V21.0625C8.5625 21.3111 8.66127 21.5496 8.83709 21.7254C9.0129 21.9012 9.25136 22 9.5 22C9.74864 22 9.9871 21.9012 10.1629 21.7254C10.3387 21.5496 10.4375 21.3111 10.4375 21.0625V12.9375C10.4375 12.6889 10.3387 12.4504 10.1629 12.2746C9.9871 12.0988 9.74864 12 9.5 12ZM9.8125 21.0625C9.8125 21.1454 9.77958 21.2249 9.72097 21.2835C9.66237 21.3421 9.58288 21.375 9.5 21.375C9.41712 21.375 9.33763 21.3421 9.27903 21.2835C9.22042 21.2249 9.1875 21.1454 9.1875 21.0625V12.9375C9.1875 12.8546 9.22042 12.7751 9.27903 12.7165C9.33763 12.6579 9.41712 12.625 9.5 12.625C9.58288 12.625 9.66237 12.6579 9.72097 12.7165C9.77958 12.7751 9.8125 12.8546 9.8125 12.9375V21.0625Z" fill="#78C081"/>
</g>
<defs>
<clipPath id="clip0_167_62">
<rect width="20" height="20" fill="white" transform="matrix(-1 0 0 -1 27 27)"/>
</clipPath>
</defs>
</svg>
