<svg width="34" height="34" viewBox="0 0 34 34" fill="none" xmlns="http://www.w3.org/2000/svg">
<rect width="34" height="34" rx="10" fill="white"/>
<g clip-path="url(#clip0_38_1495)">
<path d="M17.9697 11.2906V14.8559C17.9697 15.0082 18.1009 15.1317 18.2627 15.1317H25.4443C25.6061 15.1317 25.7373 15.0082 25.7373 14.8559V11.2906C25.7373 11.1383 25.6061 11.0149 25.4443 11.0149H18.2627C18.1009 11.0149 17.9697 11.1383 17.9697 11.2906ZM18.5557 12.7548H25.1514V13.3917H18.5557V12.7548ZM18.5557 14.5802V13.9432H25.1514V14.5802H18.5557ZM25.1514 11.5664V12.2033H18.5557V11.5664H25.1514Z" fill="#78C081"/>
<path d="M8.55567 11.0149C8.39387 11.0149 8.2627 11.1383 8.2627 11.2906V14.8559C8.2627 15.0082 8.39387 15.1317 8.55567 15.1317H15.7373C15.8991 15.1317 16.0303 15.0082 16.0303 14.8559V11.2906C16.0303 11.1383 15.8991 11.0149 15.7373 11.0149H8.55567ZM8.84863 12.7548H15.4443V13.3917H8.84863V12.7548ZM8.84863 14.5802V13.9432H15.4443V14.5802H8.84863ZM15.4443 11.5664V12.2033H8.84863V11.5664H15.4443Z" fill="#78C081"/>
<path d="M21.0939 24.0384C21.2083 23.9307 21.2083 23.7561 21.0939 23.6485C20.9795 23.5408 20.794 23.5408 20.6796 23.6485L20.3905 23.9205V23.8435C20.3905 23.7188 20.4255 23.6719 20.4952 23.5784C20.5843 23.459 20.7062 23.2954 20.7062 22.9966C20.7062 22.6978 20.5843 22.5343 20.4952 22.4149C20.4255 22.3214 20.3905 22.2745 20.3905 22.1498C20.3905 22.0252 20.4255 21.9783 20.4952 21.8848C20.5843 21.7654 20.7062 21.6018 20.7062 21.3031C20.7062 21.2157 20.6956 21.1403 20.6786 21.0738H23.5538C23.6059 21.1456 23.6322 21.1954 23.6322 21.3031C23.6322 21.4277 23.5972 21.4746 23.5275 21.568C23.4384 21.6874 23.3165 21.851 23.3165 22.1498C23.3165 22.4486 23.4384 22.6122 23.5275 22.7316C23.5972 22.8251 23.6321 22.872 23.6321 22.9966C23.6321 23.1213 23.5971 23.1682 23.5275 23.2617C23.4384 23.3811 23.3165 23.5446 23.3165 23.8435V23.9205L23.0274 23.6485C22.913 23.5408 22.7275 23.5408 22.6131 23.6485C22.5559 23.7023 22.5273 23.7729 22.5273 23.8435C22.5273 23.914 22.5559 23.9846 22.6131 24.0385L23.4023 24.7812C23.5167 24.8889 23.7022 24.8889 23.8166 24.7812L24.6058 24.0384C24.7202 23.9307 24.7202 23.7561 24.6058 23.6485C24.4914 23.5408 24.3059 23.5408 24.1915 23.6485L23.9024 23.9205V23.8435C23.9024 23.7188 23.9374 23.6719 24.0071 23.5784C24.0961 23.459 24.2181 23.2954 24.2181 22.9966C24.2181 22.6978 24.0961 22.5343 24.0071 22.4149C23.9374 22.3214 23.9024 22.2744 23.9024 22.1498C23.9024 22.0252 23.9374 21.9783 24.0071 21.8848C24.0962 21.7654 24.2181 21.6018 24.2181 21.3031C24.2181 21.2158 24.2075 21.1403 24.1905 21.0738H25.918C26.5146 21.0738 27 20.6169 27 20.0554V10.845C27 10.2835 26.5146 9.82666 25.918 9.82666H12.7906C12.6288 9.82666 12.4977 9.95008 12.4977 10.1024C12.4977 10.2547 12.6288 10.3781 12.7906 10.3781H25.918C26.1915 10.3781 26.4141 10.5876 26.4141 10.845V20.0553C26.4141 20.3128 26.1915 20.5222 25.918 20.5222H23.907C23.9042 20.5025 23.9024 20.4813 23.9024 20.4564C23.9024 20.3318 23.9374 20.2849 24.0071 20.1914C24.0639 20.1153 24.1339 20.021 24.1773 19.8854H25.4443C25.6061 19.8854 25.7373 19.762 25.7373 19.6097V16.0444C25.7373 15.8921 25.6061 15.7687 25.4443 15.7687H18.2627C18.1009 15.7687 17.9697 15.8921 17.9697 16.0444V19.6097C17.9697 19.762 18.1009 19.8854 18.2627 19.8854H20.0075C19.9194 20.0039 19.8046 20.1664 19.8046 20.4564C19.8046 20.4792 19.8055 20.501 19.8068 20.5222H18.6828C18.521 20.5222 18.3898 20.6457 18.3898 20.798C18.3898 20.9503 18.521 21.0737 18.6828 21.0737H20.0418C20.0939 21.1456 20.1202 21.1953 20.1202 21.3031C20.1202 21.4276 20.0852 21.4745 20.0155 21.568C19.9265 21.6874 19.8046 21.851 19.8046 22.1497C19.8046 22.4486 19.9265 22.6121 20.0155 22.7316C20.0852 22.825 20.1202 22.872 20.1202 22.9966C20.1202 23.1212 20.0852 23.1681 20.0155 23.2616C19.9265 23.381 19.8046 23.5446 19.8046 23.8434V23.9205L19.5155 23.6484C19.4011 23.5407 19.2156 23.5407 19.1012 23.6484C19.044 23.7023 19.0154 23.7729 19.0154 23.8434C19.0154 23.914 19.044 23.9846 19.1012 24.0384L19.8904 24.7812C20.0048 24.8889 20.1903 24.8889 20.3047 24.7812L21.0939 24.0384ZM25.1514 18.1455H18.5557V17.5086H25.1514V18.1455ZM25.1514 16.3202V16.9571H18.5557V16.3202H25.1514ZM18.5557 19.334V18.697H25.1514V19.334H18.5557ZM20.3905 20.4564C20.3905 20.3318 20.4255 20.2849 20.4952 20.1914C20.552 20.1153 20.622 20.021 20.6654 19.8854H23.5195C23.4313 20.0039 23.3165 20.1664 23.3165 20.4564C23.3165 20.4792 23.3174 20.501 23.3188 20.5222H20.3952C20.3923 20.5025 20.3905 20.4813 20.3905 20.4564Z" fill="#78C081"/>
<path d="M12.9061 23.6485C12.849 23.7023 12.8203 23.7729 12.8203 23.8435C12.8203 23.914 12.8489 23.9846 12.9061 24.0385L13.6953 24.7812C13.8097 24.8889 13.9952 24.8889 14.1096 24.7812L14.8988 24.0385C15.0132 23.9307 15.0132 23.7562 14.8988 23.6485C14.7844 23.5408 14.5989 23.5408 14.4845 23.6485L14.1954 23.9206V23.8435C14.1954 23.7189 14.2304 23.6719 14.3001 23.5784C14.3891 23.459 14.5111 23.2954 14.5111 22.9967C14.5111 22.6979 14.3891 22.5343 14.3001 22.4149C14.2304 22.3214 14.1954 22.2745 14.1954 22.1498C14.1954 22.0252 14.2304 21.9783 14.3001 21.8849C14.3892 21.7654 14.5111 21.6019 14.5111 21.3031C14.5111 21.2158 14.5005 21.1403 14.4836 21.0738H17.3157C17.4775 21.0738 17.6086 20.9504 17.6086 20.7981C17.6086 20.6457 17.4775 20.5223 17.3157 20.5223H14.2C14.1972 20.5026 14.1954 20.4814 14.1954 20.4564C14.1954 20.3319 14.2304 20.285 14.3001 20.1915C14.3569 20.1154 14.4269 20.0211 14.4703 19.8855H15.7374C15.8991 19.8855 16.0303 19.7621 16.0303 19.6098V16.0445C16.0303 15.8922 15.8991 15.7688 15.7374 15.7688H8.55571C8.39392 15.7688 8.26274 15.8922 8.26274 16.0445V19.6098C8.26274 19.7621 8.39392 19.8855 8.55571 19.8855H10.3006C10.2124 20.004 10.0976 20.1665 10.0976 20.4564C10.0976 20.4793 10.0985 20.501 10.0999 20.5223H8.08208C7.80853 20.5223 7.58599 20.3129 7.58599 20.0554V10.845C7.58599 10.5876 7.80853 10.3781 8.08208 10.3781H11.4235C11.5853 10.3781 11.7165 10.2547 11.7165 10.1024C11.7165 9.95008 11.5853 9.82666 11.4235 9.82666H8.08208C7.48544 9.82666 7.00005 10.2835 7.00005 10.845V20.0553C7.00005 20.6169 7.48544 21.0737 8.08208 21.0737H10.3349C10.387 21.1456 10.4133 21.1953 10.4133 21.3031C10.4133 21.4276 10.3783 21.4745 10.3086 21.568C10.2196 21.6874 10.0976 21.851 10.0976 22.1497C10.0976 22.4486 10.2196 22.6121 10.3086 22.7316C10.3783 22.825 10.4133 22.872 10.4133 22.9966C10.4133 23.1212 10.3783 23.1681 10.3086 23.2616C10.2195 23.381 10.0976 23.5446 10.0976 23.8434V23.9205L9.80856 23.6484C9.69415 23.5407 9.50864 23.5407 9.39427 23.6484C9.33708 23.7023 9.30845 23.7729 9.30845 23.8434C9.30845 23.914 9.33704 23.9846 9.39427 24.0384L10.1834 24.7812C10.2979 24.8889 10.4834 24.8889 10.5977 24.7812L11.3869 24.0384C11.5013 23.9307 11.5013 23.7561 11.3869 23.6485C11.2725 23.5408 11.087 23.5408 10.9726 23.6485L10.6836 23.9205V23.8435C10.6836 23.7188 10.7186 23.6719 10.7883 23.5784C10.8773 23.459 10.9992 23.2954 10.9992 22.9966C10.9992 22.6978 10.8773 22.5343 10.7883 22.4149C10.7185 22.3214 10.6836 22.2745 10.6836 22.1498C10.6836 22.0252 10.7186 21.9783 10.7883 21.8848C10.8773 21.7654 10.9992 21.6018 10.9992 21.3031C10.9992 21.2157 10.9886 21.1403 10.9717 21.0738H13.8468C13.8989 21.1456 13.9252 21.1954 13.9252 21.3031C13.9252 21.4277 13.8902 21.4746 13.8205 21.568C13.7315 21.6874 13.6095 21.851 13.6095 22.1498C13.6095 22.4486 13.7315 22.6122 13.8205 22.7316C13.8902 22.8251 13.9252 22.872 13.9252 22.9966C13.9252 23.1213 13.8902 23.1682 13.8205 23.2617C13.7315 23.3811 13.6095 23.5446 13.6095 23.8435V23.9205L13.3204 23.6485C13.2061 23.5408 13.0206 23.5408 12.9061 23.6485ZM15.4444 18.1455H8.84868V17.5086H15.4444V18.1455ZM15.4444 16.3202V16.9571H8.84868V16.3202H15.4444ZM8.84868 19.334V18.697H15.4444V19.334H8.84868ZM10.6836 20.4564C10.6836 20.3318 10.7186 20.2849 10.7883 20.1914C10.845 20.1153 10.915 20.021 10.9584 19.8854H13.8125C13.7243 20.0039 13.6095 20.1664 13.6095 20.4564C13.6095 20.4792 13.6104 20.501 13.6118 20.5222H10.6882C10.6854 20.5025 10.6836 20.4813 10.6836 20.4564Z" fill="#78C081"/>
</g>
<defs>
<clipPath id="clip0_38_1495">
<rect width="16" height="20" fill="white" transform="matrix(0 1 -1 0 27 9)"/>
</clipPath>
</defs>
</svg>
