<svg width="34" height="34" viewBox="0 0 34 34" fill="none" xmlns="http://www.w3.org/2000/svg">
<rect width="34" height="34" rx="10" fill="white"/>
<g clip-path="url(#clip0_86_1841)">
<path d="M25 27H9C7.8959 26.9989 7.00109 26.1041 7 25V9C7.00109 7.8959 7.8959 7.00109 9 7H25C26.1041 7.00109 26.9989 7.8959 27 9V25C26.9989 26.1041 26.1041 26.9989 25 27V27ZM26.3333 9C26.3333 8.26363 25.7364 7.66668 25 7.66668H9C8.26363 7.66668 7.66668 8.26363 7.66668 9V25C7.66668 25.7364 8.26363 26.3333 9 26.3333H25C25.7364 26.3333 26.3333 25.7364 26.3333 25V9Z" fill="#78C081"/>
<path d="M9.50005 23.3334C10.1444 23.3334 10.6667 23.8557 10.6667 24.5001C10.6667 25.1444 10.1444 25.6667 9.50005 25.6667C8.85572 25.6667 8.33337 25.1444 8.33337 24.5001C8.33337 23.8557 8.85572 23.3334 9.50005 23.3334ZM9.50005 25.0001C9.77619 25.0001 10.0001 24.7762 10.0001 24.5001C10.0001 24.2239 9.77619 24.0001 9.50005 24.0001C9.22392 24.0001 9.00005 24.2239 9.00005 24.5001C9.00005 24.7762 9.22392 25.0001 9.50005 25.0001Z" fill="#78C081"/>
<path d="M24.5001 25.6667C23.8557 25.6667 23.3334 25.1444 23.3334 24.5001C23.3334 23.8557 23.8557 23.3334 24.5001 23.3334C25.1444 23.3334 25.6667 23.8557 25.6667 24.5001C25.6667 24.8095 25.5438 25.1062 25.325 25.325C25.1062 25.5438 24.8095 25.6667 24.5001 25.6667ZM24.5001 24.0001C24.2239 24.0001 24.0001 24.2239 24.0001 24.5001C24.0001 24.7762 24.2239 25.0001 24.5001 25.0001C24.7762 25.0001 25.0001 24.7762 25.0001 24.5001C25.0001 24.2239 24.7762 24.0001 24.5001 24.0001Z" fill="#78C081"/>
<path d="M9.50005 10.6667C8.85572 10.6667 8.33337 10.1444 8.33337 9.50007C8.33337 8.85573 8.85572 8.33339 9.50005 8.33339C10.1444 8.33339 10.6667 8.85573 10.6667 9.50007C10.6667 10.1444 10.1444 10.6667 9.50005 10.6667ZM9.50005 9.00007C9.22392 9.00007 9.00005 9.22394 9.00005 9.50007C9.00005 9.7762 9.22392 10.0001 9.50005 10.0001C9.77619 10.0001 10.0001 9.7762 10.0001 9.50007C10.0001 9.22394 9.77619 9.00007 9.50005 9.00007Z" fill="#78C081"/>
<path d="M24.5001 10.6667C23.8557 10.6667 23.3334 10.1444 23.3334 9.50007C23.3334 8.85573 23.8557 8.33339 24.5001 8.33339C25.1444 8.33339 25.6667 8.85573 25.6667 9.50007C25.6667 10.1444 25.1444 10.6667 24.5001 10.6667ZM24.5001 9.00007C24.2239 9.00007 24.0001 9.22394 24.0001 9.50007C24.0001 9.7762 24.2239 10.0001 24.5001 10.0001C24.7762 10.0001 25.0001 9.7762 25.0001 9.50007C25.0001 9.22394 24.7762 9.00007 24.5001 9.00007Z" fill="#78C081"/>
<path d="M24.6496 21.3431L24.0496 22.3431C23.9287 22.5434 23.712 22.6661 23.478 22.6667H10.5219C10.288 22.666 10.0713 22.5433 9.95026 22.3431L9.35026 21.3431C9.22666 21.1371 9.22346 20.8806 9.34178 20.6716C9.4601 20.4626 9.68174 20.3334 9.92194 20.3334H24.078C24.3181 20.3334 24.5398 20.4626 24.6581 20.6716C24.7764 20.8806 24.7732 21.1371 24.6496 21.3431ZM9.92194 21.0001L10.5219 22.0001H23.478L24.078 21.0001H9.92194Z" fill="#78C081"/>
<path d="M24.6496 18.3431L24.0496 19.3431C23.9287 19.5434 23.712 19.6661 23.478 19.6667H10.5219C10.288 19.666 10.0713 19.5433 9.95026 19.3431L9.35026 18.3431C9.22666 18.1371 9.22346 17.8806 9.34178 17.6716C9.4601 17.4626 9.68174 17.3334 9.92194 17.3334H24.078C24.3181 17.3334 24.5398 17.4626 24.6581 17.6716C24.7764 17.8806 24.7732 18.1371 24.6496 18.3431ZM9.92194 18.0001L10.5219 19.0001H23.478L24.078 18.0001H9.92194Z" fill="#78C081"/>
<path d="M24.6496 15.3431L24.0496 16.3431C23.9287 16.5434 23.712 16.6661 23.478 16.6667H10.5219C10.288 16.666 10.0713 16.5433 9.95026 16.3431L9.35026 15.3431C9.22666 15.1371 9.22346 14.8806 9.34178 14.6716C9.4601 14.4626 9.68174 14.3334 9.92194 14.3334H24.078C24.3181 14.3334 24.5398 14.4626 24.6581 14.6716C24.7764 14.8806 24.7732 15.1371 24.6496 15.3431ZM9.92194 15.0001L10.5219 16.0001H23.478L24.078 15.0001H9.92194Z" fill="#78C081"/>
<path d="M24.0493 13.3434C23.9283 13.5435 23.7118 13.666 23.478 13.6667H10.5219C10.288 13.666 10.0713 13.5433 9.95026 13.3431L9.35026 12.3431C9.22666 12.1371 9.22346 11.8806 9.34178 11.6716C9.4601 11.4626 9.68174 11.3334 9.92194 11.3334H24.078C24.3181 11.3334 24.5397 11.4626 24.6581 11.6716C24.7764 11.8806 24.7732 12.1371 24.6496 12.3431L24.0493 13.3434ZM9.92194 12.0001L10.5219 13.0001H23.478L24.078 12.0001H9.92194Z" fill="#78C081"/>
</g>
<defs>
<clipPath id="clip0_86_1841">
<rect width="20" height="20" fill="white" transform="matrix(1 0 0 -1 7 27)"/>
</clipPath>
</defs>
</svg>
