<svg width="34" height="34" viewBox="0 0 34 34" fill="none" xmlns="http://www.w3.org/2000/svg">
<rect width="34" height="34" rx="10" fill="white"/>
<g clip-path="url(#clip0_38_1478)">
<path d="M25.3238 18.6448H8.67636C8.4086 18.6448 8.1518 18.5355 7.96246 18.3409C7.77312 18.1463 7.66675 17.8824 7.66675 17.6072V11.7044C7.66704 11.4293 7.77351 11.1655 7.96279 10.971C8.15206 10.7765 8.40869 10.6671 8.67636 10.6667H25.3238C25.5915 10.6671 25.8481 10.7765 26.0374 10.971C26.2267 11.1655 26.3331 11.4293 26.3334 11.7044V17.6072C26.3334 17.8824 26.227 18.1463 26.0377 18.3409C25.8484 18.5355 25.5916 18.6448 25.3238 18.6448ZM8.67636 11.4046C8.59901 11.4046 8.52482 11.4362 8.47012 11.4924C8.41543 11.5486 8.3847 11.6249 8.3847 11.7044V17.6072C8.3847 17.6867 8.41543 17.7629 8.47012 17.8191C8.52482 17.8754 8.59901 17.9069 8.67636 17.9069H25.3238C25.4012 17.9069 25.4753 17.8754 25.53 17.8191C25.5847 17.7629 25.6155 17.6867 25.6155 17.6072V11.7044C25.6155 11.6249 25.5847 11.5486 25.53 11.4924C25.4753 11.4362 25.4012 11.4046 25.3238 11.4046H8.67636Z" fill="#78C081"/>
<path d="M21.3185 14.1254H12.6807C12.1603 14.1246 11.6614 13.9117 11.2935 13.5334C10.9256 13.1551 10.7186 12.6423 10.718 12.1074V11.0357C10.718 10.9378 10.7558 10.844 10.8232 10.7748C10.8905 10.7056 10.9818 10.6667 11.077 10.6667C11.1722 10.6667 11.2635 10.7056 11.3308 10.7748C11.3981 10.844 11.436 10.9378 11.436 11.0357V12.1074C11.4363 12.4468 11.5677 12.7722 11.8012 13.0122C12.0347 13.2522 12.3514 13.3872 12.6816 13.3876H21.3194C21.6495 13.387 21.9659 13.2519 22.1993 13.0119C22.4326 12.7719 22.5638 12.4467 22.5642 12.1074V11.0357C22.5642 10.9378 22.602 10.844 22.6693 10.7748C22.7366 10.7056 22.8279 10.6667 22.9231 10.6667C23.0184 10.6667 23.1097 10.7056 23.177 10.7748C23.2443 10.844 23.2821 10.9378 23.2821 11.0357V12.1074C23.2815 12.6424 23.0745 13.1554 22.7063 13.5337C22.3382 13.912 21.8391 14.1248 21.3185 14.1254Z" fill="#78C081"/>
<path d="M21.5322 12.7652H12.4681C12.3729 12.7652 12.2816 12.7263 12.2143 12.6571C12.147 12.588 12.1091 12.4941 12.1091 12.3963C12.1091 12.2984 12.147 12.2046 12.2143 12.1354C12.2816 12.0662 12.3729 12.0273 12.4681 12.0273H21.5322C21.6274 12.0273 21.7187 12.0662 21.786 12.1354C21.8534 12.2046 21.8912 12.2984 21.8912 12.3963C21.8912 12.4941 21.8534 12.588 21.786 12.6571C21.7187 12.7263 21.6274 12.7652 21.5322 12.7652Z" fill="#78C081"/>
<path d="M22.8 18.6448C22.7048 18.6448 22.6135 18.606 22.5462 18.5368C22.4788 18.4676 22.441 18.3737 22.441 18.2759V18.1145C22.4407 17.8489 22.3379 17.5942 22.1552 17.4064C21.9724 17.2186 21.7246 17.1129 21.4662 17.1126H12.5356C12.2771 17.1129 12.0293 17.2186 11.8466 17.4064C11.6638 17.5942 11.561 17.8489 11.5607 18.1145V18.2759C11.5607 18.3737 11.5229 18.4676 11.4556 18.5368C11.3883 18.606 11.297 18.6448 11.2017 18.6448C11.1065 18.6448 11.0152 18.606 10.9479 18.5368C10.8806 18.4676 10.8428 18.3737 10.8428 18.2759V18.1145C10.8433 17.6533 11.0218 17.2111 11.3392 16.885C11.6565 16.5589 12.0868 16.3755 12.5356 16.375H21.4673C21.9161 16.3755 22.3464 16.5589 22.6637 16.8851C22.9811 17.2112 23.1596 17.6535 23.1601 18.1147V18.2761C23.1601 18.3247 23.1507 18.3727 23.1326 18.4175C23.1145 18.4623 23.0879 18.503 23.0545 18.5373C23.021 18.5715 22.9813 18.5986 22.9377 18.6171C22.894 18.6355 22.8472 18.645 22.8 18.6448Z" fill="#78C081"/>
<path d="M10.2779 23.1758C10.1827 23.1758 10.0914 23.1369 10.0241 23.0677C9.95677 22.9985 9.91895 22.9047 9.91895 22.8068C9.91895 22.709 9.95677 22.6151 10.0241 22.546C10.0914 22.4768 10.1827 22.4379 10.2779 22.4379C10.9262 22.4369 11.5477 22.1718 12.0061 21.7007C12.4645 21.2296 12.7225 20.5909 12.7234 19.9246C12.7234 19.8267 12.7613 19.7329 12.8286 19.6637C12.8959 19.5945 12.9872 19.5557 13.0824 19.5557C13.1776 19.5557 13.2689 19.5945 13.3362 19.6637C13.4036 19.7329 13.4414 19.8267 13.4414 19.9246C13.4423 21.7169 12.0228 23.1758 10.2779 23.1758Z" fill="#78C081"/>
<path d="M23.7225 23.1758C21.9777 23.1758 20.5591 21.7169 20.5591 19.9246C20.5591 19.8267 20.5969 19.7329 20.6642 19.6637C20.7315 19.5945 20.8229 19.5557 20.9181 19.5557C21.0133 19.5557 21.1046 19.5945 21.1719 19.6637C21.2392 19.7329 21.277 19.8267 21.277 19.9246C21.278 20.5909 21.5359 21.2296 21.9944 21.7007C22.4528 22.1718 23.0742 22.4369 23.7225 22.4379C23.8177 22.4379 23.9091 22.4768 23.9764 22.546C24.0437 22.6151 24.0815 22.709 24.0815 22.8068C24.0815 22.9047 24.0437 22.9985 23.9764 23.0677C23.9091 23.1369 23.8177 23.1758 23.7225 23.1758Z" fill="#78C081"/>
<path d="M17.0001 23.3335C16.9049 23.3335 16.8136 23.2946 16.7463 23.2254C16.6789 23.1562 16.6411 23.0624 16.6411 22.9646V19.7671C16.6411 19.6693 16.6789 19.5754 16.7463 19.5062C16.8136 19.4371 16.9049 19.3982 17.0001 19.3982C17.0953 19.3982 17.1866 19.4371 17.2539 19.5062C17.3212 19.5754 17.3591 19.6693 17.3591 19.7671V22.9646C17.3591 23.0624 17.3212 23.1562 17.2539 23.2254C17.1866 23.2946 17.0953 23.3335 17.0001 23.3335Z" fill="#78C081"/>
</g>
<defs>
<clipPath id="clip0_38_1478">
<rect width="20" height="14" fill="white" transform="translate(7 10)"/>
</clipPath>
</defs>
</svg>
