<svg width="34" height="34" viewBox="0 0 34 34" fill="none" xmlns="http://www.w3.org/2000/svg">
<rect width="34" height="34" rx="10" fill="white"/>
<path d="M26.5868 24.5781H26.3112V23.8637V11.8728V10.3887C26.3112 9.41832 25.5217 8.62887 24.5513 8.62887H24.095C23.9636 8.08555 23.4736 7.68066 22.8904 7.68066H10.9235C10.3404 7.68066 9.85031 8.08555 9.71891 8.62887H9.44867C8.47828 8.62887 7.68883 9.41832 7.68883 10.3887V11.8728V23.8637V24.5781H7.4132C7.18535 24.5781 7 24.7634 7 24.9913V25.906C7 26.1339 7.18535 26.3193 7.4132 26.3193H26.5868C26.8146 26.3193 27 26.1339 27 25.906V24.9913C27 24.7634 26.8146 24.5781 26.5868 24.5781ZM8.27137 10.3887C8.27137 9.73953 8.79949 9.21141 9.44867 9.21141H11.2913C11.4521 9.21141 11.5825 9.08102 11.5825 8.92016C11.5825 8.7593 11.4521 8.62891 11.2913 8.62891H10.3355C10.4431 8.41258 10.6659 8.2632 10.9235 8.2632H22.8904C23.148 8.2632 23.3708 8.41258 23.4784 8.62891H12.5681C12.4072 8.62891 12.2768 8.7593 12.2768 8.92016C12.2768 9.08102 12.4072 9.21141 12.5681 9.21141H24.5513C25.2005 9.21141 25.7286 9.73953 25.7286 10.3887V10.4832H8.27137V10.3887ZM8.27137 12.1641H10.2687C10.672 12.1641 11 12.4921 11 12.8954V22.8411C11 23.2443 10.672 23.5724 10.2687 23.5724H8.27137V12.1641ZM7.58254 25.7367V25.1606H9.03887C9.19973 25.1606 9.33012 25.0302 9.33012 24.8693C9.33012 24.7085 9.19973 24.5781 9.03887 24.5781H8.27137V24.155H10.2687C10.9932 24.155 11.5825 23.5655 11.5825 22.8411V12.8954C11.5825 12.1709 10.9931 11.5815 10.2687 11.5815H8.27137V11.0657H16.7087V14.053C16.7087 14.2138 16.8391 14.3442 17 14.3442C17.1609 14.3442 17.2913 14.2138 17.2913 14.053V11.0657H25.7286V11.5815H23.7313C23.0068 11.5815 22.4175 12.1709 22.4175 12.8954V22.8411C22.4175 23.5655 23.0069 24.155 23.7313 24.155H25.7286V24.5781H17.2913V15.234C17.2913 15.0732 17.1609 14.9428 17 14.9428C16.8391 14.9428 16.7087 15.0732 16.7087 15.234V24.5781H10.2945C10.1336 24.5781 10.0032 24.7085 10.0032 24.8693C10.0032 25.0302 10.1336 25.1606 10.2945 25.1606H26.4175V25.7368L7.58254 25.7367ZM25.7286 12.1641V23.5725H23.7313C23.328 23.5725 23 23.2444 23 22.8411V12.8954C23 12.4921 23.328 12.1641 23.7313 12.1641H25.7286Z" fill="#78C081"/>
<path d="M10.0922 12.6716H8.95653C8.79567 12.6716 8.66528 12.802 8.66528 12.9629C8.66528 13.1237 8.79567 13.2541 8.95653 13.2541H10.0922C10.253 13.2541 10.3834 13.1237 10.3834 12.9629C10.3834 12.802 10.253 12.6716 10.0922 12.6716Z" fill="#78C081"/>
<path d="M10.0922 13.7617H8.95653C8.79567 13.7617 8.66528 13.8921 8.66528 14.053C8.66528 14.2138 8.79567 14.3442 8.95653 14.3442H10.0922C10.253 14.3442 10.3834 14.2138 10.3834 14.053C10.3834 13.8921 10.253 13.7617 10.0922 13.7617Z" fill="#78C081"/>
<path d="M10.0922 14.8518H8.95653C8.79567 14.8518 8.66528 14.9822 8.66528 15.1431C8.66528 15.3039 8.79567 15.4343 8.95653 15.4343H10.0922C10.253 15.4343 10.3834 15.3039 10.3834 15.1431C10.3834 14.9822 10.253 14.8518 10.0922 14.8518Z" fill="#78C081"/>
<path d="M10.0922 15.9419H8.95653C8.79567 15.9419 8.66528 16.0723 8.66528 16.2331C8.66528 16.394 8.79567 16.5244 8.95653 16.5244H10.0922C10.253 16.5244 10.3834 16.394 10.3834 16.2331C10.3834 16.0723 10.253 15.9419 10.0922 15.9419Z" fill="#78C081"/>
<path d="M10.0922 17.032H8.95653C8.79567 17.032 8.66528 17.1624 8.66528 17.3232C8.66528 17.4841 8.79567 17.6145 8.95653 17.6145H10.0922C10.253 17.6145 10.3834 17.4841 10.3834 17.3232C10.3834 17.1624 10.253 17.032 10.0922 17.032Z" fill="#78C081"/>
<path d="M10.0922 18.1221H8.95653C8.79567 18.1221 8.66528 18.2525 8.66528 18.4133C8.66528 18.5742 8.79567 18.7046 8.95653 18.7046H10.0922C10.253 18.7046 10.3834 18.5742 10.3834 18.4133C10.3834 18.2525 10.253 18.1221 10.0922 18.1221Z" fill="#78C081"/>
<path d="M10.0922 19.2122H8.95653C8.79567 19.2122 8.66528 19.3425 8.66528 19.5034C8.66528 19.6643 8.79567 19.7947 8.95653 19.7947H10.0922C10.253 19.7947 10.3834 19.6643 10.3834 19.5034C10.3834 19.3425 10.253 19.2122 10.0922 19.2122Z" fill="#78C081"/>
<path d="M10.0922 20.3022H8.95653C8.79567 20.3022 8.66528 20.4326 8.66528 20.5935C8.66528 20.7544 8.79567 20.8847 8.95653 20.8847H10.0922C10.253 20.8847 10.3834 20.7544 10.3834 20.5935C10.3834 20.4326 10.253 20.3022 10.0922 20.3022Z" fill="#78C081"/>
<path d="M10.0922 21.3923H8.95653C8.79567 21.3923 8.66528 21.5227 8.66528 21.6836C8.66528 21.8444 8.79567 21.9748 8.95653 21.9748H10.0922C10.253 21.9748 10.3834 21.8444 10.3834 21.6836C10.3834 21.5227 10.253 21.3923 10.0922 21.3923Z" fill="#78C081"/>
<path d="M10.0922 22.4824H8.95653C8.79567 22.4824 8.66528 22.6128 8.66528 22.7737C8.66528 22.9345 8.79567 23.0649 8.95653 23.0649H10.0922C10.253 23.065 10.3834 22.9346 10.3834 22.7737C10.3834 22.6129 10.2531 22.4824 10.0922 22.4824Z" fill="#78C081"/>
<path d="M15.7573 12.6716H12.5681C12.4072 12.6716 12.2769 12.802 12.2769 12.9629C12.2768 13.1237 12.4072 13.2541 12.5681 13.2541H15.7573C15.9182 13.2541 16.0486 13.1237 16.0486 12.9629C16.0486 12.802 15.9182 12.6716 15.7573 12.6716Z" fill="#78C081"/>
<path d="M15.7573 11.5815H12.5681C12.4072 11.5815 12.2769 11.7119 12.2769 11.8728C12.2768 12.0337 12.4072 12.164 12.5681 12.164H15.7573C15.9182 12.164 16.0486 12.0337 16.0486 11.8728C16.0486 11.7119 15.9182 11.5815 15.7573 11.5815Z" fill="#78C081"/>
<path d="M15.7573 23.5808H12.5681C12.4072 23.5808 12.2769 23.7112 12.2769 23.8721C12.2769 24.0329 12.4072 24.1633 12.5681 24.1633H15.7573C15.9182 24.1633 16.0486 24.0329 16.0486 23.8721C16.0486 23.7112 15.9182 23.5808 15.7573 23.5808Z" fill="#78C081"/>
<path d="M15.7573 13.7617H12.5681C12.4072 13.7617 12.2769 13.8921 12.2769 14.053C12.2768 14.2138 12.4072 14.3442 12.5681 14.3442H15.7573C15.9182 14.3442 16.0486 14.2138 16.0486 14.053C16.0486 13.8921 15.9182 13.7617 15.7573 13.7617Z" fill="#78C081"/>
<path d="M15.7573 14.8518H12.5681C12.4072 14.8518 12.2769 14.9822 12.2769 15.1431C12.2768 15.3039 12.4072 15.4343 12.5681 15.4343H15.7573C15.9182 15.4343 16.0486 15.3039 16.0486 15.1431C16.0486 14.9822 15.9182 14.8518 15.7573 14.8518Z" fill="#78C081"/>
<path d="M15.7573 15.9419H12.5681C12.4072 15.9419 12.2769 16.0723 12.2769 16.2331C12.2768 16.394 12.4072 16.5244 12.5681 16.5244H15.7573C15.9182 16.5244 16.0486 16.394 16.0486 16.2331C16.0486 16.0722 15.9182 15.9419 15.7573 15.9419Z" fill="#78C081"/>
<path d="M15.7573 17.032H12.5681C12.4072 17.032 12.2769 17.1624 12.2769 17.3232C12.2768 17.4841 12.4072 17.6145 12.5681 17.6145H15.7573C15.9182 17.6145 16.0486 17.4841 16.0486 17.3232C16.0486 17.1624 15.9182 17.032 15.7573 17.032Z" fill="#78C081"/>
<path d="M15.7573 18.1221H12.5681C12.4072 18.1221 12.2769 18.2525 12.2769 18.4133C12.2768 18.5742 12.4072 18.7046 12.5681 18.7046H15.7573C15.9182 18.7046 16.0486 18.5742 16.0486 18.4133C16.0486 18.2524 15.9182 18.1221 15.7573 18.1221Z" fill="#78C081"/>
<path d="M15.7573 19.2122H12.5681C12.4072 19.2122 12.2769 19.3425 12.2769 19.5034C12.2768 19.6643 12.4072 19.7947 12.5681 19.7947H15.7573C15.9182 19.7947 16.0486 19.6643 16.0486 19.5034C16.0486 19.3425 15.9182 19.2122 15.7573 19.2122Z" fill="#78C081"/>
<path d="M15.7573 20.3022H12.5681C12.4072 20.3022 12.2769 20.4326 12.2769 20.5935C12.2768 20.7544 12.4072 20.8847 12.5681 20.8847H15.7573C15.9182 20.8847 16.0486 20.7544 16.0486 20.5935C16.0486 20.4326 15.9182 20.3022 15.7573 20.3022Z" fill="#78C081"/>
<path d="M15.7573 21.3923H12.5681C12.4072 21.3923 12.2769 21.5227 12.2769 21.6836C12.2768 21.8444 12.4072 21.9748 12.5681 21.9748H15.7573C15.9182 21.9748 16.0486 21.8444 16.0486 21.6836C16.0486 21.5227 15.9182 21.3923 15.7573 21.3923Z" fill="#78C081"/>
<path d="M15.7573 22.4824H12.5681C12.4072 22.4824 12.2769 22.6128 12.2769 22.7737C12.2768 22.9345 12.4072 23.0649 12.5681 23.0649H15.7573C15.9182 23.0649 16.0486 22.9345 16.0486 22.7737C16.0486 22.6128 15.9182 22.4824 15.7573 22.4824Z" fill="#78C081"/>
<path d="M25.0436 12.6716H23.908C23.7471 12.6716 23.6167 12.802 23.6167 12.9629C23.6167 13.1237 23.7471 13.2541 23.908 13.2541H25.0436C25.2044 13.2541 25.3348 13.1237 25.3348 12.9629C25.3348 12.802 25.2044 12.6716 25.0436 12.6716Z" fill="#78C081"/>
<path d="M25.0436 13.7617H23.9079C23.7471 13.7617 23.6167 13.8921 23.6167 14.053C23.6167 14.2138 23.7471 14.3442 23.9079 14.3442H25.0436C25.2044 14.3442 25.3348 14.2138 25.3348 14.053C25.3348 13.8921 25.2044 13.7617 25.0436 13.7617Z" fill="#78C081"/>
<path d="M25.0436 14.8518H23.9079C23.7471 14.8518 23.6167 14.9822 23.6167 15.1431C23.6167 15.3039 23.7471 15.4343 23.9079 15.4343H25.0436C25.2044 15.4343 25.3348 15.3039 25.3348 15.1431C25.3348 14.9822 25.2044 14.8518 25.0436 14.8518Z" fill="#78C081"/>
<path d="M25.0436 15.9419H23.9079C23.7471 15.9419 23.6167 16.0723 23.6167 16.2331C23.6167 16.394 23.7471 16.5244 23.9079 16.5244H25.0436C25.2044 16.5244 25.3348 16.394 25.3348 16.2331C25.3348 16.0723 25.2044 15.9419 25.0436 15.9419Z" fill="#78C081"/>
<path d="M25.0436 17.032H23.9079C23.7471 17.032 23.6167 17.1624 23.6167 17.3232C23.6167 17.4841 23.7471 17.6145 23.9079 17.6145H25.0436C25.2044 17.6145 25.3348 17.4841 25.3348 17.3232C25.3348 17.1624 25.2044 17.032 25.0436 17.032Z" fill="#78C081"/>
<path d="M25.0436 18.1221H23.9079C23.7471 18.1221 23.6167 18.2525 23.6167 18.4133C23.6167 18.5742 23.7471 18.7046 23.9079 18.7046H25.0436C25.2044 18.7046 25.3348 18.5742 25.3348 18.4133C25.3348 18.2525 25.2044 18.1221 25.0436 18.1221Z" fill="#78C081"/>
<path d="M25.0436 19.2122H23.9079C23.7471 19.2122 23.6167 19.3425 23.6167 19.5034C23.6167 19.6643 23.7471 19.7947 23.9079 19.7947H25.0436C25.2044 19.7947 25.3348 19.6643 25.3348 19.5034C25.3348 19.3425 25.2044 19.2122 25.0436 19.2122Z" fill="#78C081"/>
<path d="M25.0436 20.3022H23.9079C23.7471 20.3022 23.6167 20.4326 23.6167 20.5935C23.6167 20.7544 23.7471 20.8847 23.9079 20.8847H25.0436C25.2044 20.8847 25.3348 20.7544 25.3348 20.5935C25.3348 20.4326 25.2044 20.3022 25.0436 20.3022Z" fill="#78C081"/>
<path d="M25.0436 21.3923H23.9079C23.7471 21.3923 23.6167 21.5227 23.6167 21.6836C23.6167 21.8444 23.7471 21.9748 23.9079 21.9748H25.0436C25.2044 21.9748 25.3348 21.8444 25.3348 21.6836C25.3348 21.5227 25.2044 21.3923 25.0436 21.3923Z" fill="#78C081"/>
<path d="M25.0436 22.4824H23.9079C23.7471 22.4824 23.6167 22.6128 23.6167 22.7737C23.6167 22.9345 23.7471 23.0649 23.9079 23.0649H25.0436C25.2044 23.0649 25.3348 22.9345 25.3348 22.7737C25.3348 22.6128 25.2044 22.4824 25.0436 22.4824Z" fill="#78C081"/>
<path d="M21.4319 12.6716H18.2038C18.043 12.6716 17.9126 12.802 17.9126 12.9629C17.9126 13.1237 18.043 13.2541 18.2038 13.2541H21.4319C21.5928 13.2541 21.7231 13.1237 21.7231 12.9629C21.7231 12.802 21.5928 12.6716 21.4319 12.6716Z" fill="#78C081"/>
<path d="M21.4319 11.5815H18.2038C18.043 11.5815 17.9126 11.7119 17.9126 11.8728C17.9126 12.0337 18.043 12.164 18.2038 12.164H21.4319C21.5928 12.164 21.7231 12.0337 21.7231 11.8728C21.7231 11.7119 21.5928 11.5815 21.4319 11.5815Z" fill="#78C081"/>
<path d="M21.4319 23.5808H18.2038C18.043 23.5808 17.9126 23.7112 17.9126 23.8721C17.9126 24.0329 18.043 24.1633 18.2038 24.1633H21.4319C21.5928 24.1633 21.7231 24.0329 21.7231 23.8721C21.7231 23.7112 21.5928 23.5808 21.4319 23.5808Z" fill="#78C081"/>
<path d="M21.4319 13.7617H18.2038C18.043 13.7617 17.9126 13.8921 17.9126 14.053C17.9126 14.2138 18.043 14.3442 18.2038 14.3442H21.4319C21.5928 14.3442 21.7231 14.2138 21.7231 14.053C21.7231 13.8921 21.5928 13.7617 21.4319 13.7617Z" fill="#78C081"/>
<path d="M21.4319 14.8518H18.2038C18.043 14.8518 17.9126 14.9822 17.9126 15.1431C17.9126 15.3039 18.043 15.4343 18.2038 15.4343H21.4319C21.5928 15.4343 21.7231 15.3039 21.7231 15.1431C21.7231 14.9822 21.5928 14.8518 21.4319 14.8518Z" fill="#78C081"/>
<path d="M21.4319 15.9419H18.2038C18.043 15.9419 17.9126 16.0723 17.9126 16.2331C17.9126 16.394 18.043 16.5244 18.2038 16.5244H21.4319C21.5928 16.5244 21.7231 16.394 21.7231 16.2331C21.7231 16.0722 21.5928 15.9419 21.4319 15.9419Z" fill="#78C081"/>
<path d="M21.4319 17.032H18.2038C18.043 17.032 17.9126 17.1624 17.9126 17.3232C17.9126 17.4841 18.043 17.6145 18.2038 17.6145H21.4319C21.5928 17.6145 21.7231 17.4841 21.7231 17.3232C21.7231 17.1624 21.5928 17.032 21.4319 17.032Z" fill="#78C081"/>
<path d="M21.4319 18.1221H18.2038C18.043 18.1221 17.9126 18.2525 17.9126 18.4133C17.9126 18.5742 18.043 18.7046 18.2038 18.7046H21.4319C21.5928 18.7046 21.7231 18.5742 21.7231 18.4133C21.7231 18.2525 21.5928 18.1221 21.4319 18.1221Z" fill="#78C081"/>
<path d="M21.4319 19.2122H18.2038C18.043 19.2122 17.9126 19.3425 17.9126 19.5034C17.9126 19.6643 18.043 19.7947 18.2038 19.7947H21.4319C21.5928 19.7947 21.7231 19.6643 21.7231 19.5034C21.7231 19.3425 21.5928 19.2122 21.4319 19.2122Z" fill="#78C081"/>
<path d="M21.4319 20.3022H18.2038C18.043 20.3022 17.9126 20.4326 17.9126 20.5935C17.9126 20.7544 18.043 20.8847 18.2038 20.8847H21.4319C21.5928 20.8847 21.7231 20.7544 21.7231 20.5935C21.7231 20.4326 21.5928 20.3022 21.4319 20.3022Z" fill="#78C081"/>
<path d="M21.4319 21.3923H18.2038C18.043 21.3923 17.9126 21.5227 17.9126 21.6836C17.9126 21.8444 18.043 21.9748 18.2038 21.9748H21.4319C21.5928 21.9748 21.7231 21.8444 21.7231 21.6836C21.7231 21.5227 21.5928 21.3923 21.4319 21.3923Z" fill="#78C081"/>
<path d="M21.4319 22.4824H18.2038C18.043 22.4824 17.9126 22.6128 17.9126 22.7737C17.9126 22.9345 18.043 23.0649 18.2038 23.0649H21.4319C21.5928 23.0649 21.7231 22.9345 21.7231 22.7737C21.7231 22.6128 21.5928 22.4824 21.4319 22.4824Z" fill="#78C081"/>
</svg>
