<svg width="34" height="34" viewBox="0 0 34 34" fill="none" xmlns="http://www.w3.org/2000/svg">
<rect width="34" height="34" rx="10" fill="white"/>
<g clip-path="url(#clip0_38_1486)">
<path fill-rule="evenodd" clip-rule="evenodd" d="M19.0746 18.668C19.0746 18.9909 19.3471 19.2526 19.6833 19.2526H21.3406C21.6767 19.2526 21.9492 18.9909 21.9492 18.668V18.0614C21.9492 17.7385 21.6767 17.4768 21.3406 17.4768H19.6833C19.3471 17.4768 19.0746 17.7385 19.0746 18.0614V18.668ZM19.6833 18.6898C19.6707 18.6898 19.6605 18.68 19.6605 18.668V18.0614C19.6605 18.0494 19.6707 18.0396 19.6833 18.0396H21.3406C21.3531 18.0396 21.3633 18.0494 21.3633 18.0614V18.668C21.3633 18.68 21.3531 18.6898 21.3406 18.6898H19.6833Z" fill="#78C081"/>
<path fill-rule="evenodd" clip-rule="evenodd" d="M22.626 23.52C22.626 23.6754 22.7571 23.8014 22.9189 23.8014H23.2117H23.866C24.2021 23.8014 24.4746 23.5397 24.4746 23.2168V22.0038C24.4746 21.6808 24.2021 21.419 23.866 21.419H23.2117H22.9189C22.7571 21.419 22.626 21.545 22.626 21.7005C22.626 21.8559 22.7571 21.9819 22.9189 21.9819H23.2117H23.866C23.8785 21.9819 23.8887 21.9917 23.8887 22.0038V23.2168C23.8887 23.2288 23.8785 23.2386 23.866 23.2386H23.2117H22.9189C22.7571 23.2386 22.626 23.3646 22.626 23.52Z" fill="#78C081"/>
<path fill-rule="evenodd" clip-rule="evenodd" d="M19.0746 21.094C19.0746 21.4169 19.3471 21.6787 19.6833 21.6787H21.3406C21.6767 21.6787 21.9492 21.4169 21.9492 21.094V20.4875C21.9492 20.1646 21.6767 19.9028 21.3406 19.9028H19.6833C19.3471 19.9028 19.0746 20.1645 19.0746 20.4875V21.094ZM19.6833 21.1158C19.6707 21.1158 19.6605 21.106 19.6605 21.094V20.4875C19.6605 20.4754 19.6707 20.4657 19.6833 20.4657H21.3406C21.3531 20.4657 21.3633 20.4754 21.3633 20.4875V21.094C21.3633 21.106 21.3531 21.1158 21.3406 21.1158H19.6833Z" fill="#78C081"/>
<path fill-rule="evenodd" clip-rule="evenodd" d="M12.0508 25.3395C12.0508 25.7043 12.3587 26 12.7384 26H13.8432C14.223 26 14.5308 25.7043 14.5308 25.3395V24.7869V24.5056C14.5308 24.3501 14.3996 24.2241 14.2378 24.2241C14.076 24.2241 13.9449 24.3501 13.9449 24.5056V24.7869V25.3395C13.9449 25.3934 13.8994 25.4371 13.8432 25.4371H12.7384C12.6822 25.4371 12.6367 25.3934 12.6367 25.3395V24.7869V24.5056C12.6367 24.3501 12.5056 24.2241 12.3438 24.2241C12.182 24.2241 12.0508 24.3501 12.0508 24.5056V24.7869V25.3395Z" fill="#78C081"/>
<path fill-rule="evenodd" clip-rule="evenodd" d="M20.1568 25.4371C20.1006 25.4371 20.0551 25.3934 20.0551 25.3395V24.7869V24.5056C20.0551 24.3501 19.924 24.2241 19.7621 24.2241C19.6003 24.2241 19.4692 24.3501 19.4692 24.5056V24.7869V25.3395C19.4692 25.7044 19.7771 26 20.1568 26H21.2616C21.6414 26 21.9492 25.7043 21.9492 25.3395V24.7869V24.5056C21.9492 24.3501 21.818 24.2241 21.6562 24.2241C21.4944 24.2241 21.3632 24.3501 21.3632 24.5056V24.7869V25.3395C21.3632 25.3934 21.3178 25.4371 21.2616 25.4371H20.1568Z" fill="#78C081"/>
<path fill-rule="evenodd" clip-rule="evenodd" d="M12.0508 20.5254C12.0508 22.2091 13.4716 23.574 15.2243 23.574C16.977 23.574 18.3978 22.2091 18.3978 20.5254C18.3978 18.8417 16.977 17.4768 15.2243 17.4768C13.4716 17.4768 12.0508 18.8417 12.0508 20.5254ZM15.2243 23.0111C13.7952 23.0111 12.6368 21.8982 12.6368 20.5254C12.6368 19.1525 13.7953 18.0396 15.2243 18.0396C16.6534 18.0396 17.8119 19.1525 17.8119 20.5254C17.8119 21.8982 16.6534 23.0111 15.2243 23.0111Z" fill="#78C081"/>
<path fill-rule="evenodd" clip-rule="evenodd" d="M15.2243 23.574C15.3861 23.574 15.5173 23.448 15.5173 23.2925V17.7582C15.5173 17.6028 15.3861 17.4768 15.2243 17.4768C15.0625 17.4768 14.9313 17.6028 14.9313 17.7582V23.2925C14.9313 23.448 15.0625 23.574 15.2243 23.574Z" fill="#78C081"/>
<path fill-rule="evenodd" clip-rule="evenodd" d="M12.0508 20.5254C12.0508 20.6808 12.182 20.8068 12.3438 20.8068H18.1048C18.2666 20.8068 18.3978 20.6808 18.3978 20.5254C18.3978 20.37 18.2666 20.2439 18.1048 20.2439H12.3438C12.182 20.2439 12.0508 20.37 12.0508 20.5254Z" fill="#78C081"/>
<path fill-rule="evenodd" clip-rule="evenodd" d="M12.9803 22.6811C13.0947 22.791 13.2802 22.791 13.3946 22.6811L17.4684 18.7677C17.5828 18.6578 17.5828 18.4796 17.4684 18.3697C17.3539 18.2598 17.1684 18.2598 17.054 18.3697L12.9803 22.2831C12.8659 22.393 12.8659 22.5712 12.9803 22.6811Z" fill="#78C081"/>
<path fill-rule="evenodd" clip-rule="evenodd" d="M17.4683 22.6811C17.5828 22.5712 17.5828 22.393 17.4683 22.2831L13.3946 18.3697C13.2802 18.2598 13.0947 18.2598 12.9803 18.3697C12.8659 18.4796 12.8659 18.6578 12.9803 18.7677L17.054 22.6811C17.1684 22.791 17.3539 22.791 17.4683 22.6811Z" fill="#78C081"/>
<path fill-rule="evenodd" clip-rule="evenodd" d="M15.422 13.1013C15.5778 13.0592 15.6685 12.9038 15.6247 12.7541L15.5646 12.5488L15.3506 11.8176C15.2671 11.5328 14.9967 11.3359 14.6886 11.3359H8.97298C8.66489 11.3359 8.39449 11.5328 8.31111 11.8176L8.097 12.5488L8.03689 12.7541C7.99308 12.9037 8.08383 13.0592 8.23959 13.1013C8.26309 13.1076 8.28674 13.111 8.31009 13.1117C8.3161 13.1119 8.32209 13.1119 8.32805 13.1117C8.45249 13.108 8.56544 13.0278 8.60094 12.9065L8.70567 12.5488L8.87516 11.97C8.88749 11.9279 8.92747 11.8988 8.97298 11.8988H14.6886C14.7341 11.8988 14.7741 11.9278 14.7865 11.97L14.956 12.5488L15.0607 12.9065C15.0962 13.0278 15.2091 13.108 15.3336 13.1117C15.3395 13.1119 15.3455 13.1119 15.3515 13.1117C15.3749 13.111 15.3985 13.1076 15.422 13.1013Z" fill="#78C081"/>
<path fill-rule="evenodd" clip-rule="evenodd" d="M10.1962 9.49457C10.1962 9.65001 10.3274 9.77601 10.4892 9.77601H13.1724C13.3342 9.77601 13.4654 9.65001 13.4654 9.49457C13.4654 9.33914 13.3342 9.21313 13.1724 9.21313H10.4892C10.3274 9.21313 10.1962 9.33914 10.1962 9.49457Z" fill="#78C081"/>
<path d="M14.7508 9.49457C14.7508 9.66205 14.6095 9.79781 14.4351 9.79781C14.2608 9.79781 14.1195 9.66205 14.1195 9.49457C14.1195 9.32706 14.2608 9.19129 14.4351 9.19129C14.6095 9.19129 14.7508 9.32706 14.7508 9.49457Z" fill="#78C081"/>
<path d="M9.54215 9.49457C9.54215 9.66205 9.40082 9.79781 9.22649 9.79781C9.05215 9.79781 8.91079 9.66205 8.91079 9.49457C8.91079 9.32706 9.05215 9.19129 9.22649 9.19129C9.40082 9.19129 9.54215 9.32706 9.54215 9.49457Z" fill="#78C081"/>
<path fill-rule="evenodd" clip-rule="evenodd" d="M25.7604 13.1013C25.9162 13.0592 26.0069 12.9037 25.9631 12.7541L25.903 12.5488L25.6889 11.8176C25.6055 11.5328 25.3351 11.3359 25.027 11.3359H19.3114C19.0033 11.3359 18.7329 11.5327 18.6495 11.8176L18.4354 12.5488L18.3753 12.7541C18.3315 12.9037 18.4222 13.0592 18.578 13.1013C18.6014 13.1076 18.6249 13.111 18.6482 13.1117C18.6544 13.1119 18.6606 13.1119 18.6667 13.1117C18.7911 13.1079 18.9039 13.0277 18.9393 12.9065L19.0441 12.5488L19.2135 11.97C19.2259 11.9279 19.2659 11.8988 19.3114 11.8988H25.027C25.0725 11.8988 25.1125 11.9278 25.1248 11.97L25.2943 12.5488L25.3991 12.9065C25.4345 13.0277 25.5473 13.1079 25.6717 13.1117C25.6778 13.1119 25.684 13.1119 25.6902 13.1117C25.7135 13.111 25.737 13.1076 25.7604 13.1013Z" fill="#78C081"/>
<path fill-rule="evenodd" clip-rule="evenodd" d="M20.5346 9.49457C20.5346 9.65001 20.6658 9.77601 20.8276 9.77601H23.5108C23.6726 9.77601 23.8038 9.65001 23.8038 9.49457C23.8038 9.33914 23.6726 9.21313 23.5108 9.21313H20.8276C20.6658 9.21313 20.5346 9.33914 20.5346 9.49457Z" fill="#78C081"/>
<path d="M25.0892 9.49457C25.0892 9.66205 24.9479 9.79781 24.7735 9.79781C24.5992 9.79781 24.4579 9.66205 24.4579 9.49457C24.4579 9.32706 24.5992 9.19129 24.7735 9.19129C24.9479 9.19129 25.0892 9.32706 25.0892 9.49457Z" fill="#78C081"/>
<path d="M19.8806 9.49457C19.8806 9.66205 19.7392 9.79781 19.5649 9.79781C19.3905 9.79781 19.2492 9.66205 19.2492 9.49457C19.2492 9.32706 19.3905 9.19129 19.5649 9.19129C19.7392 9.19129 19.8806 9.32706 19.8806 9.49457Z" fill="#78C081"/>
<path fill-rule="evenodd" clip-rule="evenodd" d="M15.9741 16.8266C16.1359 16.8266 16.267 16.7006 16.267 16.5452V16.2638V14.574C16.267 14.2093 15.9592 13.9135 15.5795 13.9135H14.2773C14.2211 13.9135 14.1757 13.8698 14.1757 13.8159V13.1117V12.8303C14.1757 12.6749 14.0445 12.5489 13.8827 12.5489C13.7209 12.5489 13.5897 12.6749 13.5897 12.8303V13.1117V13.8159C13.5897 14.1807 13.8976 14.4764 14.2773 14.4764H15.5795C15.6356 14.4764 15.6811 14.5201 15.6811 14.574V16.2638V16.5452C15.6811 16.7006 15.8123 16.8266 15.9741 16.8266Z" fill="#78C081"/>
<path fill-rule="evenodd" clip-rule="evenodd" d="M18.026 16.8266C18.1878 16.8266 18.3189 16.7006 18.3189 16.5452V16.2638V14.574C18.3189 14.5201 18.3644 14.4764 18.4205 14.4764H19.7227C20.1024 14.4764 20.4103 14.1807 20.4103 13.8159V13.1117V12.8303C20.4103 12.6749 20.2791 12.5489 20.1173 12.5489C19.9555 12.5489 19.8243 12.6749 19.8243 12.8303V13.1117V13.8159C19.8243 13.8698 19.7789 13.9135 19.7227 13.9135H18.4205C18.0408 13.9135 17.733 14.2093 17.733 14.574V16.2638V16.5452C17.733 16.7006 17.8642 16.8266 18.026 16.8266Z" fill="#78C081"/>
<path fill-rule="evenodd" clip-rule="evenodd" d="M22.9189 23.8014C22.7571 23.8014 22.626 23.6754 22.626 23.52C22.626 23.3646 22.7571 23.2386 22.9189 23.2386H23.2117V21.9819H22.9189C22.7571 21.9819 22.626 21.8559 22.626 21.7005C22.626 21.545 22.7571 21.419 22.9189 21.419H23.2117V17.1517C23.2117 16.6611 22.7981 16.2638 22.2875 16.2638H18.3189V16.5452C18.3189 16.7006 18.1878 16.8266 18.026 16.8266C17.8642 16.8266 17.733 16.7006 17.733 16.5452V16.2638H16.267V16.5452C16.267 16.7006 16.1359 16.8266 15.9741 16.8266C15.8123 16.8266 15.6811 16.7006 15.6811 16.5452V16.2638H14.1195H11.7125C11.2019 16.2638 10.7883 16.6611 10.7883 17.1517V23.8991C10.7883 24.3896 11.2019 24.7869 11.7125 24.7869H12.0508V24.5056C12.0508 24.3501 12.182 24.2241 12.3438 24.2241C12.5056 24.2241 12.6367 24.3501 12.6367 24.5056V24.7869H13.9449V24.5056C13.9449 24.3501 14.076 24.2241 14.2378 24.2241C14.3996 24.2241 14.5308 24.3501 14.5308 24.5056V24.7869H19.4692V24.5056C19.4692 24.3501 19.6003 24.2241 19.7621 24.2241C19.924 24.2241 20.0551 24.3501 20.0551 24.5056V24.7869H21.3632V24.5056C21.3632 24.3501 21.4944 24.2241 21.6562 24.2241C21.818 24.2241 21.9492 24.3501 21.9492 24.5056V24.7869H22.2875C22.7981 24.7869 23.2117 24.3896 23.2117 23.8991V23.8014H22.9189ZM14.1195 16.8267H22.2875C22.4745 16.8267 22.6258 16.972 22.6258 17.1517V23.8991C22.6258 24.0788 22.4745 24.2241 22.2875 24.2241H11.7125C11.5255 24.2241 11.3742 24.0787 11.3742 23.8991V17.1517C11.3742 16.972 11.5255 16.8267 11.7125 16.8267H14.1195Z" fill="#78C081"/>
<path d="M15.6247 12.7541C15.6685 12.9038 15.5778 13.0592 15.422 13.1013C15.3985 13.1076 15.3749 13.111 15.3515 13.1117H15.7371C16.2475 13.1117 16.6617 12.7146 16.6617 12.2239V8.88823C16.6617 8.3977 16.2477 8.00001 15.7371 8.00001H9.91016H7.92422C7.41386 8.00001 7 8.39781 7 8.88823V12.2239C7 12.7145 7.4141 13.1117 7.92422 13.1117H8.31009C8.28674 13.111 8.26309 13.1076 8.23959 13.1013C8.08383 13.0592 7.99308 12.9037 8.03689 12.7541L8.097 12.5488H7.92422C7.73747 12.5488 7.58594 12.4034 7.58594 12.2239V8.88823C7.58594 8.70845 7.7377 8.56289 7.92422 8.56289H9.91016H15.7371C15.9241 8.56289 16.0758 8.70857 16.0758 8.88823V12.2239C16.0758 12.4033 15.9244 12.5488 15.7371 12.5488H15.5646L15.6247 12.7541Z" fill="#78C081"/>
<path d="M15.0607 12.9065L14.956 12.5488H8.70567L8.60094 12.9065C8.56544 13.0278 8.45249 13.108 8.32805 13.1117H13.5897V12.8303C13.5897 12.6749 13.7209 12.5489 13.8827 12.5489C14.0445 12.5489 14.1757 12.6749 14.1757 12.8303V13.1117H15.3336C15.2091 13.108 15.0962 13.0278 15.0607 12.9065Z" fill="#78C081"/>
<path d="M25.9631 12.7541C26.0069 12.9037 25.9162 13.0592 25.7604 13.1013C25.737 13.1076 25.7135 13.111 25.6902 13.1117H26.0758C26.5859 13.1117 27 12.7145 27 12.2238V8.88822C27 8.39785 26.5862 8 26.0758 8H18.2629C17.7522 8 17.3383 8.39774 17.3383 8.88822V12.2238C17.3383 12.7147 17.7525 13.1117 18.2629 13.1117H18.6482C18.6249 13.111 18.6014 13.1076 18.578 13.1013C18.4222 13.0592 18.3315 12.9037 18.3753 12.7541L18.4354 12.5488H18.2629C18.0756 12.5488 17.9242 12.4033 17.9242 12.2238V8.88822C17.9242 8.70858 18.0759 8.56288 18.2629 8.56288H26.0758C26.2623 8.56288 26.4141 8.70847 26.4141 8.88822V12.2238C26.4141 12.4034 26.2625 12.5488 26.0758 12.5488H25.903L25.9631 12.7541Z" fill="#78C081"/>
<path d="M25.3991 12.9065L25.2943 12.5488H24.4578H19.0441L18.9393 12.9065C18.9039 13.0277 18.7911 13.1079 18.6667 13.1117H19.8243V12.8303C19.8243 12.6749 19.9555 12.5489 20.1173 12.5489C20.2791 12.5489 20.4103 12.6749 20.4103 12.8303V13.1117H24.4578H25.6717C25.5473 13.1079 25.4345 13.0277 25.3991 12.9065Z" fill="#78C081"/>
</g>
<defs>
<clipPath id="clip0_38_1486">
<rect width="20" height="18" fill="white" transform="translate(7 8)"/>
</clipPath>
</defs>
</svg>
